<svg viewBox="0 0 330 200" xmlns="http://www.w3.org/2000/svg"><g><g><g><g><g><line x1="51.53200149536133" y1="176.55199909210205" x2="46.53200149536133" y2="176.55199909210205" style="visibility: inherit;" fill="rgb(0, 0, 0)" stroke="rgb(204, 204, 204)" stroke-width="1px"></line><line x1="51.53200149536133" y1="151.3302849360875" x2="46.53200149536133" y2="151.3302849360875" style="visibility: inherit;" fill="rgb(0, 0, 0)" stroke="rgb(204, 204, 204)" stroke-width="1px"></line><line x1="51.53200149536133" y1="126.10857078007291" x2="46.53200149536133" y2="126.10857078007291" style="visibility: inherit;" fill="rgb(0, 0, 0)" stroke="rgb(204, 204, 204)" stroke-width="1px"></line><line x1="51.53200149536133" y1="100.88685662405835" x2="46.53200149536133" y2="100.88685662405835" style="visibility: inherit;" fill="rgb(0, 0, 0)" stroke="rgb(204, 204, 204)" stroke-width="1px"></line><line x1="51.53200149536133" y1="75.66514246804375" x2="46.53200149536133" y2="75.66514246804375" style="visibility: inherit;" fill="rgb(0, 0, 0)" stroke="rgb(204, 204, 204)" stroke-width="1px"></line><line x1="51.53200149536133" y1="50.443428312029155" x2="46.53200149536133" y2="50.443428312029155" style="visibility: inherit;" fill="rgb(0, 0, 0)" stroke="rgb(204, 204, 204)" stroke-width="1px"></line><line x1="51.53200149536133" y1="25.221714156014606" x2="46.53200149536133" y2="25.221714156014606" style="visibility: inherit;" fill="rgb(0, 0, 0)" stroke="rgb(204, 204, 204)" stroke-width="1px"></line><line x1="51.53200149536133" y1="0" x2="46.53200149536133" y2="0" style="visibility: inherit;" fill="rgb(0, 0, 0)" stroke="rgb(204, 204, 204)" stroke-width="1px"></line></g><g transform="translate(41.53200149536133, 0)"><text style="text-anchor: end; visibility: hidden; font-family: Roboto, sans-serif; font-size: 12px; font-weight: 200;" x="0" y="176.55199909210205" dx="0em" dy="0.3em" fill="rgb(255, 255, 255)" stroke="none" stroke-width="1px">0.55</text><text style="text-anchor: end; visibility: inherit; font-family: Roboto, sans-serif; font-size: 12px; font-weight: 200;" x="0" y="151.3302849360875" dx="0em" dy="0.3em" fill="rgb(255, 255, 255)" stroke="none" stroke-width="1px">0.6</text><text style="text-anchor: end; visibility: inherit; font-family: Roboto, sans-serif; font-size: 12px; font-weight: 200;" x="0" y="126.10857078007291" dx="0em" dy="0.3em" fill="rgb(255, 255, 255)" stroke="none" stroke-width="1px">0.65</text><text style="text-anchor: end; visibility: inherit; font-family: Roboto, sans-serif; font-size: 12px; font-weight: 200;" x="0" y="100.88685662405835" dx="0em" dy="0.3em" fill="rgb(255, 255, 255)" stroke="none" stroke-width="1px">0.7</text><text style="text-anchor: end; visibility: inherit; font-family: Roboto, sans-serif; font-size: 12px; font-weight: 200;" x="0" y="75.66514246804375" dx="0em" dy="0.3em" fill="rgb(255, 255, 255)" stroke="none" stroke-width="1px">0.75</text><text style="text-anchor: end; visibility: inherit; font-family: Roboto, sans-serif; font-size: 12px; font-weight: 200;" x="0" y="50.443428312029155" dx="0em" dy="0.3em" fill="rgb(255, 255, 255)" stroke="none" stroke-width="1px">0.8</text><text style="text-anchor: end; visibility: inherit; font-family: Roboto, sans-serif; font-size: 12px; font-weight: 200;" x="0" y="25.221714156014606" dx="0em" dy="0.3em" fill="rgb(255, 255, 255)" stroke="none" stroke-width="1px">0.85</text><text style="text-anchor: end; visibility: hidden; font-family: Roboto, sans-serif; font-size: 12px; font-weight: 200;" x="0" y="0" dx="0em" dy="0.3em" fill="rgb(255, 255, 255)" stroke="none" stroke-width="1px">0.9</text></g><line x1="51.53200149536133" y1="0" x2="51.53200149536133" y2="176.55199909210205" fill="rgb(0, 0, 0)" stroke="rgb(204, 204, 204)" stroke-width="1px"></line></g></g><g transform="translate(51, 0)" clip-path="url(#clip_0)"><clipPath id="clip_0"><rect width="278" height="176"></rect></clipPath><g><g><g><line x1="0" y1="0" x2="0" y2="176.55199909210205" fill="rgb(0, 0, 0)" stroke="rgb(189, 189, 189)" stroke-width="1px" opacity="0.25"></line><line x1="30.94088872273763" y1="0" x2="30.94088872273763" y2="176.55199909210205" fill="rgb(0, 0, 0)" stroke="rgb(189, 189, 189)" stroke-width="1px" opacity="0.25"></line><line x1="61.88177744547526" y1="0" x2="61.88177744547526" y2="176.55199909210205" fill="rgb(0, 0, 0)" stroke="rgb(189, 189, 189)" stroke-width="1px" opacity="0.25"></line><line x1="92.82266616821289" y1="0" x2="92.82266616821289" y2="176.55199909210205" fill="rgb(0, 0, 0)" stroke="rgb(189, 189, 189)" stroke-width="1px" opacity="0.25"></line><line x1="123.76355489095052" y1="0" x2="123.76355489095052" y2="176.55199909210205" fill="rgb(0, 0, 0)" stroke="rgb(189, 189, 189)" stroke-width="1px" opacity="0.25"></line><line x1="154.70444361368817" y1="0" x2="154.70444361368817" y2="176.55199909210205" fill="rgb(0, 0, 0)" stroke="rgb(189, 189, 189)" stroke-width="1px" opacity="0.25"></line><line x1="185.64533233642578" y1="0" x2="185.64533233642578" y2="176.55199909210205" fill="rgb(0, 0, 0)" stroke="rgb(189, 189, 189)" stroke-width="1px" opacity="0.25"></line><line x1="216.58622105916342" y1="0" x2="216.58622105916342" y2="176.55199909210205" fill="rgb(0, 0, 0)" stroke="rgb(189, 189, 189)" stroke-width="1px" opacity="0.25"></line><line x1="247.52710978190103" y1="0" x2="247.52710978190103" y2="176.55199909210205" fill="rgb(0, 0, 0)" stroke="rgb(189, 189, 189)" stroke-width="1px" opacity="0.25"></line><line x1="278.4679985046387" y1="0" x2="278.4679985046387" y2="176.55199909210205" fill="rgb(0, 0, 0)" stroke="rgb(189, 189, 189)" stroke-width="1px" opacity="0.25"></line></g><g><line x1="0" y1="176.55199909210205" x2="278.4679985046387" y2="176.55199909210205" fill="rgb(0, 0, 0)" stroke="rgb(189, 189, 189)" stroke-width="1px" opacity="0.25"></line><line x1="0" y1="151.3302849360875" x2="278.4679985046387" y2="151.3302849360875" fill="rgb(0, 0, 0)" stroke="rgb(189, 189, 189)" stroke-width="1px" opacity="0.25"></line><line x1="0" y1="126.10857078007291" x2="278.4679985046387" y2="126.10857078007291" fill="rgb(0, 0, 0)" stroke="rgb(189, 189, 189)" stroke-width="1px" opacity="0.25"></line><line x1="0" y1="100.88685662405835" x2="278.4679985046387" y2="100.88685662405835" fill="rgb(0, 0, 0)" stroke="rgb(189, 189, 189)" stroke-width="1px" opacity="0.25"></line><line x1="0" y1="75.66514246804375" x2="278.4679985046387" y2="75.66514246804375" fill="rgb(0, 0, 0)" stroke="rgb(189, 189, 189)" stroke-width="1px" opacity="0.25"></line><line x1="0" y1="50.443428312029155" x2="278.4679985046387" y2="50.443428312029155" fill="rgb(0, 0, 0)" stroke="rgb(189, 189, 189)" stroke-width="1px" opacity="0.25"></line><line x1="0" y1="25.221714156014606" x2="278.4679985046387" y2="25.221714156014606" fill="rgb(0, 0, 0)" stroke="rgb(189, 189, 189)" stroke-width="1px" opacity="0.25"></line><line x1="0" y1="0" x2="278.4679985046387" y2="0" fill="rgb(0, 0, 0)" stroke="rgb(189, 189, 189)" stroke-width="1px" opacity="0.25"></line></g></g></g><g><g><line x1="0" y1="453.99085480826244" x2="278.4679985046387" y2="453.99085480826244" fill="rgb(0, 0, 0)" stroke="rgb(153, 153, 153)" stroke-width="1.5px"></line></g></g><g><g><line x1="30.94088872273763" y1="0" x2="30.94088872273763" y2="176.55199909210205" fill="rgb(0, 0, 0)" stroke="rgb(153, 153, 153)" stroke-width="1.5px"></line></g></g><g><g><g><g><g><path style="fill: none;" stroke="rgb(255, 112, 67)" stroke-width="2px" d="M43.16253976821899,238.19799483601912L46.25662864049276,167.70317684158147L49.35071751276652,129.08625183925793L52.44480638504028,107.10240096287934L55.538895257314046,94.31267935445452L58.63298412958781,86.77772966757048L61.72707300186158,82.3056538554457L64.82116187413534,79.63977757984044L67.9152507464091,78.04645521915144L71.00933961868286,77.0926844278617L74.10342849095663,76.52121982047183L77.19751736323038,76.17862779787573L80.29160623550415,74.3963737377333L83.38569510777792,67.02084712583108L86.47978398005166,70.47891646408829L89.57387285232544,72.55353328446708L92.66796172459921,64.33973383987062L95.76205059687297,56.258862943466625L98.85613946914673,57.715965392924566L101.95022834142048,58.59021458817878L105.04431721369426,59.11475968661581L108.13840608596801,57.85312353856448L111.23249495824177,50.79070485040223L114.32658383051555,56.01141383655143L117.42067270278932,52.83840339736456L120.51476157506306,47.78188294977007L123.60885044733683,46.32432935684515L126.7029393196106,40.7207253757781L129.79702819188435,38.93492072304911L132.89111706415812,44.16886686247271L135.9852059364319,33.122019766932276L139.07929480870567,31.222983197720126L142.1733836809794,33.23627557910643L145.26747255325316,29.715179561128625L148.36156142552693,29.17887910489236L151.4556502978007,35.16252738547665L154.54973917007447,29.29457352414676L157.64382804234822,27.350158348384277L160.737916914622,35.64165205698178L163.83200578689576,40.616548279586624L166.9260946591695,29.41427179701415L170.02018353144328,30.574691583286608L173.11427240371705,34.42365772467138L176.2083612759908,36.73303740934858L179.30245014826454,33.38959381574057L182.39653902053834,31.383527659623926L185.49062789281209,33.33260223549844L188.58471676508583,26.620261307220336L191.67880563735963,24.169213885029855L194.77289450963337,27.427656835981097L197.86698338190715,23.077294067537938L200.96107225418092,25.19614781073069L204.05516112645466,23.314745787142446L207.14924999872844,19.03319030348746L210.2433388710022,19.6169712827973L213.33742774327595,23.119954139885227L216.43151661554973,15.763601045631901L219.5256054878235,14.502503458582055L222.61969436009724,13.745844906352119L225.71378323237101,16.444564044516046L228.80787210464476,18.063795527414385L231.90196097691853,17.45897728240245L234.9960498491923,20.2488006048971L238.09013872146605,23.499051733144874L241.18422759373985,25.449202410093488L244.2783164660136,21.890221412009936L247.37240533828734,22.907547082661576L250.46649421056114,21.9415853503017L253.56058308283488,21.362008310885763L256.65467195510865,22.590619221987122L259.7487608273824,17.022357229644296L262.84284969965614,18.410471438491303" fill="none"></path></g></g></g></g><g opacity="0.2"><g><g><g><path style="fill: none;" stroke="rgb(255, 112, 67)" stroke-width="2px" d="M40.06845089594523,296.35514133317133L43.16253976821899,83.5469281417983L46.25662864049276,75.66514246804375L49.35071751276652,75.66514246804375L52.44480638504028,75.66514246804375L55.538895257314046,75.66514246804375L58.63298412958781,75.66514246804375L61.72707300186158,75.66514246804375L64.82116187413534,75.66514246804375L67.9152507464091,75.66514246804375L71.00933961868286,75.66514246804375L74.10342849095663,75.66514246804375L77.19751736323038,75.66514246804375L80.29160623550415,71.72424963116647L83.38569510777792,55.960678283657366L86.47978398005166,75.66514246804375L89.57387285232544,75.66514246804375L92.66796172459921,52.01978544678008L95.76205059687297,44.137999773025534L98.85613946914673,59.90157112053465L101.95022834142048,59.90157112053465L105.04431721369426,59.90157112053465L108.13840608596801,55.960678283657366L111.23249495824177,40.19710693614825L114.32658383051555,63.84246395741191L117.42067270278932,48.078892609902795L120.51476157506306,40.19710693614825L123.60885044733683,44.137999773025534L126.7029393196106,32.3153212623937L129.79702819188435,36.25621409927096L132.89111706415812,52.01978544678008L135.9852059364319,16.55174991488459L139.07929480870567,28.374428425516417L142.1733836809794,36.25621409927096L145.26747255325316,24.433535588639135L148.36156142552693,28.374428425516417L151.4556502978007,44.137999773025534L154.54973917007447,20.49264275176185L157.64382804234822,24.433535588639135L160.737916914622,48.078892609902795L163.83200578689576,48.078892609902795L166.9260946591695,12.610857078007303L170.02018353144328,32.3153212623937L173.11427240371705,40.19710693614825L176.2083612759908,40.19710693614825L179.30245014826454,28.374428425516417L182.39653902053834,28.374428425516417L185.49062789281209,36.25621409927096L188.58471676508583,16.55174991488459L191.67880563735963,20.49264275176185L194.77289450963337,32.3153212623937L197.86698338190715,16.55174991488459L200.96107225418092,28.374428425516417L204.05516112645466,20.49264275176185L207.14924999872844,12.610857078007303L210.2433388710022,20.49264275176185L213.33742774327595,28.374428425516417L216.43151661554973,4.729071404252736L219.5256054878235,12.610857078007303L222.61969436009724,12.610857078007303L225.71378323237101,20.49264275176185L228.80787210464476,20.49264275176185L231.90196097691853,16.55174991488459L234.9960498491923,24.433535588639135L238.09013872146605,28.374428425516417L241.18422759373985,28.374428425516417L244.2783164660136,16.55174991488459L247.37240533828734,24.433535588639135L250.46649421056114,20.49264275176185L253.56058308283488,20.49264275176185L256.65467195510865,24.433535588639135L259.7487608273824,8.66996424113002L262.84284969965614,20.49264275176185" fill="none"></path></g></g></g></g></g></g><g transform="translate(51, 176)" clip-path="url(#clip_1)"><clipPath id="clip_1"><rect width="278" height="23"></rect></clipPath><g><g><line x1="0" y1="0" x2="0" y2="5" style="visibility: inherit;" fill="rgb(0, 0, 0)" stroke="rgb(204, 204, 204)" stroke-width="1px"></line><line x1="30.94088872273763" y1="0" x2="30.94088872273763" y2="5" style="visibility: inherit;" fill="rgb(0, 0, 0)" stroke="rgb(204, 204, 204)" stroke-width="1px"></line><line x1="61.88177744547526" y1="0" x2="61.88177744547526" y2="5" style="visibility: inherit;" fill="rgb(0, 0, 0)" stroke="rgb(204, 204, 204)" stroke-width="1px"></line><line x1="92.82266616821289" y1="0" x2="92.82266616821289" y2="5" style="visibility: inherit;" fill="rgb(0, 0, 0)" stroke="rgb(204, 204, 204)" stroke-width="1px"></line><line x1="123.76355489095052" y1="0" x2="123.76355489095052" y2="5" style="visibility: inherit;" fill="rgb(0, 0, 0)" stroke="rgb(204, 204, 204)" stroke-width="1px"></line><line x1="154.70444361368817" y1="0" x2="154.70444361368817" y2="5" style="visibility: inherit;" fill="rgb(0, 0, 0)" stroke="rgb(204, 204, 204)" stroke-width="1px"></line><line x1="185.64533233642578" y1="0" x2="185.64533233642578" y2="5" style="visibility: inherit;" fill="rgb(0, 0, 0)" stroke="rgb(204, 204, 204)" stroke-width="1px"></line><line x1="216.58622105916342" y1="0" x2="216.58622105916342" y2="5" style="visibility: inherit;" fill="rgb(0, 0, 0)" stroke="rgb(204, 204, 204)" stroke-width="1px"></line><line x1="247.52710978190103" y1="0" x2="247.52710978190103" y2="5" style="visibility: inherit;" fill="rgb(0, 0, 0)" stroke="rgb(204, 204, 204)" stroke-width="1px"></line><line x1="278.4679985046387" y1="0" x2="278.4679985046387" y2="5" style="visibility: inherit;" fill="rgb(0, 0, 0)" stroke="rgb(204, 204, 204)" stroke-width="1px"></line></g><g transform="translate(0, 8)"><text style="text-anchor: middle; visibility: hidden; font-family: Roboto, sans-serif; font-size: 12px; font-weight: 200;" x="0" y="0" dx="0em" dy="0.95em" fill="rgb(255, 255, 255)" stroke="none" stroke-width="1px">-200</text><text style="text-anchor: middle; visibility: inherit; font-family: Roboto, sans-serif; font-size: 12px; font-weight: 200;" x="30.94088872273763" y="0" dx="0em" dy="0.95em" fill="rgb(255, 255, 255)" stroke="none" stroke-width="1px">0</text><text style="text-anchor: middle; visibility: inherit; font-family: Roboto, sans-serif; font-size: 12px; font-weight: 200;" x="61.88177744547526" y="0" dx="0em" dy="0.95em" fill="rgb(255, 255, 255)" stroke="none" stroke-width="1px">200</text><text style="text-anchor: middle; visibility: inherit; font-family: Roboto, sans-serif; font-size: 12px; font-weight: 200;" x="92.82266616821289" y="0" dx="0em" dy="0.95em" fill="rgb(255, 255, 255)" stroke="none" stroke-width="1px">400</text><text style="text-anchor: middle; visibility: inherit; font-family: Roboto, sans-serif; font-size: 12px; font-weight: 200;" x="123.76355489095052" y="0" dx="0em" dy="0.95em" fill="rgb(255, 255, 255)" stroke="none" stroke-width="1px">600</text><text style="text-anchor: middle; visibility: inherit; font-family: Roboto, sans-serif; font-size: 12px; font-weight: 200;" x="154.70444361368817" y="0" dx="0em" dy="0.95em" fill="rgb(255, 255, 255)" stroke="none" stroke-width="1px">800</text><text style="text-anchor: middle; visibility: inherit; font-family: Roboto, sans-serif; font-size: 12px; font-weight: 200;" x="185.64533233642578" y="0" dx="0em" dy="0.95em" fill="rgb(255, 255, 255)" stroke="none" stroke-width="1px">1k</text><text style="text-anchor: middle; visibility: inherit; font-family: Roboto, sans-serif; font-size: 12px; font-weight: 200;" x="216.58622105916342" y="0" dx="0em" dy="0.95em" fill="rgb(255, 255, 255)" stroke="none" stroke-width="1px">1.2k</text><text style="text-anchor: middle; visibility: inherit; font-family: Roboto, sans-serif; font-size: 12px; font-weight: 200;" x="247.52710978190103" y="0" dx="0em" dy="0.95em" fill="rgb(255, 255, 255)" stroke="none" stroke-width="1px">1.4k</text><text style="text-anchor: middle; visibility: hidden; font-family: Roboto, sans-serif; font-size: 12px; font-weight: 200;" x="278.4679985046387" y="0" dx="0em" dy="0.95em" fill="rgb(255, 255, 255)" stroke="none" stroke-width="1px">1.6k</text></g><line x1="0" y1="0" x2="278.4679985046387" y2="0" fill="rgb(0, 0, 0)" stroke="rgb(204, 204, 204)" stroke-width="1px"></line></g></g></g></g></svg>