<svg viewBox="0 0 330 200" xmlns="http://www.w3.org/2000/svg"><g><g><g><g><g><line x1="41.149001121520996" y1="176.55199909210205" x2="36.149001121520996" y2="176.55199909210205" style="visibility: inherit;" fill="rgb(0, 0, 0)" stroke="rgb(204, 204, 204)" stroke-width="1px"></line><line x1="41.149001121520996" y1="160.5018173564564" x2="36.149001121520996" y2="160.5018173564564" style="visibility: inherit;" fill="rgb(0, 0, 0)" stroke="rgb(204, 204, 204)" stroke-width="1px"></line><line x1="41.149001121520996" y1="144.45163562081075" x2="36.149001121520996" y2="144.45163562081075" style="visibility: inherit;" fill="rgb(0, 0, 0)" stroke="rgb(204, 204, 204)" stroke-width="1px"></line><line x1="41.149001121520996" y1="128.40145388516513" x2="36.149001121520996" y2="128.40145388516513" style="visibility: inherit;" fill="rgb(0, 0, 0)" stroke="rgb(204, 204, 204)" stroke-width="1px"></line><line x1="41.149001121520996" y1="112.35127214951949" x2="36.149001121520996" y2="112.35127214951949" style="visibility: inherit;" fill="rgb(0, 0, 0)" stroke="rgb(204, 204, 204)" stroke-width="1px"></line><line x1="41.149001121520996" y1="96.30109041387384" x2="36.149001121520996" y2="96.30109041387384" style="visibility: inherit;" fill="rgb(0, 0, 0)" stroke="rgb(204, 204, 204)" stroke-width="1px"></line><line x1="41.149001121520996" y1="80.25090867822821" x2="36.149001121520996" y2="80.25090867822821" style="visibility: inherit;" fill="rgb(0, 0, 0)" stroke="rgb(204, 204, 204)" stroke-width="1px"></line><line x1="41.149001121520996" y1="64.20072694258259" x2="36.149001121520996" y2="64.20072694258259" style="visibility: inherit;" fill="rgb(0, 0, 0)" stroke="rgb(204, 204, 204)" stroke-width="1px"></line><line x1="41.149001121520996" y1="48.15054520693692" x2="36.149001121520996" y2="48.15054520693692" style="visibility: inherit;" fill="rgb(0, 0, 0)" stroke="rgb(204, 204, 204)" stroke-width="1px"></line><line x1="41.149001121520996" y1="32.100363471291296" x2="36.149001121520996" y2="32.100363471291296" style="visibility: inherit;" fill="rgb(0, 0, 0)" stroke="rgb(204, 204, 204)" stroke-width="1px"></line><line x1="41.149001121520996" y1="16.050181735645648" x2="36.149001121520996" y2="16.050181735645648" style="visibility: inherit;" fill="rgb(0, 0, 0)" stroke="rgb(204, 204, 204)" stroke-width="1px"></line><line x1="41.149001121520996" y1="0" x2="36.149001121520996" y2="0" style="visibility: inherit;" fill="rgb(0, 0, 0)" stroke="rgb(204, 204, 204)" stroke-width="1px"></line></g><g transform="translate(31.149001121520996, 0)"><text style="text-anchor: end; visibility: hidden; font-family: Roboto, sans-serif; font-size: 12px; font-weight: 200;" x="0" y="176.55199909210205" dx="0em" dy="0.3em" fill="rgb(255, 255, 255)" stroke="none" stroke-width="1px">0</text><text style="text-anchor: end; visibility: inherit; font-family: Roboto, sans-serif; font-size: 12px; font-weight: 200;" x="0" y="160.5018173564564" dx="0em" dy="0.3em" fill="rgb(255, 255, 255)" stroke="none" stroke-width="1px">0.1</text><text style="text-anchor: end; visibility: hidden; font-family: Roboto, sans-serif; font-size: 12px; font-weight: 200;" x="0" y="144.45163562081075" dx="0em" dy="0.3em" fill="rgb(255, 255, 255)" stroke="none" stroke-width="1px">0.2</text><text style="text-anchor: end; visibility: inherit; font-family: Roboto, sans-serif; font-size: 12px; font-weight: 200;" x="0" y="128.40145388516513" dx="0em" dy="0.3em" fill="rgb(255, 255, 255)" stroke="none" stroke-width="1px">0.3</text><text style="text-anchor: end; visibility: hidden; font-family: Roboto, sans-serif; font-size: 12px; font-weight: 200;" x="0" y="112.35127214951949" dx="0em" dy="0.3em" fill="rgb(255, 255, 255)" stroke="none" stroke-width="1px">0.4</text><text style="text-anchor: end; visibility: inherit; font-family: Roboto, sans-serif; font-size: 12px; font-weight: 200;" x="0" y="96.30109041387384" dx="0em" dy="0.3em" fill="rgb(255, 255, 255)" stroke="none" stroke-width="1px">0.5</text><text style="text-anchor: end; visibility: hidden; font-family: Roboto, sans-serif; font-size: 12px; font-weight: 200;" x="0" y="80.25090867822821" dx="0em" dy="0.3em" fill="rgb(255, 255, 255)" stroke="none" stroke-width="1px">0.6</text><text style="text-anchor: end; visibility: inherit; font-family: Roboto, sans-serif; font-size: 12px; font-weight: 200;" x="0" y="64.20072694258259" dx="0em" dy="0.3em" fill="rgb(255, 255, 255)" stroke="none" stroke-width="1px">0.7</text><text style="text-anchor: end; visibility: hidden; font-family: Roboto, sans-serif; font-size: 12px; font-weight: 200;" x="0" y="48.15054520693692" dx="0em" dy="0.3em" fill="rgb(255, 255, 255)" stroke="none" stroke-width="1px">0.8</text><text style="text-anchor: end; visibility: inherit; font-family: Roboto, sans-serif; font-size: 12px; font-weight: 200;" x="0" y="32.100363471291296" dx="0em" dy="0.3em" fill="rgb(255, 255, 255)" stroke="none" stroke-width="1px">0.9</text><text style="text-anchor: end; visibility: hidden; font-family: Roboto, sans-serif; font-size: 12px; font-weight: 200;" x="0" y="16.050181735645648" dx="0em" dy="0.3em" fill="rgb(255, 255, 255)" stroke="none" stroke-width="1px">1</text><text style="text-anchor: end; visibility: hidden; font-family: Roboto, sans-serif; font-size: 12px; font-weight: 200;" x="0" y="0" dx="0em" dy="0.3em" fill="rgb(255, 255, 255)" stroke="none" stroke-width="1px">1.1</text></g><line x1="41.149001121520996" y1="0" x2="41.149001121520996" y2="176.55199909210205" fill="rgb(0, 0, 0)" stroke="rgb(204, 204, 204)" stroke-width="1px"></line></g></g><g transform="translate(41, 0)" clip-path="url(#clip_0)"><clipPath id="clip_0"><rect width="288" height="176"></rect></clipPath><g><g><g><line x1="0" y1="0" x2="0" y2="176.55199909210205" fill="rgb(0, 0, 0)" stroke="rgb(189, 189, 189)" stroke-width="1px" opacity="0.25"></line><line x1="32.09455543094211" y1="0" x2="32.09455543094211" y2="176.55199909210205" fill="rgb(0, 0, 0)" stroke="rgb(189, 189, 189)" stroke-width="1px" opacity="0.25"></line><line x1="64.18911086188422" y1="0" x2="64.18911086188422" y2="176.55199909210205" fill="rgb(0, 0, 0)" stroke="rgb(189, 189, 189)" stroke-width="1px" opacity="0.25"></line><line x1="96.28366629282633" y1="0" x2="96.28366629282633" y2="176.55199909210205" fill="rgb(0, 0, 0)" stroke="rgb(189, 189, 189)" stroke-width="1px" opacity="0.25"></line><line x1="128.37822172376843" y1="0" x2="128.37822172376843" y2="176.55199909210205" fill="rgb(0, 0, 0)" stroke="rgb(189, 189, 189)" stroke-width="1px" opacity="0.25"></line><line x1="160.47277715471057" y1="0" x2="160.47277715471057" y2="176.55199909210205" fill="rgb(0, 0, 0)" stroke="rgb(189, 189, 189)" stroke-width="1px" opacity="0.25"></line><line x1="192.56733258565265" y1="0" x2="192.56733258565265" y2="176.55199909210205" fill="rgb(0, 0, 0)" stroke="rgb(189, 189, 189)" stroke-width="1px" opacity="0.25"></line><line x1="224.6618880165948" y1="0" x2="224.6618880165948" y2="176.55199909210205" fill="rgb(0, 0, 0)" stroke="rgb(189, 189, 189)" stroke-width="1px" opacity="0.25"></line><line x1="256.75644344753687" y1="0" x2="256.75644344753687" y2="176.55199909210205" fill="rgb(0, 0, 0)" stroke="rgb(189, 189, 189)" stroke-width="1px" opacity="0.25"></line><line x1="288.850998878479" y1="0" x2="288.850998878479" y2="176.55199909210205" fill="rgb(0, 0, 0)" stroke="rgb(189, 189, 189)" stroke-width="1px" opacity="0.25"></line></g><g><line x1="0" y1="176.55199909210205" x2="288.850998878479" y2="176.55199909210205" fill="rgb(0, 0, 0)" stroke="rgb(189, 189, 189)" stroke-width="1px" opacity="0.25"></line><line x1="0" y1="160.5018173564564" x2="288.850998878479" y2="160.5018173564564" fill="rgb(0, 0, 0)" stroke="rgb(189, 189, 189)" stroke-width="1px" opacity="0.25"></line><line x1="0" y1="144.45163562081075" x2="288.850998878479" y2="144.45163562081075" fill="rgb(0, 0, 0)" stroke="rgb(189, 189, 189)" stroke-width="1px" opacity="0.25"></line><line x1="0" y1="128.40145388516513" x2="288.850998878479" y2="128.40145388516513" fill="rgb(0, 0, 0)" stroke="rgb(189, 189, 189)" stroke-width="1px" opacity="0.25"></line><line x1="0" y1="112.35127214951949" x2="288.850998878479" y2="112.35127214951949" fill="rgb(0, 0, 0)" stroke="rgb(189, 189, 189)" stroke-width="1px" opacity="0.25"></line><line x1="0" y1="96.30109041387384" x2="288.850998878479" y2="96.30109041387384" fill="rgb(0, 0, 0)" stroke="rgb(189, 189, 189)" stroke-width="1px" opacity="0.25"></line><line x1="0" y1="80.25090867822821" x2="288.850998878479" y2="80.25090867822821" fill="rgb(0, 0, 0)" stroke="rgb(189, 189, 189)" stroke-width="1px" opacity="0.25"></line><line x1="0" y1="64.20072694258259" x2="288.850998878479" y2="64.20072694258259" fill="rgb(0, 0, 0)" stroke="rgb(189, 189, 189)" stroke-width="1px" opacity="0.25"></line><line x1="0" y1="48.15054520693692" x2="288.850998878479" y2="48.15054520693692" fill="rgb(0, 0, 0)" stroke="rgb(189, 189, 189)" stroke-width="1px" opacity="0.25"></line><line x1="0" y1="32.100363471291296" x2="288.850998878479" y2="32.100363471291296" fill="rgb(0, 0, 0)" stroke="rgb(189, 189, 189)" stroke-width="1px" opacity="0.25"></line><line x1="0" y1="16.050181735645648" x2="288.850998878479" y2="16.050181735645648" fill="rgb(0, 0, 0)" stroke="rgb(189, 189, 189)" stroke-width="1px" opacity="0.25"></line><line x1="0" y1="0" x2="288.850998878479" y2="0" fill="rgb(0, 0, 0)" stroke="rgb(189, 189, 189)" stroke-width="1px" opacity="0.25"></line></g></g></g><g><g><line x1="0" y1="176.55199909210205" x2="288.850998878479" y2="176.55199909210205" fill="rgb(0, 0, 0)" stroke="rgb(153, 153, 153)" stroke-width="1.5px"></line></g></g><g><g><line x1="32.09455543094211" y1="0" x2="32.09455543094211" y2="176.55199909210205" fill="rgb(0, 0, 0)" stroke="rgb(153, 153, 153)" stroke-width="1.5px"></line></g></g><g><g><g><g><g><path style="fill: none;" stroke="rgb(255, 112, 67)" stroke-width="2px" d="M35.143538196881615,176.55199909210205L38.35299373997582,176.55199909210205L41.56244928307004,171.4339564468069L44.771904826164246,116.16097751094458L47.981360369258454,72.74026456190789L51.19081591235267,48.95448195824658L54.40027145544688,35.41370682647753L57.60972699854109,27.53598125094199L60.8191825416353,22.894889937457947L64.02863808472952,20.14035101319368L67.23809362782373,18.49832608407283L70.44754917091794,17.516932063533375L73.65700471401215,16.92946465917702L76.86646025710637,16.57747565652483L80.07591580020056,20.380891831260044L83.28537134329478,22.66179669525669L86.49482688638899,46.10266378758003L89.7042824294832,58.158167926752746L92.91373797257741,71.40987171012269L96.12319351567163,73.34133894130251L99.33264905876584,88.83100868545421L102.54210460186005,99.84427720316161L105.75156014495425,102.439568417157L108.96101568804848,110.58879991772883L112.17047123114267,110.89253513058192L115.37992677423689,121.10615640211601L118.5893823173311,115.19666939242751L121.79883786042532,119.6760768535185L125.00829340351952,122.3637195696744L128.21774894661374,121.97003140509851L131.42720448970795,123.74009154513136L134.63666003280215,128.81467323214275L137.84611557589636,125.84060354759602L141.05557111899057,128.0687073766349L144.2650266620848,127.39929688175707L147.474482205179,118.97255964159822L150.6839377482732,119.26657860256493L153.89339329136743,124.12429236381605L157.10284883446164,133.0577387732992L160.31230437755585,130.39271572770082L163.52175992065006,130.79997462118664L166.73121546374426,121.01296636746312L169.9406710068385,123.16585228838326L173.15012654993268,130.47640199244734L176.3595820930269,130.85018637974673L179.56903763612112,129.06818429502067L182.77849317921533,130.00525576128695L185.9879487223095,120.53613505602051L189.19740426540375,129.79024884016388L192.40685980849796,132.44476720531497L195.61631535159216,132.03120550742648L198.8257708946864,133.78934120565617L202.03522643778058,140.86304077546836L205.24468198087482,139.08844236647434L208.45413752396902,142.03622875499303L211.6635930670632,145.81117330505955L214.87304861015744,142.05732188423005L218.08250415325165,135.79246559782095L221.29195969634586,142.0649154107554L224.5014152394401,147.83465801547152L227.71087078253427,155.1752976253042L230.92032632562848,147.67579647637757L234.12978186872272,153.20745937180033L237.33923741181692,150.50763895818676L240.5486929549111,154.9065648608858L243.75814849800534,148.40623400600268L246.96760404109955,147.6269037387082L250.17705958419378,151.17185101224294L253.38651512728796,149.28627394245234L256.5959706703822,150.1612004175337L259.8054262134764,148.6798835856268L263.0148817565706,151.80363892039406L266.2243372996648,149.66534668734303L269.43379284275903,150.38864406446814L272.6432483858532,154.83516792465457" fill="none"></path></g></g></g></g><g opacity="0.2"><g><g><g><path style="fill: none;" stroke="rgb(255, 112, 67)" stroke-width="2px" d="M35.143538196881615,176.55199909210205L38.35299373997582,176.55199909210205L41.56244928307004,166.52063550732353L44.771904826164246,51.159954282370485L47.981360369258454,16.050181735645648L51.19081591235267,16.050181735645648L54.40027145544688,16.050181735645648L57.60972699854109,16.050181735645648L60.8191825416353,16.050181735645648L64.02863808472952,16.050181735645648L67.23809362782373,16.050181735645648L70.44754917091794,16.050181735645648L73.65700471401215,16.050181735645648L76.86646025710637,16.050181735645648L80.07591580020056,26.081545320424183L83.28537134329478,26.081545320424183L86.49482688638899,81.25404503670607L89.7042824294832,76.2383632443168L92.91373797257741,91.28540862148459L96.12319351567163,76.2383632443168L99.33264905876584,112.0646638113802L102.54210460186005,116.36381758343092L105.75156014495425,106.33245399865237L108.96101568804848,122.81255063317039L112.17047123114267,111.34813579104164L115.37992677423689,136.42654475298795L118.5893823173311,106.33245399865237L121.79883786042532,126.39518116820943L125.00829340351952,126.39518116820943L128.21774894661374,121.37949937582016L131.42720448970795,126.39518116820943L134.63666003280215,136.42654475298795L137.84611557589636,121.37949937582016L141.05557111899057,131.4108629605987L144.2650266620848,126.39518116820943L147.474482205179,106.33245399865237L150.6839377482732,119.70760703946604L153.89339329136743,131.4108629605987L157.10284883446164,146.45790833776647L160.31230437755585,126.39518116820943L163.52175992065006,131.4108629605987L166.73121546374426,106.33245399865237L169.9406710068385,126.39518116820943L173.15012654993268,141.44222654537722L176.3595820930269,131.4108629605987L179.56903763612112,126.39518116820943L182.77849317921533,131.4108629605987L185.9879487223095,106.33245399865237L189.19740426540375,143.67141951606732L192.40685980849796,136.42654475298795L195.61631535159216,131.4108629605987L198.8257708946864,136.42654475298795L202.03522643778058,151.47359013015574L205.24468198087482,136.42654475298795L208.45413752396902,146.45790833776647L211.6635930670632,151.47359013015574L214.87304861015744,136.42654475298795L218.08250415325165,126.39518116820943L221.29195969634586,151.47359013015574L224.5014152394401,156.489271922545L227.71087078253427,166.1862570400527L230.92032632562848,136.42654475298795L234.12978186872272,161.50495371493426L237.33923741181692,146.45790833776647L240.5486929549111,161.50495371493426L243.75814849800534,138.65573772367804L246.96760404109955,146.45790833776647L250.17705958419378,156.489271922545L253.38651512728796,146.45790833776647L256.5959706703822,151.47359013015574L259.8054262134764,146.45790833776647L263.0148817565706,156.489271922545L266.2243372996648,146.45790833776647L269.43379284275903,151.47359013015574L272.6432483858532,161.50495371493426" fill="none"></path></g></g></g></g></g></g><g transform="translate(41, 176)" clip-path="url(#clip_1)"><clipPath id="clip_1"><rect width="288" height="23"></rect></clipPath><g><g><line x1="0" y1="0" x2="0" y2="5" style="visibility: inherit;" fill="rgb(0, 0, 0)" stroke="rgb(204, 204, 204)" stroke-width="1px"></line><line x1="32.09455543094211" y1="0" x2="32.09455543094211" y2="5" style="visibility: inherit;" fill="rgb(0, 0, 0)" stroke="rgb(204, 204, 204)" stroke-width="1px"></line><line x1="64.18911086188422" y1="0" x2="64.18911086188422" y2="5" style="visibility: inherit;" fill="rgb(0, 0, 0)" stroke="rgb(204, 204, 204)" stroke-width="1px"></line><line x1="96.28366629282633" y1="0" x2="96.28366629282633" y2="5" style="visibility: inherit;" fill="rgb(0, 0, 0)" stroke="rgb(204, 204, 204)" stroke-width="1px"></line><line x1="128.37822172376843" y1="0" x2="128.37822172376843" y2="5" style="visibility: inherit;" fill="rgb(0, 0, 0)" stroke="rgb(204, 204, 204)" stroke-width="1px"></line><line x1="160.47277715471057" y1="0" x2="160.47277715471057" y2="5" style="visibility: inherit;" fill="rgb(0, 0, 0)" stroke="rgb(204, 204, 204)" stroke-width="1px"></line><line x1="192.56733258565265" y1="0" x2="192.56733258565265" y2="5" style="visibility: inherit;" fill="rgb(0, 0, 0)" stroke="rgb(204, 204, 204)" stroke-width="1px"></line><line x1="224.6618880165948" y1="0" x2="224.6618880165948" y2="5" style="visibility: inherit;" fill="rgb(0, 0, 0)" stroke="rgb(204, 204, 204)" stroke-width="1px"></line><line x1="256.75644344753687" y1="0" x2="256.75644344753687" y2="5" style="visibility: inherit;" fill="rgb(0, 0, 0)" stroke="rgb(204, 204, 204)" stroke-width="1px"></line><line x1="288.850998878479" y1="0" x2="288.850998878479" y2="5" style="visibility: inherit;" fill="rgb(0, 0, 0)" stroke="rgb(204, 204, 204)" stroke-width="1px"></line></g><g transform="translate(0, 8)"><text style="text-anchor: middle; visibility: hidden; font-family: Roboto, sans-serif; font-size: 12px; font-weight: 200;" x="0" y="0" dx="0em" dy="0.95em" fill="rgb(255, 255, 255)" stroke="none" stroke-width="1px">-200</text><text style="text-anchor: middle; visibility: inherit; font-family: Roboto, sans-serif; font-size: 12px; font-weight: 200;" x="32.09455543094211" y="0" dx="0em" dy="0.95em" fill="rgb(255, 255, 255)" stroke="none" stroke-width="1px">0</text><text style="text-anchor: middle; visibility: inherit; font-family: Roboto, sans-serif; font-size: 12px; font-weight: 200;" x="64.18911086188422" y="0" dx="0em" dy="0.95em" fill="rgb(255, 255, 255)" stroke="none" stroke-width="1px">200</text><text style="text-anchor: middle; visibility: inherit; font-family: Roboto, sans-serif; font-size: 12px; font-weight: 200;" x="96.28366629282633" y="0" dx="0em" dy="0.95em" fill="rgb(255, 255, 255)" stroke="none" stroke-width="1px">400</text><text style="text-anchor: middle; visibility: inherit; font-family: Roboto, sans-serif; font-size: 12px; font-weight: 200;" x="128.37822172376843" y="0" dx="0em" dy="0.95em" fill="rgb(255, 255, 255)" stroke="none" stroke-width="1px">600</text><text style="text-anchor: middle; visibility: inherit; font-family: Roboto, sans-serif; font-size: 12px; font-weight: 200;" x="160.47277715471057" y="0" dx="0em" dy="0.95em" fill="rgb(255, 255, 255)" stroke="none" stroke-width="1px">800</text><text style="text-anchor: middle; visibility: inherit; font-family: Roboto, sans-serif; font-size: 12px; font-weight: 200;" x="192.56733258565265" y="0" dx="0em" dy="0.95em" fill="rgb(255, 255, 255)" stroke="none" stroke-width="1px">1k</text><text style="text-anchor: middle; visibility: inherit; font-family: Roboto, sans-serif; font-size: 12px; font-weight: 200;" x="224.6618880165948" y="0" dx="0em" dy="0.95em" fill="rgb(255, 255, 255)" stroke="none" stroke-width="1px">1.2k</text><text style="text-anchor: middle; visibility: inherit; font-family: Roboto, sans-serif; font-size: 12px; font-weight: 200;" x="256.75644344753687" y="0" dx="0em" dy="0.95em" fill="rgb(255, 255, 255)" stroke="none" stroke-width="1px">1.4k</text><text style="text-anchor: middle; visibility: hidden; font-family: Roboto, sans-serif; font-size: 12px; font-weight: 200;" x="288.850998878479" y="0" dx="0em" dy="0.95em" fill="rgb(255, 255, 255)" stroke="none" stroke-width="1px">1.6k</text></g><line x1="0" y1="0" x2="288.850998878479" y2="0" fill="rgb(0, 0, 0)" stroke="rgb(204, 204, 204)" stroke-width="1px"></line></g></g></g></g></svg>