<svg viewBox="0 0 330 200" xmlns="http://www.w3.org/2000/svg"><g><g><g><g><g><line x1="41.149001121520996" y1="176.55199909210205" x2="36.149001121520996" y2="176.55199909210205" style="visibility: inherit;" fill="rgb(0, 0, 0)" stroke="rgb(204, 204, 204)" stroke-width="1px"></line><line x1="41.149001121520996" y1="161.83933250109354" x2="36.149001121520996" y2="161.83933250109354" style="visibility: inherit;" fill="rgb(0, 0, 0)" stroke="rgb(204, 204, 204)" stroke-width="1px"></line><line x1="41.149001121520996" y1="147.12666591008505" x2="36.149001121520996" y2="147.12666591008505" style="visibility: inherit;" fill="rgb(0, 0, 0)" stroke="rgb(204, 204, 204)" stroke-width="1px"></line><line x1="41.149001121520996" y1="132.41399931907654" x2="36.149001121520996" y2="132.41399931907654" style="visibility: inherit;" fill="rgb(0, 0, 0)" stroke="rgb(204, 204, 204)" stroke-width="1px"></line><line x1="41.149001121520996" y1="117.70133272806802" x2="36.149001121520996" y2="117.70133272806802" style="visibility: inherit;" fill="rgb(0, 0, 0)" stroke="rgb(204, 204, 204)" stroke-width="1px"></line><line x1="41.149001121520996" y1="102.98866613705951" x2="36.149001121520996" y2="102.98866613705951" style="visibility: inherit;" fill="rgb(0, 0, 0)" stroke="rgb(204, 204, 204)" stroke-width="1px"></line><line x1="41.149001121520996" y1="88.27599954605103" x2="36.149001121520996" y2="88.27599954605103" style="visibility: inherit;" fill="rgb(0, 0, 0)" stroke="rgb(204, 204, 204)" stroke-width="1px"></line><line x1="41.149001121520996" y1="73.56333295504251" x2="36.149001121520996" y2="73.56333295504251" style="visibility: inherit;" fill="rgb(0, 0, 0)" stroke="rgb(204, 204, 204)" stroke-width="1px"></line><line x1="41.149001121520996" y1="58.850666364034005" x2="36.149001121520996" y2="58.850666364034005" style="visibility: inherit;" fill="rgb(0, 0, 0)" stroke="rgb(204, 204, 204)" stroke-width="1px"></line><line x1="41.149001121520996" y1="44.13799977302551" x2="36.149001121520996" y2="44.13799977302551" style="visibility: inherit;" fill="rgb(0, 0, 0)" stroke="rgb(204, 204, 204)" stroke-width="1px"></line><line x1="41.149001121520996" y1="29.425333182017003" x2="36.149001121520996" y2="29.425333182017003" style="visibility: inherit;" fill="rgb(0, 0, 0)" stroke="rgb(204, 204, 204)" stroke-width="1px"></line><line x1="41.149001121520996" y1="14.71266659100851" x2="36.149001121520996" y2="14.71266659100851" style="visibility: inherit;" fill="rgb(0, 0, 0)" stroke="rgb(204, 204, 204)" stroke-width="1px"></line><line x1="41.149001121520996" y1="0" x2="36.149001121520996" y2="0" style="visibility: inherit;" fill="rgb(0, 0, 0)" stroke="rgb(204, 204, 204)" stroke-width="1px"></line></g><g transform="translate(31.149001121520996, 0)"><text style="text-anchor: end; visibility: hidden; font-family: Roboto, sans-serif; font-size: 12px; font-weight: 200;" x="0" y="176.55199909210205" dx="0em" dy="0.3em" fill="rgb(255, 255, 255)" stroke="none" stroke-width="1px">0.2</text><text style="text-anchor: end; visibility: inherit; font-family: Roboto, sans-serif; font-size: 12px; font-weight: 200;" x="0" y="161.83933250109354" dx="0em" dy="0.3em" fill="rgb(255, 255, 255)" stroke="none" stroke-width="1px">0.4</text><text style="text-anchor: end; visibility: hidden; font-family: Roboto, sans-serif; font-size: 12px; font-weight: 200;" x="0" y="147.12666591008505" dx="0em" dy="0.3em" fill="rgb(255, 255, 255)" stroke="none" stroke-width="1px">0.6</text><text style="text-anchor: end; visibility: inherit; font-family: Roboto, sans-serif; font-size: 12px; font-weight: 200;" x="0" y="132.41399931907654" dx="0em" dy="0.3em" fill="rgb(255, 255, 255)" stroke="none" stroke-width="1px">0.8</text><text style="text-anchor: end; visibility: hidden; font-family: Roboto, sans-serif; font-size: 12px; font-weight: 200;" x="0" y="117.70133272806802" dx="0em" dy="0.3em" fill="rgb(255, 255, 255)" stroke="none" stroke-width="1px">1</text><text style="text-anchor: end; visibility: inherit; font-family: Roboto, sans-serif; font-size: 12px; font-weight: 200;" x="0" y="102.98866613705951" dx="0em" dy="0.3em" fill="rgb(255, 255, 255)" stroke="none" stroke-width="1px">1.2</text><text style="text-anchor: end; visibility: hidden; font-family: Roboto, sans-serif; font-size: 12px; font-weight: 200;" x="0" y="88.27599954605103" dx="0em" dy="0.3em" fill="rgb(255, 255, 255)" stroke="none" stroke-width="1px">1.4</text><text style="text-anchor: end; visibility: inherit; font-family: Roboto, sans-serif; font-size: 12px; font-weight: 200;" x="0" y="73.56333295504251" dx="0em" dy="0.3em" fill="rgb(255, 255, 255)" stroke="none" stroke-width="1px">1.6</text><text style="text-anchor: end; visibility: hidden; font-family: Roboto, sans-serif; font-size: 12px; font-weight: 200;" x="0" y="58.850666364034005" dx="0em" dy="0.3em" fill="rgb(255, 255, 255)" stroke="none" stroke-width="1px">1.8</text><text style="text-anchor: end; visibility: inherit; font-family: Roboto, sans-serif; font-size: 12px; font-weight: 200;" x="0" y="44.13799977302551" dx="0em" dy="0.3em" fill="rgb(255, 255, 255)" stroke="none" stroke-width="1px">2</text><text style="text-anchor: end; visibility: hidden; font-family: Roboto, sans-serif; font-size: 12px; font-weight: 200;" x="0" y="29.425333182017003" dx="0em" dy="0.3em" fill="rgb(255, 255, 255)" stroke="none" stroke-width="1px">2.2</text><text style="text-anchor: end; visibility: inherit; font-family: Roboto, sans-serif; font-size: 12px; font-weight: 200;" x="0" y="14.71266659100851" dx="0em" dy="0.3em" fill="rgb(255, 255, 255)" stroke="none" stroke-width="1px">2.4</text><text style="text-anchor: end; visibility: hidden; font-family: Roboto, sans-serif; font-size: 12px; font-weight: 200;" x="0" y="0" dx="0em" dy="0.3em" fill="rgb(255, 255, 255)" stroke="none" stroke-width="1px">2.6</text></g><line x1="41.149001121520996" y1="0" x2="41.149001121520996" y2="176.55199909210205" fill="rgb(0, 0, 0)" stroke="rgb(204, 204, 204)" stroke-width="1px"></line></g></g><g transform="translate(41, 0)" clip-path="url(#clip_0)"><clipPath id="clip_0"><rect width="288" height="176"></rect></clipPath><g><g><g><line x1="0" y1="0" x2="0" y2="176.55199909210205" fill="rgb(0, 0, 0)" stroke="rgb(189, 189, 189)" stroke-width="1px" opacity="0.25"></line><line x1="32.09455543094211" y1="0" x2="32.09455543094211" y2="176.55199909210205" fill="rgb(0, 0, 0)" stroke="rgb(189, 189, 189)" stroke-width="1px" opacity="0.25"></line><line x1="64.18911086188422" y1="0" x2="64.18911086188422" y2="176.55199909210205" fill="rgb(0, 0, 0)" stroke="rgb(189, 189, 189)" stroke-width="1px" opacity="0.25"></line><line x1="96.28366629282633" y1="0" x2="96.28366629282633" y2="176.55199909210205" fill="rgb(0, 0, 0)" stroke="rgb(189, 189, 189)" stroke-width="1px" opacity="0.25"></line><line x1="128.37822172376843" y1="0" x2="128.37822172376843" y2="176.55199909210205" fill="rgb(0, 0, 0)" stroke="rgb(189, 189, 189)" stroke-width="1px" opacity="0.25"></line><line x1="160.47277715471057" y1="0" x2="160.47277715471057" y2="176.55199909210205" fill="rgb(0, 0, 0)" stroke="rgb(189, 189, 189)" stroke-width="1px" opacity="0.25"></line><line x1="192.56733258565265" y1="0" x2="192.56733258565265" y2="176.55199909210205" fill="rgb(0, 0, 0)" stroke="rgb(189, 189, 189)" stroke-width="1px" opacity="0.25"></line><line x1="224.6618880165948" y1="0" x2="224.6618880165948" y2="176.55199909210205" fill="rgb(0, 0, 0)" stroke="rgb(189, 189, 189)" stroke-width="1px" opacity="0.25"></line><line x1="256.75644344753687" y1="0" x2="256.75644344753687" y2="176.55199909210205" fill="rgb(0, 0, 0)" stroke="rgb(189, 189, 189)" stroke-width="1px" opacity="0.25"></line><line x1="288.850998878479" y1="0" x2="288.850998878479" y2="176.55199909210205" fill="rgb(0, 0, 0)" stroke="rgb(189, 189, 189)" stroke-width="1px" opacity="0.25"></line></g><g><line x1="0" y1="176.55199909210205" x2="288.850998878479" y2="176.55199909210205" fill="rgb(0, 0, 0)" stroke="rgb(189, 189, 189)" stroke-width="1px" opacity="0.25"></line><line x1="0" y1="161.83933250109354" x2="288.850998878479" y2="161.83933250109354" fill="rgb(0, 0, 0)" stroke="rgb(189, 189, 189)" stroke-width="1px" opacity="0.25"></line><line x1="0" y1="147.12666591008505" x2="288.850998878479" y2="147.12666591008505" fill="rgb(0, 0, 0)" stroke="rgb(189, 189, 189)" stroke-width="1px" opacity="0.25"></line><line x1="0" y1="132.41399931907654" x2="288.850998878479" y2="132.41399931907654" fill="rgb(0, 0, 0)" stroke="rgb(189, 189, 189)" stroke-width="1px" opacity="0.25"></line><line x1="0" y1="117.70133272806802" x2="288.850998878479" y2="117.70133272806802" fill="rgb(0, 0, 0)" stroke="rgb(189, 189, 189)" stroke-width="1px" opacity="0.25"></line><line x1="0" y1="102.98866613705951" x2="288.850998878479" y2="102.98866613705951" fill="rgb(0, 0, 0)" stroke="rgb(189, 189, 189)" stroke-width="1px" opacity="0.25"></line><line x1="0" y1="88.27599954605103" x2="288.850998878479" y2="88.27599954605103" fill="rgb(0, 0, 0)" stroke="rgb(189, 189, 189)" stroke-width="1px" opacity="0.25"></line><line x1="0" y1="73.56333295504251" x2="288.850998878479" y2="73.56333295504251" fill="rgb(0, 0, 0)" stroke="rgb(189, 189, 189)" stroke-width="1px" opacity="0.25"></line><line x1="0" y1="58.850666364034005" x2="288.850998878479" y2="58.850666364034005" fill="rgb(0, 0, 0)" stroke="rgb(189, 189, 189)" stroke-width="1px" opacity="0.25"></line><line x1="0" y1="44.13799977302551" x2="288.850998878479" y2="44.13799977302551" fill="rgb(0, 0, 0)" stroke="rgb(189, 189, 189)" stroke-width="1px" opacity="0.25"></line><line x1="0" y1="29.425333182017003" x2="288.850998878479" y2="29.425333182017003" fill="rgb(0, 0, 0)" stroke="rgb(189, 189, 189)" stroke-width="1px" opacity="0.25"></line><line x1="0" y1="14.71266659100851" x2="288.850998878479" y2="14.71266659100851" fill="rgb(0, 0, 0)" stroke="rgb(189, 189, 189)" stroke-width="1px" opacity="0.25"></line><line x1="0" y1="0" x2="288.850998878479" y2="0" fill="rgb(0, 0, 0)" stroke="rgb(189, 189, 189)" stroke-width="1px" opacity="0.25"></line></g></g></g><g><g><line x1="0" y1="191.26466568311054" x2="288.850998878479" y2="191.26466568311054" fill="rgb(0, 0, 0)" stroke="rgb(153, 153, 153)" stroke-width="1.5px"></line></g></g><g><g><line x1="32.09455543094211" y1="0" x2="32.09455543094211" y2="176.55199909210205" fill="rgb(0, 0, 0)" stroke="rgb(153, 153, 153)" stroke-width="1.5px"></line></g></g><g><g><g><g><g><path style="fill: none;" stroke="rgb(255, 112, 67)" stroke-width="2px" d="M44.771904826164246,-16.69669795865666L47.981360369258454,11.1029603395256L51.19081591235267,47.929893181217125L54.40027145544688,72.83183985198818L57.60972699854109,89.14121110837077L60.8191825416353,99.40629571048869L64.02863808472952,105.86162828585478L67.23809362782373,111.90360132716609L70.44754917091794,115.87039533067085L73.65700471401215,116.28082975220241L76.86646025710637,118.7782602795689L80.07591580020056,120.55371008260391L83.28537134329478,125.50826012571909L86.49482688638899,125.34092100523063L89.7042824294832,125.61250261759218L92.91373797257741,125.98847046352783L96.12319351567163,127.90932453336255L99.33264905876584,127.79830654623079L102.54210460186005,131.14179922616364L105.75156014495425,133.44779766568462L108.96101568804848,135.12069879791255L112.17047123114267,137.33825186086125L115.37992677423689,138.79433359913176L118.5893823173311,136.76003069884425L121.79883786042532,136.41385797410948L125.00829340351952,141.8926337919555L128.21774894661374,140.80806649927217L131.42720448970795,143.61922865138942L134.63666003280215,144.76852079683457L137.84611557589636,143.3337587408405L141.05557111899057,145.41742982419925L144.2650266620848,144.96234607077375L147.474482205179,143.61890938570048L150.6839377482732,149.14975697221357L153.89339329136743,150.0924578130829L157.10284883446164,149.66248637730652L160.31230437755585,148.58162906349762L163.52175992065006,146.86863183036448L166.73121546374426,142.45354716937956L169.9406710068385,142.21912808742204L173.15012654993268,146.95235718376827L176.3595820930269,147.7857256765073L179.56903763612112,146.8407161507549L182.77849317921533,144.4441717619022L185.9879487223095,143.42394022173062L189.19740426540375,146.47249923558792L192.40685980849796,145.95588507092705L195.61631535159216,149.20394023859382L198.8257708946864,147.34787260452566L202.03522643778058,150.7106099712954L205.24468198087482,152.20234951481928L208.45413752396902,150.6508653478889L211.6635930670632,153.50127090049276L214.87304861015744,156.52225590017463L218.08250415325165,152.12142499343548L221.29195969634586,154.50376983882373L224.5014152394401,158.6991566550415L227.71087078253427,158.02994961753987L230.92032632562848,160.119968539804L234.12978186872272,157.11672025202932L237.33923741181692,158.70797784370666L240.5486929549111,160.12517615275638L243.75814849800534,156.36548419141937L246.96760404109955,157.67870533459313L250.17705958419378,158.87325381234982L253.38651512728796,159.19112893199747L256.5959706703822,155.1327999207916L259.8054262134764,155.48165189598126L263.0148817565706,155.88930572425L266.2243372996648,156.10620327593224L269.43379284275903,158.49466802875514L272.6432483858532,157.22198140387079" fill="none"></path></g></g></g></g><g opacity="0.2"><g><g><g><path style="fill: none;" stroke="rgb(255, 112, 67)" stroke-width="2px" d="M41.56244928307004,-23.981620164890437L44.771904826164246,4.532488285121929L47.981360369258454,47.398194213632365L51.19081591235267,98.87479899709959L54.40027145544688,108.44202202233745L57.60972699854109,112.92043097014059L60.8191825416353,114.5453016085795L64.02863808472952,115.44704482999373L67.23809362782373,120.91176063833757L70.44754917091794,121.79899921813453L73.65700471401215,116.89514124490145L76.86646025710637,122.519513344227L80.07591580020056,123.21479781256079L83.28537134329478,132.93659085783838L86.49482688638899,125.08998313680559L89.7042824294832,126.01980608159252L92.91373797257741,126.5523649575141L96.12319351567163,130.79043006444414L99.33264905876584,127.63178565402336L102.54210460186005,136.15692822701212L105.75156014495425,136.90674979704946L108.96101568804848,137.6300306791457L112.17047123114267,140.66456569386622L115.37992677423689,140.978449997014L118.5893823173311,133.70858155363658L121.79883786042532,135.894599418464L125.00829340351952,150.11079247199763L128.21774894661374,139.1812161596711L131.42720448970795,147.83597094735333L134.63666003280215,146.49245878633158L137.84611557589636,141.18161582813116L141.05557111899057,148.54293629998833L144.2650266620848,144.27972046019354L147.474482205179,141.6037543927325L150.6839377482732,157.44602826641193L153.89339329136743,151.50650906563578L157.10284883446164,149.01752922603683L160.31230437755585,146.9603430963963L163.52175992065006,144.2991359840996L166.73121546374426,135.8309201832139L169.9406710068385,141.86749946465494L173.15012654993268,154.05220082623762L176.3595820930269,149.03577841539928L179.56903763612112,145.42320186227357L182.77849317921533,140.84935517884736L185.9879487223095,141.8935929115305L189.19740426540375,151.04533775627118L192.40685980849796,145.18096382394623L195.61631535159216,154.07602299005458L198.8257708946864,144.5637711534369L202.03522643778058,155.75471602143543L205.24468198087482,154.4399588301011L208.45413752396902,148.32363909749574L211.6635930670632,157.77687922939586L214.87304861015744,161.0537333996958L218.08250415325165,145.52017863332824L221.29195969634586,158.07728710690557L224.5014152394401,164.99223687936765L227.71087078253427,157.0261390612875L230.92032632562848,163.2549969232001L234.12978186872272,152.61184782036742L237.33923741181692,161.0948642312226L240.5486929549111,162.25097361633098L243.75814849800534,150.72594624941385L246.96760404109955,159.64853704935376L250.17705958419378,160.66507652898483L253.38651512728796,159.66794161146896L256.5959706703822,149.0453064039828L259.8054262134764,156.00492985876573L263.0148817565706,156.5007864666531L266.2243372996648,156.4315496034556L269.43379284275903,162.0773651579895L272.6432483858532,155.31295146654423" fill="none"></path></g></g></g></g></g></g><g transform="translate(41, 176)" clip-path="url(#clip_1)"><clipPath id="clip_1"><rect width="288" height="23"></rect></clipPath><g><g><line x1="0" y1="0" x2="0" y2="5" style="visibility: inherit;" fill="rgb(0, 0, 0)" stroke="rgb(204, 204, 204)" stroke-width="1px"></line><line x1="32.09455543094211" y1="0" x2="32.09455543094211" y2="5" style="visibility: inherit;" fill="rgb(0, 0, 0)" stroke="rgb(204, 204, 204)" stroke-width="1px"></line><line x1="64.18911086188422" y1="0" x2="64.18911086188422" y2="5" style="visibility: inherit;" fill="rgb(0, 0, 0)" stroke="rgb(204, 204, 204)" stroke-width="1px"></line><line x1="96.28366629282633" y1="0" x2="96.28366629282633" y2="5" style="visibility: inherit;" fill="rgb(0, 0, 0)" stroke="rgb(204, 204, 204)" stroke-width="1px"></line><line x1="128.37822172376843" y1="0" x2="128.37822172376843" y2="5" style="visibility: inherit;" fill="rgb(0, 0, 0)" stroke="rgb(204, 204, 204)" stroke-width="1px"></line><line x1="160.47277715471057" y1="0" x2="160.47277715471057" y2="5" style="visibility: inherit;" fill="rgb(0, 0, 0)" stroke="rgb(204, 204, 204)" stroke-width="1px"></line><line x1="192.56733258565265" y1="0" x2="192.56733258565265" y2="5" style="visibility: inherit;" fill="rgb(0, 0, 0)" stroke="rgb(204, 204, 204)" stroke-width="1px"></line><line x1="224.6618880165948" y1="0" x2="224.6618880165948" y2="5" style="visibility: inherit;" fill="rgb(0, 0, 0)" stroke="rgb(204, 204, 204)" stroke-width="1px"></line><line x1="256.75644344753687" y1="0" x2="256.75644344753687" y2="5" style="visibility: inherit;" fill="rgb(0, 0, 0)" stroke="rgb(204, 204, 204)" stroke-width="1px"></line><line x1="288.850998878479" y1="0" x2="288.850998878479" y2="5" style="visibility: inherit;" fill="rgb(0, 0, 0)" stroke="rgb(204, 204, 204)" stroke-width="1px"></line></g><g transform="translate(0, 8)"><text style="text-anchor: middle; visibility: hidden; font-family: Roboto, sans-serif; font-size: 12px; font-weight: 200;" x="0" y="0" dx="0em" dy="0.95em" fill="rgb(255, 255, 255)" stroke="none" stroke-width="1px">-200</text><text style="text-anchor: middle; visibility: inherit; font-family: Roboto, sans-serif; font-size: 12px; font-weight: 200;" x="32.09455543094211" y="0" dx="0em" dy="0.95em" fill="rgb(255, 255, 255)" stroke="none" stroke-width="1px">0</text><text style="text-anchor: middle; visibility: inherit; font-family: Roboto, sans-serif; font-size: 12px; font-weight: 200;" x="64.18911086188422" y="0" dx="0em" dy="0.95em" fill="rgb(255, 255, 255)" stroke="none" stroke-width="1px">200</text><text style="text-anchor: middle; visibility: inherit; font-family: Roboto, sans-serif; font-size: 12px; font-weight: 200;" x="96.28366629282633" y="0" dx="0em" dy="0.95em" fill="rgb(255, 255, 255)" stroke="none" stroke-width="1px">400</text><text style="text-anchor: middle; visibility: inherit; font-family: Roboto, sans-serif; font-size: 12px; font-weight: 200;" x="128.37822172376843" y="0" dx="0em" dy="0.95em" fill="rgb(255, 255, 255)" stroke="none" stroke-width="1px">600</text><text style="text-anchor: middle; visibility: inherit; font-family: Roboto, sans-serif; font-size: 12px; font-weight: 200;" x="160.47277715471057" y="0" dx="0em" dy="0.95em" fill="rgb(255, 255, 255)" stroke="none" stroke-width="1px">800</text><text style="text-anchor: middle; visibility: inherit; font-family: Roboto, sans-serif; font-size: 12px; font-weight: 200;" x="192.56733258565265" y="0" dx="0em" dy="0.95em" fill="rgb(255, 255, 255)" stroke="none" stroke-width="1px">1k</text><text style="text-anchor: middle; visibility: inherit; font-family: Roboto, sans-serif; font-size: 12px; font-weight: 200;" x="224.6618880165948" y="0" dx="0em" dy="0.95em" fill="rgb(255, 255, 255)" stroke="none" stroke-width="1px">1.2k</text><text style="text-anchor: middle; visibility: inherit; font-family: Roboto, sans-serif; font-size: 12px; font-weight: 200;" x="256.75644344753687" y="0" dx="0em" dy="0.95em" fill="rgb(255, 255, 255)" stroke="none" stroke-width="1px">1.4k</text><text style="text-anchor: middle; visibility: hidden; font-family: Roboto, sans-serif; font-size: 12px; font-weight: 200;" x="288.850998878479" y="0" dx="0em" dy="0.95em" fill="rgb(255, 255, 255)" stroke="none" stroke-width="1px">1.6k</text></g><line x1="0" y1="0" x2="288.850998878479" y2="0" fill="rgb(0, 0, 0)" stroke="rgb(204, 204, 204)" stroke-width="1px"></line></g></g></g></g></svg>