<svg viewBox="0 0 330 200" xmlns="http://www.w3.org/2000/svg"><g><g><g><g><g><line x1="51.53200149536133" y1="176.55199909210205" x2="46.53200149536133" y2="176.55199909210205" style="visibility: inherit;" fill="rgb(0, 0, 0)" stroke="rgb(204, 204, 204)" stroke-width="1px"></line><line x1="51.53200149536133" y1="160.50181735645643" x2="46.53200149536133" y2="160.50181735645643" style="visibility: inherit;" fill="rgb(0, 0, 0)" stroke="rgb(204, 204, 204)" stroke-width="1px"></line><line x1="51.53200149536133" y1="144.45163562081078" x2="46.53200149536133" y2="144.45163562081078" style="visibility: inherit;" fill="rgb(0, 0, 0)" stroke="rgb(204, 204, 204)" stroke-width="1px"></line><line x1="51.53200149536133" y1="128.40145388516513" x2="46.53200149536133" y2="128.40145388516513" style="visibility: inherit;" fill="rgb(0, 0, 0)" stroke="rgb(204, 204, 204)" stroke-width="1px"></line><line x1="51.53200149536133" y1="112.35127214951949" x2="46.53200149536133" y2="112.35127214951949" style="visibility: inherit;" fill="rgb(0, 0, 0)" stroke="rgb(204, 204, 204)" stroke-width="1px"></line><line x1="51.53200149536133" y1="96.30109041387384" x2="46.53200149536133" y2="96.30109041387384" style="visibility: inherit;" fill="rgb(0, 0, 0)" stroke="rgb(204, 204, 204)" stroke-width="1px"></line><line x1="51.53200149536133" y1="80.25090867822821" x2="46.53200149536133" y2="80.25090867822821" style="visibility: inherit;" fill="rgb(0, 0, 0)" stroke="rgb(204, 204, 204)" stroke-width="1px"></line><line x1="51.53200149536133" y1="64.20072694258256" x2="46.53200149536133" y2="64.20072694258256" style="visibility: inherit;" fill="rgb(0, 0, 0)" stroke="rgb(204, 204, 204)" stroke-width="1px"></line><line x1="51.53200149536133" y1="48.15054520693694" x2="46.53200149536133" y2="48.15054520693694" style="visibility: inherit;" fill="rgb(0, 0, 0)" stroke="rgb(204, 204, 204)" stroke-width="1px"></line><line x1="51.53200149536133" y1="32.100363471291296" x2="46.53200149536133" y2="32.100363471291296" style="visibility: inherit;" fill="rgb(0, 0, 0)" stroke="rgb(204, 204, 204)" stroke-width="1px"></line><line x1="51.53200149536133" y1="16.050181735645666" x2="46.53200149536133" y2="16.050181735645666" style="visibility: inherit;" fill="rgb(0, 0, 0)" stroke="rgb(204, 204, 204)" stroke-width="1px"></line><line x1="51.53200149536133" y1="0" x2="46.53200149536133" y2="0" style="visibility: inherit;" fill="rgb(0, 0, 0)" stroke="rgb(204, 204, 204)" stroke-width="1px"></line></g><g transform="translate(41.53200149536133, 0)"><text style="text-anchor: end; visibility: hidden; font-family: Roboto, sans-serif; font-size: 12px; font-weight: 200;" x="0" y="176.55199909210205" dx="0em" dy="0.3em" fill="rgb(255, 255, 255)" stroke="none" stroke-width="1px">0.2</text><text style="text-anchor: end; visibility: inherit; font-family: Roboto, sans-serif; font-size: 12px; font-weight: 200;" x="0" y="160.50181735645643" dx="0em" dy="0.3em" fill="rgb(255, 255, 255)" stroke="none" stroke-width="1px">0.25</text><text style="text-anchor: end; visibility: hidden; font-family: Roboto, sans-serif; font-size: 12px; font-weight: 200;" x="0" y="144.45163562081078" dx="0em" dy="0.3em" fill="rgb(255, 255, 255)" stroke="none" stroke-width="1px">0.3</text><text style="text-anchor: end; visibility: inherit; font-family: Roboto, sans-serif; font-size: 12px; font-weight: 200;" x="0" y="128.40145388516513" dx="0em" dy="0.3em" fill="rgb(255, 255, 255)" stroke="none" stroke-width="1px">0.35</text><text style="text-anchor: end; visibility: hidden; font-family: Roboto, sans-serif; font-size: 12px; font-weight: 200;" x="0" y="112.35127214951949" dx="0em" dy="0.3em" fill="rgb(255, 255, 255)" stroke="none" stroke-width="1px">0.4</text><text style="text-anchor: end; visibility: inherit; font-family: Roboto, sans-serif; font-size: 12px; font-weight: 200;" x="0" y="96.30109041387384" dx="0em" dy="0.3em" fill="rgb(255, 255, 255)" stroke="none" stroke-width="1px">0.45</text><text style="text-anchor: end; visibility: hidden; font-family: Roboto, sans-serif; font-size: 12px; font-weight: 200;" x="0" y="80.25090867822821" dx="0em" dy="0.3em" fill="rgb(255, 255, 255)" stroke="none" stroke-width="1px">0.5</text><text style="text-anchor: end; visibility: inherit; font-family: Roboto, sans-serif; font-size: 12px; font-weight: 200;" x="0" y="64.20072694258256" dx="0em" dy="0.3em" fill="rgb(255, 255, 255)" stroke="none" stroke-width="1px">0.55</text><text style="text-anchor: end; visibility: hidden; font-family: Roboto, sans-serif; font-size: 12px; font-weight: 200;" x="0" y="48.15054520693694" dx="0em" dy="0.3em" fill="rgb(255, 255, 255)" stroke="none" stroke-width="1px">0.6</text><text style="text-anchor: end; visibility: inherit; font-family: Roboto, sans-serif; font-size: 12px; font-weight: 200;" x="0" y="32.100363471291296" dx="0em" dy="0.3em" fill="rgb(255, 255, 255)" stroke="none" stroke-width="1px">0.65</text><text style="text-anchor: end; visibility: hidden; font-family: Roboto, sans-serif; font-size: 12px; font-weight: 200;" x="0" y="16.050181735645666" dx="0em" dy="0.3em" fill="rgb(255, 255, 255)" stroke="none" stroke-width="1px">0.7</text><text style="text-anchor: end; visibility: hidden; font-family: Roboto, sans-serif; font-size: 12px; font-weight: 200;" x="0" y="0" dx="0em" dy="0.3em" fill="rgb(255, 255, 255)" stroke="none" stroke-width="1px">0.75</text></g><line x1="51.53200149536133" y1="0" x2="51.53200149536133" y2="176.55199909210205" fill="rgb(0, 0, 0)" stroke="rgb(204, 204, 204)" stroke-width="1px"></line></g></g><g transform="translate(51, 0)" clip-path="url(#clip_0)"><clipPath id="clip_0"><rect width="278" height="176"></rect></clipPath><g><g><g><line x1="0" y1="0" x2="0" y2="176.55199909210205" fill="rgb(0, 0, 0)" stroke="rgb(189, 189, 189)" stroke-width="1px" opacity="0.25"></line><line x1="30.94088872273763" y1="0" x2="30.94088872273763" y2="176.55199909210205" fill="rgb(0, 0, 0)" stroke="rgb(189, 189, 189)" stroke-width="1px" opacity="0.25"></line><line x1="61.88177744547526" y1="0" x2="61.88177744547526" y2="176.55199909210205" fill="rgb(0, 0, 0)" stroke="rgb(189, 189, 189)" stroke-width="1px" opacity="0.25"></line><line x1="92.82266616821289" y1="0" x2="92.82266616821289" y2="176.55199909210205" fill="rgb(0, 0, 0)" stroke="rgb(189, 189, 189)" stroke-width="1px" opacity="0.25"></line><line x1="123.76355489095052" y1="0" x2="123.76355489095052" y2="176.55199909210205" fill="rgb(0, 0, 0)" stroke="rgb(189, 189, 189)" stroke-width="1px" opacity="0.25"></line><line x1="154.70444361368817" y1="0" x2="154.70444361368817" y2="176.55199909210205" fill="rgb(0, 0, 0)" stroke="rgb(189, 189, 189)" stroke-width="1px" opacity="0.25"></line><line x1="185.64533233642578" y1="0" x2="185.64533233642578" y2="176.55199909210205" fill="rgb(0, 0, 0)" stroke="rgb(189, 189, 189)" stroke-width="1px" opacity="0.25"></line><line x1="216.58622105916342" y1="0" x2="216.58622105916342" y2="176.55199909210205" fill="rgb(0, 0, 0)" stroke="rgb(189, 189, 189)" stroke-width="1px" opacity="0.25"></line><line x1="247.52710978190103" y1="0" x2="247.52710978190103" y2="176.55199909210205" fill="rgb(0, 0, 0)" stroke="rgb(189, 189, 189)" stroke-width="1px" opacity="0.25"></line><line x1="278.4679985046387" y1="0" x2="278.4679985046387" y2="176.55199909210205" fill="rgb(0, 0, 0)" stroke="rgb(189, 189, 189)" stroke-width="1px" opacity="0.25"></line></g><g><line x1="0" y1="176.55199909210205" x2="278.4679985046387" y2="176.55199909210205" fill="rgb(0, 0, 0)" stroke="rgb(189, 189, 189)" stroke-width="1px" opacity="0.25"></line><line x1="0" y1="160.50181735645643" x2="278.4679985046387" y2="160.50181735645643" fill="rgb(0, 0, 0)" stroke="rgb(189, 189, 189)" stroke-width="1px" opacity="0.25"></line><line x1="0" y1="144.45163562081078" x2="278.4679985046387" y2="144.45163562081078" fill="rgb(0, 0, 0)" stroke="rgb(189, 189, 189)" stroke-width="1px" opacity="0.25"></line><line x1="0" y1="128.40145388516513" x2="278.4679985046387" y2="128.40145388516513" fill="rgb(0, 0, 0)" stroke="rgb(189, 189, 189)" stroke-width="1px" opacity="0.25"></line><line x1="0" y1="112.35127214951949" x2="278.4679985046387" y2="112.35127214951949" fill="rgb(0, 0, 0)" stroke="rgb(189, 189, 189)" stroke-width="1px" opacity="0.25"></line><line x1="0" y1="96.30109041387384" x2="278.4679985046387" y2="96.30109041387384" fill="rgb(0, 0, 0)" stroke="rgb(189, 189, 189)" stroke-width="1px" opacity="0.25"></line><line x1="0" y1="80.25090867822821" x2="278.4679985046387" y2="80.25090867822821" fill="rgb(0, 0, 0)" stroke="rgb(189, 189, 189)" stroke-width="1px" opacity="0.25"></line><line x1="0" y1="64.20072694258256" x2="278.4679985046387" y2="64.20072694258256" fill="rgb(0, 0, 0)" stroke="rgb(189, 189, 189)" stroke-width="1px" opacity="0.25"></line><line x1="0" y1="48.15054520693694" x2="278.4679985046387" y2="48.15054520693694" fill="rgb(0, 0, 0)" stroke="rgb(189, 189, 189)" stroke-width="1px" opacity="0.25"></line><line x1="0" y1="32.100363471291296" x2="278.4679985046387" y2="32.100363471291296" fill="rgb(0, 0, 0)" stroke="rgb(189, 189, 189)" stroke-width="1px" opacity="0.25"></line><line x1="0" y1="16.050181735645666" x2="278.4679985046387" y2="16.050181735645666" fill="rgb(0, 0, 0)" stroke="rgb(189, 189, 189)" stroke-width="1px" opacity="0.25"></line><line x1="0" y1="0" x2="278.4679985046387" y2="0" fill="rgb(0, 0, 0)" stroke="rgb(189, 189, 189)" stroke-width="1px" opacity="0.25"></line></g></g></g><g><g><line x1="0" y1="240.75272603468463" x2="278.4679985046387" y2="240.75272603468463" fill="rgb(0, 0, 0)" stroke="rgb(153, 153, 153)" stroke-width="1.5px"></line></g></g><g><g><line x1="30.94088872273763" y1="0" x2="30.94088872273763" y2="176.55199909210205" fill="rgb(0, 0, 0)" stroke="rgb(153, 153, 153)" stroke-width="1.5px"></line></g></g><g><g><g><g><g><path style="fill: none;" stroke="rgb(255, 112, 67)" stroke-width="2px" d="M33.88027315139771,18.114076321825785L36.97436202367147,18.1521874789387L40.06845089594523,18.566620046952266L43.16253976821899,18.666171782029917L46.25662864049276,19.676170741727322L49.35071751276652,20.344686313293135L52.44480638504028,21.331001351054613L55.538895257314046,23.04970590896254L58.63298412958781,25.209503396474588L61.72707300186158,27.63686298481532L64.82116187413534,29.448492512914427L67.9152507464091,33.69279044417415L71.00933961868286,39.04300995711752L74.10342849095663,40.455495410723294L77.19751736323038,46.610707957949195L80.29160623550415,53.86255542634304L83.38569510777792,63.41881933491883L86.47978398005166,68.25363216717699L89.57387285232544,72.87112660064824L92.66796172459921,82.32089165091831L95.76205059687297,87.46575647060922L98.85613946914673,98.19093436081631L101.95022834142048,101.5178581392059L105.04431721369426,107.29318615244848L108.13840608596801,116.89007223808228L111.23249495824177,124.15010006432442L114.32658383051555,116.55730007683185L117.42067270278932,124.79206920240902L120.51476157506306,128.7171206322591L123.60885044733683,128.42062559532317L126.7029393196106,133.94718727846845L129.79702819188435,132.97132359235528L132.89111706415812,132.48141074646776L135.9852059364319,136.98228538717032L139.07929480870567,138.03923597639312L142.1733836809794,136.47494333029852L145.26747255325316,141.7258473927752L148.36156142552693,142.3715528332643L151.4556502978007,145.22211011112378L154.54973917007447,143.26581393006168L157.64382804234822,148.917828414888L160.737916914622,142.7539551133959L163.83200578689576,145.2171990685266L166.9260946591695,148.39846519222814L170.02018353144328,149.62789677902475L173.11427240371705,146.07159760838627L176.2083612759908,141.21320448785207L179.30245014826454,145.9365906433149L182.39653902053834,140.51450060575678L185.49062789281209,145.72750177824665L188.58471676508583,149.01162925828197L191.67880563735963,151.2693120002962L194.77289450963337,152.81145102013295L197.86698338190715,150.83108528381277L200.96107225418092,148.07178786017502L204.05516112645466,144.69396298731328L207.14924999872844,153.27421128814743L210.2433388710022,154.73329401332066L213.33742774327595,158.66573917323663L216.43151661554973,159.98531674010343L219.5256054878235,165.7256082095097L222.61969436009724,168.68245009278272L225.71378323237101,164.806051330208L228.80787210464476,158.30808719988897L231.90196097691853,161.17577426107968L234.9960498491923,162.83634043849443L238.09013872146605,164.5392617153163L241.18422759373985,160.4087361792689L244.2783164660136,159.64782654949252L247.37240533828734,152.46773698122556L250.46649421056114,163.26167182359097L253.56058308283488,164.44060150195142L256.65467195510865,163.69931918923515L259.7487608273824,161.17957703031408L262.84284969965614,155.2974470218422" fill="none"></path></g></g></g></g><g opacity="0.2"><g><g><g><path style="fill: none;" stroke="rgb(255, 112, 67)" stroke-width="2px" d="M33.88027315139771,18.114076321825745L36.97436202367147,18.17505417320647L40.06845089594523,18.964475312245273L43.16253976821899,18.783244622481206L46.25662864049276,20.994825383508314L49.35071751276652,21.269484014374356L52.44480638504028,22.74144763609406L55.538895257314046,25.555593653956016L58.63298412958781,28.394785171490817L61.72707300186158,31.241209079305484L64.82116187413534,32.14950545857909L67.9152507464091,40.036140059150156L71.00933961868286,47.0508698315383L74.10342849095663,42.571456385085206L77.19751736323038,55.83629155749651L80.29160623550415,64.73521206424867L83.38569510777792,77.74917130716395L86.47978398005166,75.50462385710988L89.57387285232544,79.7966648220533L92.66796172459921,96.4946754803673L95.76205059687297,95.1827715435316L98.85613946914673,114.27834827958L101.95022834142048,106.5081781224838L105.04431721369426,115.95610975804614L108.13840608596801,131.28533315597412L111.23249495824177,135.04011084298523L114.32658383051555,105.1681195234872L117.42067270278932,137.14421024846445L120.51476157506306,134.6046941615071L123.60885044733683,127.97588320378757L126.7029393196106,142.2370279705184L129.79702819188435,131.50752825734975L132.89111706415812,131.7465415361222L135.9852059364319,143.7335970258357L139.07929480870567,139.62466181480295L142.1733836809794,134.1285044014936L145.26747255325316,149.60220340525015L148.36156142552693,143.34011098800391L151.4556502978007,149.497946012036L154.54973917007447,140.33136966500624L157.64382804234822,157.39585013079446L160.737916914622,133.50814516857338L163.83200578689576,148.91206499944465L166.9260946591695,153.17036437640255L170.02018353144328,151.47204415890016L173.11427240371705,140.73714885298304L176.2083612759908,133.92561480750518L179.30245014826454,153.02166987624403L182.39653902053834,132.38136554960215L185.49062789281209,153.54700353687613L188.58471676508583,153.93782047829512L191.67880563735963,154.65583611330104L194.77289450963337,155.1246595498814L197.86698338190715,147.86053667933766L200.96107225418092,143.93284172472275L204.05516112645466,139.62722567802385L207.14924999872844,166.14458373939385L210.2433388710022,156.92191810107994L213.33742774327595,164.56440691310985L216.43151661554973,161.96468309040344L219.5256054878235,174.3360454136187L222.61969436009724,173.11771291769213L225.71378323237101,158.99145318634604L228.80787210464476,148.56114100441056L231.90196097691853,165.47730485286576L234.9960498491923,165.32718970461656L238.09013872146605,167.09364363054905L241.18422759373985,154.21294787519784L244.2783164660136,158.50646210482793L247.37240533828734,141.69760262882517L250.46649421056114,179.45257408713906L253.56058308283488,166.20899601949213L256.65467195510865,162.58739572016077L259.7487608273824,157.3999637919325L262.84284969965614,146.47425200913435" fill="none"></path></g></g></g></g></g></g><g transform="translate(51, 176)" clip-path="url(#clip_1)"><clipPath id="clip_1"><rect width="278" height="23"></rect></clipPath><g><g><line x1="0" y1="0" x2="0" y2="5" style="visibility: inherit;" fill="rgb(0, 0, 0)" stroke="rgb(204, 204, 204)" stroke-width="1px"></line><line x1="30.94088872273763" y1="0" x2="30.94088872273763" y2="5" style="visibility: inherit;" fill="rgb(0, 0, 0)" stroke="rgb(204, 204, 204)" stroke-width="1px"></line><line x1="61.88177744547526" y1="0" x2="61.88177744547526" y2="5" style="visibility: inherit;" fill="rgb(0, 0, 0)" stroke="rgb(204, 204, 204)" stroke-width="1px"></line><line x1="92.82266616821289" y1="0" x2="92.82266616821289" y2="5" style="visibility: inherit;" fill="rgb(0, 0, 0)" stroke="rgb(204, 204, 204)" stroke-width="1px"></line><line x1="123.76355489095052" y1="0" x2="123.76355489095052" y2="5" style="visibility: inherit;" fill="rgb(0, 0, 0)" stroke="rgb(204, 204, 204)" stroke-width="1px"></line><line x1="154.70444361368817" y1="0" x2="154.70444361368817" y2="5" style="visibility: inherit;" fill="rgb(0, 0, 0)" stroke="rgb(204, 204, 204)" stroke-width="1px"></line><line x1="185.64533233642578" y1="0" x2="185.64533233642578" y2="5" style="visibility: inherit;" fill="rgb(0, 0, 0)" stroke="rgb(204, 204, 204)" stroke-width="1px"></line><line x1="216.58622105916342" y1="0" x2="216.58622105916342" y2="5" style="visibility: inherit;" fill="rgb(0, 0, 0)" stroke="rgb(204, 204, 204)" stroke-width="1px"></line><line x1="247.52710978190103" y1="0" x2="247.52710978190103" y2="5" style="visibility: inherit;" fill="rgb(0, 0, 0)" stroke="rgb(204, 204, 204)" stroke-width="1px"></line><line x1="278.4679985046387" y1="0" x2="278.4679985046387" y2="5" style="visibility: inherit;" fill="rgb(0, 0, 0)" stroke="rgb(204, 204, 204)" stroke-width="1px"></line></g><g transform="translate(0, 8)"><text style="text-anchor: middle; visibility: hidden; font-family: Roboto, sans-serif; font-size: 12px; font-weight: 200;" x="0" y="0" dx="0em" dy="0.95em" fill="rgb(255, 255, 255)" stroke="none" stroke-width="1px">-200</text><text style="text-anchor: middle; visibility: inherit; font-family: Roboto, sans-serif; font-size: 12px; font-weight: 200;" x="30.94088872273763" y="0" dx="0em" dy="0.95em" fill="rgb(255, 255, 255)" stroke="none" stroke-width="1px">0</text><text style="text-anchor: middle; visibility: inherit; font-family: Roboto, sans-serif; font-size: 12px; font-weight: 200;" x="61.88177744547526" y="0" dx="0em" dy="0.95em" fill="rgb(255, 255, 255)" stroke="none" stroke-width="1px">200</text><text style="text-anchor: middle; visibility: inherit; font-family: Roboto, sans-serif; font-size: 12px; font-weight: 200;" x="92.82266616821289" y="0" dx="0em" dy="0.95em" fill="rgb(255, 255, 255)" stroke="none" stroke-width="1px">400</text><text style="text-anchor: middle; visibility: inherit; font-family: Roboto, sans-serif; font-size: 12px; font-weight: 200;" x="123.76355489095052" y="0" dx="0em" dy="0.95em" fill="rgb(255, 255, 255)" stroke="none" stroke-width="1px">600</text><text style="text-anchor: middle; visibility: inherit; font-family: Roboto, sans-serif; font-size: 12px; font-weight: 200;" x="154.70444361368817" y="0" dx="0em" dy="0.95em" fill="rgb(255, 255, 255)" stroke="none" stroke-width="1px">800</text><text style="text-anchor: middle; visibility: inherit; font-family: Roboto, sans-serif; font-size: 12px; font-weight: 200;" x="185.64533233642578" y="0" dx="0em" dy="0.95em" fill="rgb(255, 255, 255)" stroke="none" stroke-width="1px">1k</text><text style="text-anchor: middle; visibility: inherit; font-family: Roboto, sans-serif; font-size: 12px; font-weight: 200;" x="216.58622105916342" y="0" dx="0em" dy="0.95em" fill="rgb(255, 255, 255)" stroke="none" stroke-width="1px">1.2k</text><text style="text-anchor: middle; visibility: inherit; font-family: Roboto, sans-serif; font-size: 12px; font-weight: 200;" x="247.52710978190103" y="0" dx="0em" dy="0.95em" fill="rgb(255, 255, 255)" stroke="none" stroke-width="1px">1.4k</text><text style="text-anchor: middle; visibility: hidden; font-family: Roboto, sans-serif; font-size: 12px; font-weight: 200;" x="278.4679985046387" y="0" dx="0em" dy="0.95em" fill="rgb(255, 255, 255)" stroke="none" stroke-width="1px">1.6k</text></g><line x1="0" y1="0" x2="278.4679985046387" y2="0" fill="rgb(0, 0, 0)" stroke="rgb(204, 204, 204)" stroke-width="1px"></line></g></g></g></g></svg>