<svg viewBox="0 0 330 200" xmlns="http://www.w3.org/2000/svg"><g><g><g><g><g><line x1="72.29800224304199" y1="176.55199909210205" x2="67.29800224304199" y2="176.55199909210205" style="visibility: inherit;" fill="rgb(0, 0, 0)" stroke="rgb(204, 204, 204)" stroke-width="1px"></line><line x1="72.29800224304199" y1="160.50181735645646" x2="67.29800224304199" y2="160.50181735645646" style="visibility: inherit;" fill="rgb(0, 0, 0)" stroke="rgb(204, 204, 204)" stroke-width="1px"></line><line x1="72.29800224304199" y1="144.4516356208108" x2="67.29800224304199" y2="144.4516356208108" style="visibility: inherit;" fill="rgb(0, 0, 0)" stroke="rgb(204, 204, 204)" stroke-width="1px"></line><line x1="72.29800224304199" y1="128.40145388516513" x2="67.29800224304199" y2="128.40145388516513" style="visibility: inherit;" fill="rgb(0, 0, 0)" stroke="rgb(204, 204, 204)" stroke-width="1px"></line><line x1="72.29800224304199" y1="112.35127214951949" x2="67.29800224304199" y2="112.35127214951949" style="visibility: inherit;" fill="rgb(0, 0, 0)" stroke="rgb(204, 204, 204)" stroke-width="1px"></line><line x1="72.29800224304199" y1="96.30109041387388" x2="67.29800224304199" y2="96.30109041387388" style="visibility: inherit;" fill="rgb(0, 0, 0)" stroke="rgb(204, 204, 204)" stroke-width="1px"></line><line x1="72.29800224304199" y1="80.25090867822823" x2="67.29800224304199" y2="80.25090867822823" style="visibility: inherit;" fill="rgb(0, 0, 0)" stroke="rgb(204, 204, 204)" stroke-width="1px"></line><line x1="72.29800224304199" y1="64.20072694258256" x2="67.29800224304199" y2="64.20072694258256" style="visibility: inherit;" fill="rgb(0, 0, 0)" stroke="rgb(204, 204, 204)" stroke-width="1px"></line><line x1="72.29800224304199" y1="48.15054520693692" x2="67.29800224304199" y2="48.15054520693692" style="visibility: inherit;" fill="rgb(0, 0, 0)" stroke="rgb(204, 204, 204)" stroke-width="1px"></line><line x1="72.29800224304199" y1="32.10036347129131" x2="67.29800224304199" y2="32.10036347129131" style="visibility: inherit;" fill="rgb(0, 0, 0)" stroke="rgb(204, 204, 204)" stroke-width="1px"></line><line x1="72.29800224304199" y1="16.050181735645666" x2="67.29800224304199" y2="16.050181735645666" style="visibility: inherit;" fill="rgb(0, 0, 0)" stroke="rgb(204, 204, 204)" stroke-width="1px"></line><line x1="72.29800224304199" y1="0" x2="67.29800224304199" y2="0" style="visibility: inherit;" fill="rgb(0, 0, 0)" stroke="rgb(204, 204, 204)" stroke-width="1px"></line></g><g transform="translate(62.29800224304199, 0)"><text style="text-anchor: end; visibility: hidden; font-family: Roboto, sans-serif; font-size: 12px; font-weight: 200;" x="0" y="176.55199909210205" dx="0em" dy="0.3em" fill="rgb(255, 255, 255)" stroke="none" stroke-width="1px">8.5e-3</text><text style="text-anchor: end; visibility: inherit; font-family: Roboto, sans-serif; font-size: 12px; font-weight: 200;" x="0" y="160.50181735645646" dx="0em" dy="0.3em" fill="rgb(255, 255, 255)" stroke="none" stroke-width="1px">9e-3</text><text style="text-anchor: end; visibility: hidden; font-family: Roboto, sans-serif; font-size: 12px; font-weight: 200;" x="0" y="144.4516356208108" dx="0em" dy="0.3em" fill="rgb(255, 255, 255)" stroke="none" stroke-width="1px">9.5e-3</text><text style="text-anchor: end; visibility: inherit; font-family: Roboto, sans-serif; font-size: 12px; font-weight: 200;" x="0" y="128.40145388516513" dx="0em" dy="0.3em" fill="rgb(255, 255, 255)" stroke="none" stroke-width="1px">0.01</text><text style="text-anchor: end; visibility: hidden; font-family: Roboto, sans-serif; font-size: 12px; font-weight: 200;" x="0" y="112.35127214951949" dx="0em" dy="0.3em" fill="rgb(255, 255, 255)" stroke="none" stroke-width="1px">0.0105</text><text style="text-anchor: end; visibility: inherit; font-family: Roboto, sans-serif; font-size: 12px; font-weight: 200;" x="0" y="96.30109041387388" dx="0em" dy="0.3em" fill="rgb(255, 255, 255)" stroke="none" stroke-width="1px">0.011</text><text style="text-anchor: end; visibility: hidden; font-family: Roboto, sans-serif; font-size: 12px; font-weight: 200;" x="0" y="80.25090867822823" dx="0em" dy="0.3em" fill="rgb(255, 255, 255)" stroke="none" stroke-width="1px">0.0115</text><text style="text-anchor: end; visibility: inherit; font-family: Roboto, sans-serif; font-size: 12px; font-weight: 200;" x="0" y="64.20072694258256" dx="0em" dy="0.3em" fill="rgb(255, 255, 255)" stroke="none" stroke-width="1px">0.012</text><text style="text-anchor: end; visibility: hidden; font-family: Roboto, sans-serif; font-size: 12px; font-weight: 200;" x="0" y="48.15054520693692" dx="0em" dy="0.3em" fill="rgb(255, 255, 255)" stroke="none" stroke-width="1px">0.0125</text><text style="text-anchor: end; visibility: inherit; font-family: Roboto, sans-serif; font-size: 12px; font-weight: 200;" x="0" y="32.10036347129131" dx="0em" dy="0.3em" fill="rgb(255, 255, 255)" stroke="none" stroke-width="1px">0.013</text><text style="text-anchor: end; visibility: hidden; font-family: Roboto, sans-serif; font-size: 12px; font-weight: 200;" x="0" y="16.050181735645666" dx="0em" dy="0.3em" fill="rgb(255, 255, 255)" stroke="none" stroke-width="1px">0.0135</text><text style="text-anchor: end; visibility: hidden; font-family: Roboto, sans-serif; font-size: 12px; font-weight: 200;" x="0" y="0" dx="0em" dy="0.3em" fill="rgb(255, 255, 255)" stroke="none" stroke-width="1px">0.014</text></g><line x1="72.29800224304199" y1="0" x2="72.29800224304199" y2="176.55199909210205" fill="rgb(0, 0, 0)" stroke="rgb(204, 204, 204)" stroke-width="1px"></line></g></g><g transform="translate(72, 0)" clip-path="url(#clip_0)"><clipPath id="clip_0"><rect width="257" height="176"></rect></clipPath><g><g><g><line x1="0" y1="0" x2="0" y2="176.55199909210205" fill="rgb(0, 0, 0)" stroke="rgb(189, 189, 189)" stroke-width="1px" opacity="0.25"></line><line x1="28.633555306328667" y1="0" x2="28.633555306328667" y2="176.55199909210205" fill="rgb(0, 0, 0)" stroke="rgb(189, 189, 189)" stroke-width="1px" opacity="0.25"></line><line x1="57.26711061265733" y1="0" x2="57.26711061265733" y2="176.55199909210205" fill="rgb(0, 0, 0)" stroke="rgb(189, 189, 189)" stroke-width="1px" opacity="0.25"></line><line x1="85.900665918986" y1="0" x2="85.900665918986" y2="176.55199909210205" fill="rgb(0, 0, 0)" stroke="rgb(189, 189, 189)" stroke-width="1px" opacity="0.25"></line><line x1="114.53422122531467" y1="0" x2="114.53422122531467" y2="176.55199909210205" fill="rgb(0, 0, 0)" stroke="rgb(189, 189, 189)" stroke-width="1px" opacity="0.25"></line><line x1="143.16777653164334" y1="0" x2="143.16777653164334" y2="176.55199909210205" fill="rgb(0, 0, 0)" stroke="rgb(189, 189, 189)" stroke-width="1px" opacity="0.25"></line><line x1="171.801331837972" y1="0" x2="171.801331837972" y2="176.55199909210205" fill="rgb(0, 0, 0)" stroke="rgb(189, 189, 189)" stroke-width="1px" opacity="0.25"></line><line x1="200.4348871443007" y1="0" x2="200.4348871443007" y2="176.55199909210205" fill="rgb(0, 0, 0)" stroke="rgb(189, 189, 189)" stroke-width="1px" opacity="0.25"></line><line x1="229.06844245062933" y1="0" x2="229.06844245062933" y2="176.55199909210205" fill="rgb(0, 0, 0)" stroke="rgb(189, 189, 189)" stroke-width="1px" opacity="0.25"></line><line x1="257.701997756958" y1="0" x2="257.701997756958" y2="176.55199909210205" fill="rgb(0, 0, 0)" stroke="rgb(189, 189, 189)" stroke-width="1px" opacity="0.25"></line></g><g><line x1="0" y1="176.55199909210205" x2="257.701997756958" y2="176.55199909210205" fill="rgb(0, 0, 0)" stroke="rgb(189, 189, 189)" stroke-width="1px" opacity="0.25"></line><line x1="0" y1="160.50181735645646" x2="257.701997756958" y2="160.50181735645646" fill="rgb(0, 0, 0)" stroke="rgb(189, 189, 189)" stroke-width="1px" opacity="0.25"></line><line x1="0" y1="144.4516356208108" x2="257.701997756958" y2="144.4516356208108" fill="rgb(0, 0, 0)" stroke="rgb(189, 189, 189)" stroke-width="1px" opacity="0.25"></line><line x1="0" y1="128.40145388516513" x2="257.701997756958" y2="128.40145388516513" fill="rgb(0, 0, 0)" stroke="rgb(189, 189, 189)" stroke-width="1px" opacity="0.25"></line><line x1="0" y1="112.35127214951949" x2="257.701997756958" y2="112.35127214951949" fill="rgb(0, 0, 0)" stroke="rgb(189, 189, 189)" stroke-width="1px" opacity="0.25"></line><line x1="0" y1="96.30109041387388" x2="257.701997756958" y2="96.30109041387388" fill="rgb(0, 0, 0)" stroke="rgb(189, 189, 189)" stroke-width="1px" opacity="0.25"></line><line x1="0" y1="80.25090867822823" x2="257.701997756958" y2="80.25090867822823" fill="rgb(0, 0, 0)" stroke="rgb(189, 189, 189)" stroke-width="1px" opacity="0.25"></line><line x1="0" y1="64.20072694258256" x2="257.701997756958" y2="64.20072694258256" fill="rgb(0, 0, 0)" stroke="rgb(189, 189, 189)" stroke-width="1px" opacity="0.25"></line><line x1="0" y1="48.15054520693692" x2="257.701997756958" y2="48.15054520693692" fill="rgb(0, 0, 0)" stroke="rgb(189, 189, 189)" stroke-width="1px" opacity="0.25"></line><line x1="0" y1="32.10036347129131" x2="257.701997756958" y2="32.10036347129131" fill="rgb(0, 0, 0)" stroke="rgb(189, 189, 189)" stroke-width="1px" opacity="0.25"></line><line x1="0" y1="16.050181735645666" x2="257.701997756958" y2="16.050181735645666" fill="rgb(0, 0, 0)" stroke="rgb(189, 189, 189)" stroke-width="1px" opacity="0.25"></line><line x1="0" y1="0" x2="257.701997756958" y2="0" fill="rgb(0, 0, 0)" stroke="rgb(189, 189, 189)" stroke-width="1px" opacity="0.25"></line></g></g></g><g><g><line x1="0" y1="449.405088598078" x2="257.701997756958" y2="449.405088598078" fill="rgb(0, 0, 0)" stroke="rgb(153, 153, 153)" stroke-width="1.5px"></line></g></g><g><g><line x1="28.633555306328667" y1="0" x2="28.633555306328667" y2="176.55199909210205" fill="rgb(0, 0, 0)" stroke="rgb(153, 153, 153)" stroke-width="1.5px"></line></g></g><g><g><g><g><g><path style="fill: none;" stroke="rgb(255, 112, 67)" stroke-width="2px" d="M31.353743060429892,-71.70746541539069L34.21709859106276,117.20984383576894L37.080454121695624,118.16006102968424L39.94380965232849,95.77074898015287L42.807165182961356,133.17671562350102L45.67052071359423,100.4482129790106L48.53387624422709,50.64449682477095L51.39723177485996,94.11192619758705L54.26058730549283,90.94297178315048L57.12394283612569,85.85418728684813L59.98729836675856,93.80547911591633L62.850653897391425,87.14705255933664L65.7140094280243,72.57792419144728L68.57736495865717,77.48156351817971L71.44072048929002,70.70511766229538L74.30407601992289,44.71837964294733L77.16743155055576,100.13764094051389L80.03078708118862,62.94384701500431L82.8941426118215,43.39477626922222L85.75749814245437,77.99895114568818L88.62085367308723,125.0687441408856L91.48420920372008,114.14835822409776L94.34756473435296,2.5353056659779245L97.21092026498583,-6.946252571368245L100.07427579561869,30.677283959311904L102.93763132625156,35.790825102116976L105.80098685688444,55.28235848348343L108.6643423875173,109.59657917942403L111.52769791815015,17.66803746884146L114.39105344878303,37.42031342133517L117.2544089794159,22.485245270318018L120.11776451004876,35.464969155967154L122.98112004068163,85.04134778401408L125.84447557131449,68.34896036028152L128.70783110194736,30.271446861082577L131.57118663258024,71.87395589413705L134.43454216321308,112.81382983038702L137.29789769384595,30.580629082612457L140.16125322447883,84.37025358074585L143.0246087551117,101.59336182717547L145.88796428574457,58.52687069447249L148.75131981637742,110.7292505210879L151.61467534701032,98.67818455494424L154.47803087764316,94.63420932024421L157.341386408276,83.873558671706L160.2047419389089,103.61867848746084L163.06809746954175,60.419977729132746L165.93145300017463,108.61447337828763L168.7948085308075,132.14740479432174L171.65816406144035,155.2421199150406L174.52151959207322,99.61136770982573L177.3848751227061,137.01840558657784L180.24823065333896,164.36241128988883L183.11158618397184,153.2856060860238L185.9749417146047,74.94907614707063L188.83829724523756,104.46862167426322L191.70165277587043,108.94471602891043L194.5650083065033,138.03303369888806L197.42836383713615,158.88718497980207L200.29171936776905,174.89695738142868L203.1550748984019,176.6514560827644L206.01843042903477,125.49401059762268L208.88178595966764,145.5313410410069L211.74514149030048,174.1292106967077L214.60849702093336,146.2003050450435L217.47185255156623,155.6470428947843L220.3352080821991,167.43374996463854L223.19856361283198,187.12899782460477L226.06191914346482,158.47201397841803L228.9252746740977,-25.323730421198558L231.78863020473057,41.11811793295906L234.65198573536344,86.29671388760063L237.51534126599628,94.80622470513238L240.37869679662919,92.13809222681944L243.24205232726203,149.25353107664807" fill="none"></path></g></g></g></g><g opacity="0.2"><g><g><g><path style="fill: none;" stroke="rgb(255, 112, 67)" stroke-width="2px" d="M34.21709859106276,230.5602293864647L37.080454121695624,119.0722695358429L39.94380965232849,69.44091800990397L42.807165182961356,182.01394567305655L45.67052071359423,55.17291156072839L48.53387624422709,-20.57561413525048L51.39723177485996,157.48785551047501L54.26058730549283,86.26937955956207L57.12394283612569,78.29793537713951L59.98729836675856,105.660299227844L62.850653897391425,77.1956475877519L65.7140094280243,50.77180237153642L68.57736495865717,84.8274157683567L71.44072048929002,60.54841433619442L74.30407601992289,5.756600474947431L77.16743155055576,183.24308131279733L80.03078708118862,7.162599626988317L82.8941426118215,14.074148254715869L85.75749814245437,129.9020505017362L88.62085367308723,195.67085221436759L91.48420920372008,97.76813868886633L94.34756473435296,-164.8820695661796L97.21092026498583,-21.168477609290957L100.07427579561869,87.11232134333719L102.93763132625156,43.46111500940746L105.80098685688444,84.51960868204131L108.6643423875173,191.06782683821234L111.52769791815015,-120.22469041785295L114.39105344878303,67.04871643329314L117.2544089794159,0.08264799642328641L120.11776451004876,54.93455240191016L122.98112004068163,159.4059098076606L125.84447557131449,43.31038042032411L128.70783110194736,-26.844821751267443L131.57118663258024,134.27771837095395L134.43454216321308,174.22364010135516L137.29789769384595,-92.76917127568004L140.16125322447883,165.05469002834894L143.0246087551117,127.42802413926239L145.88796428574457,-6.072865918228317L148.75131981637742,189.0328201982076L151.61467534701032,80.60158561442768L154.47803087764316,88.56824646994555L157.341386408276,67.7325827016949L160.2047419389089,133.23635820801456L163.06809746954175,-4.378073404318095L165.93145300017463,180.9062168493149L168.7948085308075,167.44680191758033L171.65816406144035,189.88419259565222L174.52151959207322,16.16523940267785L177.3848751227061,193.12896240143385L180.24823065333896,205.37841984473602L183.11158618397184,136.67039828025526L185.9749417146047,-42.555718761236136L188.83829724523756,148.74793996502436L191.70165277587043,115.65885756087859L194.5650083065033,181.66551020384463L203.1550748984019,179.28320413476786L206.01843042903477,48.757842369912225L208.88178595966764,175.58733670608288L211.74514149030048,217.02601518025838L214.60849702093336,104.30694656754761L217.47185255156623,169.81714966939543L220.3352080821991,185.11381056941988L223.19856361283198,216.671869614554L226.06191914346482,115.48653820913792L228.9252746740977,-301.01734702062316L231.78863020473057,140.7808904641955L234.65198573536344,154.06460781956298L237.51534126599628,107.57049093143004L240.37869679662919,88.13589350934987L243.24205232726203,234.926689351391" fill="none"></path></g></g></g></g></g></g><g transform="translate(72, 176)" clip-path="url(#clip_1)"><clipPath id="clip_1"><rect width="257" height="23"></rect></clipPath><g><g><line x1="0" y1="0" x2="0" y2="5" style="visibility: inherit;" fill="rgb(0, 0, 0)" stroke="rgb(204, 204, 204)" stroke-width="1px"></line><line x1="28.633555306328667" y1="0" x2="28.633555306328667" y2="5" style="visibility: inherit;" fill="rgb(0, 0, 0)" stroke="rgb(204, 204, 204)" stroke-width="1px"></line><line x1="57.26711061265733" y1="0" x2="57.26711061265733" y2="5" style="visibility: inherit;" fill="rgb(0, 0, 0)" stroke="rgb(204, 204, 204)" stroke-width="1px"></line><line x1="85.900665918986" y1="0" x2="85.900665918986" y2="5" style="visibility: inherit;" fill="rgb(0, 0, 0)" stroke="rgb(204, 204, 204)" stroke-width="1px"></line><line x1="114.53422122531467" y1="0" x2="114.53422122531467" y2="5" style="visibility: inherit;" fill="rgb(0, 0, 0)" stroke="rgb(204, 204, 204)" stroke-width="1px"></line><line x1="143.16777653164334" y1="0" x2="143.16777653164334" y2="5" style="visibility: inherit;" fill="rgb(0, 0, 0)" stroke="rgb(204, 204, 204)" stroke-width="1px"></line><line x1="171.801331837972" y1="0" x2="171.801331837972" y2="5" style="visibility: inherit;" fill="rgb(0, 0, 0)" stroke="rgb(204, 204, 204)" stroke-width="1px"></line><line x1="200.4348871443007" y1="0" x2="200.4348871443007" y2="5" style="visibility: inherit;" fill="rgb(0, 0, 0)" stroke="rgb(204, 204, 204)" stroke-width="1px"></line><line x1="229.06844245062933" y1="0" x2="229.06844245062933" y2="5" style="visibility: inherit;" fill="rgb(0, 0, 0)" stroke="rgb(204, 204, 204)" stroke-width="1px"></line><line x1="257.701997756958" y1="0" x2="257.701997756958" y2="5" style="visibility: inherit;" fill="rgb(0, 0, 0)" stroke="rgb(204, 204, 204)" stroke-width="1px"></line></g><g transform="translate(0, 8)"><text style="text-anchor: middle; visibility: hidden; font-family: Roboto, sans-serif; font-size: 12px; font-weight: 200;" x="0" y="0" dx="0em" dy="0.95em" fill="rgb(255, 255, 255)" stroke="none" stroke-width="1px">-200</text><text style="text-anchor: middle; visibility: inherit; font-family: Roboto, sans-serif; font-size: 12px; font-weight: 200;" x="28.633555306328667" y="0" dx="0em" dy="0.95em" fill="rgb(255, 255, 255)" stroke="none" stroke-width="1px">0</text><text style="text-anchor: middle; visibility: inherit; font-family: Roboto, sans-serif; font-size: 12px; font-weight: 200;" x="57.26711061265733" y="0" dx="0em" dy="0.95em" fill="rgb(255, 255, 255)" stroke="none" stroke-width="1px">200</text><text style="text-anchor: middle; visibility: inherit; font-family: Roboto, sans-serif; font-size: 12px; font-weight: 200;" x="85.900665918986" y="0" dx="0em" dy="0.95em" fill="rgb(255, 255, 255)" stroke="none" stroke-width="1px">400</text><text style="text-anchor: middle; visibility: inherit; font-family: Roboto, sans-serif; font-size: 12px; font-weight: 200;" x="114.53422122531467" y="0" dx="0em" dy="0.95em" fill="rgb(255, 255, 255)" stroke="none" stroke-width="1px">600</text><text style="text-anchor: middle; visibility: inherit; font-family: Roboto, sans-serif; font-size: 12px; font-weight: 200;" x="143.16777653164334" y="0" dx="0em" dy="0.95em" fill="rgb(255, 255, 255)" stroke="none" stroke-width="1px">800</text><text style="text-anchor: middle; visibility: inherit; font-family: Roboto, sans-serif; font-size: 12px; font-weight: 200;" x="171.801331837972" y="0" dx="0em" dy="0.95em" fill="rgb(255, 255, 255)" stroke="none" stroke-width="1px">1k</text><text style="text-anchor: middle; visibility: inherit; font-family: Roboto, sans-serif; font-size: 12px; font-weight: 200;" x="200.4348871443007" y="0" dx="0em" dy="0.95em" fill="rgb(255, 255, 255)" stroke="none" stroke-width="1px">1.2k</text><text style="text-anchor: middle; visibility: inherit; font-family: Roboto, sans-serif; font-size: 12px; font-weight: 200;" x="229.06844245062933" y="0" dx="0em" dy="0.95em" fill="rgb(255, 255, 255)" stroke="none" stroke-width="1px">1.4k</text><text style="text-anchor: middle; visibility: hidden; font-family: Roboto, sans-serif; font-size: 12px; font-weight: 200;" x="257.701997756958" y="0" dx="0em" dy="0.95em" fill="rgb(255, 255, 255)" stroke="none" stroke-width="1px">1.6k</text></g><line x1="0" y1="0" x2="257.701997756958" y2="0" fill="rgb(0, 0, 0)" stroke="rgb(204, 204, 204)" stroke-width="1px"></line></g></g></g></g></svg>