<svg viewBox="0 0 330 200" xmlns="http://www.w3.org/2000/svg"><g><g><g><g><g><line x1="61.91500186920166" y1="176.55199909210205" x2="56.91500186920166" y2="176.55199909210205" style="visibility: inherit;" fill="rgb(0, 0, 0)" stroke="rgb(204, 204, 204)" stroke-width="1px"></line><line x1="61.91500186920166" y1="154.4829992055893" x2="56.91500186920166" y2="154.4829992055893" style="visibility: inherit;" fill="rgb(0, 0, 0)" stroke="rgb(204, 204, 204)" stroke-width="1px"></line><line x1="61.91500186920166" y1="132.41399931907654" x2="56.91500186920166" y2="132.41399931907654" style="visibility: inherit;" fill="rgb(0, 0, 0)" stroke="rgb(204, 204, 204)" stroke-width="1px"></line><line x1="61.91500186920166" y1="110.34499943256378" x2="56.91500186920166" y2="110.34499943256378" style="visibility: inherit;" fill="rgb(0, 0, 0)" stroke="rgb(204, 204, 204)" stroke-width="1px"></line><line x1="61.91500186920166" y1="88.27599954605103" x2="56.91500186920166" y2="88.27599954605103" style="visibility: inherit;" fill="rgb(0, 0, 0)" stroke="rgb(204, 204, 204)" stroke-width="1px"></line><line x1="61.91500186920166" y1="66.20699965953827" x2="56.91500186920166" y2="66.20699965953827" style="visibility: inherit;" fill="rgb(0, 0, 0)" stroke="rgb(204, 204, 204)" stroke-width="1px"></line><line x1="61.91500186920166" y1="44.13799977302551" x2="56.91500186920166" y2="44.13799977302551" style="visibility: inherit;" fill="rgb(0, 0, 0)" stroke="rgb(204, 204, 204)" stroke-width="1px"></line><line x1="61.91500186920166" y1="22.068999886512735" x2="56.91500186920166" y2="22.068999886512735" style="visibility: inherit;" fill="rgb(0, 0, 0)" stroke="rgb(204, 204, 204)" stroke-width="1px"></line><line x1="61.91500186920166" y1="0" x2="56.91500186920166" y2="0" style="visibility: inherit;" fill="rgb(0, 0, 0)" stroke="rgb(204, 204, 204)" stroke-width="1px"></line></g><g transform="translate(51.91500186920166, 0)"><text style="text-anchor: end; visibility: hidden; font-family: Roboto, sans-serif; font-size: 12px; font-weight: 200;" x="0" y="176.55199909210205" dx="0em" dy="0.3em" fill="rgb(255, 255, 255)" stroke="none" stroke-width="1px">0</text><text style="text-anchor: end; visibility: inherit; font-family: Roboto, sans-serif; font-size: 12px; font-weight: 200;" x="0" y="154.4829992055893" dx="0em" dy="0.3em" fill="rgb(255, 255, 255)" stroke="none" stroke-width="1px">5e-3</text><text style="text-anchor: end; visibility: hidden; font-family: Roboto, sans-serif; font-size: 12px; font-weight: 200;" x="0" y="132.41399931907654" dx="0em" dy="0.3em" fill="rgb(255, 255, 255)" stroke="none" stroke-width="1px">0.01</text><text style="text-anchor: end; visibility: inherit; font-family: Roboto, sans-serif; font-size: 12px; font-weight: 200;" x="0" y="110.34499943256378" dx="0em" dy="0.3em" fill="rgb(255, 255, 255)" stroke="none" stroke-width="1px">0.015</text><text style="text-anchor: end; visibility: hidden; font-family: Roboto, sans-serif; font-size: 12px; font-weight: 200;" x="0" y="88.27599954605103" dx="0em" dy="0.3em" fill="rgb(255, 255, 255)" stroke="none" stroke-width="1px">0.02</text><text style="text-anchor: end; visibility: inherit; font-family: Roboto, sans-serif; font-size: 12px; font-weight: 200;" x="0" y="66.20699965953827" dx="0em" dy="0.3em" fill="rgb(255, 255, 255)" stroke="none" stroke-width="1px">0.025</text><text style="text-anchor: end; visibility: hidden; font-family: Roboto, sans-serif; font-size: 12px; font-weight: 200;" x="0" y="44.13799977302551" dx="0em" dy="0.3em" fill="rgb(255, 255, 255)" stroke="none" stroke-width="1px">0.03</text><text style="text-anchor: end; visibility: inherit; font-family: Roboto, sans-serif; font-size: 12px; font-weight: 200;" x="0" y="22.068999886512735" dx="0em" dy="0.3em" fill="rgb(255, 255, 255)" stroke="none" stroke-width="1px">0.035</text><text style="text-anchor: end; visibility: hidden; font-family: Roboto, sans-serif; font-size: 12px; font-weight: 200;" x="0" y="0" dx="0em" dy="0.3em" fill="rgb(255, 255, 255)" stroke="none" stroke-width="1px">0.04</text></g><line x1="61.91500186920166" y1="0" x2="61.91500186920166" y2="176.55199909210205" fill="rgb(0, 0, 0)" stroke="rgb(204, 204, 204)" stroke-width="1px"></line></g></g><g transform="translate(61, 0)" clip-path="url(#clip_0)"><clipPath id="clip_0"><rect width="268" height="176"></rect></clipPath><g><g><g><line x1="0" y1="0" x2="0" y2="176.55199909210205" fill="rgb(0, 0, 0)" stroke="rgb(189, 189, 189)" stroke-width="1px" opacity="0.25"></line><line x1="29.787222014533146" y1="0" x2="29.787222014533146" y2="176.55199909210205" fill="rgb(0, 0, 0)" stroke="rgb(189, 189, 189)" stroke-width="1px" opacity="0.25"></line><line x1="59.57444402906629" y1="0" x2="59.57444402906629" y2="176.55199909210205" fill="rgb(0, 0, 0)" stroke="rgb(189, 189, 189)" stroke-width="1px" opacity="0.25"></line><line x1="89.36166604359944" y1="0" x2="89.36166604359944" y2="176.55199909210205" fill="rgb(0, 0, 0)" stroke="rgb(189, 189, 189)" stroke-width="1px" opacity="0.25"></line><line x1="119.14888805813258" y1="0" x2="119.14888805813258" y2="176.55199909210205" fill="rgb(0, 0, 0)" stroke="rgb(189, 189, 189)" stroke-width="1px" opacity="0.25"></line><line x1="148.93611007266574" y1="0" x2="148.93611007266574" y2="176.55199909210205" fill="rgb(0, 0, 0)" stroke="rgb(189, 189, 189)" stroke-width="1px" opacity="0.25"></line><line x1="178.72333208719888" y1="0" x2="178.72333208719888" y2="176.55199909210205" fill="rgb(0, 0, 0)" stroke="rgb(189, 189, 189)" stroke-width="1px" opacity="0.25"></line><line x1="208.51055410173205" y1="0" x2="208.51055410173205" y2="176.55199909210205" fill="rgb(0, 0, 0)" stroke="rgb(189, 189, 189)" stroke-width="1px" opacity="0.25"></line><line x1="238.29777611626517" y1="0" x2="238.29777611626517" y2="176.55199909210205" fill="rgb(0, 0, 0)" stroke="rgb(189, 189, 189)" stroke-width="1px" opacity="0.25"></line><line x1="268.08499813079834" y1="0" x2="268.08499813079834" y2="176.55199909210205" fill="rgb(0, 0, 0)" stroke="rgb(189, 189, 189)" stroke-width="1px" opacity="0.25"></line></g><g><line x1="0" y1="176.55199909210205" x2="268.08499813079834" y2="176.55199909210205" fill="rgb(0, 0, 0)" stroke="rgb(189, 189, 189)" stroke-width="1px" opacity="0.25"></line><line x1="0" y1="154.4829992055893" x2="268.08499813079834" y2="154.4829992055893" fill="rgb(0, 0, 0)" stroke="rgb(189, 189, 189)" stroke-width="1px" opacity="0.25"></line><line x1="0" y1="132.41399931907654" x2="268.08499813079834" y2="132.41399931907654" fill="rgb(0, 0, 0)" stroke="rgb(189, 189, 189)" stroke-width="1px" opacity="0.25"></line><line x1="0" y1="110.34499943256378" x2="268.08499813079834" y2="110.34499943256378" fill="rgb(0, 0, 0)" stroke="rgb(189, 189, 189)" stroke-width="1px" opacity="0.25"></line><line x1="0" y1="88.27599954605103" x2="268.08499813079834" y2="88.27599954605103" fill="rgb(0, 0, 0)" stroke="rgb(189, 189, 189)" stroke-width="1px" opacity="0.25"></line><line x1="0" y1="66.20699965953827" x2="268.08499813079834" y2="66.20699965953827" fill="rgb(0, 0, 0)" stroke="rgb(189, 189, 189)" stroke-width="1px" opacity="0.25"></line><line x1="0" y1="44.13799977302551" x2="268.08499813079834" y2="44.13799977302551" fill="rgb(0, 0, 0)" stroke="rgb(189, 189, 189)" stroke-width="1px" opacity="0.25"></line><line x1="0" y1="22.068999886512735" x2="268.08499813079834" y2="22.068999886512735" fill="rgb(0, 0, 0)" stroke="rgb(189, 189, 189)" stroke-width="1px" opacity="0.25"></line><line x1="0" y1="0" x2="268.08499813079834" y2="0" fill="rgb(0, 0, 0)" stroke="rgb(189, 189, 189)" stroke-width="1px" opacity="0.25"></line></g></g></g><g><g><line x1="0" y1="176.55199909210205" x2="268.08499813079834" y2="176.55199909210205" fill="rgb(0, 0, 0)" stroke="rgb(153, 153, 153)" stroke-width="1.5px"></line></g></g><g><g><line x1="29.787222014533146" y1="0" x2="29.787222014533146" y2="176.55199909210205" fill="rgb(0, 0, 0)" stroke="rgb(153, 153, 153)" stroke-width="1.5px"></line></g></g><g><g><g><g><g><path style="fill: none;" stroke="rgb(255, 112, 67)" stroke-width="2px" d="M32.6170081059138,45.862569214416325L35.59573030736711,72.11801423052493L38.57445250882043,34.99888809691134L41.553174710273744,26.479339167291005L44.53189691172705,50.518559095963106L47.510619113180375,24.36140477301463L50.489341314633684,-29.661266704495663L53.46806351608701,-14.230710217913431L56.446785717540315,18.758108363590306L59.42550791899364,57.969843504123666L62.40423012044695,80.38030014559583L65.38295232190026,96.61062260848277L68.36167452335357,111.08093127430489L71.3403967248069,116.42373897585816L74.3191189262602,118.51868187856302L77.29784112771353,121.5443480204825L80.27656332916683,128.24585758952978L83.25528553062014,131.5997300491183L86.23400773207347,131.64916292850657L89.21272993352679,138.01059959835737L92.1914521349801,137.58408088773166L95.1701743364334,143.20591811715374L98.14889653788673,136.8043289610159L101.12761873934005,141.77318598992431L104.10634094079334,142.42311606898954L107.08506314224667,143.33746562204075L110.06378534369999,141.19197034406548L113.0425075451533,144.6943309016294L116.02122974660661,144.33535593039255L118.99995194805993,140.84228194510797L121.97867414951325,149.6749397733018L124.95739635096655,141.40288699517913L127.93611855241987,142.03164095692324L130.9148407538732,127.87820661427126L133.8935629553265,124.20107131526458L136.8722851567798,119.7325856495765L139.85100735823312,128.8559141998648L142.82972955968646,140.17220326839737L145.80845176113976,147.08281398403312L148.7871739625931,145.11821330524577L151.7658961640464,149.70648914858702L154.7446183654997,145.7730108054751L157.72334056695303,153.5615314395491L160.70206276840634,153.68627370643696L163.68078496985964,154.8224369137205L166.65950717131298,155.3922086506735L169.6382293727663,149.55216674335637L172.6169515742196,147.84845871420305L175.5956737756729,142.25910103608226L178.57439597712622,141.25899059227112L181.55311817857952,142.41150174584067L184.53184038003286,146.8276895815956L187.51056258148617,151.6448985580071L190.4892847829395,154.04474601267293L193.46800698439282,148.70264492739193L196.4467291858461,147.82437296339822L199.42545138729943,144.95711074332272L202.40417358875274,147.126543788711L205.38289579020605,152.56173790771845L208.3616179916594,150.2646805345781L211.3403401931127,145.64020191913337L214.319062394566,142.60311578585726L217.29778459601934,152.9866834260065L220.27650679747262,158.46329290153284L223.25522899892593,157.06374742884373L226.23395120037927,154.54346662390194L229.21267340183257,153.0436096022552L232.1913956032859,157.41751640620848L235.17011780473922,152.56424267827555L238.14884000619253,154.4938158934713L241.12756220764587,153.66699583119666L244.10628440909915,157.40316737296874L247.08500661055245,156.92541277739033L250.0637288120058,157.3868636034139L253.0424510134591,156.03786812998237" fill="none"></path></g></g></g></g><g opacity="0.2"><g><g><g><path style="fill: none;" stroke="rgb(255, 112, 67)" stroke-width="2px" d="M32.6170081059138,45.862569214416325L35.59573030736711,87.87128124019009L38.57445250882043,-0.6354729913577231L41.553174710273744,16.46034962605748L44.53189691172705,81.90416463483746L47.510619113180375,-11.823356231179329L50.489341314633684,-106.91455128007897L53.46806351608701,8.267189272865615L56.446785717540315,67.41020802318712L59.42550791899364,116.19470029535549L62.40423012044695,113.79272391547549L65.38295232190026,120.86778160470118L68.36167452335357,132.7391462045877L71.3403967248069,124.42748341170166L74.3191189262602,121.65863370587931L77.29784112771353,126.08071329917928L80.27656332916683,138.2952860888447L83.25528553062014,136.62968719064696L86.23400773207347,131.7233047169873L89.21272993352679,147.55217314262427L92.1914521349801,136.9443262130929L95.1701743364334,151.63848897233814L98.14889653788673,127.20207161501995L101.12761873934005,149.2264126724384L104.10634094079334,143.39800656816251L107.08506314224667,144.7089860523344L110.06378534369999,137.973732916837L113.0425075451533,149.9478663610268L116.02122974660661,143.79689380420402L118.99995194805993,135.60267289774998L121.97867414951325,162.9239235865871L124.95739635096655,128.9948094738567L127.93611855241987,142.97477182447886L130.9148407538732,106.64805611407479L133.8935629553265,118.68536852478599L136.8722851567798,113.02985726626898L139.85100735823312,142.5409068841444L142.82972955968646,157.1466367661473L145.80845176113976,157.44873001899612L148.7871739625931,142.1713122936302L151.7658961640464,156.5889029043988L154.7446183654997,139.87279329553954L157.72334056695303,165.24431238503794L160.70206276840634,153.8733871067148L163.68078496985964,156.52668172435054L166.65950717131298,156.2468662560141L169.6382293727663,140.79210388292702L172.6169515742196,145.29289667056872L175.5956737756729,133.87506451908928L178.57439597712622,139.7588249265746L181.55311817857952,144.14026847618103L184.53184038003286,153.45197133519585L187.51056258148617,158.87071202260336L190.4892847829395,157.6445171946654L193.46800698439282,140.68949329947876L196.4467291858461,146.5069650174085L199.42545138729943,140.6562174132111L202.40417358875274,150.38069335679268L205.38289579020605,160.7145290862285L208.3616179916594,146.81909447486788L211.3403401931127,138.70348399596665L214.319062394566,138.0474865859432L217.29778459601934,168.56203488623007L220.27650679747262,166.67820711482227L223.25522899892593,154.96442921981006L226.23395120037927,150.7630454164893L229.21267340183257,150.79382406978507L232.1913956032859,163.9783766121384L235.17011780473922,145.28433208637617L238.14884000619253,157.38817571626493L241.12756220764587,152.42676573778473L244.10628440909915,163.00742468562686L247.08500661055245,156.20878088402276L250.0637288120058,158.07903984244925L253.0424510134591,154.01437491983506" fill="none"></path></g></g></g></g></g></g><g transform="translate(61, 176)" clip-path="url(#clip_1)"><clipPath id="clip_1"><rect width="268" height="23"></rect></clipPath><g><g><line x1="0" y1="0" x2="0" y2="5" style="visibility: inherit;" fill="rgb(0, 0, 0)" stroke="rgb(204, 204, 204)" stroke-width="1px"></line><line x1="29.787222014533146" y1="0" x2="29.787222014533146" y2="5" style="visibility: inherit;" fill="rgb(0, 0, 0)" stroke="rgb(204, 204, 204)" stroke-width="1px"></line><line x1="59.57444402906629" y1="0" x2="59.57444402906629" y2="5" style="visibility: inherit;" fill="rgb(0, 0, 0)" stroke="rgb(204, 204, 204)" stroke-width="1px"></line><line x1="89.36166604359944" y1="0" x2="89.36166604359944" y2="5" style="visibility: inherit;" fill="rgb(0, 0, 0)" stroke="rgb(204, 204, 204)" stroke-width="1px"></line><line x1="119.14888805813258" y1="0" x2="119.14888805813258" y2="5" style="visibility: inherit;" fill="rgb(0, 0, 0)" stroke="rgb(204, 204, 204)" stroke-width="1px"></line><line x1="148.93611007266574" y1="0" x2="148.93611007266574" y2="5" style="visibility: inherit;" fill="rgb(0, 0, 0)" stroke="rgb(204, 204, 204)" stroke-width="1px"></line><line x1="178.72333208719888" y1="0" x2="178.72333208719888" y2="5" style="visibility: inherit;" fill="rgb(0, 0, 0)" stroke="rgb(204, 204, 204)" stroke-width="1px"></line><line x1="208.51055410173205" y1="0" x2="208.51055410173205" y2="5" style="visibility: inherit;" fill="rgb(0, 0, 0)" stroke="rgb(204, 204, 204)" stroke-width="1px"></line><line x1="238.29777611626517" y1="0" x2="238.29777611626517" y2="5" style="visibility: inherit;" fill="rgb(0, 0, 0)" stroke="rgb(204, 204, 204)" stroke-width="1px"></line><line x1="268.08499813079834" y1="0" x2="268.08499813079834" y2="5" style="visibility: inherit;" fill="rgb(0, 0, 0)" stroke="rgb(204, 204, 204)" stroke-width="1px"></line></g><g transform="translate(0, 8)"><text style="text-anchor: middle; visibility: hidden; font-family: Roboto, sans-serif; font-size: 12px; font-weight: 200;" x="0" y="0" dx="0em" dy="0.95em" fill="rgb(255, 255, 255)" stroke="none" stroke-width="1px">-200</text><text style="text-anchor: middle; visibility: inherit; font-family: Roboto, sans-serif; font-size: 12px; font-weight: 200;" x="29.787222014533146" y="0" dx="0em" dy="0.95em" fill="rgb(255, 255, 255)" stroke="none" stroke-width="1px">0</text><text style="text-anchor: middle; visibility: inherit; font-family: Roboto, sans-serif; font-size: 12px; font-weight: 200;" x="59.57444402906629" y="0" dx="0em" dy="0.95em" fill="rgb(255, 255, 255)" stroke="none" stroke-width="1px">200</text><text style="text-anchor: middle; visibility: inherit; font-family: Roboto, sans-serif; font-size: 12px; font-weight: 200;" x="89.36166604359944" y="0" dx="0em" dy="0.95em" fill="rgb(255, 255, 255)" stroke="none" stroke-width="1px">400</text><text style="text-anchor: middle; visibility: inherit; font-family: Roboto, sans-serif; font-size: 12px; font-weight: 200;" x="119.14888805813258" y="0" dx="0em" dy="0.95em" fill="rgb(255, 255, 255)" stroke="none" stroke-width="1px">600</text><text style="text-anchor: middle; visibility: inherit; font-family: Roboto, sans-serif; font-size: 12px; font-weight: 200;" x="148.93611007266574" y="0" dx="0em" dy="0.95em" fill="rgb(255, 255, 255)" stroke="none" stroke-width="1px">800</text><text style="text-anchor: middle; visibility: inherit; font-family: Roboto, sans-serif; font-size: 12px; font-weight: 200;" x="178.72333208719888" y="0" dx="0em" dy="0.95em" fill="rgb(255, 255, 255)" stroke="none" stroke-width="1px">1k</text><text style="text-anchor: middle; visibility: inherit; font-family: Roboto, sans-serif; font-size: 12px; font-weight: 200;" x="208.51055410173205" y="0" dx="0em" dy="0.95em" fill="rgb(255, 255, 255)" stroke="none" stroke-width="1px">1.2k</text><text style="text-anchor: middle; visibility: inherit; font-family: Roboto, sans-serif; font-size: 12px; font-weight: 200;" x="238.29777611626517" y="0" dx="0em" dy="0.95em" fill="rgb(255, 255, 255)" stroke="none" stroke-width="1px">1.4k</text><text style="text-anchor: middle; visibility: hidden; font-family: Roboto, sans-serif; font-size: 12px; font-weight: 200;" x="268.08499813079834" y="0" dx="0em" dy="0.95em" fill="rgb(255, 255, 255)" stroke="none" stroke-width="1px">1.6k</text></g><line x1="0" y1="0" x2="268.08499813079834" y2="0" fill="rgb(0, 0, 0)" stroke="rgb(204, 204, 204)" stroke-width="1px"></line></g></g></g></g></svg>