<svg viewBox="0 0 330 200" xmlns="http://www.w3.org/2000/svg"><g><g><g><g><g><line x1="51.53200149536133" y1="176.55199909210205" x2="46.53200149536133" y2="176.55199909210205" style="visibility: inherit;" fill="rgb(0, 0, 0)" stroke="rgb(204, 204, 204)" stroke-width="1px"></line><line x1="51.53200149536133" y1="160.50181735645643" x2="46.53200149536133" y2="160.50181735645643" style="visibility: inherit;" fill="rgb(0, 0, 0)" stroke="rgb(204, 204, 204)" stroke-width="1px"></line><line x1="51.53200149536133" y1="144.45163562081075" x2="46.53200149536133" y2="144.45163562081075" style="visibility: inherit;" fill="rgb(0, 0, 0)" stroke="rgb(204, 204, 204)" stroke-width="1px"></line><line x1="51.53200149536133" y1="128.40145388516513" x2="46.53200149536133" y2="128.40145388516513" style="visibility: inherit;" fill="rgb(0, 0, 0)" stroke="rgb(204, 204, 204)" stroke-width="1px"></line><line x1="51.53200149536133" y1="112.35127214951949" x2="46.53200149536133" y2="112.35127214951949" style="visibility: inherit;" fill="rgb(0, 0, 0)" stroke="rgb(204, 204, 204)" stroke-width="1px"></line><line x1="51.53200149536133" y1="96.30109041387388" x2="46.53200149536133" y2="96.30109041387388" style="visibility: inherit;" fill="rgb(0, 0, 0)" stroke="rgb(204, 204, 204)" stroke-width="1px"></line><line x1="51.53200149536133" y1="80.25090867822821" x2="46.53200149536133" y2="80.25090867822821" style="visibility: inherit;" fill="rgb(0, 0, 0)" stroke="rgb(204, 204, 204)" stroke-width="1px"></line><line x1="51.53200149536133" y1="64.20072694258256" x2="46.53200149536133" y2="64.20072694258256" style="visibility: inherit;" fill="rgb(0, 0, 0)" stroke="rgb(204, 204, 204)" stroke-width="1px"></line><line x1="51.53200149536133" y1="48.15054520693694" x2="46.53200149536133" y2="48.15054520693694" style="visibility: inherit;" fill="rgb(0, 0, 0)" stroke="rgb(204, 204, 204)" stroke-width="1px"></line><line x1="51.53200149536133" y1="32.100363471291296" x2="46.53200149536133" y2="32.100363471291296" style="visibility: inherit;" fill="rgb(0, 0, 0)" stroke="rgb(204, 204, 204)" stroke-width="1px"></line><line x1="51.53200149536133" y1="16.050181735645666" x2="46.53200149536133" y2="16.050181735645666" style="visibility: inherit;" fill="rgb(0, 0, 0)" stroke="rgb(204, 204, 204)" stroke-width="1px"></line><line x1="51.53200149536133" y1="0" x2="46.53200149536133" y2="0" style="visibility: inherit;" fill="rgb(0, 0, 0)" stroke="rgb(204, 204, 204)" stroke-width="1px"></line></g><g transform="translate(41.53200149536133, 0)"><text style="text-anchor: end; visibility: hidden; font-family: Roboto, sans-serif; font-size: 12px; font-weight: 200;" x="0" y="176.55199909210205" dx="0em" dy="0.3em" fill="rgb(255, 255, 255)" stroke="none" stroke-width="1px">0.45</text><text style="text-anchor: end; visibility: inherit; font-family: Roboto, sans-serif; font-size: 12px; font-weight: 200;" x="0" y="160.50181735645643" dx="0em" dy="0.3em" fill="rgb(255, 255, 255)" stroke="none" stroke-width="1px">0.5</text><text style="text-anchor: end; visibility: hidden; font-family: Roboto, sans-serif; font-size: 12px; font-weight: 200;" x="0" y="144.45163562081075" dx="0em" dy="0.3em" fill="rgb(255, 255, 255)" stroke="none" stroke-width="1px">0.55</text><text style="text-anchor: end; visibility: inherit; font-family: Roboto, sans-serif; font-size: 12px; font-weight: 200;" x="0" y="128.40145388516513" dx="0em" dy="0.3em" fill="rgb(255, 255, 255)" stroke="none" stroke-width="1px">0.6</text><text style="text-anchor: end; visibility: hidden; font-family: Roboto, sans-serif; font-size: 12px; font-weight: 200;" x="0" y="112.35127214951949" dx="0em" dy="0.3em" fill="rgb(255, 255, 255)" stroke="none" stroke-width="1px">0.65</text><text style="text-anchor: end; visibility: inherit; font-family: Roboto, sans-serif; font-size: 12px; font-weight: 200;" x="0" y="96.30109041387388" dx="0em" dy="0.3em" fill="rgb(255, 255, 255)" stroke="none" stroke-width="1px">0.7</text><text style="text-anchor: end; visibility: hidden; font-family: Roboto, sans-serif; font-size: 12px; font-weight: 200;" x="0" y="80.25090867822821" dx="0em" dy="0.3em" fill="rgb(255, 255, 255)" stroke="none" stroke-width="1px">0.75</text><text style="text-anchor: end; visibility: inherit; font-family: Roboto, sans-serif; font-size: 12px; font-weight: 200;" x="0" y="64.20072694258256" dx="0em" dy="0.3em" fill="rgb(255, 255, 255)" stroke="none" stroke-width="1px">0.8</text><text style="text-anchor: end; visibility: hidden; font-family: Roboto, sans-serif; font-size: 12px; font-weight: 200;" x="0" y="48.15054520693694" dx="0em" dy="0.3em" fill="rgb(255, 255, 255)" stroke="none" stroke-width="1px">0.85</text><text style="text-anchor: end; visibility: inherit; font-family: Roboto, sans-serif; font-size: 12px; font-weight: 200;" x="0" y="32.100363471291296" dx="0em" dy="0.3em" fill="rgb(255, 255, 255)" stroke="none" stroke-width="1px">0.9</text><text style="text-anchor: end; visibility: hidden; font-family: Roboto, sans-serif; font-size: 12px; font-weight: 200;" x="0" y="16.050181735645666" dx="0em" dy="0.3em" fill="rgb(255, 255, 255)" stroke="none" stroke-width="1px">0.95</text><text style="text-anchor: end; visibility: hidden; font-family: Roboto, sans-serif; font-size: 12px; font-weight: 200;" x="0" y="0" dx="0em" dy="0.3em" fill="rgb(255, 255, 255)" stroke="none" stroke-width="1px">1</text></g><line x1="51.53200149536133" y1="0" x2="51.53200149536133" y2="176.55199909210205" fill="rgb(0, 0, 0)" stroke="rgb(204, 204, 204)" stroke-width="1px"></line></g></g><g transform="translate(51, 0)" clip-path="url(#clip_0)"><clipPath id="clip_0"><rect width="278" height="176"></rect></clipPath><g><g><g><line x1="0" y1="0" x2="0" y2="176.55199909210205" fill="rgb(0, 0, 0)" stroke="rgb(189, 189, 189)" stroke-width="1px" opacity="0.25"></line><line x1="30.94088872273763" y1="0" x2="30.94088872273763" y2="176.55199909210205" fill="rgb(0, 0, 0)" stroke="rgb(189, 189, 189)" stroke-width="1px" opacity="0.25"></line><line x1="61.88177744547526" y1="0" x2="61.88177744547526" y2="176.55199909210205" fill="rgb(0, 0, 0)" stroke="rgb(189, 189, 189)" stroke-width="1px" opacity="0.25"></line><line x1="92.82266616821289" y1="0" x2="92.82266616821289" y2="176.55199909210205" fill="rgb(0, 0, 0)" stroke="rgb(189, 189, 189)" stroke-width="1px" opacity="0.25"></line><line x1="123.76355489095052" y1="0" x2="123.76355489095052" y2="176.55199909210205" fill="rgb(0, 0, 0)" stroke="rgb(189, 189, 189)" stroke-width="1px" opacity="0.25"></line><line x1="154.70444361368817" y1="0" x2="154.70444361368817" y2="176.55199909210205" fill="rgb(0, 0, 0)" stroke="rgb(189, 189, 189)" stroke-width="1px" opacity="0.25"></line><line x1="185.64533233642578" y1="0" x2="185.64533233642578" y2="176.55199909210205" fill="rgb(0, 0, 0)" stroke="rgb(189, 189, 189)" stroke-width="1px" opacity="0.25"></line><line x1="216.58622105916342" y1="0" x2="216.58622105916342" y2="176.55199909210205" fill="rgb(0, 0, 0)" stroke="rgb(189, 189, 189)" stroke-width="1px" opacity="0.25"></line><line x1="247.52710978190103" y1="0" x2="247.52710978190103" y2="176.55199909210205" fill="rgb(0, 0, 0)" stroke="rgb(189, 189, 189)" stroke-width="1px" opacity="0.25"></line><line x1="278.4679985046387" y1="0" x2="278.4679985046387" y2="176.55199909210205" fill="rgb(0, 0, 0)" stroke="rgb(189, 189, 189)" stroke-width="1px" opacity="0.25"></line></g><g><line x1="0" y1="176.55199909210205" x2="278.4679985046387" y2="176.55199909210205" fill="rgb(0, 0, 0)" stroke="rgb(189, 189, 189)" stroke-width="1px" opacity="0.25"></line><line x1="0" y1="160.50181735645643" x2="278.4679985046387" y2="160.50181735645643" fill="rgb(0, 0, 0)" stroke="rgb(189, 189, 189)" stroke-width="1px" opacity="0.25"></line><line x1="0" y1="144.45163562081075" x2="278.4679985046387" y2="144.45163562081075" fill="rgb(0, 0, 0)" stroke="rgb(189, 189, 189)" stroke-width="1px" opacity="0.25"></line><line x1="0" y1="128.40145388516513" x2="278.4679985046387" y2="128.40145388516513" fill="rgb(0, 0, 0)" stroke="rgb(189, 189, 189)" stroke-width="1px" opacity="0.25"></line><line x1="0" y1="112.35127214951949" x2="278.4679985046387" y2="112.35127214951949" fill="rgb(0, 0, 0)" stroke="rgb(189, 189, 189)" stroke-width="1px" opacity="0.25"></line><line x1="0" y1="96.30109041387388" x2="278.4679985046387" y2="96.30109041387388" fill="rgb(0, 0, 0)" stroke="rgb(189, 189, 189)" stroke-width="1px" opacity="0.25"></line><line x1="0" y1="80.25090867822821" x2="278.4679985046387" y2="80.25090867822821" fill="rgb(0, 0, 0)" stroke="rgb(189, 189, 189)" stroke-width="1px" opacity="0.25"></line><line x1="0" y1="64.20072694258256" x2="278.4679985046387" y2="64.20072694258256" fill="rgb(0, 0, 0)" stroke="rgb(189, 189, 189)" stroke-width="1px" opacity="0.25"></line><line x1="0" y1="48.15054520693694" x2="278.4679985046387" y2="48.15054520693694" fill="rgb(0, 0, 0)" stroke="rgb(189, 189, 189)" stroke-width="1px" opacity="0.25"></line><line x1="0" y1="32.100363471291296" x2="278.4679985046387" y2="32.100363471291296" fill="rgb(0, 0, 0)" stroke="rgb(189, 189, 189)" stroke-width="1px" opacity="0.25"></line><line x1="0" y1="16.050181735645666" x2="278.4679985046387" y2="16.050181735645666" fill="rgb(0, 0, 0)" stroke="rgb(189, 189, 189)" stroke-width="1px" opacity="0.25"></line><line x1="0" y1="0" x2="278.4679985046387" y2="0" fill="rgb(0, 0, 0)" stroke="rgb(189, 189, 189)" stroke-width="1px" opacity="0.25"></line></g></g></g><g><g><line x1="0" y1="321.0036347129128" x2="278.4679985046387" y2="321.0036347129128" fill="rgb(0, 0, 0)" stroke="rgb(153, 153, 153)" stroke-width="1.5px"></line></g></g><g><g><line x1="30.94088872273763" y1="0" x2="30.94088872273763" y2="176.55199909210205" fill="rgb(0, 0, 0)" stroke="rgb(153, 153, 153)" stroke-width="1.5px"></line></g></g><g><g><g><g><g><path style="fill: none;" stroke="rgb(255, 112, 67)" stroke-width="2px" d="M33.88027315139771,46.76677848001626L36.97436202367147,43.616718546947084L40.06845089594523,39.775741209119374L43.16253976821899,32.58650387371574L46.25662864049276,28.226359749920437L49.35071751276652,25.913600112027837L52.44480638504028,23.844860955725476L55.538895257314046,22.247603703604252L58.63298412958781,16.550824552787248L61.72707300186158,15.542287664475664L64.82116187413534,13.139536269510483L67.9152507464091,11.014501756879877L71.00933961868286,19.96890891127254L74.10342849095663,15.902200911223547L77.19751736323038,12.737168819032878L80.29160623550415,19.162625382761313L83.38569510777792,17.995860254841237L86.47978398005166,18.21040888641805L89.57387285232544,22.76571620237541L92.66796172459921,21.17049570288327L95.76205059687297,27.510124192705444L98.85613946914673,30.542492576983825L101.95022834142048,26.632473343186113L105.04431721369426,44.05976191067518L108.13840608596801,50.9375924639489L111.23249495824177,53.806108092817695L114.32658383051555,56.83891106480268L117.42067270278932,71.31741690199785L120.51476157506306,71.73113934478118L123.60885044733683,78.02117512855399L126.7029393196106,89.08131328297104L129.79702819188435,91.79521227585653L132.89111706415812,95.79505624602521L135.9852059364319,106.20837463233222L139.07929480870567,109.09047985896942L142.1733836809794,112.79567792801883L145.26747255325316,118.02738693347625L148.36156142552693,124.9736803332986L151.4556502978007,120.88440090221994L154.54973917007447,115.59546073627922L157.64382804234822,117.9186061118176L160.737916914622,113.5660952161903L163.83200578689576,113.43525262692377L166.9260946591695,121.10519327435638L170.02018353144328,127.30493426142861L173.11427240371705,122.02826699710657L176.2083612759908,114.88713830104282L179.30245014826454,119.40685157090462L182.39653902053834,125.73019083902946L185.49062789281209,133.35494279812258L188.58471676508583,131.70248399618262L191.67880563735963,139.15975693348685L194.77289450963337,132.580143045424L197.86698338190715,124.2870245259585L200.96107225418092,121.75808916566916L204.05516112645466,125.84667993524702L207.14924999872844,137.29561918689728L210.2433388710022,136.81587162822962L213.33742774327595,145.71634253083744L216.43151661554973,154.42076949774716L219.5256054878235,162.78008272897506L222.61969436009724,166.97858659251776L225.71378323237101,160.89804012167778L228.80787210464476,158.6529490199273L231.90196097691853,171.33145453556068L234.9960498491923,169.6567262794775L238.09013872146605,159.94848443630767L241.18422759373985,159.4352822715633L244.2783164660136,158.13241366989962L247.37240533828734,149.89050872185834L250.46649421056114,156.33395051374268L253.56058308283488,156.87282906052423L256.65467195510865,156.1567660388394L259.7487608273824,160.20746389770886L262.84284969965614,152.96605301171445" fill="none"></path></g></g></g></g><g opacity="0.2"><g><g><g><path style="fill: none;" stroke="rgb(255, 112, 67)" stroke-width="2px" d="M33.88027315139771,46.76677848001626L36.97436202367147,41.726682587105586L40.06845089594523,36.08840296480471L43.16253976821899,24.131960767281072L46.25662864049276,22.533755581893374L49.35071751276652,22.7142209393527L52.44480638504028,20.886530862386635L55.538895257314046,19.9187872963418L58.63298412958781,8.149181847714475L61.72707300186158,14.044727924256005L64.82116187413534,9.557201955372578L67.9152507464091,7.83851433191009L71.00933961868286,33.37128194987704L74.10342849095663,9.810106015476203L77.19751736323038,7.993341057160399L80.29160623550415,28.79627849856105L83.38569510777792,16.24620629886047L86.47978398005166,18.53217735990899L89.57387285232544,29.597983221091027L92.66796172459921,18.777810763117508L95.76205059687297,37.0192192471455L98.85613946914673,35.090945372028074L101.95022834142048,20.767521688998485L105.04431721369426,70.20048831906149L108.13840608596801,61.25428940918359L111.23249495824177,58.10886930321194L114.32658383051555,61.38810776266859L117.42067270278932,93.0351534298737L120.51476157506306,72.3517226278593L123.60885044733683,87.45622532780597L126.7029393196106,105.6715168469345L129.79702819188435,95.86606022520962L132.89111706415812,101.79482172377719L135.9852059364319,121.82835146590813L139.07929480870567,113.4136375750617L142.1733836809794,118.35347493605057L145.26747255325316,125.87495036071925L148.36156142552693,135.39312036854975L151.4556502978007,114.75048177837834L154.54973917007447,107.66205050504307L157.64382804234822,121.40332417046693L160.737916914622,107.03732887798581L163.83200578689576,113.23898874311847L166.9260946591695,132.61010424218335L170.02018353144328,136.60454574042598L173.11427240371705,114.11326610144609L176.2083612759908,104.17544525761525L179.30245014826454,126.18642147544361L182.39653902053834,135.21519974100372L185.49062789281209,144.79207073660828L188.58471676508583,129.22379579329262L191.67880563735963,150.3456663393889L194.77289450963337,122.71072221335845L197.86698338190715,111.84734674678194L200.96107225418092,117.96468612523913L204.05516112645466,131.97956608961002L207.14924999872844,154.46902806436614L210.2433388710022,136.09625029022834L213.33742774327595,159.0670488847474L216.43151661554973,167.4774099481106L219.5256054878235,175.31905257581633L222.61969436009724,173.27634238783162L225.71378323237101,151.777220415418L228.80787210464476,155.28531236730157L231.90196097691853,190.34921280901065L234.9960498491923,167.14463389535283L238.09013872146605,145.38612167155284L241.18422759373985,158.6654790244467L244.2783164660136,156.17811076740406L247.37240533828734,137.52765129979645L250.46649421056114,165.9991132015691L253.56058308283488,157.6811468806965L256.65467195510865,155.0826715063122L259.7487608273824,166.28351068601305L262.84284969965614,142.10393668272292" fill="none"></path></g></g></g></g></g></g><g transform="translate(51, 176)" clip-path="url(#clip_1)"><clipPath id="clip_1"><rect width="278" height="23"></rect></clipPath><g><g><line x1="0" y1="0" x2="0" y2="5" style="visibility: inherit;" fill="rgb(0, 0, 0)" stroke="rgb(204, 204, 204)" stroke-width="1px"></line><line x1="30.94088872273763" y1="0" x2="30.94088872273763" y2="5" style="visibility: inherit;" fill="rgb(0, 0, 0)" stroke="rgb(204, 204, 204)" stroke-width="1px"></line><line x1="61.88177744547526" y1="0" x2="61.88177744547526" y2="5" style="visibility: inherit;" fill="rgb(0, 0, 0)" stroke="rgb(204, 204, 204)" stroke-width="1px"></line><line x1="92.82266616821289" y1="0" x2="92.82266616821289" y2="5" style="visibility: inherit;" fill="rgb(0, 0, 0)" stroke="rgb(204, 204, 204)" stroke-width="1px"></line><line x1="123.76355489095052" y1="0" x2="123.76355489095052" y2="5" style="visibility: inherit;" fill="rgb(0, 0, 0)" stroke="rgb(204, 204, 204)" stroke-width="1px"></line><line x1="154.70444361368817" y1="0" x2="154.70444361368817" y2="5" style="visibility: inherit;" fill="rgb(0, 0, 0)" stroke="rgb(204, 204, 204)" stroke-width="1px"></line><line x1="185.64533233642578" y1="0" x2="185.64533233642578" y2="5" style="visibility: inherit;" fill="rgb(0, 0, 0)" stroke="rgb(204, 204, 204)" stroke-width="1px"></line><line x1="216.58622105916342" y1="0" x2="216.58622105916342" y2="5" style="visibility: inherit;" fill="rgb(0, 0, 0)" stroke="rgb(204, 204, 204)" stroke-width="1px"></line><line x1="247.52710978190103" y1="0" x2="247.52710978190103" y2="5" style="visibility: inherit;" fill="rgb(0, 0, 0)" stroke="rgb(204, 204, 204)" stroke-width="1px"></line><line x1="278.4679985046387" y1="0" x2="278.4679985046387" y2="5" style="visibility: inherit;" fill="rgb(0, 0, 0)" stroke="rgb(204, 204, 204)" stroke-width="1px"></line></g><g transform="translate(0, 8)"><text style="text-anchor: middle; visibility: hidden; font-family: Roboto, sans-serif; font-size: 12px; font-weight: 200;" x="0" y="0" dx="0em" dy="0.95em" fill="rgb(255, 255, 255)" stroke="none" stroke-width="1px">-200</text><text style="text-anchor: middle; visibility: inherit; font-family: Roboto, sans-serif; font-size: 12px; font-weight: 200;" x="30.94088872273763" y="0" dx="0em" dy="0.95em" fill="rgb(255, 255, 255)" stroke="none" stroke-width="1px">0</text><text style="text-anchor: middle; visibility: inherit; font-family: Roboto, sans-serif; font-size: 12px; font-weight: 200;" x="61.88177744547526" y="0" dx="0em" dy="0.95em" fill="rgb(255, 255, 255)" stroke="none" stroke-width="1px">200</text><text style="text-anchor: middle; visibility: inherit; font-family: Roboto, sans-serif; font-size: 12px; font-weight: 200;" x="92.82266616821289" y="0" dx="0em" dy="0.95em" fill="rgb(255, 255, 255)" stroke="none" stroke-width="1px">400</text><text style="text-anchor: middle; visibility: inherit; font-family: Roboto, sans-serif; font-size: 12px; font-weight: 200;" x="123.76355489095052" y="0" dx="0em" dy="0.95em" fill="rgb(255, 255, 255)" stroke="none" stroke-width="1px">600</text><text style="text-anchor: middle; visibility: inherit; font-family: Roboto, sans-serif; font-size: 12px; font-weight: 200;" x="154.70444361368817" y="0" dx="0em" dy="0.95em" fill="rgb(255, 255, 255)" stroke="none" stroke-width="1px">800</text><text style="text-anchor: middle; visibility: inherit; font-family: Roboto, sans-serif; font-size: 12px; font-weight: 200;" x="185.64533233642578" y="0" dx="0em" dy="0.95em" fill="rgb(255, 255, 255)" stroke="none" stroke-width="1px">1k</text><text style="text-anchor: middle; visibility: inherit; font-family: Roboto, sans-serif; font-size: 12px; font-weight: 200;" x="216.58622105916342" y="0" dx="0em" dy="0.95em" fill="rgb(255, 255, 255)" stroke="none" stroke-width="1px">1.2k</text><text style="text-anchor: middle; visibility: inherit; font-family: Roboto, sans-serif; font-size: 12px; font-weight: 200;" x="247.52710978190103" y="0" dx="0em" dy="0.95em" fill="rgb(255, 255, 255)" stroke="none" stroke-width="1px">1.4k</text><text style="text-anchor: middle; visibility: hidden; font-family: Roboto, sans-serif; font-size: 12px; font-weight: 200;" x="278.4679985046387" y="0" dx="0em" dy="0.95em" fill="rgb(255, 255, 255)" stroke="none" stroke-width="1px">1.6k</text></g><line x1="0" y1="0" x2="278.4679985046387" y2="0" fill="rgb(0, 0, 0)" stroke="rgb(204, 204, 204)" stroke-width="1px"></line></g></g></g></g></svg>