<svg viewBox="0 0 330 200" xmlns="http://www.w3.org/2000/svg"><g><g><g><g><g><line x1="72.29800224304199" y1="176.55199909210205" x2="67.29800224304199" y2="176.55199909210205" style="visibility: inherit;" fill="rgb(0, 0, 0)" stroke="rgb(204, 204, 204)" stroke-width="1px"></line><line x1="72.29800224304199" y1="163.94114201409477" x2="67.29800224304199" y2="163.94114201409477" style="visibility: inherit;" fill="rgb(0, 0, 0)" stroke="rgb(204, 204, 204)" stroke-width="1px"></line><line x1="72.29800224304199" y1="151.33028493608745" x2="67.29800224304199" y2="151.33028493608745" style="visibility: inherit;" fill="rgb(0, 0, 0)" stroke="rgb(204, 204, 204)" stroke-width="1px"></line><line x1="72.29800224304199" y1="138.71942785808017" x2="67.29800224304199" y2="138.71942785808017" style="visibility: inherit;" fill="rgb(0, 0, 0)" stroke="rgb(204, 204, 204)" stroke-width="1px"></line><line x1="72.29800224304199" y1="126.10857078007288" x2="67.29800224304199" y2="126.10857078007288" style="visibility: inherit;" fill="rgb(0, 0, 0)" stroke="rgb(204, 204, 204)" stroke-width="1px"></line><line x1="72.29800224304199" y1="113.4977137020656" x2="67.29800224304199" y2="113.4977137020656" style="visibility: inherit;" fill="rgb(0, 0, 0)" stroke="rgb(204, 204, 204)" stroke-width="1px"></line><line x1="72.29800224304199" y1="100.88685662405831" x2="67.29800224304199" y2="100.88685662405831" style="visibility: inherit;" fill="rgb(0, 0, 0)" stroke="rgb(204, 204, 204)" stroke-width="1px"></line><line x1="72.29800224304199" y1="88.27599954605103" x2="67.29800224304199" y2="88.27599954605103" style="visibility: inherit;" fill="rgb(0, 0, 0)" stroke="rgb(204, 204, 204)" stroke-width="1px"></line><line x1="72.29800224304199" y1="75.66514246804373" x2="67.29800224304199" y2="75.66514246804373" style="visibility: inherit;" fill="rgb(0, 0, 0)" stroke="rgb(204, 204, 204)" stroke-width="1px"></line><line x1="72.29800224304199" y1="63.05428539003644" x2="67.29800224304199" y2="63.05428539003644" style="visibility: inherit;" fill="rgb(0, 0, 0)" stroke="rgb(204, 204, 204)" stroke-width="1px"></line><line x1="72.29800224304199" y1="50.443428312029134" x2="67.29800224304199" y2="50.443428312029134" style="visibility: inherit;" fill="rgb(0, 0, 0)" stroke="rgb(204, 204, 204)" stroke-width="1px"></line><line x1="72.29800224304199" y1="37.83257123402185" x2="67.29800224304199" y2="37.83257123402185" style="visibility: inherit;" fill="rgb(0, 0, 0)" stroke="rgb(204, 204, 204)" stroke-width="1px"></line><line x1="72.29800224304199" y1="25.221714156014567" x2="67.29800224304199" y2="25.221714156014567" style="visibility: inherit;" fill="rgb(0, 0, 0)" stroke="rgb(204, 204, 204)" stroke-width="1px"></line><line x1="72.29800224304199" y1="12.610857078007284" x2="67.29800224304199" y2="12.610857078007284" style="visibility: inherit;" fill="rgb(0, 0, 0)" stroke="rgb(204, 204, 204)" stroke-width="1px"></line></g><g transform="translate(62.29800224304199, 0)"><text style="text-anchor: end; visibility: hidden; font-family: Roboto, sans-serif; font-size: 12px; font-weight: 200;" x="0" y="176.55199909210205" dx="0em" dy="0.3em" fill="rgb(255, 255, 255)" stroke="none" stroke-width="1px">0</text><text style="text-anchor: end; visibility: inherit; font-family: Roboto, sans-serif; font-size: 12px; font-weight: 200;" x="0" y="163.94114201409477" dx="0em" dy="0.3em" fill="rgb(255, 255, 255)" stroke="none" stroke-width="1px">2e-5</text><text style="text-anchor: end; visibility: hidden; font-family: Roboto, sans-serif; font-size: 12px; font-weight: 200;" x="0" y="151.33028493608745" dx="0em" dy="0.3em" fill="rgb(255, 255, 255)" stroke="none" stroke-width="1px">4e-5</text><text style="text-anchor: end; visibility: inherit; font-family: Roboto, sans-serif; font-size: 12px; font-weight: 200;" x="0" y="138.71942785808017" dx="0em" dy="0.3em" fill="rgb(255, 255, 255)" stroke="none" stroke-width="1px">6e-5</text><text style="text-anchor: end; visibility: hidden; font-family: Roboto, sans-serif; font-size: 12px; font-weight: 200;" x="0" y="126.10857078007288" dx="0em" dy="0.3em" fill="rgb(255, 255, 255)" stroke="none" stroke-width="1px">8e-5</text><text style="text-anchor: end; visibility: inherit; font-family: Roboto, sans-serif; font-size: 12px; font-weight: 200;" x="0" y="113.4977137020656" dx="0em" dy="0.3em" fill="rgb(255, 255, 255)" stroke="none" stroke-width="1px">1e-4</text><text style="text-anchor: end; visibility: hidden; font-family: Roboto, sans-serif; font-size: 12px; font-weight: 200;" x="0" y="100.88685662405831" dx="0em" dy="0.3em" fill="rgb(255, 255, 255)" stroke="none" stroke-width="1px">1.2e-4</text><text style="text-anchor: end; visibility: inherit; font-family: Roboto, sans-serif; font-size: 12px; font-weight: 200;" x="0" y="88.27599954605103" dx="0em" dy="0.3em" fill="rgb(255, 255, 255)" stroke="none" stroke-width="1px">1.4e-4</text><text style="text-anchor: end; visibility: hidden; font-family: Roboto, sans-serif; font-size: 12px; font-weight: 200;" x="0" y="75.66514246804373" dx="0em" dy="0.3em" fill="rgb(255, 255, 255)" stroke="none" stroke-width="1px">1.6e-4</text><text style="text-anchor: end; visibility: inherit; font-family: Roboto, sans-serif; font-size: 12px; font-weight: 200;" x="0" y="63.05428539003644" dx="0em" dy="0.3em" fill="rgb(255, 255, 255)" stroke="none" stroke-width="1px">1.8e-4</text><text style="text-anchor: end; visibility: hidden; font-family: Roboto, sans-serif; font-size: 12px; font-weight: 200;" x="0" y="50.443428312029134" dx="0em" dy="0.3em" fill="rgb(255, 255, 255)" stroke="none" stroke-width="1px">2e-4</text><text style="text-anchor: end; visibility: inherit; font-family: Roboto, sans-serif; font-size: 12px; font-weight: 200;" x="0" y="37.83257123402185" dx="0em" dy="0.3em" fill="rgb(255, 255, 255)" stroke="none" stroke-width="1px">2.2e-4</text><text style="text-anchor: end; visibility: hidden; font-family: Roboto, sans-serif; font-size: 12px; font-weight: 200;" x="0" y="25.221714156014567" dx="0em" dy="0.3em" fill="rgb(255, 255, 255)" stroke="none" stroke-width="1px">2.4e-4</text><text style="text-anchor: end; visibility: inherit; font-family: Roboto, sans-serif; font-size: 12px; font-weight: 200;" x="0" y="12.610857078007284" dx="0em" dy="0.3em" fill="rgb(255, 255, 255)" stroke="none" stroke-width="1px">2.6e-4</text></g><line x1="72.29800224304199" y1="0" x2="72.29800224304199" y2="176.55199909210205" fill="rgb(0, 0, 0)" stroke="rgb(204, 204, 204)" stroke-width="1px"></line></g></g><g transform="translate(72, 0)" clip-path="url(#clip_0)"><clipPath id="clip_0"><rect width="257" height="176"></rect></clipPath><g><g><g><line x1="0" y1="0" x2="0" y2="176.55199909210205" fill="rgb(0, 0, 0)" stroke="rgb(189, 189, 189)" stroke-width="1px" opacity="0.25"></line><line x1="28.633555306328667" y1="0" x2="28.633555306328667" y2="176.55199909210205" fill="rgb(0, 0, 0)" stroke="rgb(189, 189, 189)" stroke-width="1px" opacity="0.25"></line><line x1="57.26711061265733" y1="0" x2="57.26711061265733" y2="176.55199909210205" fill="rgb(0, 0, 0)" stroke="rgb(189, 189, 189)" stroke-width="1px" opacity="0.25"></line><line x1="85.900665918986" y1="0" x2="85.900665918986" y2="176.55199909210205" fill="rgb(0, 0, 0)" stroke="rgb(189, 189, 189)" stroke-width="1px" opacity="0.25"></line><line x1="114.53422122531467" y1="0" x2="114.53422122531467" y2="176.55199909210205" fill="rgb(0, 0, 0)" stroke="rgb(189, 189, 189)" stroke-width="1px" opacity="0.25"></line><line x1="143.16777653164334" y1="0" x2="143.16777653164334" y2="176.55199909210205" fill="rgb(0, 0, 0)" stroke="rgb(189, 189, 189)" stroke-width="1px" opacity="0.25"></line><line x1="171.801331837972" y1="0" x2="171.801331837972" y2="176.55199909210205" fill="rgb(0, 0, 0)" stroke="rgb(189, 189, 189)" stroke-width="1px" opacity="0.25"></line><line x1="200.4348871443007" y1="0" x2="200.4348871443007" y2="176.55199909210205" fill="rgb(0, 0, 0)" stroke="rgb(189, 189, 189)" stroke-width="1px" opacity="0.25"></line><line x1="229.06844245062933" y1="0" x2="229.06844245062933" y2="176.55199909210205" fill="rgb(0, 0, 0)" stroke="rgb(189, 189, 189)" stroke-width="1px" opacity="0.25"></line><line x1="257.701997756958" y1="0" x2="257.701997756958" y2="176.55199909210205" fill="rgb(0, 0, 0)" stroke="rgb(189, 189, 189)" stroke-width="1px" opacity="0.25"></line></g><g><line x1="0" y1="176.55199909210205" x2="257.701997756958" y2="176.55199909210205" fill="rgb(0, 0, 0)" stroke="rgb(189, 189, 189)" stroke-width="1px" opacity="0.25"></line><line x1="0" y1="163.94114201409477" x2="257.701997756958" y2="163.94114201409477" fill="rgb(0, 0, 0)" stroke="rgb(189, 189, 189)" stroke-width="1px" opacity="0.25"></line><line x1="0" y1="151.33028493608745" x2="257.701997756958" y2="151.33028493608745" fill="rgb(0, 0, 0)" stroke="rgb(189, 189, 189)" stroke-width="1px" opacity="0.25"></line><line x1="0" y1="138.71942785808017" x2="257.701997756958" y2="138.71942785808017" fill="rgb(0, 0, 0)" stroke="rgb(189, 189, 189)" stroke-width="1px" opacity="0.25"></line><line x1="0" y1="126.10857078007288" x2="257.701997756958" y2="126.10857078007288" fill="rgb(0, 0, 0)" stroke="rgb(189, 189, 189)" stroke-width="1px" opacity="0.25"></line><line x1="0" y1="113.4977137020656" x2="257.701997756958" y2="113.4977137020656" fill="rgb(0, 0, 0)" stroke="rgb(189, 189, 189)" stroke-width="1px" opacity="0.25"></line><line x1="0" y1="100.88685662405831" x2="257.701997756958" y2="100.88685662405831" fill="rgb(0, 0, 0)" stroke="rgb(189, 189, 189)" stroke-width="1px" opacity="0.25"></line><line x1="0" y1="88.27599954605103" x2="257.701997756958" y2="88.27599954605103" fill="rgb(0, 0, 0)" stroke="rgb(189, 189, 189)" stroke-width="1px" opacity="0.25"></line><line x1="0" y1="75.66514246804373" x2="257.701997756958" y2="75.66514246804373" fill="rgb(0, 0, 0)" stroke="rgb(189, 189, 189)" stroke-width="1px" opacity="0.25"></line><line x1="0" y1="63.05428539003644" x2="257.701997756958" y2="63.05428539003644" fill="rgb(0, 0, 0)" stroke="rgb(189, 189, 189)" stroke-width="1px" opacity="0.25"></line><line x1="0" y1="50.443428312029134" x2="257.701997756958" y2="50.443428312029134" fill="rgb(0, 0, 0)" stroke="rgb(189, 189, 189)" stroke-width="1px" opacity="0.25"></line><line x1="0" y1="37.83257123402185" x2="257.701997756958" y2="37.83257123402185" fill="rgb(0, 0, 0)" stroke="rgb(189, 189, 189)" stroke-width="1px" opacity="0.25"></line><line x1="0" y1="25.221714156014567" x2="257.701997756958" y2="25.221714156014567" fill="rgb(0, 0, 0)" stroke="rgb(189, 189, 189)" stroke-width="1px" opacity="0.25"></line><line x1="0" y1="12.610857078007284" x2="257.701997756958" y2="12.610857078007284" fill="rgb(0, 0, 0)" stroke="rgb(189, 189, 189)" stroke-width="1px" opacity="0.25"></line></g></g></g><g><g><line x1="0" y1="176.55199909210205" x2="257.701997756958" y2="176.55199909210205" fill="rgb(0, 0, 0)" stroke="rgb(153, 153, 153)" stroke-width="1.5px"></line></g></g><g><g><line x1="28.633555306328667" y1="0" x2="28.633555306328667" y2="176.55199909210205" fill="rgb(0, 0, 0)" stroke="rgb(153, 153, 153)" stroke-width="1.5px"></line></g></g><g><g><g><g><g><path style="fill: none;" stroke="rgb(255, 112, 67)" stroke-width="2px" d="M31.353743060429892,173.40227987744194L34.21709859106276,171.43380393436115L37.080454121695624,169.2242899744043L39.94380965232849,166.80209549038517L42.807165182961356,164.2005766079259L45.67052071359423,161.45399016058673L48.53387624422709,158.5943052050418L51.39723177485996,155.64925712077874L54.26058730549283,152.64155860891302L57.12394283612569,149.58896783508055L59.98729836675856,146.5048576701208L62.850653897391425,143.3989953569292L65.7140094280243,140.27833755312798L68.57736495865717,137.147741830032L71.44072048929002,134.01053718839074L74.30407601992289,130.86897779505188L77.16743155055576,127.72457261340878L80.03078708118862,124.57831680713902L82.8941426118215,121.43086749277488L85.75749814245437,118.28264918675944L88.62085367308723,115.13394066261999L91.48420920372008,111.98491776678664L94.34756473435296,108.8356952004629L97.21092026498583,105.68634803690719L100.07427579561869,102.53692030123058L102.93763132625156,99.38744183486637L105.80098685688444,96.23793516779804L108.6643423875173,93.08840705050255L111.52769791815015,89.9388655473259L114.39105344878303,86.78931570316844L117.2544089794159,83.6397606687494L120.11776451004876,80.49020607901149L122.98112004068163,77.34064801899628L125.84447557131449,74.19108783670887L128.70783110194736,71.0415263569946L131.57118663258024,67.89196775462857L134.43454216321308,64.742407199766L137.29789769384595,61.59284546820785L140.16125322447883,58.443283027513665L143.0246087551117,55.2937201594667L145.88796428574457,52.144160704127806L148.75131981637742,48.99459962549768L151.61467534701032,45.8450375724886L154.47803087764316,42.69547493460966L157.341386408276,39.54591194566332L160.2047419389089,36.39635241623168L163.06809746954175,33.24679129221403L165.93145300017463,30.097229211413318L168.7948085308075,26.947670226766398L171.65816406144035,23.79810942955793L174.52151959207322,21.845376909611826L177.3848751227061,20.673737397650225L180.24823065333896,19.97075369047539L183.11158618397184,19.54896346617137L185.9749417146047,19.295889331589187L188.83829724523756,19.144044850839958L191.70165277587043,19.052938162390458L194.5650083065033,18.998274149320764L197.42836383713615,18.965475741478972L200.29171936776905,18.945796696773908L203.1550748984019,18.933989269950878L206.01843042903477,18.926904813857025L208.88178595966764,18.922654140200756L211.74514149030048,18.92010373600699L214.60849702093336,18.91857349349072L217.47185255156623,18.917655347980933L220.3352080821991,18.917104460675095L223.19856361283198,18.91677392829155L226.06191914346482,18.916575608861443L228.9252746740977,18.91645661720337L231.78863020473057,18.916385222208547L234.65198573536344,18.916342385211642L237.51534126599628,18.916316683013463L240.37869679662919,18.916301261694624L243.24205232726203,18.91629200890331" fill="none"></path></g></g></g></g><g opacity="0.2"><g><g><g><path style="fill: none;" stroke="rgb(255, 112, 67)" stroke-width="2px" d="M31.353743060429892,173.40227987744194L34.21709859106276,170.25271836851266L37.080454121695624,167.10315657284568L39.94380965232849,163.95359477717872L42.807165182961356,160.80403355498714L45.67052071359423,157.65447233279556L48.53387624422709,154.5049099636532L51.39723177485996,151.35534874146163L54.26058730549283,148.20578751927005L57.12394283612569,145.05622629707847L59.98729836675856,141.90666507488686L62.850653897391425,138.75710385269528L65.7140094280243,135.60754033660217L68.57736495865717,132.45798140831212L71.44072048929002,129.30841789221898L74.30407601992289,126.15885437612587L77.16743155055576,123.00929544783583L80.03078708118862,119.85973193174272L82.8941426118215,116.71017300345265L85.75749814245437,113.56060948735954L88.62085367308723,110.4110505590695L91.48420920372008,107.26148704297637L94.34756473435296,104.11192352688326L97.21092026498583,100.96236459859321L100.07427579561869,97.8128010825001L102.93763132625156,94.66323756640696L105.80098685688444,91.51368322591999L108.6643423875173,88.36411970982685L111.52769791815015,85.21455619373374L114.39105344878303,82.06499267764063L117.2544089794159,78.9154291615475L120.11776451004876,75.76587482106055L122.98112004068163,72.61631130496741L125.84447557131449,69.4667477888743L128.70783110194736,66.31718427278116L131.57118663258024,63.16762993229421L134.43454216321308,60.01806641620108L137.29789769384595,56.86850290010796L140.16125322447883,53.71893938401483L143.0246087551117,50.569375867921714L145.88796428574457,47.41982152743474L148.75131981637742,44.27025801134163L151.61467534701032,41.1206944952485L154.47803087764316,37.97113097915538L157.341386408276,34.82156746306225L160.2047419389089,31.672013122575297L163.06809746954175,28.522449606482162L165.93145300017463,25.37288609038905L168.7948085308075,22.22333174990208L171.65816406144035,19.073768233808966L174.52151959207322,18.916278129716304L177.3848751227061,18.916278129716304L180.24823065333896,18.916278129716304L183.11158618397184,18.916278129716304L185.9749417146047,18.916278129716304L188.83829724523756,18.916278129716304L191.70165277587043,18.916278129716304L194.5650083065033,18.916278129716304L197.42836383713615,18.916278129716304L200.29171936776905,18.916278129716304L203.1550748984019,18.916278129716304L206.01843042903477,18.916278129716304L208.88178595966764,18.916278129716304L211.74514149030048,18.916278129716304L214.60849702093336,18.916278129716304L217.47185255156623,18.916278129716304L220.3352080821991,18.916278129716304L223.19856361283198,18.916278129716304L226.06191914346482,18.916278129716304L228.9252746740977,18.916278129716304L231.78863020473057,18.916278129716304L234.65198573536344,18.916278129716304L237.51534126599628,18.916278129716304L240.37869679662919,18.916278129716304L243.24205232726203,18.916278129716304" fill="none"></path></g></g></g></g></g></g><g transform="translate(72, 176)" clip-path="url(#clip_1)"><clipPath id="clip_1"><rect width="257" height="23"></rect></clipPath><g><g><line x1="0" y1="0" x2="0" y2="5" style="visibility: inherit;" fill="rgb(0, 0, 0)" stroke="rgb(204, 204, 204)" stroke-width="1px"></line><line x1="28.633555306328667" y1="0" x2="28.633555306328667" y2="5" style="visibility: inherit;" fill="rgb(0, 0, 0)" stroke="rgb(204, 204, 204)" stroke-width="1px"></line><line x1="57.26711061265733" y1="0" x2="57.26711061265733" y2="5" style="visibility: inherit;" fill="rgb(0, 0, 0)" stroke="rgb(204, 204, 204)" stroke-width="1px"></line><line x1="85.900665918986" y1="0" x2="85.900665918986" y2="5" style="visibility: inherit;" fill="rgb(0, 0, 0)" stroke="rgb(204, 204, 204)" stroke-width="1px"></line><line x1="114.53422122531467" y1="0" x2="114.53422122531467" y2="5" style="visibility: inherit;" fill="rgb(0, 0, 0)" stroke="rgb(204, 204, 204)" stroke-width="1px"></line><line x1="143.16777653164334" y1="0" x2="143.16777653164334" y2="5" style="visibility: inherit;" fill="rgb(0, 0, 0)" stroke="rgb(204, 204, 204)" stroke-width="1px"></line><line x1="171.801331837972" y1="0" x2="171.801331837972" y2="5" style="visibility: inherit;" fill="rgb(0, 0, 0)" stroke="rgb(204, 204, 204)" stroke-width="1px"></line><line x1="200.4348871443007" y1="0" x2="200.4348871443007" y2="5" style="visibility: inherit;" fill="rgb(0, 0, 0)" stroke="rgb(204, 204, 204)" stroke-width="1px"></line><line x1="229.06844245062933" y1="0" x2="229.06844245062933" y2="5" style="visibility: inherit;" fill="rgb(0, 0, 0)" stroke="rgb(204, 204, 204)" stroke-width="1px"></line><line x1="257.701997756958" y1="0" x2="257.701997756958" y2="5" style="visibility: inherit;" fill="rgb(0, 0, 0)" stroke="rgb(204, 204, 204)" stroke-width="1px"></line></g><g transform="translate(0, 8)"><text style="text-anchor: middle; visibility: hidden; font-family: Roboto, sans-serif; font-size: 12px; font-weight: 200;" x="0" y="0" dx="0em" dy="0.95em" fill="rgb(255, 255, 255)" stroke="none" stroke-width="1px">-200</text><text style="text-anchor: middle; visibility: inherit; font-family: Roboto, sans-serif; font-size: 12px; font-weight: 200;" x="28.633555306328667" y="0" dx="0em" dy="0.95em" fill="rgb(255, 255, 255)" stroke="none" stroke-width="1px">0</text><text style="text-anchor: middle; visibility: inherit; font-family: Roboto, sans-serif; font-size: 12px; font-weight: 200;" x="57.26711061265733" y="0" dx="0em" dy="0.95em" fill="rgb(255, 255, 255)" stroke="none" stroke-width="1px">200</text><text style="text-anchor: middle; visibility: inherit; font-family: Roboto, sans-serif; font-size: 12px; font-weight: 200;" x="85.900665918986" y="0" dx="0em" dy="0.95em" fill="rgb(255, 255, 255)" stroke="none" stroke-width="1px">400</text><text style="text-anchor: middle; visibility: inherit; font-family: Roboto, sans-serif; font-size: 12px; font-weight: 200;" x="114.53422122531467" y="0" dx="0em" dy="0.95em" fill="rgb(255, 255, 255)" stroke="none" stroke-width="1px">600</text><text style="text-anchor: middle; visibility: inherit; font-family: Roboto, sans-serif; font-size: 12px; font-weight: 200;" x="143.16777653164334" y="0" dx="0em" dy="0.95em" fill="rgb(255, 255, 255)" stroke="none" stroke-width="1px">800</text><text style="text-anchor: middle; visibility: inherit; font-family: Roboto, sans-serif; font-size: 12px; font-weight: 200;" x="171.801331837972" y="0" dx="0em" dy="0.95em" fill="rgb(255, 255, 255)" stroke="none" stroke-width="1px">1k</text><text style="text-anchor: middle; visibility: inherit; font-family: Roboto, sans-serif; font-size: 12px; font-weight: 200;" x="200.4348871443007" y="0" dx="0em" dy="0.95em" fill="rgb(255, 255, 255)" stroke="none" stroke-width="1px">1.2k</text><text style="text-anchor: middle; visibility: inherit; font-family: Roboto, sans-serif; font-size: 12px; font-weight: 200;" x="229.06844245062933" y="0" dx="0em" dy="0.95em" fill="rgb(255, 255, 255)" stroke="none" stroke-width="1px">1.4k</text><text style="text-anchor: middle; visibility: hidden; font-family: Roboto, sans-serif; font-size: 12px; font-weight: 200;" x="257.701997756958" y="0" dx="0em" dy="0.95em" fill="rgb(255, 255, 255)" stroke="none" stroke-width="1px">1.6k</text></g><line x1="0" y1="0" x2="257.701997756958" y2="0" fill="rgb(0, 0, 0)" stroke="rgb(204, 204, 204)" stroke-width="1px"></line></g></g></g></g></svg>