<svg viewBox="0 0 330 200" xmlns="http://www.w3.org/2000/svg"><g><g><g><g><g><line x1="51.53200149536133" y1="176.55199909210205" x2="46.53200149536133" y2="176.55199909210205" style="visibility: inherit;" fill="rgb(0, 0, 0)" stroke="rgb(204, 204, 204)" stroke-width="1px"></line><line x1="51.53200149536133" y1="156.9351103040907" x2="46.53200149536133" y2="156.9351103040907" style="visibility: inherit;" fill="rgb(0, 0, 0)" stroke="rgb(204, 204, 204)" stroke-width="1px"></line><line x1="51.53200149536133" y1="137.31822151607938" x2="46.53200149536133" y2="137.31822151607938" style="visibility: inherit;" fill="rgb(0, 0, 0)" stroke="rgb(204, 204, 204)" stroke-width="1px"></line><line x1="51.53200149536133" y1="117.70133272806802" x2="46.53200149536133" y2="117.70133272806802" style="visibility: inherit;" fill="rgb(0, 0, 0)" stroke="rgb(204, 204, 204)" stroke-width="1px"></line><line x1="51.53200149536133" y1="98.0844439400567" x2="46.53200149536133" y2="98.0844439400567" style="visibility: inherit;" fill="rgb(0, 0, 0)" stroke="rgb(204, 204, 204)" stroke-width="1px"></line><line x1="51.53200149536133" y1="78.46755515204535" x2="46.53200149536133" y2="78.46755515204535" style="visibility: inherit;" fill="rgb(0, 0, 0)" stroke="rgb(204, 204, 204)" stroke-width="1px"></line><line x1="51.53200149536133" y1="58.850666364034026" x2="46.53200149536133" y2="58.850666364034026" style="visibility: inherit;" fill="rgb(0, 0, 0)" stroke="rgb(204, 204, 204)" stroke-width="1px"></line><line x1="51.53200149536133" y1="39.233777576022675" x2="46.53200149536133" y2="39.233777576022675" style="visibility: inherit;" fill="rgb(0, 0, 0)" stroke="rgb(204, 204, 204)" stroke-width="1px"></line><line x1="51.53200149536133" y1="19.616888788011327" x2="46.53200149536133" y2="19.616888788011327" style="visibility: inherit;" fill="rgb(0, 0, 0)" stroke="rgb(204, 204, 204)" stroke-width="1px"></line><line x1="51.53200149536133" y1="0" x2="46.53200149536133" y2="0" style="visibility: inherit;" fill="rgb(0, 0, 0)" stroke="rgb(204, 204, 204)" stroke-width="1px"></line></g><g transform="translate(41.53200149536133, 0)"><text style="text-anchor: end; visibility: hidden; font-family: Roboto, sans-serif; font-size: 12px; font-weight: 200;" x="0" y="176.55199909210205" dx="0em" dy="0.3em" fill="rgb(255, 255, 255)" stroke="none" stroke-width="1px">0.05</text><text style="text-anchor: end; visibility: inherit; font-family: Roboto, sans-serif; font-size: 12px; font-weight: 200;" x="0" y="156.9351103040907" dx="0em" dy="0.3em" fill="rgb(255, 255, 255)" stroke="none" stroke-width="1px">0.1</text><text style="text-anchor: end; visibility: hidden; font-family: Roboto, sans-serif; font-size: 12px; font-weight: 200;" x="0" y="137.31822151607938" dx="0em" dy="0.3em" fill="rgb(255, 255, 255)" stroke="none" stroke-width="1px">0.15</text><text style="text-anchor: end; visibility: inherit; font-family: Roboto, sans-serif; font-size: 12px; font-weight: 200;" x="0" y="117.70133272806802" dx="0em" dy="0.3em" fill="rgb(255, 255, 255)" stroke="none" stroke-width="1px">0.2</text><text style="text-anchor: end; visibility: hidden; font-family: Roboto, sans-serif; font-size: 12px; font-weight: 200;" x="0" y="98.0844439400567" dx="0em" dy="0.3em" fill="rgb(255, 255, 255)" stroke="none" stroke-width="1px">0.25</text><text style="text-anchor: end; visibility: inherit; font-family: Roboto, sans-serif; font-size: 12px; font-weight: 200;" x="0" y="78.46755515204535" dx="0em" dy="0.3em" fill="rgb(255, 255, 255)" stroke="none" stroke-width="1px">0.3</text><text style="text-anchor: end; visibility: hidden; font-family: Roboto, sans-serif; font-size: 12px; font-weight: 200;" x="0" y="58.850666364034026" dx="0em" dy="0.3em" fill="rgb(255, 255, 255)" stroke="none" stroke-width="1px">0.35</text><text style="text-anchor: end; visibility: inherit; font-family: Roboto, sans-serif; font-size: 12px; font-weight: 200;" x="0" y="39.233777576022675" dx="0em" dy="0.3em" fill="rgb(255, 255, 255)" stroke="none" stroke-width="1px">0.4</text><text style="text-anchor: end; visibility: hidden; font-family: Roboto, sans-serif; font-size: 12px; font-weight: 200;" x="0" y="19.616888788011327" dx="0em" dy="0.3em" fill="rgb(255, 255, 255)" stroke="none" stroke-width="1px">0.45</text><text style="text-anchor: end; visibility: hidden; font-family: Roboto, sans-serif; font-size: 12px; font-weight: 200;" x="0" y="0" dx="0em" dy="0.3em" fill="rgb(255, 255, 255)" stroke="none" stroke-width="1px">0.5</text></g><line x1="51.53200149536133" y1="0" x2="51.53200149536133" y2="176.55199909210205" fill="rgb(0, 0, 0)" stroke="rgb(204, 204, 204)" stroke-width="1px"></line></g></g><g transform="translate(51, 0)" clip-path="url(#clip_0)"><clipPath id="clip_0"><rect width="278" height="176"></rect></clipPath><g><g><g><line x1="0" y1="0" x2="0" y2="176.55199909210205" fill="rgb(0, 0, 0)" stroke="rgb(189, 189, 189)" stroke-width="1px" opacity="0.25"></line><line x1="30.94088872273763" y1="0" x2="30.94088872273763" y2="176.55199909210205" fill="rgb(0, 0, 0)" stroke="rgb(189, 189, 189)" stroke-width="1px" opacity="0.25"></line><line x1="61.88177744547526" y1="0" x2="61.88177744547526" y2="176.55199909210205" fill="rgb(0, 0, 0)" stroke="rgb(189, 189, 189)" stroke-width="1px" opacity="0.25"></line><line x1="92.82266616821289" y1="0" x2="92.82266616821289" y2="176.55199909210205" fill="rgb(0, 0, 0)" stroke="rgb(189, 189, 189)" stroke-width="1px" opacity="0.25"></line><line x1="123.76355489095052" y1="0" x2="123.76355489095052" y2="176.55199909210205" fill="rgb(0, 0, 0)" stroke="rgb(189, 189, 189)" stroke-width="1px" opacity="0.25"></line><line x1="154.70444361368817" y1="0" x2="154.70444361368817" y2="176.55199909210205" fill="rgb(0, 0, 0)" stroke="rgb(189, 189, 189)" stroke-width="1px" opacity="0.25"></line><line x1="185.64533233642578" y1="0" x2="185.64533233642578" y2="176.55199909210205" fill="rgb(0, 0, 0)" stroke="rgb(189, 189, 189)" stroke-width="1px" opacity="0.25"></line><line x1="216.58622105916342" y1="0" x2="216.58622105916342" y2="176.55199909210205" fill="rgb(0, 0, 0)" stroke="rgb(189, 189, 189)" stroke-width="1px" opacity="0.25"></line><line x1="247.52710978190103" y1="0" x2="247.52710978190103" y2="176.55199909210205" fill="rgb(0, 0, 0)" stroke="rgb(189, 189, 189)" stroke-width="1px" opacity="0.25"></line><line x1="278.4679985046387" y1="0" x2="278.4679985046387" y2="176.55199909210205" fill="rgb(0, 0, 0)" stroke="rgb(189, 189, 189)" stroke-width="1px" opacity="0.25"></line></g><g><line x1="0" y1="176.55199909210205" x2="278.4679985046387" y2="176.55199909210205" fill="rgb(0, 0, 0)" stroke="rgb(189, 189, 189)" stroke-width="1px" opacity="0.25"></line><line x1="0" y1="156.9351103040907" x2="278.4679985046387" y2="156.9351103040907" fill="rgb(0, 0, 0)" stroke="rgb(189, 189, 189)" stroke-width="1px" opacity="0.25"></line><line x1="0" y1="137.31822151607938" x2="278.4679985046387" y2="137.31822151607938" fill="rgb(0, 0, 0)" stroke="rgb(189, 189, 189)" stroke-width="1px" opacity="0.25"></line><line x1="0" y1="117.70133272806802" x2="278.4679985046387" y2="117.70133272806802" fill="rgb(0, 0, 0)" stroke="rgb(189, 189, 189)" stroke-width="1px" opacity="0.25"></line><line x1="0" y1="98.0844439400567" x2="278.4679985046387" y2="98.0844439400567" fill="rgb(0, 0, 0)" stroke="rgb(189, 189, 189)" stroke-width="1px" opacity="0.25"></line><line x1="0" y1="78.46755515204535" x2="278.4679985046387" y2="78.46755515204535" fill="rgb(0, 0, 0)" stroke="rgb(189, 189, 189)" stroke-width="1px" opacity="0.25"></line><line x1="0" y1="58.850666364034026" x2="278.4679985046387" y2="58.850666364034026" fill="rgb(0, 0, 0)" stroke="rgb(189, 189, 189)" stroke-width="1px" opacity="0.25"></line><line x1="0" y1="39.233777576022675" x2="278.4679985046387" y2="39.233777576022675" fill="rgb(0, 0, 0)" stroke="rgb(189, 189, 189)" stroke-width="1px" opacity="0.25"></line><line x1="0" y1="19.616888788011327" x2="278.4679985046387" y2="19.616888788011327" fill="rgb(0, 0, 0)" stroke="rgb(189, 189, 189)" stroke-width="1px" opacity="0.25"></line><line x1="0" y1="0" x2="278.4679985046387" y2="0" fill="rgb(0, 0, 0)" stroke="rgb(189, 189, 189)" stroke-width="1px" opacity="0.25"></line></g></g></g><g><g><line x1="0" y1="196.1688878801134" x2="278.4679985046387" y2="196.1688878801134" fill="rgb(0, 0, 0)" stroke="rgb(153, 153, 153)" stroke-width="1.5px"></line></g></g><g><g><line x1="30.94088872273763" y1="0" x2="30.94088872273763" y2="176.55199909210205" fill="rgb(0, 0, 0)" stroke="rgb(153, 153, 153)" stroke-width="1.5px"></line></g></g><g><g><g><g><g><path style="fill: none;" stroke="rgb(255, 112, 67)" stroke-width="2px" d="M43.16253976821899,-24.86479721634151L46.25662864049276,24.083458335548727L49.35071751276652,39.27753339247149L52.44480638504028,72.35445890255082L55.538895257314046,75.56994857685862L58.63298412958781,89.94923812605748L61.72707300186158,93.6875475141439L64.82116187413534,115.489364320034L67.9152507464091,131.6007500877385L71.00933961868286,135.96230942160346L74.10342849095663,140.80277701006722L77.19751736323038,128.7321978491959L80.29160623550415,129.99750859356004L83.38569510777792,129.72472834555109L86.47978398005166,130.7765302769338L89.57387285232544,124.95376873751823L92.66796172459921,120.16191261739034L95.76205059687297,124.83794409509285L98.85613946914673,139.686777348856L101.95022834142048,133.30547791117044L105.04431721369426,136.50881519061062L108.13840608596801,137.3456330682917L111.23249495824177,134.69661653724583L114.32658383051555,134.48813933101368L117.42067270278932,140.7765150094523L120.51476157506306,144.3630669988126L123.60885044733683,147.99968367063366L126.7029393196106,144.9165786332254L129.79702819188435,146.1813333018385L132.89111706415812,143.06733078533085L135.9852059364319,137.94017302357602L139.07929480870567,142.976657310346L142.1733836809794,138.42570885361968L145.26747255325316,146.64207177387362L148.36156142552693,153.86429403143438L151.4556502978007,148.86380803464192L154.54973917007447,147.4373302780434L157.64382804234822,152.03654170891267L160.737916914622,150.1553689864847L163.83200578689576,152.8319431749574L166.9260946591695,148.18840879596897L170.02018353144328,150.38494183379427L173.11427240371705,149.40317615913878L176.2083612759908,142.23409923861962L179.30245014826454,144.53184759748456L182.39653902053834,142.53263977099402L185.49062789281209,143.94689241858657L188.58471676508583,147.68514277976612L191.67880563735963,143.5776557201529L194.77289450963337,142.38653421524037L197.86698338190715,142.53651567985207L200.96107225418092,144.3661401776327L204.05516112645466,149.3112766192528L207.14924999872844,152.23903634818265L210.2433388710022,151.51470626843798L213.33742774327595,147.23431211368396L216.43151661554973,152.11869377915426L219.5256054878235,157.1771671501511L222.61969436009724,159.30101474816757L225.71378323237101,156.53869616061635L228.80787210464476,149.29526292965292L231.90196097691853,153.94988441958162L234.9960498491923,148.0783806758759L238.09013872146605,148.24623447492925L241.18422759373985,151.99693195332185L244.2783164660136,149.91964126964737L247.37240533828734,150.11756318686503L250.46649421056114,154.58631389795065L253.56058308283488,161.0028831188765L256.65467195510865,151.6033028217733L259.7487608273824,154.97164331947033L262.84284969965614,157.967962871735" fill="none"></path></g></g></g></g><g opacity="0.2"><g><g><g><path style="fill: none;" stroke="rgb(255, 112, 67)" stroke-width="2px" d="M40.06845089594523,-44.5588904473595L43.16253976821899,7.534895314040117L46.25662864049276,87.99030078409669L49.35071751276652,60.296409063216174L52.44480638504028,119.65499161277239L55.538895257314046,80.25816339070028L58.63298412958781,111.15589717792378L61.72707300186158,99.23850127792295L64.82116187413534,147.99434865505344L67.9152507464091,155.68015128942625L71.00933961868286,142.49040717442787L74.10342849095663,148.05399541285271L77.19751736323038,110.64051762058031L80.29160623550415,131.89458231493708L83.38569510777792,129.31567340499672L86.47978398005166,132.35396612161142L89.57387285232544,116.22051346750932L92.66796172459921,112.9745664318284L95.76205059687297,131.85173486696738L98.85613946914673,161.95953862231747L101.95022834142048,123.73365474226779L105.04431721369426,141.3137831631869L108.13840608596801,138.60085393707004L111.23249495824177,130.7231030375225L114.32658383051555,134.17542405510147L117.42067270278932,150.2090688729723L120.51476157506306,149.7428916791318L123.60885044733683,153.45460666846247L126.7029393196106,140.2919220995042L129.79702819188435,148.07846505311431L132.89111706415812,138.3963273823187L135.9852059364319,130.24943674819156L139.07929480870567,150.53138352404918L142.1733836809794,131.59928628588122L145.26747255325316,158.9666160271339L148.36156142552693,164.69762735073175L151.4556502978007,141.3630790673049L154.54973917007447,145.29761364791267L157.64382804234822,158.9353588459946L160.737916914622,147.33360990510593L163.83200578689576,156.8468044557344L166.9260946591695,141.22310722949743L170.02018353144328,153.67974138996144L173.11427240371705,147.93052764730865L176.2083612759908,131.48048385851152L179.30245014826454,147.978470135653L182.39653902053834,139.5338280313256L185.49062789281209,146.06827138994677L188.58471676508583,153.29251832149015L191.67880563735963,137.41642513076297L194.77289450963337,140.5998519578768L197.86698338190715,142.76148787676922L200.96107225418092,147.1105769243008L204.05516112645466,156.72898128167824L207.14924999872844,156.6306759415758L210.2433388710022,150.42821114882122L213.33742774327595,140.81372088155373L216.43151661554973,159.44526627735914L219.5256054878235,164.76487720664602L222.61969436009724,162.48678614519218L225.71378323237101,152.3952182792896L228.80787210464476,138.4301130832079L231.90196097691853,160.93181665447463L234.9960498491923,139.2711250603174L238.09013872146605,148.4980151735093L241.18422759373985,157.62297817091073L244.2783164660136,146.80370524413567L247.37240533828734,150.4144460626915L250.46649421056114,161.28943996457906L253.56058308283488,170.62773695026527L256.65467195510865,137.5039323761185L259.7487608273824,160.02415406601588L262.84284969965614,162.46244220013202" fill="none"></path></g></g></g></g></g></g><g transform="translate(51, 176)" clip-path="url(#clip_1)"><clipPath id="clip_1"><rect width="278" height="23"></rect></clipPath><g><g><line x1="0" y1="0" x2="0" y2="5" style="visibility: inherit;" fill="rgb(0, 0, 0)" stroke="rgb(204, 204, 204)" stroke-width="1px"></line><line x1="30.94088872273763" y1="0" x2="30.94088872273763" y2="5" style="visibility: inherit;" fill="rgb(0, 0, 0)" stroke="rgb(204, 204, 204)" stroke-width="1px"></line><line x1="61.88177744547526" y1="0" x2="61.88177744547526" y2="5" style="visibility: inherit;" fill="rgb(0, 0, 0)" stroke="rgb(204, 204, 204)" stroke-width="1px"></line><line x1="92.82266616821289" y1="0" x2="92.82266616821289" y2="5" style="visibility: inherit;" fill="rgb(0, 0, 0)" stroke="rgb(204, 204, 204)" stroke-width="1px"></line><line x1="123.76355489095052" y1="0" x2="123.76355489095052" y2="5" style="visibility: inherit;" fill="rgb(0, 0, 0)" stroke="rgb(204, 204, 204)" stroke-width="1px"></line><line x1="154.70444361368817" y1="0" x2="154.70444361368817" y2="5" style="visibility: inherit;" fill="rgb(0, 0, 0)" stroke="rgb(204, 204, 204)" stroke-width="1px"></line><line x1="185.64533233642578" y1="0" x2="185.64533233642578" y2="5" style="visibility: inherit;" fill="rgb(0, 0, 0)" stroke="rgb(204, 204, 204)" stroke-width="1px"></line><line x1="216.58622105916342" y1="0" x2="216.58622105916342" y2="5" style="visibility: inherit;" fill="rgb(0, 0, 0)" stroke="rgb(204, 204, 204)" stroke-width="1px"></line><line x1="247.52710978190103" y1="0" x2="247.52710978190103" y2="5" style="visibility: inherit;" fill="rgb(0, 0, 0)" stroke="rgb(204, 204, 204)" stroke-width="1px"></line><line x1="278.4679985046387" y1="0" x2="278.4679985046387" y2="5" style="visibility: inherit;" fill="rgb(0, 0, 0)" stroke="rgb(204, 204, 204)" stroke-width="1px"></line></g><g transform="translate(0, 8)"><text style="text-anchor: middle; visibility: hidden; font-family: Roboto, sans-serif; font-size: 12px; font-weight: 200;" x="0" y="0" dx="0em" dy="0.95em" fill="rgb(255, 255, 255)" stroke="none" stroke-width="1px">-200</text><text style="text-anchor: middle; visibility: inherit; font-family: Roboto, sans-serif; font-size: 12px; font-weight: 200;" x="30.94088872273763" y="0" dx="0em" dy="0.95em" fill="rgb(255, 255, 255)" stroke="none" stroke-width="1px">0</text><text style="text-anchor: middle; visibility: inherit; font-family: Roboto, sans-serif; font-size: 12px; font-weight: 200;" x="61.88177744547526" y="0" dx="0em" dy="0.95em" fill="rgb(255, 255, 255)" stroke="none" stroke-width="1px">200</text><text style="text-anchor: middle; visibility: inherit; font-family: Roboto, sans-serif; font-size: 12px; font-weight: 200;" x="92.82266616821289" y="0" dx="0em" dy="0.95em" fill="rgb(255, 255, 255)" stroke="none" stroke-width="1px">400</text><text style="text-anchor: middle; visibility: inherit; font-family: Roboto, sans-serif; font-size: 12px; font-weight: 200;" x="123.76355489095052" y="0" dx="0em" dy="0.95em" fill="rgb(255, 255, 255)" stroke="none" stroke-width="1px">600</text><text style="text-anchor: middle; visibility: inherit; font-family: Roboto, sans-serif; font-size: 12px; font-weight: 200;" x="154.70444361368817" y="0" dx="0em" dy="0.95em" fill="rgb(255, 255, 255)" stroke="none" stroke-width="1px">800</text><text style="text-anchor: middle; visibility: inherit; font-family: Roboto, sans-serif; font-size: 12px; font-weight: 200;" x="185.64533233642578" y="0" dx="0em" dy="0.95em" fill="rgb(255, 255, 255)" stroke="none" stroke-width="1px">1k</text><text style="text-anchor: middle; visibility: inherit; font-family: Roboto, sans-serif; font-size: 12px; font-weight: 200;" x="216.58622105916342" y="0" dx="0em" dy="0.95em" fill="rgb(255, 255, 255)" stroke="none" stroke-width="1px">1.2k</text><text style="text-anchor: middle; visibility: inherit; font-family: Roboto, sans-serif; font-size: 12px; font-weight: 200;" x="247.52710978190103" y="0" dx="0em" dy="0.95em" fill="rgb(255, 255, 255)" stroke="none" stroke-width="1px">1.4k</text><text style="text-anchor: middle; visibility: hidden; font-family: Roboto, sans-serif; font-size: 12px; font-weight: 200;" x="278.4679985046387" y="0" dx="0em" dy="0.95em" fill="rgb(255, 255, 255)" stroke="none" stroke-width="1px">1.6k</text></g><line x1="0" y1="0" x2="278.4679985046387" y2="0" fill="rgb(0, 0, 0)" stroke="rgb(204, 204, 204)" stroke-width="1px"></line></g></g></g></g></svg>