<svg viewBox="0 0 330 200" xmlns="http://www.w3.org/2000/svg"><g><g><g><g><g><line x1="51.53200149536133" y1="176.55199909210205" x2="46.53200149536133" y2="176.55199909210205" style="visibility: inherit;" fill="rgb(0, 0, 0)" stroke="rgb(204, 204, 204)" stroke-width="1px"></line><line x1="51.53200149536133" y1="161.83933250109354" x2="46.53200149536133" y2="161.83933250109354" style="visibility: inherit;" fill="rgb(0, 0, 0)" stroke="rgb(204, 204, 204)" stroke-width="1px"></line><line x1="51.53200149536133" y1="147.12666591008502" x2="46.53200149536133" y2="147.12666591008502" style="visibility: inherit;" fill="rgb(0, 0, 0)" stroke="rgb(204, 204, 204)" stroke-width="1px"></line><line x1="51.53200149536133" y1="132.41399931907654" x2="46.53200149536133" y2="132.41399931907654" style="visibility: inherit;" fill="rgb(0, 0, 0)" stroke="rgb(204, 204, 204)" stroke-width="1px"></line><line x1="51.53200149536133" y1="117.70133272806801" x2="46.53200149536133" y2="117.70133272806801" style="visibility: inherit;" fill="rgb(0, 0, 0)" stroke="rgb(204, 204, 204)" stroke-width="1px"></line><line x1="51.53200149536133" y1="102.98866613705951" x2="46.53200149536133" y2="102.98866613705951" style="visibility: inherit;" fill="rgb(0, 0, 0)" stroke="rgb(204, 204, 204)" stroke-width="1px"></line><line x1="51.53200149536133" y1="88.27599954605103" x2="46.53200149536133" y2="88.27599954605103" style="visibility: inherit;" fill="rgb(0, 0, 0)" stroke="rgb(204, 204, 204)" stroke-width="1px"></line><line x1="51.53200149536133" y1="73.56333295504251" x2="46.53200149536133" y2="73.56333295504251" style="visibility: inherit;" fill="rgb(0, 0, 0)" stroke="rgb(204, 204, 204)" stroke-width="1px"></line><line x1="51.53200149536133" y1="58.850666364034005" x2="46.53200149536133" y2="58.850666364034005" style="visibility: inherit;" fill="rgb(0, 0, 0)" stroke="rgb(204, 204, 204)" stroke-width="1px"></line><line x1="51.53200149536133" y1="44.13799977302551" x2="46.53200149536133" y2="44.13799977302551" style="visibility: inherit;" fill="rgb(0, 0, 0)" stroke="rgb(204, 204, 204)" stroke-width="1px"></line><line x1="51.53200149536133" y1="29.425333182017003" x2="46.53200149536133" y2="29.425333182017003" style="visibility: inherit;" fill="rgb(0, 0, 0)" stroke="rgb(204, 204, 204)" stroke-width="1px"></line><line x1="51.53200149536133" y1="14.712666591008471" x2="46.53200149536133" y2="14.712666591008471" style="visibility: inherit;" fill="rgb(0, 0, 0)" stroke="rgb(204, 204, 204)" stroke-width="1px"></line><line x1="51.53200149536133" y1="0" x2="46.53200149536133" y2="0" style="visibility: inherit;" fill="rgb(0, 0, 0)" stroke="rgb(204, 204, 204)" stroke-width="1px"></line></g><g transform="translate(41.53200149536133, 0)"><text style="text-anchor: end; visibility: hidden; font-family: Roboto, sans-serif; font-size: 12px; font-weight: 200;" x="0" y="176.55199909210205" dx="0em" dy="0.3em" fill="rgb(255, 255, 255)" stroke="none" stroke-width="1px">0.06</text><text style="text-anchor: end; visibility: inherit; font-family: Roboto, sans-serif; font-size: 12px; font-weight: 200;" x="0" y="161.83933250109354" dx="0em" dy="0.3em" fill="rgb(255, 255, 255)" stroke="none" stroke-width="1px">0.08</text><text style="text-anchor: end; visibility: hidden; font-family: Roboto, sans-serif; font-size: 12px; font-weight: 200;" x="0" y="147.12666591008502" dx="0em" dy="0.3em" fill="rgb(255, 255, 255)" stroke="none" stroke-width="1px">0.1</text><text style="text-anchor: end; visibility: inherit; font-family: Roboto, sans-serif; font-size: 12px; font-weight: 200;" x="0" y="132.41399931907654" dx="0em" dy="0.3em" fill="rgb(255, 255, 255)" stroke="none" stroke-width="1px">0.12</text><text style="text-anchor: end; visibility: hidden; font-family: Roboto, sans-serif; font-size: 12px; font-weight: 200;" x="0" y="117.70133272806801" dx="0em" dy="0.3em" fill="rgb(255, 255, 255)" stroke="none" stroke-width="1px">0.14</text><text style="text-anchor: end; visibility: inherit; font-family: Roboto, sans-serif; font-size: 12px; font-weight: 200;" x="0" y="102.98866613705951" dx="0em" dy="0.3em" fill="rgb(255, 255, 255)" stroke="none" stroke-width="1px">0.16</text><text style="text-anchor: end; visibility: hidden; font-family: Roboto, sans-serif; font-size: 12px; font-weight: 200;" x="0" y="88.27599954605103" dx="0em" dy="0.3em" fill="rgb(255, 255, 255)" stroke="none" stroke-width="1px">0.18</text><text style="text-anchor: end; visibility: inherit; font-family: Roboto, sans-serif; font-size: 12px; font-weight: 200;" x="0" y="73.56333295504251" dx="0em" dy="0.3em" fill="rgb(255, 255, 255)" stroke="none" stroke-width="1px">0.2</text><text style="text-anchor: end; visibility: hidden; font-family: Roboto, sans-serif; font-size: 12px; font-weight: 200;" x="0" y="58.850666364034005" dx="0em" dy="0.3em" fill="rgb(255, 255, 255)" stroke="none" stroke-width="1px">0.22</text><text style="text-anchor: end; visibility: inherit; font-family: Roboto, sans-serif; font-size: 12px; font-weight: 200;" x="0" y="44.13799977302551" dx="0em" dy="0.3em" fill="rgb(255, 255, 255)" stroke="none" stroke-width="1px">0.24</text><text style="text-anchor: end; visibility: hidden; font-family: Roboto, sans-serif; font-size: 12px; font-weight: 200;" x="0" y="29.425333182017003" dx="0em" dy="0.3em" fill="rgb(255, 255, 255)" stroke="none" stroke-width="1px">0.26</text><text style="text-anchor: end; visibility: inherit; font-family: Roboto, sans-serif; font-size: 12px; font-weight: 200;" x="0" y="14.712666591008471" dx="0em" dy="0.3em" fill="rgb(255, 255, 255)" stroke="none" stroke-width="1px">0.28</text><text style="text-anchor: end; visibility: hidden; font-family: Roboto, sans-serif; font-size: 12px; font-weight: 200;" x="0" y="0" dx="0em" dy="0.3em" fill="rgb(255, 255, 255)" stroke="none" stroke-width="1px">0.3</text></g><line x1="51.53200149536133" y1="0" x2="51.53200149536133" y2="176.55199909210205" fill="rgb(0, 0, 0)" stroke="rgb(204, 204, 204)" stroke-width="1px"></line></g></g><g transform="translate(51, 0)" clip-path="url(#clip_0)"><clipPath id="clip_0"><rect width="278" height="176"></rect></clipPath><g><g><g><line x1="0" y1="0" x2="0" y2="176.55199909210205" fill="rgb(0, 0, 0)" stroke="rgb(189, 189, 189)" stroke-width="1px" opacity="0.25"></line><line x1="30.94088872273763" y1="0" x2="30.94088872273763" y2="176.55199909210205" fill="rgb(0, 0, 0)" stroke="rgb(189, 189, 189)" stroke-width="1px" opacity="0.25"></line><line x1="61.88177744547526" y1="0" x2="61.88177744547526" y2="176.55199909210205" fill="rgb(0, 0, 0)" stroke="rgb(189, 189, 189)" stroke-width="1px" opacity="0.25"></line><line x1="92.82266616821289" y1="0" x2="92.82266616821289" y2="176.55199909210205" fill="rgb(0, 0, 0)" stroke="rgb(189, 189, 189)" stroke-width="1px" opacity="0.25"></line><line x1="123.76355489095052" y1="0" x2="123.76355489095052" y2="176.55199909210205" fill="rgb(0, 0, 0)" stroke="rgb(189, 189, 189)" stroke-width="1px" opacity="0.25"></line><line x1="154.70444361368817" y1="0" x2="154.70444361368817" y2="176.55199909210205" fill="rgb(0, 0, 0)" stroke="rgb(189, 189, 189)" stroke-width="1px" opacity="0.25"></line><line x1="185.64533233642578" y1="0" x2="185.64533233642578" y2="176.55199909210205" fill="rgb(0, 0, 0)" stroke="rgb(189, 189, 189)" stroke-width="1px" opacity="0.25"></line><line x1="216.58622105916342" y1="0" x2="216.58622105916342" y2="176.55199909210205" fill="rgb(0, 0, 0)" stroke="rgb(189, 189, 189)" stroke-width="1px" opacity="0.25"></line><line x1="247.52710978190103" y1="0" x2="247.52710978190103" y2="176.55199909210205" fill="rgb(0, 0, 0)" stroke="rgb(189, 189, 189)" stroke-width="1px" opacity="0.25"></line><line x1="278.4679985046387" y1="0" x2="278.4679985046387" y2="176.55199909210205" fill="rgb(0, 0, 0)" stroke="rgb(189, 189, 189)" stroke-width="1px" opacity="0.25"></line></g><g><line x1="0" y1="176.55199909210205" x2="278.4679985046387" y2="176.55199909210205" fill="rgb(0, 0, 0)" stroke="rgb(189, 189, 189)" stroke-width="1px" opacity="0.25"></line><line x1="0" y1="161.83933250109354" x2="278.4679985046387" y2="161.83933250109354" fill="rgb(0, 0, 0)" stroke="rgb(189, 189, 189)" stroke-width="1px" opacity="0.25"></line><line x1="0" y1="147.12666591008502" x2="278.4679985046387" y2="147.12666591008502" fill="rgb(0, 0, 0)" stroke="rgb(189, 189, 189)" stroke-width="1px" opacity="0.25"></line><line x1="0" y1="132.41399931907654" x2="278.4679985046387" y2="132.41399931907654" fill="rgb(0, 0, 0)" stroke="rgb(189, 189, 189)" stroke-width="1px" opacity="0.25"></line><line x1="0" y1="117.70133272806801" x2="278.4679985046387" y2="117.70133272806801" fill="rgb(0, 0, 0)" stroke="rgb(189, 189, 189)" stroke-width="1px" opacity="0.25"></line><line x1="0" y1="102.98866613705951" x2="278.4679985046387" y2="102.98866613705951" fill="rgb(0, 0, 0)" stroke="rgb(189, 189, 189)" stroke-width="1px" opacity="0.25"></line><line x1="0" y1="88.27599954605103" x2="278.4679985046387" y2="88.27599954605103" fill="rgb(0, 0, 0)" stroke="rgb(189, 189, 189)" stroke-width="1px" opacity="0.25"></line><line x1="0" y1="73.56333295504251" x2="278.4679985046387" y2="73.56333295504251" fill="rgb(0, 0, 0)" stroke="rgb(189, 189, 189)" stroke-width="1px" opacity="0.25"></line><line x1="0" y1="58.850666364034005" x2="278.4679985046387" y2="58.850666364034005" fill="rgb(0, 0, 0)" stroke="rgb(189, 189, 189)" stroke-width="1px" opacity="0.25"></line><line x1="0" y1="44.13799977302551" x2="278.4679985046387" y2="44.13799977302551" fill="rgb(0, 0, 0)" stroke="rgb(189, 189, 189)" stroke-width="1px" opacity="0.25"></line><line x1="0" y1="29.425333182017003" x2="278.4679985046387" y2="29.425333182017003" fill="rgb(0, 0, 0)" stroke="rgb(189, 189, 189)" stroke-width="1px" opacity="0.25"></line><line x1="0" y1="14.712666591008471" x2="278.4679985046387" y2="14.712666591008471" fill="rgb(0, 0, 0)" stroke="rgb(189, 189, 189)" stroke-width="1px" opacity="0.25"></line><line x1="0" y1="0" x2="278.4679985046387" y2="0" fill="rgb(0, 0, 0)" stroke="rgb(189, 189, 189)" stroke-width="1px" opacity="0.25"></line></g></g></g><g><g><line x1="0" y1="220.68999886512756" x2="278.4679985046387" y2="220.68999886512756" fill="rgb(0, 0, 0)" stroke="rgb(153, 153, 153)" stroke-width="1.5px"></line></g></g><g><g><line x1="30.94088872273763" y1="0" x2="30.94088872273763" y2="176.55199909210205" fill="rgb(0, 0, 0)" stroke="rgb(153, 153, 153)" stroke-width="1.5px"></line></g></g><g><g><g><g><g><path style="fill: none;" stroke="rgb(255, 112, 67)" stroke-width="2px" d="M36.97436202367147,-58.44398315716805L40.06845089594523,29.257458805135744L43.16253976821899,41.071942666683455L46.25662864049276,49.751233391761055L49.35071751276652,69.33233879955726L52.44480638504028,43.92979340620571L55.538895257314046,53.58181405001729L58.63298412958781,23.454226144385867L61.72707300186158,23.525711273410806L64.82116187413534,-1.6466582844349287L67.9152507464091,15.864150987317343L71.00933961868286,34.41441769205047L74.10342849095663,34.97733271043427L77.19751736323038,73.09026286535351L80.29160623550415,75.4919061650715L83.38569510777792,99.71313998118451L86.47978398005166,105.96545216561027L89.57387285232544,129.22564794848515L92.66796172459921,143.02065898425283L95.76205059687297,137.14268127892092L98.85613946914673,122.97488476172508L101.95022834142048,121.08510559794797L105.04431721369426,130.62351799257004L108.13840608596801,133.5016192276045L111.23249495824177,154.53308399452553L114.32658383051555,126.8890623146564L117.42067270278932,126.27002512694985L120.51476157506306,124.9080075795181L123.60885044733683,123.97479529138698L126.7029393196106,139.11717728474304L129.79702819188435,133.3574475187789L132.89111706415812,141.43926366110773L135.9852059364319,135.4756598605812L139.07929480870567,135.5239519322676L142.1733836809794,149.01539201485258L145.26747255325316,139.66983181660294L148.36156142552693,129.63466885799855L151.4556502978007,146.3792682678518L154.54973917007447,143.38702372778607L157.64382804234822,133.77052913436674L160.737916914622,141.371776603943L163.83200578689576,150.10407185240885L166.9260946591695,159.1542717330563L170.02018353144328,156.90386383901426L173.11427240371705,141.84690596987272L176.2083612759908,148.57993439498463L179.30245014826454,148.47591608914186L182.39653902053834,145.669725015391L185.49062789281209,143.93570232836032L188.58471676508583,158.87920208149254L191.67880563735963,155.59009214077417L194.77289450963337,159.589890154006L197.86698338190715,153.31020325690008L200.96107225418092,147.15782891370574L204.05516112645466,140.56134558155728L207.14924999872844,152.08302572119476L210.2433388710022,150.1148829590625L213.33742774327595,155.13083577270186L216.43151661554973,154.6068018412078L219.5256054878235,150.97900481734663L222.61969436009724,153.21929032855286L225.71378323237101,149.74883702406055L228.80787210464476,160.44144045143628L231.90196097691853,158.1352054075047L234.9960498491923,159.37444772884203L238.09013872146605,160.58842275953825L241.18422759373985,160.14297536944468L244.2783164660136,154.39146598523044L247.37240533828734,149.81891045522534L250.46649421056114,154.75283784877863L253.56058308283488,153.5596533546601L256.65467195510865,159.48116181058933L259.7487608273824,158.3392546466285L262.84284969965614,153.4704858792663" fill="none"></path></g></g></g></g><g opacity="0.2"><g><g><g><path style="fill: none;" stroke="rgb(255, 112, 67)" stroke-width="2px" d="M36.97436202367147,-26.130857275261338L40.06845089594523,113.45084308894735L43.16253976821899,54.965775687863534L46.25662864049276,61.08291536242245L49.35071751276652,96.42005677648619L52.44480638504028,7.603747052986679L55.538895257314046,67.65455280809277L58.63298412958781,-20.978114033745715L61.72707300186158,23.631858358849946L64.82116187413534,-39.176901082000235L67.9152507464091,42.035071844166296L71.00933961868286,62.179247909813746L74.10342849095663,35.82060242888822L77.19751736323038,130.2148577790398L80.29160623550415,79.09267728972175L83.38569510777792,136.03474109095063L86.47978398005166,115.34233298086261L89.57387285232544,164.11239816608378L92.66796172459921,163.71191461925366L95.76205059687297,128.32603708319L98.85613946914673,101.72365618331065L101.95022834142048,118.2504741626753L105.04431721369426,144.93102359291487L108.13840608596801,137.8187506238444L111.23249495824177,186.08019145531694L114.32658383051555,85.42310052832762L117.42067270278932,125.34147029575793L120.51476157506306,122.86498251298109L123.60885044733683,122.57497737496259L126.7029393196106,161.83074525339845L129.79702819188435,124.71785401582622L132.89111706415812,153.56198690979443L135.9852059364319,126.53025458695207L139.07929480870567,135.59639003772176L142.1733836809794,169.25255179083896L145.26747255325316,125.6514916638196L148.36156142552693,114.5819245132482L151.4556502978007,171.4961672893678L154.54973917007447,138.89865692768714L157.64382804234822,119.34578726352004L160.737916914622,152.77364779916252L163.83200578689576,163.20251471880425L166.9260946591695,172.72957155010775L170.02018353144328,153.52825199853604L173.11427240371705,119.261469168508L176.2083612759908,158.67947703202265L179.30245014826454,148.3198886303835L182.39653902053834,141.46043840485927L185.49062789281209,141.33466829784933L188.58471676508583,181.29445171100969L191.67880563735963,150.65642722972055L194.77289450963337,165.58958717383626L197.86698338190715,143.8906729112576L200.96107225418092,137.92926739892388L204.05516112645466,130.66662058334083L207.14924999872844,169.3655459306445L210.2433388710022,147.16266881586475L213.33742774327595,162.6547649931599L216.43151661554973,153.82075094396683L219.5256054878235,145.53730928155508L222.61969436009724,156.57971859536207L225.71378323237101,144.54315706732223L228.80787210464476,176.48034559249967L231.90196097691853,154.67585284160742L234.9960498491923,161.23331121084794L238.09013872146605,162.4093853055826L241.18422759373985,159.47480428430433L244.2783164660136,145.76420190890906L247.37240533828734,142.96007716021768L250.46649421056114,162.15372893910856L253.56058308283488,151.76987661348227L256.65467195510865,168.36342449448318L259.7487608273824,156.62639390068722L262.84284969965614,146.167332728223" fill="none"></path></g></g></g></g></g></g><g transform="translate(51, 176)" clip-path="url(#clip_1)"><clipPath id="clip_1"><rect width="278" height="23"></rect></clipPath><g><g><line x1="0" y1="0" x2="0" y2="5" style="visibility: inherit;" fill="rgb(0, 0, 0)" stroke="rgb(204, 204, 204)" stroke-width="1px"></line><line x1="30.94088872273763" y1="0" x2="30.94088872273763" y2="5" style="visibility: inherit;" fill="rgb(0, 0, 0)" stroke="rgb(204, 204, 204)" stroke-width="1px"></line><line x1="61.88177744547526" y1="0" x2="61.88177744547526" y2="5" style="visibility: inherit;" fill="rgb(0, 0, 0)" stroke="rgb(204, 204, 204)" stroke-width="1px"></line><line x1="92.82266616821289" y1="0" x2="92.82266616821289" y2="5" style="visibility: inherit;" fill="rgb(0, 0, 0)" stroke="rgb(204, 204, 204)" stroke-width="1px"></line><line x1="123.76355489095052" y1="0" x2="123.76355489095052" y2="5" style="visibility: inherit;" fill="rgb(0, 0, 0)" stroke="rgb(204, 204, 204)" stroke-width="1px"></line><line x1="154.70444361368817" y1="0" x2="154.70444361368817" y2="5" style="visibility: inherit;" fill="rgb(0, 0, 0)" stroke="rgb(204, 204, 204)" stroke-width="1px"></line><line x1="185.64533233642578" y1="0" x2="185.64533233642578" y2="5" style="visibility: inherit;" fill="rgb(0, 0, 0)" stroke="rgb(204, 204, 204)" stroke-width="1px"></line><line x1="216.58622105916342" y1="0" x2="216.58622105916342" y2="5" style="visibility: inherit;" fill="rgb(0, 0, 0)" stroke="rgb(204, 204, 204)" stroke-width="1px"></line><line x1="247.52710978190103" y1="0" x2="247.52710978190103" y2="5" style="visibility: inherit;" fill="rgb(0, 0, 0)" stroke="rgb(204, 204, 204)" stroke-width="1px"></line><line x1="278.4679985046387" y1="0" x2="278.4679985046387" y2="5" style="visibility: inherit;" fill="rgb(0, 0, 0)" stroke="rgb(204, 204, 204)" stroke-width="1px"></line></g><g transform="translate(0, 8)"><text style="text-anchor: middle; visibility: hidden; font-family: Roboto, sans-serif; font-size: 12px; font-weight: 200;" x="0" y="0" dx="0em" dy="0.95em" fill="rgb(255, 255, 255)" stroke="none" stroke-width="1px">-200</text><text style="text-anchor: middle; visibility: inherit; font-family: Roboto, sans-serif; font-size: 12px; font-weight: 200;" x="30.94088872273763" y="0" dx="0em" dy="0.95em" fill="rgb(255, 255, 255)" stroke="none" stroke-width="1px">0</text><text style="text-anchor: middle; visibility: inherit; font-family: Roboto, sans-serif; font-size: 12px; font-weight: 200;" x="61.88177744547526" y="0" dx="0em" dy="0.95em" fill="rgb(255, 255, 255)" stroke="none" stroke-width="1px">200</text><text style="text-anchor: middle; visibility: inherit; font-family: Roboto, sans-serif; font-size: 12px; font-weight: 200;" x="92.82266616821289" y="0" dx="0em" dy="0.95em" fill="rgb(255, 255, 255)" stroke="none" stroke-width="1px">400</text><text style="text-anchor: middle; visibility: inherit; font-family: Roboto, sans-serif; font-size: 12px; font-weight: 200;" x="123.76355489095052" y="0" dx="0em" dy="0.95em" fill="rgb(255, 255, 255)" stroke="none" stroke-width="1px">600</text><text style="text-anchor: middle; visibility: inherit; font-family: Roboto, sans-serif; font-size: 12px; font-weight: 200;" x="154.70444361368817" y="0" dx="0em" dy="0.95em" fill="rgb(255, 255, 255)" stroke="none" stroke-width="1px">800</text><text style="text-anchor: middle; visibility: inherit; font-family: Roboto, sans-serif; font-size: 12px; font-weight: 200;" x="185.64533233642578" y="0" dx="0em" dy="0.95em" fill="rgb(255, 255, 255)" stroke="none" stroke-width="1px">1k</text><text style="text-anchor: middle; visibility: inherit; font-family: Roboto, sans-serif; font-size: 12px; font-weight: 200;" x="216.58622105916342" y="0" dx="0em" dy="0.95em" fill="rgb(255, 255, 255)" stroke="none" stroke-width="1px">1.2k</text><text style="text-anchor: middle; visibility: inherit; font-family: Roboto, sans-serif; font-size: 12px; font-weight: 200;" x="247.52710978190103" y="0" dx="0em" dy="0.95em" fill="rgb(255, 255, 255)" stroke="none" stroke-width="1px">1.4k</text><text style="text-anchor: middle; visibility: hidden; font-family: Roboto, sans-serif; font-size: 12px; font-weight: 200;" x="278.4679985046387" y="0" dx="0em" dy="0.95em" fill="rgb(255, 255, 255)" stroke="none" stroke-width="1px">1.6k</text></g><line x1="0" y1="0" x2="278.4679985046387" y2="0" fill="rgb(0, 0, 0)" stroke="rgb(204, 204, 204)" stroke-width="1px"></line></g></g></g></g></svg>