<svg viewBox="0 0 330 200" xmlns="http://www.w3.org/2000/svg"><g><g><g><g><g><line x1="41.149001121520996" y1="176.55199909210205" x2="36.149001121520996" y2="176.55199909210205" style="visibility: inherit;" fill="rgb(0, 0, 0)" stroke="rgb(204, 204, 204)" stroke-width="1px"></line><line x1="41.149001121520996" y1="151.33028493608748" x2="36.149001121520996" y2="151.33028493608748" style="visibility: inherit;" fill="rgb(0, 0, 0)" stroke="rgb(204, 204, 204)" stroke-width="1px"></line><line x1="41.149001121520996" y1="126.1085707800729" x2="36.149001121520996" y2="126.1085707800729" style="visibility: inherit;" fill="rgb(0, 0, 0)" stroke="rgb(204, 204, 204)" stroke-width="1px"></line><line x1="41.149001121520996" y1="100.88685662405831" x2="36.149001121520996" y2="100.88685662405831" style="visibility: inherit;" fill="rgb(0, 0, 0)" stroke="rgb(204, 204, 204)" stroke-width="1px"></line><line x1="41.149001121520996" y1="75.66514246804374" x2="36.149001121520996" y2="75.66514246804374" style="visibility: inherit;" fill="rgb(0, 0, 0)" stroke="rgb(204, 204, 204)" stroke-width="1px"></line><line x1="41.149001121520996" y1="50.443428312029155" x2="36.149001121520996" y2="50.443428312029155" style="visibility: inherit;" fill="rgb(0, 0, 0)" stroke="rgb(204, 204, 204)" stroke-width="1px"></line><line x1="41.149001121520996" y1="25.22171415601459" x2="36.149001121520996" y2="25.22171415601459" style="visibility: inherit;" fill="rgb(0, 0, 0)" stroke="rgb(204, 204, 204)" stroke-width="1px"></line><line x1="41.149001121520996" y1="0" x2="36.149001121520996" y2="0" style="visibility: inherit;" fill="rgb(0, 0, 0)" stroke="rgb(204, 204, 204)" stroke-width="1px"></line></g><g transform="translate(31.149001121520996, 0)"><text style="text-anchor: end; visibility: hidden; font-family: Roboto, sans-serif; font-size: 12px; font-weight: 200;" x="0" y="176.55199909210205" dx="0em" dy="0.3em" fill="rgb(255, 255, 255)" stroke="none" stroke-width="1px">1</text><text style="text-anchor: end; visibility: inherit; font-family: Roboto, sans-serif; font-size: 12px; font-weight: 200;" x="0" y="151.33028493608748" dx="0em" dy="0.3em" fill="rgb(255, 255, 255)" stroke="none" stroke-width="1px">1.5</text><text style="text-anchor: end; visibility: inherit; font-family: Roboto, sans-serif; font-size: 12px; font-weight: 200;" x="0" y="126.1085707800729" dx="0em" dy="0.3em" fill="rgb(255, 255, 255)" stroke="none" stroke-width="1px">2</text><text style="text-anchor: end; visibility: inherit; font-family: Roboto, sans-serif; font-size: 12px; font-weight: 200;" x="0" y="100.88685662405831" dx="0em" dy="0.3em" fill="rgb(255, 255, 255)" stroke="none" stroke-width="1px">2.5</text><text style="text-anchor: end; visibility: inherit; font-family: Roboto, sans-serif; font-size: 12px; font-weight: 200;" x="0" y="75.66514246804374" dx="0em" dy="0.3em" fill="rgb(255, 255, 255)" stroke="none" stroke-width="1px">3</text><text style="text-anchor: end; visibility: inherit; font-family: Roboto, sans-serif; font-size: 12px; font-weight: 200;" x="0" y="50.443428312029155" dx="0em" dy="0.3em" fill="rgb(255, 255, 255)" stroke="none" stroke-width="1px">3.5</text><text style="text-anchor: end; visibility: inherit; font-family: Roboto, sans-serif; font-size: 12px; font-weight: 200;" x="0" y="25.22171415601459" dx="0em" dy="0.3em" fill="rgb(255, 255, 255)" stroke="none" stroke-width="1px">4</text><text style="text-anchor: end; visibility: hidden; font-family: Roboto, sans-serif; font-size: 12px; font-weight: 200;" x="0" y="0" dx="0em" dy="0.3em" fill="rgb(255, 255, 255)" stroke="none" stroke-width="1px">4.5</text></g><line x1="41.149001121520996" y1="0" x2="41.149001121520996" y2="176.55199909210205" fill="rgb(0, 0, 0)" stroke="rgb(204, 204, 204)" stroke-width="1px"></line></g></g><g transform="translate(41, 0)" clip-path="url(#clip_0)"><clipPath id="clip_0"><rect width="288" height="176"></rect></clipPath><g><g><g><line x1="0" y1="0" x2="0" y2="176.55199909210205" fill="rgb(0, 0, 0)" stroke="rgb(189, 189, 189)" stroke-width="1px" opacity="0.25"></line><line x1="32.09455543094211" y1="0" x2="32.09455543094211" y2="176.55199909210205" fill="rgb(0, 0, 0)" stroke="rgb(189, 189, 189)" stroke-width="1px" opacity="0.25"></line><line x1="64.18911086188422" y1="0" x2="64.18911086188422" y2="176.55199909210205" fill="rgb(0, 0, 0)" stroke="rgb(189, 189, 189)" stroke-width="1px" opacity="0.25"></line><line x1="96.28366629282633" y1="0" x2="96.28366629282633" y2="176.55199909210205" fill="rgb(0, 0, 0)" stroke="rgb(189, 189, 189)" stroke-width="1px" opacity="0.25"></line><line x1="128.37822172376843" y1="0" x2="128.37822172376843" y2="176.55199909210205" fill="rgb(0, 0, 0)" stroke="rgb(189, 189, 189)" stroke-width="1px" opacity="0.25"></line><line x1="160.47277715471057" y1="0" x2="160.47277715471057" y2="176.55199909210205" fill="rgb(0, 0, 0)" stroke="rgb(189, 189, 189)" stroke-width="1px" opacity="0.25"></line><line x1="192.56733258565265" y1="0" x2="192.56733258565265" y2="176.55199909210205" fill="rgb(0, 0, 0)" stroke="rgb(189, 189, 189)" stroke-width="1px" opacity="0.25"></line><line x1="224.6618880165948" y1="0" x2="224.6618880165948" y2="176.55199909210205" fill="rgb(0, 0, 0)" stroke="rgb(189, 189, 189)" stroke-width="1px" opacity="0.25"></line><line x1="256.75644344753687" y1="0" x2="256.75644344753687" y2="176.55199909210205" fill="rgb(0, 0, 0)" stroke="rgb(189, 189, 189)" stroke-width="1px" opacity="0.25"></line><line x1="288.850998878479" y1="0" x2="288.850998878479" y2="176.55199909210205" fill="rgb(0, 0, 0)" stroke="rgb(189, 189, 189)" stroke-width="1px" opacity="0.25"></line></g><g><line x1="0" y1="176.55199909210205" x2="288.850998878479" y2="176.55199909210205" fill="rgb(0, 0, 0)" stroke="rgb(189, 189, 189)" stroke-width="1px" opacity="0.25"></line><line x1="0" y1="151.33028493608748" x2="288.850998878479" y2="151.33028493608748" fill="rgb(0, 0, 0)" stroke="rgb(189, 189, 189)" stroke-width="1px" opacity="0.25"></line><line x1="0" y1="126.1085707800729" x2="288.850998878479" y2="126.1085707800729" fill="rgb(0, 0, 0)" stroke="rgb(189, 189, 189)" stroke-width="1px" opacity="0.25"></line><line x1="0" y1="100.88685662405831" x2="288.850998878479" y2="100.88685662405831" fill="rgb(0, 0, 0)" stroke="rgb(189, 189, 189)" stroke-width="1px" opacity="0.25"></line><line x1="0" y1="75.66514246804374" x2="288.850998878479" y2="75.66514246804374" fill="rgb(0, 0, 0)" stroke="rgb(189, 189, 189)" stroke-width="1px" opacity="0.25"></line><line x1="0" y1="50.443428312029155" x2="288.850998878479" y2="50.443428312029155" fill="rgb(0, 0, 0)" stroke="rgb(189, 189, 189)" stroke-width="1px" opacity="0.25"></line><line x1="0" y1="25.22171415601459" x2="288.850998878479" y2="25.22171415601459" fill="rgb(0, 0, 0)" stroke="rgb(189, 189, 189)" stroke-width="1px" opacity="0.25"></line><line x1="0" y1="0" x2="288.850998878479" y2="0" fill="rgb(0, 0, 0)" stroke="rgb(189, 189, 189)" stroke-width="1px" opacity="0.25"></line></g></g></g><g><g><line x1="0" y1="226.9954274041312" x2="288.850998878479" y2="226.9954274041312" fill="rgb(0, 0, 0)" stroke="rgb(153, 153, 153)" stroke-width="1.5px"></line></g></g><g><g><line x1="32.09455543094211" y1="0" x2="32.09455543094211" y2="176.55199909210205" fill="rgb(0, 0, 0)" stroke="rgb(153, 153, 153)" stroke-width="1.5px"></line></g></g><g><g><g><g><g><path style="fill: none;" stroke="rgb(255, 112, 67)" stroke-width="2px" d="M41.56244928307004,-9.663724408671815L44.771904826164246,0.689905357295225L47.981360369258454,19.867161613766044L51.19081591235267,44.371749262936085L54.40027145544688,60.24179520761774L57.60972699854109,72.26180230641164L60.8191825416353,78.48938070927056L64.02863808472952,83.19027606206416L67.23809362782373,88.19622691789586L70.44754917091794,90.7990044203516L73.65700471401215,94.43988032805834L76.86646025710637,95.61039660833987L80.07591580020056,98.10844155069121L83.28537134329478,103.2155539496687L86.49482688638899,104.38364485002585L89.7042824294832,103.70206723607208L92.91373797257741,105.82812846225454L96.12319351567163,109.04557626958307L99.33264905876584,112.30761848592145L102.54210460186005,114.95912974295705L105.75156014495425,116.09747659293166L108.96101568804848,121.79911574470432L112.17047123114267,126.56327019865121L115.37992677423689,128.06062608859042L118.5893823173311,126.95643506698562L121.79883786042532,130.16925190611806L125.00829340351952,135.0323706033343L128.21774894661374,134.515570446337L131.42720448970795,138.68663302378755L134.63666003280215,139.34900492697372L137.84611557589636,139.3398141782089L141.05557111899057,141.9317123501292L144.2650266620848,141.42586572156796L147.474482205179,140.73318976768073L150.6839377482732,145.65451622825347L153.89339329136743,148.351926160722L157.10284883446164,147.70471712172574L160.31230437755585,145.94231801346615L163.52175992065006,147.8759065325544L166.73121546374426,145.21834856941396L169.9406710068385,144.70630374048946L173.15012654993268,149.26555994631417L176.3595820930269,151.247504506056L179.56903763612112,150.74078603822178L182.77849317921533,145.20670380506328L185.9879487223095,146.0425085328315L189.19740426540375,145.0702576434532L192.40685980849796,147.51089292303516L195.61631535159216,150.60666036757283L198.8257708946864,151.65413073355546L202.03522643778058,153.3662310007909L205.24468198087482,152.67767779780303L208.45413752396902,149.71040281271007L211.6635930670632,150.08149976214818L214.87304861015744,155.5810240238433L218.08250415325165,154.0781049661385L221.29195969634586,159.37926690163093L224.5014152394401,163.17702263628237L227.71087078253427,166.09174878487485L230.92032632562848,166.97624593967848L234.12978186872272,164.94352862172357L237.33923741181692,164.36322053971836L240.5486929549111,168.48279684329538L243.75814849800534,164.95591634610378L246.96760404109955,162.3738876339467L250.17705958419378,163.43878797068072L253.38651512728796,164.37090904802707L256.5959706703822,161.27404386152108L259.8054262134764,160.097932046351L263.0148817565706,161.1334088518641L266.2243372996648,161.81439522826972L269.43379284275903,163.67729052356754L272.6432483858532,163.52764483874208" fill="none"></path></g></g></g></g><g opacity="0.2"><g><g><g><path style="fill: none;" stroke="rgb(255, 112, 67)" stroke-width="2px" d="M41.56244928307004,-2.775678776227578L44.771904826164246,12.86577396207238L47.981360369258454,44.90498738221439L51.19081591235267,78.27041563329196L54.40027145544688,82.93621482924755L57.60972699854109,89.78708804852126L60.8191825416353,87.67384920865854L64.02863808472952,90.17055779981469L67.23809362782373,95.659749595819L70.44754917091794,94.68900647380548L73.65700471401215,99.88930609807325L76.86646025710637,97.36387786551553L80.07591580020056,101.8525726061615L83.28537134329478,110.87262061678815L86.49482688638899,106.13528690363975L89.7042824294832,102.67987386762375L92.91373797257741,109.01689641749921L96.12319351567163,113.87145389310197L99.33264905876584,117.20050291228121L102.54210460186005,118.9363093794031L105.75156014495425,117.80497439322082L108.96101568804848,130.35150693101193L112.17047123114267,133.70946801800076L115.37992677423689,130.30665353796036L118.5893823173311,125.30015135990061L121.79883786042532,134.98847223238616L125.00829340351952,142.327044169539L128.21774894661374,133.74037049646864L131.42720448970795,144.9432255067936L134.63666003280215,140.34256264996316L137.84611557589636,139.32602805615886L141.05557111899057,145.81955942235726L144.2650266620848,140.66709580046583L147.474482205179,139.69417585471126L150.6839377482732,153.03650584297156L153.89339329136743,152.39804103438476L157.10284883446164,146.73390356683615L160.31230437755585,143.2987193569665L163.52175992065006,150.77628930730964L166.73121546374426,141.23201162790053L169.9406710068385,143.9382364974723L173.15012654993268,156.1044442530766L176.3595820930269,154.22042134515368L179.56903763612112,149.9807083365495L182.77849317921533,136.90558045584328L185.9879487223095,147.2962156244369L189.19740426540375,143.61188130941844L192.40685980849796,151.17184584235878L195.61631535159216,155.25031153434176L198.8257708946864,153.22533628252177L202.03522643778058,155.93438140163656L205.24468198087482,151.64484799332303L208.45413752396902,145.25949033507533L211.6635930670632,150.63814518630505L214.87304861015744,163.83031041638284L218.08250415325165,151.82372637958184L221.29195969634586,167.3310098048685L224.5014152394401,168.87365623825906L227.71087078253427,170.46383800776334L230.92032632562848,168.30299167188386L234.12978186872272,161.8944526447913L237.33923741181692,163.49275841671047L240.5486929549111,174.66216129866086L243.75814849800534,159.66559560031638L246.96760404109955,158.50084456571108L250.17705958419378,165.03613847578174L253.38651512728796,165.76909066404664L256.5959706703822,156.62874608176207L259.8054262134764,158.33376432359583L263.0148817565706,162.6866240601338L266.2243372996648,162.83587479287812L269.43379284275903,166.4716334665143L272.6432483858532,163.30317631150385" fill="none"></path></g></g></g></g></g></g><g transform="translate(41, 176)" clip-path="url(#clip_1)"><clipPath id="clip_1"><rect width="288" height="23"></rect></clipPath><g><g><line x1="0" y1="0" x2="0" y2="5" style="visibility: inherit;" fill="rgb(0, 0, 0)" stroke="rgb(204, 204, 204)" stroke-width="1px"></line><line x1="32.09455543094211" y1="0" x2="32.09455543094211" y2="5" style="visibility: inherit;" fill="rgb(0, 0, 0)" stroke="rgb(204, 204, 204)" stroke-width="1px"></line><line x1="64.18911086188422" y1="0" x2="64.18911086188422" y2="5" style="visibility: inherit;" fill="rgb(0, 0, 0)" stroke="rgb(204, 204, 204)" stroke-width="1px"></line><line x1="96.28366629282633" y1="0" x2="96.28366629282633" y2="5" style="visibility: inherit;" fill="rgb(0, 0, 0)" stroke="rgb(204, 204, 204)" stroke-width="1px"></line><line x1="128.37822172376843" y1="0" x2="128.37822172376843" y2="5" style="visibility: inherit;" fill="rgb(0, 0, 0)" stroke="rgb(204, 204, 204)" stroke-width="1px"></line><line x1="160.47277715471057" y1="0" x2="160.47277715471057" y2="5" style="visibility: inherit;" fill="rgb(0, 0, 0)" stroke="rgb(204, 204, 204)" stroke-width="1px"></line><line x1="192.56733258565265" y1="0" x2="192.56733258565265" y2="5" style="visibility: inherit;" fill="rgb(0, 0, 0)" stroke="rgb(204, 204, 204)" stroke-width="1px"></line><line x1="224.6618880165948" y1="0" x2="224.6618880165948" y2="5" style="visibility: inherit;" fill="rgb(0, 0, 0)" stroke="rgb(204, 204, 204)" stroke-width="1px"></line><line x1="256.75644344753687" y1="0" x2="256.75644344753687" y2="5" style="visibility: inherit;" fill="rgb(0, 0, 0)" stroke="rgb(204, 204, 204)" stroke-width="1px"></line><line x1="288.850998878479" y1="0" x2="288.850998878479" y2="5" style="visibility: inherit;" fill="rgb(0, 0, 0)" stroke="rgb(204, 204, 204)" stroke-width="1px"></line></g><g transform="translate(0, 8)"><text style="text-anchor: middle; visibility: hidden; font-family: Roboto, sans-serif; font-size: 12px; font-weight: 200;" x="0" y="0" dx="0em" dy="0.95em" fill="rgb(255, 255, 255)" stroke="none" stroke-width="1px">-200</text><text style="text-anchor: middle; visibility: inherit; font-family: Roboto, sans-serif; font-size: 12px; font-weight: 200;" x="32.09455543094211" y="0" dx="0em" dy="0.95em" fill="rgb(255, 255, 255)" stroke="none" stroke-width="1px">0</text><text style="text-anchor: middle; visibility: inherit; font-family: Roboto, sans-serif; font-size: 12px; font-weight: 200;" x="64.18911086188422" y="0" dx="0em" dy="0.95em" fill="rgb(255, 255, 255)" stroke="none" stroke-width="1px">200</text><text style="text-anchor: middle; visibility: inherit; font-family: Roboto, sans-serif; font-size: 12px; font-weight: 200;" x="96.28366629282633" y="0" dx="0em" dy="0.95em" fill="rgb(255, 255, 255)" stroke="none" stroke-width="1px">400</text><text style="text-anchor: middle; visibility: inherit; font-family: Roboto, sans-serif; font-size: 12px; font-weight: 200;" x="128.37822172376843" y="0" dx="0em" dy="0.95em" fill="rgb(255, 255, 255)" stroke="none" stroke-width="1px">600</text><text style="text-anchor: middle; visibility: inherit; font-family: Roboto, sans-serif; font-size: 12px; font-weight: 200;" x="160.47277715471057" y="0" dx="0em" dy="0.95em" fill="rgb(255, 255, 255)" stroke="none" stroke-width="1px">800</text><text style="text-anchor: middle; visibility: inherit; font-family: Roboto, sans-serif; font-size: 12px; font-weight: 200;" x="192.56733258565265" y="0" dx="0em" dy="0.95em" fill="rgb(255, 255, 255)" stroke="none" stroke-width="1px">1k</text><text style="text-anchor: middle; visibility: inherit; font-family: Roboto, sans-serif; font-size: 12px; font-weight: 200;" x="224.6618880165948" y="0" dx="0em" dy="0.95em" fill="rgb(255, 255, 255)" stroke="none" stroke-width="1px">1.2k</text><text style="text-anchor: middle; visibility: inherit; font-family: Roboto, sans-serif; font-size: 12px; font-weight: 200;" x="256.75644344753687" y="0" dx="0em" dy="0.95em" fill="rgb(255, 255, 255)" stroke="none" stroke-width="1px">1.4k</text><text style="text-anchor: middle; visibility: hidden; font-family: Roboto, sans-serif; font-size: 12px; font-weight: 200;" x="288.850998878479" y="0" dx="0em" dy="0.95em" fill="rgb(255, 255, 255)" stroke="none" stroke-width="1px">1.6k</text></g><line x1="0" y1="0" x2="288.850998878479" y2="0" fill="rgb(0, 0, 0)" stroke="rgb(204, 204, 204)" stroke-width="1px"></line></g></g></g></g></svg>