<svg viewBox="0 0 330 200" xmlns="http://www.w3.org/2000/svg"><g><g><g><g><g><line x1="61.91500186920166" y1="176.55199909210205" x2="56.91500186920166" y2="176.55199909210205" style="visibility: inherit;" fill="rgb(0, 0, 0)" stroke="rgb(204, 204, 204)" stroke-width="1px"></line><line x1="61.91500186920166" y1="154.4829992055893" x2="56.91500186920166" y2="154.4829992055893" style="visibility: inherit;" fill="rgb(0, 0, 0)" stroke="rgb(204, 204, 204)" stroke-width="1px"></line><line x1="61.91500186920166" y1="132.41399931907654" x2="56.91500186920166" y2="132.41399931907654" style="visibility: inherit;" fill="rgb(0, 0, 0)" stroke="rgb(204, 204, 204)" stroke-width="1px"></line><line x1="61.91500186920166" y1="110.34499943256377" x2="56.91500186920166" y2="110.34499943256377" style="visibility: inherit;" fill="rgb(0, 0, 0)" stroke="rgb(204, 204, 204)" stroke-width="1px"></line><line x1="61.91500186920166" y1="88.27599954605101" x2="56.91500186920166" y2="88.27599954605101" style="visibility: inherit;" fill="rgb(0, 0, 0)" stroke="rgb(204, 204, 204)" stroke-width="1px"></line><line x1="61.91500186920166" y1="66.20699965953827" x2="56.91500186920166" y2="66.20699965953827" style="visibility: inherit;" fill="rgb(0, 0, 0)" stroke="rgb(204, 204, 204)" stroke-width="1px"></line><line x1="61.91500186920166" y1="44.13799977302551" x2="56.91500186920166" y2="44.13799977302551" style="visibility: inherit;" fill="rgb(0, 0, 0)" stroke="rgb(204, 204, 204)" stroke-width="1px"></line><line x1="61.91500186920166" y1="22.068999886512756" x2="56.91500186920166" y2="22.068999886512756" style="visibility: inherit;" fill="rgb(0, 0, 0)" stroke="rgb(204, 204, 204)" stroke-width="1px"></line><line x1="61.91500186920166" y1="0" x2="56.91500186920166" y2="0" style="visibility: inherit;" fill="rgb(0, 0, 0)" stroke="rgb(204, 204, 204)" stroke-width="1px"></line></g><g transform="translate(51.91500186920166, 0)"><text style="text-anchor: end; visibility: hidden; font-family: Roboto, sans-serif; font-size: 12px; font-weight: 200;" x="0" y="176.55199909210205" dx="0em" dy="0.3em" fill="rgb(255, 255, 255)" stroke="none" stroke-width="1px">-0.05</text><text style="text-anchor: end; visibility: inherit; font-family: Roboto, sans-serif; font-size: 12px; font-weight: 200;" x="0" y="154.4829992055893" dx="0em" dy="0.3em" fill="rgb(255, 255, 255)" stroke="none" stroke-width="1px">0</text><text style="text-anchor: end; visibility: hidden; font-family: Roboto, sans-serif; font-size: 12px; font-weight: 200;" x="0" y="132.41399931907654" dx="0em" dy="0.3em" fill="rgb(255, 255, 255)" stroke="none" stroke-width="1px">0.05</text><text style="text-anchor: end; visibility: inherit; font-family: Roboto, sans-serif; font-size: 12px; font-weight: 200;" x="0" y="110.34499943256377" dx="0em" dy="0.3em" fill="rgb(255, 255, 255)" stroke="none" stroke-width="1px">0.1</text><text style="text-anchor: end; visibility: hidden; font-family: Roboto, sans-serif; font-size: 12px; font-weight: 200;" x="0" y="88.27599954605101" dx="0em" dy="0.3em" fill="rgb(255, 255, 255)" stroke="none" stroke-width="1px">0.15</text><text style="text-anchor: end; visibility: inherit; font-family: Roboto, sans-serif; font-size: 12px; font-weight: 200;" x="0" y="66.20699965953827" dx="0em" dy="0.3em" fill="rgb(255, 255, 255)" stroke="none" stroke-width="1px">0.2</text><text style="text-anchor: end; visibility: hidden; font-family: Roboto, sans-serif; font-size: 12px; font-weight: 200;" x="0" y="44.13799977302551" dx="0em" dy="0.3em" fill="rgb(255, 255, 255)" stroke="none" stroke-width="1px">0.25</text><text style="text-anchor: end; visibility: inherit; font-family: Roboto, sans-serif; font-size: 12px; font-weight: 200;" x="0" y="22.068999886512756" dx="0em" dy="0.3em" fill="rgb(255, 255, 255)" stroke="none" stroke-width="1px">0.3</text><text style="text-anchor: end; visibility: hidden; font-family: Roboto, sans-serif; font-size: 12px; font-weight: 200;" x="0" y="0" dx="0em" dy="0.3em" fill="rgb(255, 255, 255)" stroke="none" stroke-width="1px">0.35</text></g><line x1="61.91500186920166" y1="0" x2="61.91500186920166" y2="176.55199909210205" fill="rgb(0, 0, 0)" stroke="rgb(204, 204, 204)" stroke-width="1px"></line></g></g><g transform="translate(61, 0)" clip-path="url(#clip_0)"><clipPath id="clip_0"><rect width="268" height="176"></rect></clipPath><g><g><g><line x1="0" y1="0" x2="0" y2="176.55199909210205" fill="rgb(0, 0, 0)" stroke="rgb(189, 189, 189)" stroke-width="1px" opacity="0.25"></line><line x1="29.787222014533146" y1="0" x2="29.787222014533146" y2="176.55199909210205" fill="rgb(0, 0, 0)" stroke="rgb(189, 189, 189)" stroke-width="1px" opacity="0.25"></line><line x1="59.57444402906629" y1="0" x2="59.57444402906629" y2="176.55199909210205" fill="rgb(0, 0, 0)" stroke="rgb(189, 189, 189)" stroke-width="1px" opacity="0.25"></line><line x1="89.36166604359944" y1="0" x2="89.36166604359944" y2="176.55199909210205" fill="rgb(0, 0, 0)" stroke="rgb(189, 189, 189)" stroke-width="1px" opacity="0.25"></line><line x1="119.14888805813258" y1="0" x2="119.14888805813258" y2="176.55199909210205" fill="rgb(0, 0, 0)" stroke="rgb(189, 189, 189)" stroke-width="1px" opacity="0.25"></line><line x1="148.93611007266574" y1="0" x2="148.93611007266574" y2="176.55199909210205" fill="rgb(0, 0, 0)" stroke="rgb(189, 189, 189)" stroke-width="1px" opacity="0.25"></line><line x1="178.72333208719888" y1="0" x2="178.72333208719888" y2="176.55199909210205" fill="rgb(0, 0, 0)" stroke="rgb(189, 189, 189)" stroke-width="1px" opacity="0.25"></line><line x1="208.51055410173205" y1="0" x2="208.51055410173205" y2="176.55199909210205" fill="rgb(0, 0, 0)" stroke="rgb(189, 189, 189)" stroke-width="1px" opacity="0.25"></line><line x1="238.29777611626517" y1="0" x2="238.29777611626517" y2="176.55199909210205" fill="rgb(0, 0, 0)" stroke="rgb(189, 189, 189)" stroke-width="1px" opacity="0.25"></line><line x1="268.08499813079834" y1="0" x2="268.08499813079834" y2="176.55199909210205" fill="rgb(0, 0, 0)" stroke="rgb(189, 189, 189)" stroke-width="1px" opacity="0.25"></line></g><g><line x1="0" y1="176.55199909210205" x2="268.08499813079834" y2="176.55199909210205" fill="rgb(0, 0, 0)" stroke="rgb(189, 189, 189)" stroke-width="1px" opacity="0.25"></line><line x1="0" y1="154.4829992055893" x2="268.08499813079834" y2="154.4829992055893" fill="rgb(0, 0, 0)" stroke="rgb(189, 189, 189)" stroke-width="1px" opacity="0.25"></line><line x1="0" y1="132.41399931907654" x2="268.08499813079834" y2="132.41399931907654" fill="rgb(0, 0, 0)" stroke="rgb(189, 189, 189)" stroke-width="1px" opacity="0.25"></line><line x1="0" y1="110.34499943256377" x2="268.08499813079834" y2="110.34499943256377" fill="rgb(0, 0, 0)" stroke="rgb(189, 189, 189)" stroke-width="1px" opacity="0.25"></line><line x1="0" y1="88.27599954605101" x2="268.08499813079834" y2="88.27599954605101" fill="rgb(0, 0, 0)" stroke="rgb(189, 189, 189)" stroke-width="1px" opacity="0.25"></line><line x1="0" y1="66.20699965953827" x2="268.08499813079834" y2="66.20699965953827" fill="rgb(0, 0, 0)" stroke="rgb(189, 189, 189)" stroke-width="1px" opacity="0.25"></line><line x1="0" y1="44.13799977302551" x2="268.08499813079834" y2="44.13799977302551" fill="rgb(0, 0, 0)" stroke="rgb(189, 189, 189)" stroke-width="1px" opacity="0.25"></line><line x1="0" y1="22.068999886512756" x2="268.08499813079834" y2="22.068999886512756" fill="rgb(0, 0, 0)" stroke="rgb(189, 189, 189)" stroke-width="1px" opacity="0.25"></line><line x1="0" y1="0" x2="268.08499813079834" y2="0" fill="rgb(0, 0, 0)" stroke="rgb(189, 189, 189)" stroke-width="1px" opacity="0.25"></line></g></g></g><g><g><line x1="0" y1="154.4829992055893" x2="268.08499813079834" y2="154.4829992055893" fill="rgb(0, 0, 0)" stroke="rgb(153, 153, 153)" stroke-width="1.5px"></line></g></g><g><g><line x1="29.787222014533146" y1="0" x2="29.787222014533146" y2="176.55199909210205" fill="rgb(0, 0, 0)" stroke="rgb(153, 153, 153)" stroke-width="1.5px"></line></g></g><g><g><g><g><g><path style="fill: none;" stroke="rgb(255, 112, 67)" stroke-width="2px" d="M32.6170081059138,154.4829992055893L35.59573030736711,154.4829992055893L38.57445250882043,154.4829992055893L41.553174710273744,154.4829992055893L44.53189691172705,154.4829992055893L47.510619113180375,154.4829992055893L50.489341314633684,154.4829992055893L53.46806351608701,154.4829992055893L56.446785717540315,154.4829992055893L59.42550791899364,154.4829992055893L62.40423012044695,154.4829992055893L65.38295232190026,143.4244271580384L68.36167452335357,147.85364083751867L71.3403967248069,128.42115619408025L74.3191189262602,72.61265341912913L77.29784112771353,105.37003295050702L80.27656332916683,91.90944119424495L83.25528553062014,105.90578592369053L86.23400773207347,114.30268296629355L89.21272993352679,75.20088012186504L92.1914521349801,62.77545540640059L95.1701743364334,66.35502021114876L98.14889653788673,68.50272894026077L101.12761873934005,69.79134332256939L104.10634094079334,103.66810198837798L107.08506314224667,68.82150171704765L110.06378534369999,14.810045886208412L113.0425075451533,70.67926152292326L116.02122974660661,104.20076894720808L118.99995194805993,69.14115358351208L121.97867414951325,59.13989073270643L124.95739635096655,75.20813551416396L127.93611855241987,29.676579213718064L130.9148407538732,79.59914864080707L133.8935629553265,109.55268938164252L136.8722851567798,72.35231321123887L139.85100735823312,61.06658776611007L142.82972955968646,87.39865249642142L145.80845176113976,48.02539143282998L148.7871739625931,68.53943468284308L151.7658961640464,47.74436075898098L154.7446183654997,46.30181636390459L157.72334056695303,12.332789887975684L160.70206276840634,69.19287362487174L163.68078496985964,103.30892386070497L166.65950717131298,79.64055422415704L169.6382293727663,87.50853233051161L172.6169515742196,81.1948192506318L175.5956737756729,22.234091685769485L178.57439597712622,-13.142344852639578L181.55311817857952,-67.47170660543172L184.53184038003286,21.310175719235033L187.51056258148617,74.57930511386972L190.4892847829395,62.402782977519294L193.46800698439282,99.23486946877046L196.4467291858461,77.19612159046413L199.42545138729943,86.04187275000345L202.40417358875274,36.17682372943635L205.38289579020605,6.257794317100426L208.3616179916594,-11.693623330299568L211.3403401931127,32.708025797544515L214.319062394566,37.280015387737016L217.29778459601934,62.092209028365424L220.27650679747262,88.01402515599877L223.25522899892593,70.4636150028094L226.23395120037927,104.07136868392143L229.21267340183257,102.16702100607581L232.1913956032859,56.88641262634288L235.17011780473922,40.75254754175955L238.14884000619253,42.1067284342659L241.12756220764587,64.9882368562825L244.10628440909915,56.6481420229797L247.08500661055245,29.57508523648523L250.0637288120058,57.46925093761413L253.0424510134591,7.998750698753149" fill="none"></path></g></g></g></g><g opacity="0.2"><g><g><g><path style="fill: none;" stroke="rgb(255, 112, 67)" stroke-width="2px" d="M32.6170081059138,154.4829992055893L35.59573030736711,154.4829992055893L38.57445250882043,154.4829992055893L41.553174710273744,154.4829992055893L44.53189691172705,154.4829992055893L47.510619113180375,154.4829992055893L50.489341314633684,154.4829992055893L53.46806351608701,154.4829992055893L56.446785717540315,154.4829992055893L59.42550791899364,154.4829992055893L62.40423012044695,154.4829992055893L65.38295232190026,126.89674934744835L68.36167452335357,154.4829992055893L71.3403967248069,99.3104994893074L74.3191189262602,-11.034499943256378L77.29784112771353,154.4829992055893L80.27656332916683,71.72424963116646L83.25528553062014,126.89674934744835L86.23400773207347,126.89674934744835L89.21272993352679,16.551749914884567L92.1914521349801,44.13799977302551L95.1701743364334,71.72424963116646L98.14889653788673,71.72424963116646L101.12761873934005,71.72424963116646L104.10634094079334,154.4829992055893L107.08506314224667,16.551749914884567L110.06378534369999,-66.20699965953831L113.0425075451533,154.4829992055893L116.02122974660661,154.4829992055893L118.99995194805993,16.551749914884567L121.97867414951325,44.13799977302551L124.95739635096655,99.3104994893074L127.93611855241987,-38.620749801397324L130.9148407538732,154.4829992055893L133.8935629553265,154.4829992055893L136.8722851567798,16.551749914884567L139.85100735823312,44.13799977302551L142.82972955968646,126.89674934744835L145.80845176113976,-11.034499943256378L148.7871739625931,99.3104994893074L151.7658961640464,16.551749914884567L154.7446183654997,44.13799977302551L157.72334056695303,-38.620749801397324L160.70206276840634,154.4829992055893L163.68078496985964,154.4829992055893L166.65950717131298,44.13799977302551L169.6382293727663,99.3104994893074L172.6169515742196,71.72424963116646L175.5956737756729,-66.20699965953831L181.55311817857952,-148.96574923396113L184.53184038003286,154.4829992055893L187.51056258148617,154.4829992055893L190.4892847829395,44.13799977302551L193.46800698439282,154.4829992055893L196.4467291858461,44.13799977302551L199.42545138729943,99.3104994893074L202.40417358875274,-38.620749801397324L208.3616179916594,-38.620749801397324L211.3403401931127,99.3104994893074L214.319062394566,44.13799977302551L217.29778459601934,99.3104994893074L220.27650679747262,126.89674934744835L223.25522899892593,44.13799977302551L226.23395120037927,154.4829992055893L229.21267340183257,99.3104994893074L232.1913956032859,-11.034499943256378L235.17011780473922,16.551749914884567L238.14884000619253,44.13799977302551L241.12756220764587,99.3104994893074L244.10628440909915,44.13799977302551L247.08500661055245,-11.034499943256378L250.0637288120058,99.3104994893074L253.0424510134591,-66.20699965953831" fill="none"></path></g></g></g></g></g><g><g opacity="0.719281"><span fill="rgb(0, 0, 0)" stroke="none" stroke-width="1px">Alt + Scroll to Zoom</span></g></g></g><g transform="translate(61, 176)" clip-path="url(#clip_1)"><clipPath id="clip_1"><rect width="268" height="23"></rect></clipPath><g><g><line x1="0" y1="0" x2="0" y2="5" style="visibility: inherit;" fill="rgb(0, 0, 0)" stroke="rgb(204, 204, 204)" stroke-width="1px"></line><line x1="29.787222014533146" y1="0" x2="29.787222014533146" y2="5" style="visibility: inherit;" fill="rgb(0, 0, 0)" stroke="rgb(204, 204, 204)" stroke-width="1px"></line><line x1="59.57444402906629" y1="0" x2="59.57444402906629" y2="5" style="visibility: inherit;" fill="rgb(0, 0, 0)" stroke="rgb(204, 204, 204)" stroke-width="1px"></line><line x1="89.36166604359944" y1="0" x2="89.36166604359944" y2="5" style="visibility: inherit;" fill="rgb(0, 0, 0)" stroke="rgb(204, 204, 204)" stroke-width="1px"></line><line x1="119.14888805813258" y1="0" x2="119.14888805813258" y2="5" style="visibility: inherit;" fill="rgb(0, 0, 0)" stroke="rgb(204, 204, 204)" stroke-width="1px"></line><line x1="148.93611007266574" y1="0" x2="148.93611007266574" y2="5" style="visibility: inherit;" fill="rgb(0, 0, 0)" stroke="rgb(204, 204, 204)" stroke-width="1px"></line><line x1="178.72333208719888" y1="0" x2="178.72333208719888" y2="5" style="visibility: inherit;" fill="rgb(0, 0, 0)" stroke="rgb(204, 204, 204)" stroke-width="1px"></line><line x1="208.51055410173205" y1="0" x2="208.51055410173205" y2="5" style="visibility: inherit;" fill="rgb(0, 0, 0)" stroke="rgb(204, 204, 204)" stroke-width="1px"></line><line x1="238.29777611626517" y1="0" x2="238.29777611626517" y2="5" style="visibility: inherit;" fill="rgb(0, 0, 0)" stroke="rgb(204, 204, 204)" stroke-width="1px"></line><line x1="268.08499813079834" y1="0" x2="268.08499813079834" y2="5" style="visibility: inherit;" fill="rgb(0, 0, 0)" stroke="rgb(204, 204, 204)" stroke-width="1px"></line></g><g transform="translate(0, 8)"><text style="text-anchor: middle; visibility: hidden; font-family: Roboto, sans-serif; font-size: 12px; font-weight: 200;" x="0" y="0" dx="0em" dy="0.95em" fill="rgb(255, 255, 255)" stroke="none" stroke-width="1px">-200</text><text style="text-anchor: middle; visibility: inherit; font-family: Roboto, sans-serif; font-size: 12px; font-weight: 200;" x="29.787222014533146" y="0" dx="0em" dy="0.95em" fill="rgb(255, 255, 255)" stroke="none" stroke-width="1px">0</text><text style="text-anchor: middle; visibility: inherit; font-family: Roboto, sans-serif; font-size: 12px; font-weight: 200;" x="59.57444402906629" y="0" dx="0em" dy="0.95em" fill="rgb(255, 255, 255)" stroke="none" stroke-width="1px">200</text><text style="text-anchor: middle; visibility: inherit; font-family: Roboto, sans-serif; font-size: 12px; font-weight: 200;" x="89.36166604359944" y="0" dx="0em" dy="0.95em" fill="rgb(255, 255, 255)" stroke="none" stroke-width="1px">400</text><text style="text-anchor: middle; visibility: inherit; font-family: Roboto, sans-serif; font-size: 12px; font-weight: 200;" x="119.14888805813258" y="0" dx="0em" dy="0.95em" fill="rgb(255, 255, 255)" stroke="none" stroke-width="1px">600</text><text style="text-anchor: middle; visibility: inherit; font-family: Roboto, sans-serif; font-size: 12px; font-weight: 200;" x="148.93611007266574" y="0" dx="0em" dy="0.95em" fill="rgb(255, 255, 255)" stroke="none" stroke-width="1px">800</text><text style="text-anchor: middle; visibility: inherit; font-family: Roboto, sans-serif; font-size: 12px; font-weight: 200;" x="178.72333208719888" y="0" dx="0em" dy="0.95em" fill="rgb(255, 255, 255)" stroke="none" stroke-width="1px">1k</text><text style="text-anchor: middle; visibility: inherit; font-family: Roboto, sans-serif; font-size: 12px; font-weight: 200;" x="208.51055410173205" y="0" dx="0em" dy="0.95em" fill="rgb(255, 255, 255)" stroke="none" stroke-width="1px">1.2k</text><text style="text-anchor: middle; visibility: inherit; font-family: Roboto, sans-serif; font-size: 12px; font-weight: 200;" x="238.29777611626517" y="0" dx="0em" dy="0.95em" fill="rgb(255, 255, 255)" stroke="none" stroke-width="1px">1.4k</text><text style="text-anchor: middle; visibility: hidden; font-family: Roboto, sans-serif; font-size: 12px; font-weight: 200;" x="268.08499813079834" y="0" dx="0em" dy="0.95em" fill="rgb(255, 255, 255)" stroke="none" stroke-width="1px">1.6k</text></g><line x1="0" y1="0" x2="268.08499813079834" y2="0" fill="rgb(0, 0, 0)" stroke="rgb(204, 204, 204)" stroke-width="1px"></line></g></g></g></g></svg>