<svg viewBox="0 0 330 200" xmlns="http://www.w3.org/2000/svg"><g><g><g><g><g><line x1="51.53200149536133" y1="176.55199909210205" x2="46.53200149536133" y2="176.55199909210205" style="visibility: inherit;" fill="rgb(0, 0, 0)" stroke="rgb(204, 204, 204)" stroke-width="1px"></line><line x1="51.53200149536133" y1="160.50181735645637" x2="46.53200149536133" y2="160.50181735645637" style="visibility: inherit;" fill="rgb(0, 0, 0)" stroke="rgb(204, 204, 204)" stroke-width="1px"></line><line x1="51.53200149536133" y1="144.45163562081075" x2="46.53200149536133" y2="144.45163562081075" style="visibility: inherit;" fill="rgb(0, 0, 0)" stroke="rgb(204, 204, 204)" stroke-width="1px"></line><line x1="51.53200149536133" y1="128.4014538851651" x2="46.53200149536133" y2="128.4014538851651" style="visibility: inherit;" fill="rgb(0, 0, 0)" stroke="rgb(204, 204, 204)" stroke-width="1px"></line><line x1="51.53200149536133" y1="112.35127214951943" x2="46.53200149536133" y2="112.35127214951943" style="visibility: inherit;" fill="rgb(0, 0, 0)" stroke="rgb(204, 204, 204)" stroke-width="1px"></line><line x1="51.53200149536133" y1="96.30109041387377" x2="46.53200149536133" y2="96.30109041387377" style="visibility: inherit;" fill="rgb(0, 0, 0)" stroke="rgb(204, 204, 204)" stroke-width="1px"></line><line x1="51.53200149536133" y1="80.25090867822811" x2="46.53200149536133" y2="80.25090867822811" style="visibility: inherit;" fill="rgb(0, 0, 0)" stroke="rgb(204, 204, 204)" stroke-width="1px"></line><line x1="51.53200149536133" y1="64.20072694258245" x2="46.53200149536133" y2="64.20072694258245" style="visibility: inherit;" fill="rgb(0, 0, 0)" stroke="rgb(204, 204, 204)" stroke-width="1px"></line><line x1="51.53200149536133" y1="48.150545206936805" x2="46.53200149536133" y2="48.150545206936805" style="visibility: inherit;" fill="rgb(0, 0, 0)" stroke="rgb(204, 204, 204)" stroke-width="1px"></line><line x1="51.53200149536133" y1="32.10036347129114" x2="46.53200149536133" y2="32.10036347129114" style="visibility: inherit;" fill="rgb(0, 0, 0)" stroke="rgb(204, 204, 204)" stroke-width="1px"></line><line x1="51.53200149536133" y1="16.05018173564547" x2="46.53200149536133" y2="16.05018173564547" style="visibility: inherit;" fill="rgb(0, 0, 0)" stroke="rgb(204, 204, 204)" stroke-width="1px"></line><line x1="51.53200149536133" y1="0" x2="46.53200149536133" y2="0" style="visibility: inherit;" fill="rgb(0, 0, 0)" stroke="rgb(204, 204, 204)" stroke-width="1px"></line></g><g transform="translate(41.53200149536133, 0)"><text style="text-anchor: end; visibility: hidden; font-family: Roboto, sans-serif; font-size: 12px; font-weight: 200;" x="0" y="176.55199909210205" dx="0em" dy="0.3em" fill="rgb(255, 255, 255)" stroke="none" stroke-width="1px">0.71</text><text style="text-anchor: end; visibility: inherit; font-family: Roboto, sans-serif; font-size: 12px; font-weight: 200;" x="0" y="160.50181735645637" dx="0em" dy="0.3em" fill="rgb(255, 255, 255)" stroke="none" stroke-width="1px">0.72</text><text style="text-anchor: end; visibility: hidden; font-family: Roboto, sans-serif; font-size: 12px; font-weight: 200;" x="0" y="144.45163562081075" dx="0em" dy="0.3em" fill="rgb(255, 255, 255)" stroke="none" stroke-width="1px">0.73</text><text style="text-anchor: end; visibility: inherit; font-family: Roboto, sans-serif; font-size: 12px; font-weight: 200;" x="0" y="128.4014538851651" dx="0em" dy="0.3em" fill="rgb(255, 255, 255)" stroke="none" stroke-width="1px">0.74</text><text style="text-anchor: end; visibility: hidden; font-family: Roboto, sans-serif; font-size: 12px; font-weight: 200;" x="0" y="112.35127214951943" dx="0em" dy="0.3em" fill="rgb(255, 255, 255)" stroke="none" stroke-width="1px">0.75</text><text style="text-anchor: end; visibility: inherit; font-family: Roboto, sans-serif; font-size: 12px; font-weight: 200;" x="0" y="96.30109041387377" dx="0em" dy="0.3em" fill="rgb(255, 255, 255)" stroke="none" stroke-width="1px">0.76</text><text style="text-anchor: end; visibility: hidden; font-family: Roboto, sans-serif; font-size: 12px; font-weight: 200;" x="0" y="80.25090867822811" dx="0em" dy="0.3em" fill="rgb(255, 255, 255)" stroke="none" stroke-width="1px">0.77</text><text style="text-anchor: end; visibility: inherit; font-family: Roboto, sans-serif; font-size: 12px; font-weight: 200;" x="0" y="64.20072694258245" dx="0em" dy="0.3em" fill="rgb(255, 255, 255)" stroke="none" stroke-width="1px">0.78</text><text style="text-anchor: end; visibility: hidden; font-family: Roboto, sans-serif; font-size: 12px; font-weight: 200;" x="0" y="48.150545206936805" dx="0em" dy="0.3em" fill="rgb(255, 255, 255)" stroke="none" stroke-width="1px">0.79</text><text style="text-anchor: end; visibility: inherit; font-family: Roboto, sans-serif; font-size: 12px; font-weight: 200;" x="0" y="32.10036347129114" dx="0em" dy="0.3em" fill="rgb(255, 255, 255)" stroke="none" stroke-width="1px">0.8</text><text style="text-anchor: end; visibility: hidden; font-family: Roboto, sans-serif; font-size: 12px; font-weight: 200;" x="0" y="16.05018173564547" dx="0em" dy="0.3em" fill="rgb(255, 255, 255)" stroke="none" stroke-width="1px">0.81</text><text style="text-anchor: end; visibility: hidden; font-family: Roboto, sans-serif; font-size: 12px; font-weight: 200;" x="0" y="0" dx="0em" dy="0.3em" fill="rgb(255, 255, 255)" stroke="none" stroke-width="1px">0.82</text></g><line x1="51.53200149536133" y1="0" x2="51.53200149536133" y2="176.55199909210205" fill="rgb(0, 0, 0)" stroke="rgb(204, 204, 204)" stroke-width="1px"></line></g></g><g transform="translate(51, 0)" clip-path="url(#clip_0)"><clipPath id="clip_0"><rect width="278" height="176"></rect></clipPath><g><g><g><line x1="0" y1="0" x2="0" y2="176.55199909210205" fill="rgb(0, 0, 0)" stroke="rgb(189, 189, 189)" stroke-width="1px" opacity="0.25"></line><line x1="30.94088872273763" y1="0" x2="30.94088872273763" y2="176.55199909210205" fill="rgb(0, 0, 0)" stroke="rgb(189, 189, 189)" stroke-width="1px" opacity="0.25"></line><line x1="61.88177744547526" y1="0" x2="61.88177744547526" y2="176.55199909210205" fill="rgb(0, 0, 0)" stroke="rgb(189, 189, 189)" stroke-width="1px" opacity="0.25"></line><line x1="92.82266616821289" y1="0" x2="92.82266616821289" y2="176.55199909210205" fill="rgb(0, 0, 0)" stroke="rgb(189, 189, 189)" stroke-width="1px" opacity="0.25"></line><line x1="123.76355489095052" y1="0" x2="123.76355489095052" y2="176.55199909210205" fill="rgb(0, 0, 0)" stroke="rgb(189, 189, 189)" stroke-width="1px" opacity="0.25"></line><line x1="154.70444361368817" y1="0" x2="154.70444361368817" y2="176.55199909210205" fill="rgb(0, 0, 0)" stroke="rgb(189, 189, 189)" stroke-width="1px" opacity="0.25"></line><line x1="185.64533233642578" y1="0" x2="185.64533233642578" y2="176.55199909210205" fill="rgb(0, 0, 0)" stroke="rgb(189, 189, 189)" stroke-width="1px" opacity="0.25"></line><line x1="216.58622105916342" y1="0" x2="216.58622105916342" y2="176.55199909210205" fill="rgb(0, 0, 0)" stroke="rgb(189, 189, 189)" stroke-width="1px" opacity="0.25"></line><line x1="247.52710978190103" y1="0" x2="247.52710978190103" y2="176.55199909210205" fill="rgb(0, 0, 0)" stroke="rgb(189, 189, 189)" stroke-width="1px" opacity="0.25"></line><line x1="278.4679985046387" y1="0" x2="278.4679985046387" y2="176.55199909210205" fill="rgb(0, 0, 0)" stroke="rgb(189, 189, 189)" stroke-width="1px" opacity="0.25"></line></g><g><line x1="0" y1="176.55199909210205" x2="278.4679985046387" y2="176.55199909210205" fill="rgb(0, 0, 0)" stroke="rgb(189, 189, 189)" stroke-width="1px" opacity="0.25"></line><line x1="0" y1="160.50181735645637" x2="278.4679985046387" y2="160.50181735645637" fill="rgb(0, 0, 0)" stroke="rgb(189, 189, 189)" stroke-width="1px" opacity="0.25"></line><line x1="0" y1="144.45163562081075" x2="278.4679985046387" y2="144.45163562081075" fill="rgb(0, 0, 0)" stroke="rgb(189, 189, 189)" stroke-width="1px" opacity="0.25"></line><line x1="0" y1="128.4014538851651" x2="278.4679985046387" y2="128.4014538851651" fill="rgb(0, 0, 0)" stroke="rgb(189, 189, 189)" stroke-width="1px" opacity="0.25"></line><line x1="0" y1="112.35127214951943" x2="278.4679985046387" y2="112.35127214951943" fill="rgb(0, 0, 0)" stroke="rgb(189, 189, 189)" stroke-width="1px" opacity="0.25"></line><line x1="0" y1="96.30109041387377" x2="278.4679985046387" y2="96.30109041387377" fill="rgb(0, 0, 0)" stroke="rgb(189, 189, 189)" stroke-width="1px" opacity="0.25"></line><line x1="0" y1="80.25090867822811" x2="278.4679985046387" y2="80.25090867822811" fill="rgb(0, 0, 0)" stroke="rgb(189, 189, 189)" stroke-width="1px" opacity="0.25"></line><line x1="0" y1="64.20072694258245" x2="278.4679985046387" y2="64.20072694258245" fill="rgb(0, 0, 0)" stroke="rgb(189, 189, 189)" stroke-width="1px" opacity="0.25"></line><line x1="0" y1="48.150545206936805" x2="278.4679985046387" y2="48.150545206936805" fill="rgb(0, 0, 0)" stroke="rgb(189, 189, 189)" stroke-width="1px" opacity="0.25"></line><line x1="0" y1="32.10036347129114" x2="278.4679985046387" y2="32.10036347129114" fill="rgb(0, 0, 0)" stroke="rgb(189, 189, 189)" stroke-width="1px" opacity="0.25"></line><line x1="0" y1="16.05018173564547" x2="278.4679985046387" y2="16.05018173564547" fill="rgb(0, 0, 0)" stroke="rgb(189, 189, 189)" stroke-width="1px" opacity="0.25"></line><line x1="0" y1="0" x2="278.4679985046387" y2="0" fill="rgb(0, 0, 0)" stroke="rgb(189, 189, 189)" stroke-width="1px" opacity="0.25"></line></g></g></g><g><g><line x1="0" y1="1316.1149023229427" x2="278.4679985046387" y2="1316.1149023229427" fill="rgb(0, 0, 0)" stroke="rgb(153, 153, 153)" stroke-width="1.5px"></line></g></g><g><g><line x1="30.94088872273763" y1="0" x2="30.94088872273763" y2="176.55199909210205" fill="rgb(0, 0, 0)" stroke="rgb(153, 153, 153)" stroke-width="1.5px"></line></g></g><g><g><g><g><g><path style="fill: none;" stroke="rgb(255, 112, 67)" stroke-width="2px" d="M43.16253976821899,206.94850595450797L46.25662864049276,165.91917137566136L49.35071751276652,143.44338121968744L52.44480638504028,130.6483588535105L55.538895257314046,123.20449585802379L58.63298412958781,118.81901078928672L61.72707300186158,116.21617699273573L64.82116187413534,114.66458592874798L67.9152507464091,113.73724179071738L71.00933961868286,113.18212891830088L74.10342849095663,72.692602592823L77.19751736323038,48.41920308841591L80.29160623550415,73.99924712442352L83.38569510777792,69.27653056675663L86.47978398005166,86.50817724515188L89.57387285232544,96.84604515494908L92.66796172459921,62.92144127639521L95.76205059687297,52.59905642966232L98.85613946914673,16.311283583084858L101.95022834142048,54.727582394781045L105.04431721369426,47.682934162111195L108.13840608596801,73.55034289886245L111.23249495824177,58.97659898464539L114.32658383051555,40.20099469483062L117.42067270278932,69.06112339954448L120.51476157506306,86.37718927975226L123.60885044733683,46.609995712276934L126.7029393196106,62.87514485987558L129.79702819188435,62.60286858450645L132.89111706415812,42.3767747055617L135.9852059364319,60.33521061289668L139.07929480870567,81.14163558522301L142.1733836809794,53.50003558672025L145.26747255325316,77.04053035752374L148.36156142552693,91.16482712676822L151.4556502978007,49.48258711911145L154.54973917007447,74.63006116489042L157.64382804234822,49.59309119954704L160.737916914622,34.57090923319286L163.83200578689576,15.526236470331858L166.9260946591695,44.224887162200154L170.02018353144328,71.47544115996062L173.11427240371705,47.7003192151874L176.2083612759908,53.497973219580096L179.30245014826454,56.97656562207692L182.39653902053834,18.93826672387049L185.49062789281209,-13.916076199585296L188.58471676508583,-63.722772707970286L191.67880563735963,6.706845235230567L194.77289450963337,38.93325241622375L197.86698338190715,48.237733139994866L200.96107225418092,63.85178515903589L204.05516112645466,63.18885278567196L207.14924999872844,62.79109336165392L210.2433388710022,32.458346952903256L213.33742774327595,24.290062692435L216.43151661554973,19.38909213615467L219.5256054878235,36.51123697194405L222.61969436009724,36.75316028863855L225.71378323237101,56.96104144821248L228.80787210464476,59.054406559178126L231.90196097691853,50.27906204097892L234.9960498491923,75.10794608439515L238.09013872146605,69.94254934088784L241.18422759373985,26.717856955669163L244.2783164660136,50.939859448430965L247.37240533828734,35.37897018975227L250.46649421056114,56.13652738888047L253.56058308283488,58.559698123579025L256.65467195510865,39.95087339484115L259.7487608273824,48.84830572715555L262.84284969965614,4.029947202651447" fill="none"></path></g></g></g></g><g opacity="0.2"><g><g><g><path style="fill: none;" stroke="rgb(255, 112, 67)" stroke-width="2px" d="M33.88027315139771,1065.3308127034795L36.97436202367147,112.35127214951943L40.06845089594523,112.35127214951943L43.16253976821899,112.35127214951943L46.25662864049276,112.35127214951943L49.35071751276652,112.35127214951943L52.44480638504028,112.35127214951943L55.538895257314046,112.35127214951943L58.63298412958781,112.35127214951943L61.72707300186158,112.35127214951943L64.82116187413534,112.35127214951943L67.9152507464091,112.35127214951943L71.00933961868286,112.35127214951943L74.10342849095663,12.037636301734162L77.19751736323038,12.037636301734162L80.29160623550415,112.35127214951943L83.38569510777792,62.194454225626785L86.47978398005166,112.35127214951943L89.57387285232544,112.35127214951943L92.66796172459921,12.037636301734162L95.76205059687297,37.11604526368046L98.85613946914673,-38.119181622158465L101.95022834142048,112.35127214951943L105.04431721369426,37.11604526368046L108.13840608596801,112.35127214951943L111.23249495824177,37.11604526368046L114.32658383051555,12.037636301734162L117.42067270278932,112.35127214951943L120.51476157506306,112.35127214951943L123.60885044733683,-13.040772660212179L126.7029393196106,87.27286318757311L129.79702819188435,62.194454225626785L132.89111706415812,12.037636301734162L135.9852059364319,87.27286318757311L139.07929480870567,112.35127214951943L142.1733836809794,12.037636301734162L145.26747255325316,112.35127214951943L148.36156142552693,112.35127214951943L151.4556502978007,-13.040772660212179L154.54973917007447,112.35127214951943L157.64382804234822,12.037636301734162L160.737916914622,12.037636301734162L163.83200578689576,-13.040772660212179L166.9260946591695,87.27286318757311L170.02018353144328,112.35127214951943L173.11427240371705,12.037636301734162L176.2083612759908,62.194454225626785L179.30245014826454,62.194454225626785L182.39653902053834,-38.119181622158465L188.58471676508583,-138.43281746994376L191.67880563735963,112.35127214951943L194.77289450963337,87.27286318757311L197.86698338190715,62.194454225626785L200.96107225418092,87.27286318757311L204.05516112645466,62.194454225626785L207.14924999872844,62.194454225626785L210.2433388710022,-13.040772660212179L213.33742774327595,12.037636301734162L216.43151661554973,12.037636301734162L219.5256054878235,62.194454225626785L222.61969436009724,37.11604526368046L225.71378323237101,87.27286318757311L228.80787210464476,62.194454225626785L231.90196097691853,37.11604526368046L234.9960498491923,112.35127214951943L238.09013872146605,62.194454225626785L241.18422759373985,-38.119181622158465L244.2783164660136,87.27286318757311L247.37240533828734,12.037636301734162L250.46649421056114,87.27286318757311L253.56058308283488,62.194454225626785L256.65467195510865,12.037636301734162L259.7487608273824,62.194454225626785L262.84284969965614,-63.19759058410478" fill="none"></path></g></g></g></g></g></g><g transform="translate(51, 176)" clip-path="url(#clip_1)"><clipPath id="clip_1"><rect width="278" height="23"></rect></clipPath><g><g><line x1="0" y1="0" x2="0" y2="5" style="visibility: inherit;" fill="rgb(0, 0, 0)" stroke="rgb(204, 204, 204)" stroke-width="1px"></line><line x1="30.94088872273763" y1="0" x2="30.94088872273763" y2="5" style="visibility: inherit;" fill="rgb(0, 0, 0)" stroke="rgb(204, 204, 204)" stroke-width="1px"></line><line x1="61.88177744547526" y1="0" x2="61.88177744547526" y2="5" style="visibility: inherit;" fill="rgb(0, 0, 0)" stroke="rgb(204, 204, 204)" stroke-width="1px"></line><line x1="92.82266616821289" y1="0" x2="92.82266616821289" y2="5" style="visibility: inherit;" fill="rgb(0, 0, 0)" stroke="rgb(204, 204, 204)" stroke-width="1px"></line><line x1="123.76355489095052" y1="0" x2="123.76355489095052" y2="5" style="visibility: inherit;" fill="rgb(0, 0, 0)" stroke="rgb(204, 204, 204)" stroke-width="1px"></line><line x1="154.70444361368817" y1="0" x2="154.70444361368817" y2="5" style="visibility: inherit;" fill="rgb(0, 0, 0)" stroke="rgb(204, 204, 204)" stroke-width="1px"></line><line x1="185.64533233642578" y1="0" x2="185.64533233642578" y2="5" style="visibility: inherit;" fill="rgb(0, 0, 0)" stroke="rgb(204, 204, 204)" stroke-width="1px"></line><line x1="216.58622105916342" y1="0" x2="216.58622105916342" y2="5" style="visibility: inherit;" fill="rgb(0, 0, 0)" stroke="rgb(204, 204, 204)" stroke-width="1px"></line><line x1="247.52710978190103" y1="0" x2="247.52710978190103" y2="5" style="visibility: inherit;" fill="rgb(0, 0, 0)" stroke="rgb(204, 204, 204)" stroke-width="1px"></line><line x1="278.4679985046387" y1="0" x2="278.4679985046387" y2="5" style="visibility: inherit;" fill="rgb(0, 0, 0)" stroke="rgb(204, 204, 204)" stroke-width="1px"></line></g><g transform="translate(0, 8)"><text style="text-anchor: middle; visibility: hidden; font-family: Roboto, sans-serif; font-size: 12px; font-weight: 200;" x="0" y="0" dx="0em" dy="0.95em" fill="rgb(255, 255, 255)" stroke="none" stroke-width="1px">-200</text><text style="text-anchor: middle; visibility: inherit; font-family: Roboto, sans-serif; font-size: 12px; font-weight: 200;" x="30.94088872273763" y="0" dx="0em" dy="0.95em" fill="rgb(255, 255, 255)" stroke="none" stroke-width="1px">0</text><text style="text-anchor: middle; visibility: inherit; font-family: Roboto, sans-serif; font-size: 12px; font-weight: 200;" x="61.88177744547526" y="0" dx="0em" dy="0.95em" fill="rgb(255, 255, 255)" stroke="none" stroke-width="1px">200</text><text style="text-anchor: middle; visibility: inherit; font-family: Roboto, sans-serif; font-size: 12px; font-weight: 200;" x="92.82266616821289" y="0" dx="0em" dy="0.95em" fill="rgb(255, 255, 255)" stroke="none" stroke-width="1px">400</text><text style="text-anchor: middle; visibility: inherit; font-family: Roboto, sans-serif; font-size: 12px; font-weight: 200;" x="123.76355489095052" y="0" dx="0em" dy="0.95em" fill="rgb(255, 255, 255)" stroke="none" stroke-width="1px">600</text><text style="text-anchor: middle; visibility: inherit; font-family: Roboto, sans-serif; font-size: 12px; font-weight: 200;" x="154.70444361368817" y="0" dx="0em" dy="0.95em" fill="rgb(255, 255, 255)" stroke="none" stroke-width="1px">800</text><text style="text-anchor: middle; visibility: inherit; font-family: Roboto, sans-serif; font-size: 12px; font-weight: 200;" x="185.64533233642578" y="0" dx="0em" dy="0.95em" fill="rgb(255, 255, 255)" stroke="none" stroke-width="1px">1k</text><text style="text-anchor: middle; visibility: inherit; font-family: Roboto, sans-serif; font-size: 12px; font-weight: 200;" x="216.58622105916342" y="0" dx="0em" dy="0.95em" fill="rgb(255, 255, 255)" stroke="none" stroke-width="1px">1.2k</text><text style="text-anchor: middle; visibility: inherit; font-family: Roboto, sans-serif; font-size: 12px; font-weight: 200;" x="247.52710978190103" y="0" dx="0em" dy="0.95em" fill="rgb(255, 255, 255)" stroke="none" stroke-width="1px">1.4k</text><text style="text-anchor: middle; visibility: hidden; font-family: Roboto, sans-serif; font-size: 12px; font-weight: 200;" x="278.4679985046387" y="0" dx="0em" dy="0.95em" fill="rgb(255, 255, 255)" stroke="none" stroke-width="1px">1.6k</text></g><line x1="0" y1="0" x2="278.4679985046387" y2="0" fill="rgb(0, 0, 0)" stroke="rgb(204, 204, 204)" stroke-width="1px"></line></g></g></g></g></svg>