<svg viewBox="0 0 330 200" xmlns="http://www.w3.org/2000/svg"><g><g><g><g><g><line x1="41.149001121520996" y1="176.55199909210205" x2="36.149001121520996" y2="176.55199909210205" style="visibility: inherit;" fill="rgb(0, 0, 0)" stroke="rgb(204, 204, 204)" stroke-width="1px"></line><line x1="41.149001121520996" y1="156.9351103040907" x2="36.149001121520996" y2="156.9351103040907" style="visibility: inherit;" fill="rgb(0, 0, 0)" stroke="rgb(204, 204, 204)" stroke-width="1px"></line><line x1="41.149001121520996" y1="137.31822151607938" x2="36.149001121520996" y2="137.31822151607938" style="visibility: inherit;" fill="rgb(0, 0, 0)" stroke="rgb(204, 204, 204)" stroke-width="1px"></line><line x1="41.149001121520996" y1="117.70133272806802" x2="36.149001121520996" y2="117.70133272806802" style="visibility: inherit;" fill="rgb(0, 0, 0)" stroke="rgb(204, 204, 204)" stroke-width="1px"></line><line x1="41.149001121520996" y1="98.0844439400567" x2="36.149001121520996" y2="98.0844439400567" style="visibility: inherit;" fill="rgb(0, 0, 0)" stroke="rgb(204, 204, 204)" stroke-width="1px"></line><line x1="41.149001121520996" y1="78.46755515204535" x2="36.149001121520996" y2="78.46755515204535" style="visibility: inherit;" fill="rgb(0, 0, 0)" stroke="rgb(204, 204, 204)" stroke-width="1px"></line><line x1="41.149001121520996" y1="58.850666364034026" x2="36.149001121520996" y2="58.850666364034026" style="visibility: inherit;" fill="rgb(0, 0, 0)" stroke="rgb(204, 204, 204)" stroke-width="1px"></line><line x1="41.149001121520996" y1="39.233777576022675" x2="36.149001121520996" y2="39.233777576022675" style="visibility: inherit;" fill="rgb(0, 0, 0)" stroke="rgb(204, 204, 204)" stroke-width="1px"></line><line x1="41.149001121520996" y1="19.616888788011327" x2="36.149001121520996" y2="19.616888788011327" style="visibility: inherit;" fill="rgb(0, 0, 0)" stroke="rgb(204, 204, 204)" stroke-width="1px"></line><line x1="41.149001121520996" y1="0" x2="36.149001121520996" y2="0" style="visibility: inherit;" fill="rgb(0, 0, 0)" stroke="rgb(204, 204, 204)" stroke-width="1px"></line></g><g transform="translate(31.149001121520996, 0)"><text style="text-anchor: end; visibility: hidden; font-family: Roboto, sans-serif; font-size: 12px; font-weight: 200;" x="0" y="176.55199909210205" dx="0em" dy="0.3em" fill="rgb(255, 255, 255)" stroke="none" stroke-width="1px">0.1</text><text style="text-anchor: end; visibility: inherit; font-family: Roboto, sans-serif; font-size: 12px; font-weight: 200;" x="0" y="156.9351103040907" dx="0em" dy="0.3em" fill="rgb(255, 255, 255)" stroke="none" stroke-width="1px">0.2</text><text style="text-anchor: end; visibility: hidden; font-family: Roboto, sans-serif; font-size: 12px; font-weight: 200;" x="0" y="137.31822151607938" dx="0em" dy="0.3em" fill="rgb(255, 255, 255)" stroke="none" stroke-width="1px">0.3</text><text style="text-anchor: end; visibility: inherit; font-family: Roboto, sans-serif; font-size: 12px; font-weight: 200;" x="0" y="117.70133272806802" dx="0em" dy="0.3em" fill="rgb(255, 255, 255)" stroke="none" stroke-width="1px">0.4</text><text style="text-anchor: end; visibility: hidden; font-family: Roboto, sans-serif; font-size: 12px; font-weight: 200;" x="0" y="98.0844439400567" dx="0em" dy="0.3em" fill="rgb(255, 255, 255)" stroke="none" stroke-width="1px">0.5</text><text style="text-anchor: end; visibility: inherit; font-family: Roboto, sans-serif; font-size: 12px; font-weight: 200;" x="0" y="78.46755515204535" dx="0em" dy="0.3em" fill="rgb(255, 255, 255)" stroke="none" stroke-width="1px">0.6</text><text style="text-anchor: end; visibility: hidden; font-family: Roboto, sans-serif; font-size: 12px; font-weight: 200;" x="0" y="58.850666364034026" dx="0em" dy="0.3em" fill="rgb(255, 255, 255)" stroke="none" stroke-width="1px">0.7</text><text style="text-anchor: end; visibility: inherit; font-family: Roboto, sans-serif; font-size: 12px; font-weight: 200;" x="0" y="39.233777576022675" dx="0em" dy="0.3em" fill="rgb(255, 255, 255)" stroke="none" stroke-width="1px">0.8</text><text style="text-anchor: end; visibility: hidden; font-family: Roboto, sans-serif; font-size: 12px; font-weight: 200;" x="0" y="19.616888788011327" dx="0em" dy="0.3em" fill="rgb(255, 255, 255)" stroke="none" stroke-width="1px">0.9</text><text style="text-anchor: end; visibility: hidden; font-family: Roboto, sans-serif; font-size: 12px; font-weight: 200;" x="0" y="0" dx="0em" dy="0.3em" fill="rgb(255, 255, 255)" stroke="none" stroke-width="1px">1</text></g><line x1="41.149001121520996" y1="0" x2="41.149001121520996" y2="176.55199909210205" fill="rgb(0, 0, 0)" stroke="rgb(204, 204, 204)" stroke-width="1px"></line></g></g><g transform="translate(41, 0)" clip-path="url(#clip_0)"><clipPath id="clip_0"><rect width="288" height="176"></rect></clipPath><g><g><g><line x1="0" y1="0" x2="0" y2="176.55199909210205" fill="rgb(0, 0, 0)" stroke="rgb(189, 189, 189)" stroke-width="1px" opacity="0.25"></line><line x1="32.09455543094211" y1="0" x2="32.09455543094211" y2="176.55199909210205" fill="rgb(0, 0, 0)" stroke="rgb(189, 189, 189)" stroke-width="1px" opacity="0.25"></line><line x1="64.18911086188422" y1="0" x2="64.18911086188422" y2="176.55199909210205" fill="rgb(0, 0, 0)" stroke="rgb(189, 189, 189)" stroke-width="1px" opacity="0.25"></line><line x1="96.28366629282633" y1="0" x2="96.28366629282633" y2="176.55199909210205" fill="rgb(0, 0, 0)" stroke="rgb(189, 189, 189)" stroke-width="1px" opacity="0.25"></line><line x1="128.37822172376843" y1="0" x2="128.37822172376843" y2="176.55199909210205" fill="rgb(0, 0, 0)" stroke="rgb(189, 189, 189)" stroke-width="1px" opacity="0.25"></line><line x1="160.47277715471057" y1="0" x2="160.47277715471057" y2="176.55199909210205" fill="rgb(0, 0, 0)" stroke="rgb(189, 189, 189)" stroke-width="1px" opacity="0.25"></line><line x1="192.56733258565265" y1="0" x2="192.56733258565265" y2="176.55199909210205" fill="rgb(0, 0, 0)" stroke="rgb(189, 189, 189)" stroke-width="1px" opacity="0.25"></line><line x1="224.6618880165948" y1="0" x2="224.6618880165948" y2="176.55199909210205" fill="rgb(0, 0, 0)" stroke="rgb(189, 189, 189)" stroke-width="1px" opacity="0.25"></line><line x1="256.75644344753687" y1="0" x2="256.75644344753687" y2="176.55199909210205" fill="rgb(0, 0, 0)" stroke="rgb(189, 189, 189)" stroke-width="1px" opacity="0.25"></line><line x1="288.850998878479" y1="0" x2="288.850998878479" y2="176.55199909210205" fill="rgb(0, 0, 0)" stroke="rgb(189, 189, 189)" stroke-width="1px" opacity="0.25"></line></g><g><line x1="0" y1="176.55199909210205" x2="288.850998878479" y2="176.55199909210205" fill="rgb(0, 0, 0)" stroke="rgb(189, 189, 189)" stroke-width="1px" opacity="0.25"></line><line x1="0" y1="156.9351103040907" x2="288.850998878479" y2="156.9351103040907" fill="rgb(0, 0, 0)" stroke="rgb(189, 189, 189)" stroke-width="1px" opacity="0.25"></line><line x1="0" y1="137.31822151607938" x2="288.850998878479" y2="137.31822151607938" fill="rgb(0, 0, 0)" stroke="rgb(189, 189, 189)" stroke-width="1px" opacity="0.25"></line><line x1="0" y1="117.70133272806802" x2="288.850998878479" y2="117.70133272806802" fill="rgb(0, 0, 0)" stroke="rgb(189, 189, 189)" stroke-width="1px" opacity="0.25"></line><line x1="0" y1="98.0844439400567" x2="288.850998878479" y2="98.0844439400567" fill="rgb(0, 0, 0)" stroke="rgb(189, 189, 189)" stroke-width="1px" opacity="0.25"></line><line x1="0" y1="78.46755515204535" x2="288.850998878479" y2="78.46755515204535" fill="rgb(0, 0, 0)" stroke="rgb(189, 189, 189)" stroke-width="1px" opacity="0.25"></line><line x1="0" y1="58.850666364034026" x2="288.850998878479" y2="58.850666364034026" fill="rgb(0, 0, 0)" stroke="rgb(189, 189, 189)" stroke-width="1px" opacity="0.25"></line><line x1="0" y1="39.233777576022675" x2="288.850998878479" y2="39.233777576022675" fill="rgb(0, 0, 0)" stroke="rgb(189, 189, 189)" stroke-width="1px" opacity="0.25"></line><line x1="0" y1="19.616888788011327" x2="288.850998878479" y2="19.616888788011327" fill="rgb(0, 0, 0)" stroke="rgb(189, 189, 189)" stroke-width="1px" opacity="0.25"></line><line x1="0" y1="0" x2="288.850998878479" y2="0" fill="rgb(0, 0, 0)" stroke="rgb(189, 189, 189)" stroke-width="1px" opacity="0.25"></line></g></g></g><g><g><line x1="0" y1="196.1688878801134" x2="288.850998878479" y2="196.1688878801134" fill="rgb(0, 0, 0)" stroke="rgb(153, 153, 153)" stroke-width="1.5px"></line></g></g><g><g><line x1="32.09455543094211" y1="0" x2="32.09455543094211" y2="176.55199909210205" fill="rgb(0, 0, 0)" stroke="rgb(153, 153, 153)" stroke-width="1.5px"></line></g></g><g><g><g><g><g><path style="fill: none;" stroke="rgb(255, 112, 67)" stroke-width="2px" d="M35.143538196881615,196.1688878801134L38.35299373997582,73.56333295504251L41.56244928307004,36.03102022287797L44.771904826164246,19.472646958687715L47.981360369258454,11.026842413802331L51.19081591235267,6.40024701327434L54.40027145544688,3.766417847839087L57.60972699854109,12.210116821665352L60.8191825416353,37.001240684807314L64.02863808472952,22.110707048123444L67.23809362782373,62.4550141573583L70.44754917091794,76.73787675344431L73.65700471401215,80.37703442356698L76.86646025710637,77.64941636106278L80.07591580020056,90.7338016711684L83.28537134329478,113.29731278120902L86.49482688638899,121.92629243375592L89.7042824294832,122.19802502743235L92.91373797257741,117.456525861615L96.12319351567163,119.51621279241492L99.33264905876584,110.94331718828391L102.54210460186005,135.22542067619344L105.75156014495425,159.60300007487356L108.96101568804848,144.80395189141876L112.17047123114267,155.54151242008479L115.37992677423689,127.65441526077846L118.5893823173311,135.44332349237365L121.79883786042532,140.11666332932919L125.00829340351952,128.2079933827958L128.21774894661374,135.7754640666819L131.42720448970795,140.31594540631235L134.63666003280215,133.23178865001174L137.84611557589636,143.69396225063323L141.05557111899057,130.3543767412106L144.2650266620848,127.2548479614716L147.474482205179,135.20357522290354L150.6839377482732,149.78125598199804L153.89339329136743,138.91097551886372L157.10284883446164,137.29302947474477L160.31230437755585,121.60959523990472L163.52175992065006,117.10375691335442L166.73121546374426,138.92136491655162L169.9406710068385,147.10770751333155L173.15012654993268,152.01951306988673L176.3595820930269,135.34970761322478L179.56903763612112,140.0604909322627L182.77849317921533,133.0785165291247L185.9879487223095,138.69777628163502L189.19740426540375,151.87777652719822L192.40685980849796,149.9773322803376L195.61631535159216,153.74128792925768L198.8257708946864,146.19121692456383L202.03522643778058,145.16419084491696L205.24468198087482,165.5660696590169L208.45413752396902,148.38186376542768L211.6635930670632,147.87978462329045L214.87304861015744,137.77009274400032L218.08250415325165,126.80005541942421L221.29195969634586,134.9306996156892L224.5014152394401,139.80908613344778L227.71087078253427,132.9276736500968L230.92032632562848,138.60727055409222L234.12978186872272,142.0150286964894L237.33923741181692,134.25123918792193L240.5486929549111,134.49718767978433L243.75814849800534,134.6447567749018L246.96760404109955,124.92485383796657L250.17705958419378,133.80557866681397L253.38651512728796,129.32556917011672L256.5959706703822,141.3502300631069L259.8054262134764,153.4692487959038L263.0148817565706,150.9322156415763L266.2243372996648,139.60155135497413L269.43379284275903,137.70737498001566L272.6432483858532,151.28353574604907" fill="none"></path></g></g></g></g><g opacity="0.2"><g><g><g><path style="fill: none;" stroke="rgb(255, 112, 67)" stroke-width="2px" d="M35.143538196881615,196.1688878801134L38.35299373997582,0L41.56244928307004,0L44.771904826164246,0L47.981360369258454,0L51.19081591235267,0L54.40027145544688,0L57.60972699854109,24.521110985014165L60.8191825416353,73.56333295504251L64.02863808472952,0L67.23809362782373,122.60555492507086L70.44754917091794,98.0844439400567L73.65700471401215,85.82388844754959L76.86646025710637,73.56333295504251L80.07591580020056,110.34499943256378L83.28537134329478,147.12666591008505L86.49482688638899,134.86611041757794L89.7042824294832,122.60555492507086L92.91373797257741,110.34499943256378L96.12319351567163,122.60555492507086L99.33264905876584,98.0844439400567L102.54210460186005,171.6477768950992L105.75156014495425,196.1688878801134L108.96101568804848,122.60555492507086L112.17047123114267,171.6477768950992L115.37992677423689,85.82388844754959L118.5893823173311,147.12666591008505L121.79883786042532,147.12666591008505L125.00829340351952,110.34499943256378L128.21774894661374,147.12666591008505L131.42720448970795,147.12666591008505L134.63666003280215,122.60555492507086L137.84611557589636,159.38722140259213L141.05557111899057,110.34499943256378L144.2650266620848,122.60555492507086L147.474482205179,147.12666591008505L150.6839377482732,171.6477768950992L153.89339329136743,122.60555492507086L157.10284883446164,134.86611041757794L160.31230437755585,98.0844439400567L163.52175992065006,110.34499943256378L166.73121546374426,171.6477768950992L169.9406710068385,159.38722140259213L173.15012654993268,159.38722140259213L176.3595820930269,110.34499943256378L179.56903763612112,147.12666591008505L182.77849317921533,122.60555492507086L185.9879487223095,147.12666591008505L189.19740426540375,171.6477768950992L192.40685980849796,147.12666591008505L195.61631535159216,159.38722140259213L198.8257708946864,134.86611041757794L202.03522643778058,143.62365172545114L205.24468198087482,196.1688878801134L208.45413752396902,122.60555492507086L211.6635930670632,147.12666591008505L214.87304861015744,122.60555492507086L218.08250415325165,110.34499943256378L221.29195969634586,147.12666591008505L224.5014152394401,147.12666591008505L227.71087078253427,122.60555492507086L230.92032632562848,147.12666591008505L234.12978186872272,147.12666591008505L237.33923741181692,122.60555492507086L240.5486929549111,134.86611041757794L243.75814849800534,134.86611041757794L246.96760404109955,110.34499943256378L250.17705958419378,147.12666591008505L253.38651512728796,122.60555492507086L256.5959706703822,159.38722140259213L259.8054262134764,171.6477768950992L263.0148817565706,147.12666591008505L266.2243372996648,122.60555492507086L269.43379284275903,134.86611041757794L272.6432483858532,171.6477768950992" fill="none"></path></g></g></g></g></g></g><g transform="translate(41, 176)" clip-path="url(#clip_1)"><clipPath id="clip_1"><rect width="288" height="23"></rect></clipPath><g><g><line x1="0" y1="0" x2="0" y2="5" style="visibility: inherit;" fill="rgb(0, 0, 0)" stroke="rgb(204, 204, 204)" stroke-width="1px"></line><line x1="32.09455543094211" y1="0" x2="32.09455543094211" y2="5" style="visibility: inherit;" fill="rgb(0, 0, 0)" stroke="rgb(204, 204, 204)" stroke-width="1px"></line><line x1="64.18911086188422" y1="0" x2="64.18911086188422" y2="5" style="visibility: inherit;" fill="rgb(0, 0, 0)" stroke="rgb(204, 204, 204)" stroke-width="1px"></line><line x1="96.28366629282633" y1="0" x2="96.28366629282633" y2="5" style="visibility: inherit;" fill="rgb(0, 0, 0)" stroke="rgb(204, 204, 204)" stroke-width="1px"></line><line x1="128.37822172376843" y1="0" x2="128.37822172376843" y2="5" style="visibility: inherit;" fill="rgb(0, 0, 0)" stroke="rgb(204, 204, 204)" stroke-width="1px"></line><line x1="160.47277715471057" y1="0" x2="160.47277715471057" y2="5" style="visibility: inherit;" fill="rgb(0, 0, 0)" stroke="rgb(204, 204, 204)" stroke-width="1px"></line><line x1="192.56733258565265" y1="0" x2="192.56733258565265" y2="5" style="visibility: inherit;" fill="rgb(0, 0, 0)" stroke="rgb(204, 204, 204)" stroke-width="1px"></line><line x1="224.6618880165948" y1="0" x2="224.6618880165948" y2="5" style="visibility: inherit;" fill="rgb(0, 0, 0)" stroke="rgb(204, 204, 204)" stroke-width="1px"></line><line x1="256.75644344753687" y1="0" x2="256.75644344753687" y2="5" style="visibility: inherit;" fill="rgb(0, 0, 0)" stroke="rgb(204, 204, 204)" stroke-width="1px"></line><line x1="288.850998878479" y1="0" x2="288.850998878479" y2="5" style="visibility: inherit;" fill="rgb(0, 0, 0)" stroke="rgb(204, 204, 204)" stroke-width="1px"></line></g><g transform="translate(0, 8)"><text style="text-anchor: middle; visibility: hidden; font-family: Roboto, sans-serif; font-size: 12px; font-weight: 200;" x="0" y="0" dx="0em" dy="0.95em" fill="rgb(255, 255, 255)" stroke="none" stroke-width="1px">-200</text><text style="text-anchor: middle; visibility: inherit; font-family: Roboto, sans-serif; font-size: 12px; font-weight: 200;" x="32.09455543094211" y="0" dx="0em" dy="0.95em" fill="rgb(255, 255, 255)" stroke="none" stroke-width="1px">0</text><text style="text-anchor: middle; visibility: inherit; font-family: Roboto, sans-serif; font-size: 12px; font-weight: 200;" x="64.18911086188422" y="0" dx="0em" dy="0.95em" fill="rgb(255, 255, 255)" stroke="none" stroke-width="1px">200</text><text style="text-anchor: middle; visibility: inherit; font-family: Roboto, sans-serif; font-size: 12px; font-weight: 200;" x="96.28366629282633" y="0" dx="0em" dy="0.95em" fill="rgb(255, 255, 255)" stroke="none" stroke-width="1px">400</text><text style="text-anchor: middle; visibility: inherit; font-family: Roboto, sans-serif; font-size: 12px; font-weight: 200;" x="128.37822172376843" y="0" dx="0em" dy="0.95em" fill="rgb(255, 255, 255)" stroke="none" stroke-width="1px">600</text><text style="text-anchor: middle; visibility: inherit; font-family: Roboto, sans-serif; font-size: 12px; font-weight: 200;" x="160.47277715471057" y="0" dx="0em" dy="0.95em" fill="rgb(255, 255, 255)" stroke="none" stroke-width="1px">800</text><text style="text-anchor: middle; visibility: inherit; font-family: Roboto, sans-serif; font-size: 12px; font-weight: 200;" x="192.56733258565265" y="0" dx="0em" dy="0.95em" fill="rgb(255, 255, 255)" stroke="none" stroke-width="1px">1k</text><text style="text-anchor: middle; visibility: inherit; font-family: Roboto, sans-serif; font-size: 12px; font-weight: 200;" x="224.6618880165948" y="0" dx="0em" dy="0.95em" fill="rgb(255, 255, 255)" stroke="none" stroke-width="1px">1.2k</text><text style="text-anchor: middle; visibility: inherit; font-family: Roboto, sans-serif; font-size: 12px; font-weight: 200;" x="256.75644344753687" y="0" dx="0em" dy="0.95em" fill="rgb(255, 255, 255)" stroke="none" stroke-width="1px">1.4k</text><text style="text-anchor: middle; visibility: hidden; font-family: Roboto, sans-serif; font-size: 12px; font-weight: 200;" x="288.850998878479" y="0" dx="0em" dy="0.95em" fill="rgb(255, 255, 255)" stroke="none" stroke-width="1px">1.6k</text></g><line x1="0" y1="0" x2="288.850998878479" y2="0" fill="rgb(0, 0, 0)" stroke="rgb(204, 204, 204)" stroke-width="1px"></line></g></g></g></g></svg>