<svg viewBox="0 0 330 200" xmlns="http://www.w3.org/2000/svg"><g><g><g><g><g><line x1="61.91500186920166" y1="176.55199909210205" x2="56.91500186920166" y2="176.55199909210205" style="visibility: inherit;" fill="rgb(0, 0, 0)" stroke="rgb(204, 204, 204)" stroke-width="1px"></line><line x1="61.91500186920166" y1="156.9351103040907" x2="56.91500186920166" y2="156.9351103040907" style="visibility: inherit;" fill="rgb(0, 0, 0)" stroke="rgb(204, 204, 204)" stroke-width="1px"></line><line x1="61.91500186920166" y1="137.31822151607938" x2="56.91500186920166" y2="137.31822151607938" style="visibility: inherit;" fill="rgb(0, 0, 0)" stroke="rgb(204, 204, 204)" stroke-width="1px"></line><line x1="61.91500186920166" y1="117.70133272806805" x2="56.91500186920166" y2="117.70133272806805" style="visibility: inherit;" fill="rgb(0, 0, 0)" stroke="rgb(204, 204, 204)" stroke-width="1px"></line><line x1="61.91500186920166" y1="98.0844439400567" x2="56.91500186920166" y2="98.0844439400567" style="visibility: inherit;" fill="rgb(0, 0, 0)" stroke="rgb(204, 204, 204)" stroke-width="1px"></line><line x1="61.91500186920166" y1="78.46755515204538" x2="56.91500186920166" y2="78.46755515204538" style="visibility: inherit;" fill="rgb(0, 0, 0)" stroke="rgb(204, 204, 204)" stroke-width="1px"></line><line x1="61.91500186920166" y1="58.850666364034026" x2="56.91500186920166" y2="58.850666364034026" style="visibility: inherit;" fill="rgb(0, 0, 0)" stroke="rgb(204, 204, 204)" stroke-width="1px"></line><line x1="61.91500186920166" y1="39.233777576022696" x2="56.91500186920166" y2="39.233777576022696" style="visibility: inherit;" fill="rgb(0, 0, 0)" stroke="rgb(204, 204, 204)" stroke-width="1px"></line><line x1="61.91500186920166" y1="19.616888788011348" x2="56.91500186920166" y2="19.616888788011348" style="visibility: inherit;" fill="rgb(0, 0, 0)" stroke="rgb(204, 204, 204)" stroke-width="1px"></line><line x1="61.91500186920166" y1="0" x2="56.91500186920166" y2="0" style="visibility: inherit;" fill="rgb(0, 0, 0)" stroke="rgb(204, 204, 204)" stroke-width="1px"></line></g><g transform="translate(51.91500186920166, 0)"><text style="text-anchor: end; visibility: hidden; font-family: Roboto, sans-serif; font-size: 12px; font-weight: 200;" x="0" y="176.55199909210205" dx="0em" dy="0.3em" fill="rgb(255, 255, 255)" stroke="none" stroke-width="1px">2e-3</text><text style="text-anchor: end; visibility: inherit; font-family: Roboto, sans-serif; font-size: 12px; font-weight: 200;" x="0" y="156.9351103040907" dx="0em" dy="0.3em" fill="rgb(255, 255, 255)" stroke="none" stroke-width="1px">4e-3</text><text style="text-anchor: end; visibility: hidden; font-family: Roboto, sans-serif; font-size: 12px; font-weight: 200;" x="0" y="137.31822151607938" dx="0em" dy="0.3em" fill="rgb(255, 255, 255)" stroke="none" stroke-width="1px">6e-3</text><text style="text-anchor: end; visibility: inherit; font-family: Roboto, sans-serif; font-size: 12px; font-weight: 200;" x="0" y="117.70133272806805" dx="0em" dy="0.3em" fill="rgb(255, 255, 255)" stroke="none" stroke-width="1px">8e-3</text><text style="text-anchor: end; visibility: hidden; font-family: Roboto, sans-serif; font-size: 12px; font-weight: 200;" x="0" y="98.0844439400567" dx="0em" dy="0.3em" fill="rgb(255, 255, 255)" stroke="none" stroke-width="1px">0.01</text><text style="text-anchor: end; visibility: inherit; font-family: Roboto, sans-serif; font-size: 12px; font-weight: 200;" x="0" y="78.46755515204538" dx="0em" dy="0.3em" fill="rgb(255, 255, 255)" stroke="none" stroke-width="1px">0.012</text><text style="text-anchor: end; visibility: hidden; font-family: Roboto, sans-serif; font-size: 12px; font-weight: 200;" x="0" y="58.850666364034026" dx="0em" dy="0.3em" fill="rgb(255, 255, 255)" stroke="none" stroke-width="1px">0.014</text><text style="text-anchor: end; visibility: inherit; font-family: Roboto, sans-serif; font-size: 12px; font-weight: 200;" x="0" y="39.233777576022696" dx="0em" dy="0.3em" fill="rgb(255, 255, 255)" stroke="none" stroke-width="1px">0.016</text><text style="text-anchor: end; visibility: hidden; font-family: Roboto, sans-serif; font-size: 12px; font-weight: 200;" x="0" y="19.616888788011348" dx="0em" dy="0.3em" fill="rgb(255, 255, 255)" stroke="none" stroke-width="1px">0.018</text><text style="text-anchor: end; visibility: hidden; font-family: Roboto, sans-serif; font-size: 12px; font-weight: 200;" x="0" y="0" dx="0em" dy="0.3em" fill="rgb(255, 255, 255)" stroke="none" stroke-width="1px">0.02</text></g><line x1="61.91500186920166" y1="0" x2="61.91500186920166" y2="176.55199909210205" fill="rgb(0, 0, 0)" stroke="rgb(204, 204, 204)" stroke-width="1px"></line></g></g><g transform="translate(61, 0)" clip-path="url(#clip_0)"><clipPath id="clip_0"><rect width="268" height="176"></rect></clipPath><g><g><g><line x1="0" y1="0" x2="0" y2="176.55199909210205" fill="rgb(0, 0, 0)" stroke="rgb(189, 189, 189)" stroke-width="1px" opacity="0.25"></line><line x1="29.787222014533146" y1="0" x2="29.787222014533146" y2="176.55199909210205" fill="rgb(0, 0, 0)" stroke="rgb(189, 189, 189)" stroke-width="1px" opacity="0.25"></line><line x1="59.57444402906629" y1="0" x2="59.57444402906629" y2="176.55199909210205" fill="rgb(0, 0, 0)" stroke="rgb(189, 189, 189)" stroke-width="1px" opacity="0.25"></line><line x1="89.36166604359944" y1="0" x2="89.36166604359944" y2="176.55199909210205" fill="rgb(0, 0, 0)" stroke="rgb(189, 189, 189)" stroke-width="1px" opacity="0.25"></line><line x1="119.14888805813258" y1="0" x2="119.14888805813258" y2="176.55199909210205" fill="rgb(0, 0, 0)" stroke="rgb(189, 189, 189)" stroke-width="1px" opacity="0.25"></line><line x1="148.93611007266574" y1="0" x2="148.93611007266574" y2="176.55199909210205" fill="rgb(0, 0, 0)" stroke="rgb(189, 189, 189)" stroke-width="1px" opacity="0.25"></line><line x1="178.72333208719888" y1="0" x2="178.72333208719888" y2="176.55199909210205" fill="rgb(0, 0, 0)" stroke="rgb(189, 189, 189)" stroke-width="1px" opacity="0.25"></line><line x1="208.51055410173205" y1="0" x2="208.51055410173205" y2="176.55199909210205" fill="rgb(0, 0, 0)" stroke="rgb(189, 189, 189)" stroke-width="1px" opacity="0.25"></line><line x1="238.29777611626517" y1="0" x2="238.29777611626517" y2="176.55199909210205" fill="rgb(0, 0, 0)" stroke="rgb(189, 189, 189)" stroke-width="1px" opacity="0.25"></line><line x1="268.08499813079834" y1="0" x2="268.08499813079834" y2="176.55199909210205" fill="rgb(0, 0, 0)" stroke="rgb(189, 189, 189)" stroke-width="1px" opacity="0.25"></line></g><g><line x1="0" y1="176.55199909210205" x2="268.08499813079834" y2="176.55199909210205" fill="rgb(0, 0, 0)" stroke="rgb(189, 189, 189)" stroke-width="1px" opacity="0.25"></line><line x1="0" y1="156.9351103040907" x2="268.08499813079834" y2="156.9351103040907" fill="rgb(0, 0, 0)" stroke="rgb(189, 189, 189)" stroke-width="1px" opacity="0.25"></line><line x1="0" y1="137.31822151607938" x2="268.08499813079834" y2="137.31822151607938" fill="rgb(0, 0, 0)" stroke="rgb(189, 189, 189)" stroke-width="1px" opacity="0.25"></line><line x1="0" y1="117.70133272806805" x2="268.08499813079834" y2="117.70133272806805" fill="rgb(0, 0, 0)" stroke="rgb(189, 189, 189)" stroke-width="1px" opacity="0.25"></line><line x1="0" y1="98.0844439400567" x2="268.08499813079834" y2="98.0844439400567" fill="rgb(0, 0, 0)" stroke="rgb(189, 189, 189)" stroke-width="1px" opacity="0.25"></line><line x1="0" y1="78.46755515204538" x2="268.08499813079834" y2="78.46755515204538" fill="rgb(0, 0, 0)" stroke="rgb(189, 189, 189)" stroke-width="1px" opacity="0.25"></line><line x1="0" y1="58.850666364034026" x2="268.08499813079834" y2="58.850666364034026" fill="rgb(0, 0, 0)" stroke="rgb(189, 189, 189)" stroke-width="1px" opacity="0.25"></line><line x1="0" y1="39.233777576022696" x2="268.08499813079834" y2="39.233777576022696" fill="rgb(0, 0, 0)" stroke="rgb(189, 189, 189)" stroke-width="1px" opacity="0.25"></line><line x1="0" y1="19.616888788011348" x2="268.08499813079834" y2="19.616888788011348" fill="rgb(0, 0, 0)" stroke="rgb(189, 189, 189)" stroke-width="1px" opacity="0.25"></line><line x1="0" y1="0" x2="268.08499813079834" y2="0" fill="rgb(0, 0, 0)" stroke="rgb(189, 189, 189)" stroke-width="1px" opacity="0.25"></line></g></g></g><g><g><line x1="0" y1="196.1688878801134" x2="268.08499813079834" y2="196.1688878801134" fill="rgb(0, 0, 0)" stroke="rgb(153, 153, 153)" stroke-width="1.5px"></line></g></g><g><g><line x1="29.787222014533146" y1="0" x2="29.787222014533146" y2="176.55199909210205" fill="rgb(0, 0, 0)" stroke="rgb(153, 153, 153)" stroke-width="1.5px"></line></g></g><g><g><g><g><g><path style="fill: none;" stroke="rgb(255, 112, 67)" stroke-width="2px" d="M32.6170081059138,24.429086020267395L35.59573030736711,-56.61207297343149L38.57445250882043,5.110443465495015L41.553174710273744,-4.018176392233672L44.53189691172705,19.482533251447222L47.510619113180375,77.76321206124186L50.489341314633684,106.9696443433036L53.46806351608701,116.6302571339362L56.446785717540315,118.80711662541971L59.42550791899364,114.72331299575289L62.40423012044695,128.57763823897426L65.38295232190026,87.97138727799627L68.36167452335357,71.80369695522491L71.3403967248069,64.0974793881283L74.3191189262602,86.09868478538338L77.29784112771353,129.4831939821978L80.27656332916683,129.50182679985812L83.25528553062014,95.26650690444716L86.23400773207347,107.35928508637477L89.21272993352679,137.1892732749453L92.1914521349801,150.91630818038675L95.1701743364334,132.87827796259253L98.14889653788673,143.509333139369L101.12761873934005,157.60022067071L104.10634094079334,161.07992642500312L107.08506314224667,138.05774205622248L110.06378534369999,147.62543040840544L113.0425075451533,151.9780342495374L116.02122974660661,126.71574555579036L118.99995194805993,133.20555586525325L121.97867414951325,144.41468359098343L124.95739635096655,152.86813775147684L127.93611855241987,147.0932596775908L130.9148407538732,156.22477749981007L133.8935629553265,93.53968152877356L136.8722851567798,97.53967437812592L139.85100735823312,125.91302245780122L142.82972955968646,134.58315725330897L145.80845176113976,144.23319119349216L148.7871739625931,87.96918045304442L151.7658961640464,109.77525868816299L154.7446183654997,123.27191301108518L157.72334056695303,122.19870138222358L160.70206276840634,128.42732214488836L163.68078496985964,114.96454410459891L166.65950717131298,121.84433586269414L169.6382293727663,129.3782183687551L172.6169515742196,126.00096855445935L175.5956737756729,127.51852179195468L178.57439597712622,128.08943005025634L181.55311817857952,145.219902842089L184.53184038003286,98.22622579395063L187.51056258148617,97.51344709463643L190.4892847829395,86.91771405569669L193.46800698439282,93.3071269203585L196.4467291858461,37.502990892591185L199.42545138729943,42.33527866385761L202.40417358875274,74.80997951565956L205.38289579020605,101.33231358239473L208.3616179916594,91.42623153100718L211.3403401931127,111.4145802665413L214.319062394566,120.44982429899203L217.29778459601934,128.63695391598444L220.27650679747262,124.27884336003633L223.25522899892593,131.19525414723793L226.23395120037927,146.1321020341505L229.21267340183257,144.26808672025842L232.1913956032859,135.46594082972751L235.17011780473922,138.94318627995864L238.14884000619253,126.29558953847209L241.12756220764587,135.5968966771486L244.10628440909915,129.51465889730142L247.08500661055245,137.65242211063452L250.0637288120058,134.77490859599374L253.0424510134591,141.28610773134142" fill="none"></path></g></g></g></g><g opacity="0.2"><g><g><g><path style="fill: none;" stroke="rgb(255, 112, 67)" stroke-width="2px" d="M32.6170081059138,24.429086020267395L35.59573030736711,-105.23676836965082L38.57445250882043,64.36405924686456L41.553174710273744,-14.753433344922708L44.53189691172705,50.165059762237135L47.510619113180375,158.38637189955932L50.489341314633684,148.7353098095684L53.46806351608701,130.71552332456127L56.446785717540315,122.01756154217034L59.42550791899364,108.65934054850784L62.40423012044695,149.23346839352863L65.38295232190026,27.28298826108692L68.36167452335357,47.604951785130666L71.3403967248069,52.5532503199331L74.3191189262602,119.07463129021505L77.29784112771353,194.52935966023819L80.27656332916683,129.52976814156457L83.25528553062014,43.922219405343476L86.23400773207347,125.49661014622399L89.21272993352679,181.93152897872403L92.1914521349801,171.50610771533104L95.1701743364334,105.82182618496898L98.14889653788673,159.45570601289438L101.12761873934005,178.73638504772512L104.10634094079334,166.29946032418363L107.08506314224667,103.52456368215145L110.06378534369999,161.97693845558766L113.0425075451533,158.50693332896313L116.02122974660661,88.82233578530806L118.99995194805993,142.94026774262804L121.97867414951325,161.22837146251L124.95739635096655,165.54831731026252L127.93611855241987,138.43094325616624L130.9148407538732,169.92205357906704L133.8935629553265,-0.48795973377827895L136.8722851567798,103.5396635490104L139.85100735823312,168.47304413833203L142.82972955968646,147.58835936608585L145.80845176113976,158.7082420500183L148.7871739625931,3.5731645304000135L151.7658961640464,142.48437599711696L154.7446183654997,143.516894479231L157.72334056695303,120.58888393970591L160.70206276840634,137.7702532861879L163.68078496985964,94.77037704766317L166.65950717131298,132.16402349876432L169.6382293727663,140.67904212714177L172.6169515742196,120.93509383320524L175.5956737756729,129.7948516481466L178.57439597712622,128.94579243769726L181.55311817857952,170.91561202963032L184.53184038003286,27.735710222084993L187.51056258148617,96.44427904566822L190.4892847829395,71.02411449731481L193.46800698439282,102.89124621734119L196.4467291858461,-46.20321314900722L199.42545138729943,49.58371032075452L202.40417358875274,123.52203079335146L205.38289579020605,141.11581468249207L208.3616179916594,76.5671084539271L211.3403401931127,141.39710336984103L214.319062394566,134.00269034766768L217.29778459601934,140.9176483414729L220.27650679747262,117.74167752611422L223.25522899892593,141.5698703280403L226.23395120037927,168.53737386451922L229.21267340183257,141.4720637494203L232.1913956032859,122.26272199393115L235.17011780473922,144.1590544553053L238.14884000619253,107.32419442624236L241.12756220764587,149.5488573851634L244.10628440909915,120.3913022275306L247.08500661055245,149.85906693063419L250.0637288120058,130.45863832403248L253.0424510134591,151.052906434363" fill="none"></path></g></g></g></g></g></g><g transform="translate(61, 176)" clip-path="url(#clip_1)"><clipPath id="clip_1"><rect width="268" height="23"></rect></clipPath><g><g><line x1="0" y1="0" x2="0" y2="5" style="visibility: inherit;" fill="rgb(0, 0, 0)" stroke="rgb(204, 204, 204)" stroke-width="1px"></line><line x1="29.787222014533146" y1="0" x2="29.787222014533146" y2="5" style="visibility: inherit;" fill="rgb(0, 0, 0)" stroke="rgb(204, 204, 204)" stroke-width="1px"></line><line x1="59.57444402906629" y1="0" x2="59.57444402906629" y2="5" style="visibility: inherit;" fill="rgb(0, 0, 0)" stroke="rgb(204, 204, 204)" stroke-width="1px"></line><line x1="89.36166604359944" y1="0" x2="89.36166604359944" y2="5" style="visibility: inherit;" fill="rgb(0, 0, 0)" stroke="rgb(204, 204, 204)" stroke-width="1px"></line><line x1="119.14888805813258" y1="0" x2="119.14888805813258" y2="5" style="visibility: inherit;" fill="rgb(0, 0, 0)" stroke="rgb(204, 204, 204)" stroke-width="1px"></line><line x1="148.93611007266574" y1="0" x2="148.93611007266574" y2="5" style="visibility: inherit;" fill="rgb(0, 0, 0)" stroke="rgb(204, 204, 204)" stroke-width="1px"></line><line x1="178.72333208719888" y1="0" x2="178.72333208719888" y2="5" style="visibility: inherit;" fill="rgb(0, 0, 0)" stroke="rgb(204, 204, 204)" stroke-width="1px"></line><line x1="208.51055410173205" y1="0" x2="208.51055410173205" y2="5" style="visibility: inherit;" fill="rgb(0, 0, 0)" stroke="rgb(204, 204, 204)" stroke-width="1px"></line><line x1="238.29777611626517" y1="0" x2="238.29777611626517" y2="5" style="visibility: inherit;" fill="rgb(0, 0, 0)" stroke="rgb(204, 204, 204)" stroke-width="1px"></line><line x1="268.08499813079834" y1="0" x2="268.08499813079834" y2="5" style="visibility: inherit;" fill="rgb(0, 0, 0)" stroke="rgb(204, 204, 204)" stroke-width="1px"></line></g><g transform="translate(0, 8)"><text style="text-anchor: middle; visibility: hidden; font-family: Roboto, sans-serif; font-size: 12px; font-weight: 200;" x="0" y="0" dx="0em" dy="0.95em" fill="rgb(255, 255, 255)" stroke="none" stroke-width="1px">-200</text><text style="text-anchor: middle; visibility: inherit; font-family: Roboto, sans-serif; font-size: 12px; font-weight: 200;" x="29.787222014533146" y="0" dx="0em" dy="0.95em" fill="rgb(255, 255, 255)" stroke="none" stroke-width="1px">0</text><text style="text-anchor: middle; visibility: inherit; font-family: Roboto, sans-serif; font-size: 12px; font-weight: 200;" x="59.57444402906629" y="0" dx="0em" dy="0.95em" fill="rgb(255, 255, 255)" stroke="none" stroke-width="1px">200</text><text style="text-anchor: middle; visibility: inherit; font-family: Roboto, sans-serif; font-size: 12px; font-weight: 200;" x="89.36166604359944" y="0" dx="0em" dy="0.95em" fill="rgb(255, 255, 255)" stroke="none" stroke-width="1px">400</text><text style="text-anchor: middle; visibility: inherit; font-family: Roboto, sans-serif; font-size: 12px; font-weight: 200;" x="119.14888805813258" y="0" dx="0em" dy="0.95em" fill="rgb(255, 255, 255)" stroke="none" stroke-width="1px">600</text><text style="text-anchor: middle; visibility: inherit; font-family: Roboto, sans-serif; font-size: 12px; font-weight: 200;" x="148.93611007266574" y="0" dx="0em" dy="0.95em" fill="rgb(255, 255, 255)" stroke="none" stroke-width="1px">800</text><text style="text-anchor: middle; visibility: inherit; font-family: Roboto, sans-serif; font-size: 12px; font-weight: 200;" x="178.72333208719888" y="0" dx="0em" dy="0.95em" fill="rgb(255, 255, 255)" stroke="none" stroke-width="1px">1k</text><text style="text-anchor: middle; visibility: inherit; font-family: Roboto, sans-serif; font-size: 12px; font-weight: 200;" x="208.51055410173205" y="0" dx="0em" dy="0.95em" fill="rgb(255, 255, 255)" stroke="none" stroke-width="1px">1.2k</text><text style="text-anchor: middle; visibility: inherit; font-family: Roboto, sans-serif; font-size: 12px; font-weight: 200;" x="238.29777611626517" y="0" dx="0em" dy="0.95em" fill="rgb(255, 255, 255)" stroke="none" stroke-width="1px">1.4k</text><text style="text-anchor: middle; visibility: hidden; font-family: Roboto, sans-serif; font-size: 12px; font-weight: 200;" x="268.08499813079834" y="0" dx="0em" dy="0.95em" fill="rgb(255, 255, 255)" stroke="none" stroke-width="1px">1.6k</text></g><line x1="0" y1="0" x2="268.08499813079834" y2="0" fill="rgb(0, 0, 0)" stroke="rgb(204, 204, 204)" stroke-width="1px"></line></g></g></g></g></svg>