<svg viewBox="0 0 330 200" xmlns="http://www.w3.org/2000/svg"><g><g><g><g><g><line x1="51.53200149536133" y1="176.55199909210205" x2="46.53200149536133" y2="176.55199909210205" style="visibility: inherit;" fill="rgb(0, 0, 0)" stroke="rgb(204, 204, 204)" stroke-width="1px"></line><line x1="51.53200149536133" y1="154.48299920558932" x2="46.53200149536133" y2="154.48299920558932" style="visibility: inherit;" fill="rgb(0, 0, 0)" stroke="rgb(204, 204, 204)" stroke-width="1px"></line><line x1="51.53200149536133" y1="132.41399931907654" x2="46.53200149536133" y2="132.41399931907654" style="visibility: inherit;" fill="rgb(0, 0, 0)" stroke="rgb(204, 204, 204)" stroke-width="1px"></line><line x1="51.53200149536133" y1="110.34499943256382" x2="46.53200149536133" y2="110.34499943256382" style="visibility: inherit;" fill="rgb(0, 0, 0)" stroke="rgb(204, 204, 204)" stroke-width="1px"></line><line x1="51.53200149536133" y1="88.27599954605103" x2="46.53200149536133" y2="88.27599954605103" style="visibility: inherit;" fill="rgb(0, 0, 0)" stroke="rgb(204, 204, 204)" stroke-width="1px"></line><line x1="51.53200149536133" y1="66.20699965953825" x2="46.53200149536133" y2="66.20699965953825" style="visibility: inherit;" fill="rgb(0, 0, 0)" stroke="rgb(204, 204, 204)" stroke-width="1px"></line><line x1="51.53200149536133" y1="44.13799977302551" x2="46.53200149536133" y2="44.13799977302551" style="visibility: inherit;" fill="rgb(0, 0, 0)" stroke="rgb(204, 204, 204)" stroke-width="1px"></line><line x1="51.53200149536133" y1="22.068999886512735" x2="46.53200149536133" y2="22.068999886512735" style="visibility: inherit;" fill="rgb(0, 0, 0)" stroke="rgb(204, 204, 204)" stroke-width="1px"></line><line x1="51.53200149536133" y1="0" x2="46.53200149536133" y2="0" style="visibility: inherit;" fill="rgb(0, 0, 0)" stroke="rgb(204, 204, 204)" stroke-width="1px"></line></g><g transform="translate(41.53200149536133, 0)"><text style="text-anchor: end; visibility: hidden; font-family: Roboto, sans-serif; font-size: 12px; font-weight: 200;" x="0" y="176.55199909210205" dx="0em" dy="0.3em" fill="rgb(255, 255, 255)" stroke="none" stroke-width="1px">0.55</text><text style="text-anchor: end; visibility: inherit; font-family: Roboto, sans-serif; font-size: 12px; font-weight: 200;" x="0" y="154.48299920558932" dx="0em" dy="0.3em" fill="rgb(255, 255, 255)" stroke="none" stroke-width="1px">0.6</text><text style="text-anchor: end; visibility: hidden; font-family: Roboto, sans-serif; font-size: 12px; font-weight: 200;" x="0" y="132.41399931907654" dx="0em" dy="0.3em" fill="rgb(255, 255, 255)" stroke="none" stroke-width="1px">0.65</text><text style="text-anchor: end; visibility: inherit; font-family: Roboto, sans-serif; font-size: 12px; font-weight: 200;" x="0" y="110.34499943256382" dx="0em" dy="0.3em" fill="rgb(255, 255, 255)" stroke="none" stroke-width="1px">0.7</text><text style="text-anchor: end; visibility: hidden; font-family: Roboto, sans-serif; font-size: 12px; font-weight: 200;" x="0" y="88.27599954605103" dx="0em" dy="0.3em" fill="rgb(255, 255, 255)" stroke="none" stroke-width="1px">0.75</text><text style="text-anchor: end; visibility: inherit; font-family: Roboto, sans-serif; font-size: 12px; font-weight: 200;" x="0" y="66.20699965953825" dx="0em" dy="0.3em" fill="rgb(255, 255, 255)" stroke="none" stroke-width="1px">0.8</text><text style="text-anchor: end; visibility: hidden; font-family: Roboto, sans-serif; font-size: 12px; font-weight: 200;" x="0" y="44.13799977302551" dx="0em" dy="0.3em" fill="rgb(255, 255, 255)" stroke="none" stroke-width="1px">0.85</text><text style="text-anchor: end; visibility: inherit; font-family: Roboto, sans-serif; font-size: 12px; font-weight: 200;" x="0" y="22.068999886512735" dx="0em" dy="0.3em" fill="rgb(255, 255, 255)" stroke="none" stroke-width="1px">0.9</text><text style="text-anchor: end; visibility: hidden; font-family: Roboto, sans-serif; font-size: 12px; font-weight: 200;" x="0" y="0" dx="0em" dy="0.3em" fill="rgb(255, 255, 255)" stroke="none" stroke-width="1px">0.95</text></g><line x1="51.53200149536133" y1="0" x2="51.53200149536133" y2="176.55199909210205" fill="rgb(0, 0, 0)" stroke="rgb(204, 204, 204)" stroke-width="1px"></line></g></g><g transform="translate(51, 0)" clip-path="url(#clip_0)"><clipPath id="clip_0"><rect width="278" height="176"></rect></clipPath><g><g><g><line x1="0" y1="0" x2="0" y2="176.55199909210205" fill="rgb(0, 0, 0)" stroke="rgb(189, 189, 189)" stroke-width="1px" opacity="0.25"></line><line x1="30.94088872273763" y1="0" x2="30.94088872273763" y2="176.55199909210205" fill="rgb(0, 0, 0)" stroke="rgb(189, 189, 189)" stroke-width="1px" opacity="0.25"></line><line x1="61.88177744547526" y1="0" x2="61.88177744547526" y2="176.55199909210205" fill="rgb(0, 0, 0)" stroke="rgb(189, 189, 189)" stroke-width="1px" opacity="0.25"></line><line x1="92.82266616821289" y1="0" x2="92.82266616821289" y2="176.55199909210205" fill="rgb(0, 0, 0)" stroke="rgb(189, 189, 189)" stroke-width="1px" opacity="0.25"></line><line x1="123.76355489095052" y1="0" x2="123.76355489095052" y2="176.55199909210205" fill="rgb(0, 0, 0)" stroke="rgb(189, 189, 189)" stroke-width="1px" opacity="0.25"></line><line x1="154.70444361368817" y1="0" x2="154.70444361368817" y2="176.55199909210205" fill="rgb(0, 0, 0)" stroke="rgb(189, 189, 189)" stroke-width="1px" opacity="0.25"></line><line x1="185.64533233642578" y1="0" x2="185.64533233642578" y2="176.55199909210205" fill="rgb(0, 0, 0)" stroke="rgb(189, 189, 189)" stroke-width="1px" opacity="0.25"></line><line x1="216.58622105916342" y1="0" x2="216.58622105916342" y2="176.55199909210205" fill="rgb(0, 0, 0)" stroke="rgb(189, 189, 189)" stroke-width="1px" opacity="0.25"></line><line x1="247.52710978190103" y1="0" x2="247.52710978190103" y2="176.55199909210205" fill="rgb(0, 0, 0)" stroke="rgb(189, 189, 189)" stroke-width="1px" opacity="0.25"></line><line x1="278.4679985046387" y1="0" x2="278.4679985046387" y2="176.55199909210205" fill="rgb(0, 0, 0)" stroke="rgb(189, 189, 189)" stroke-width="1px" opacity="0.25"></line></g><g><line x1="0" y1="176.55199909210205" x2="278.4679985046387" y2="176.55199909210205" fill="rgb(0, 0, 0)" stroke="rgb(189, 189, 189)" stroke-width="1px" opacity="0.25"></line><line x1="0" y1="154.48299920558932" x2="278.4679985046387" y2="154.48299920558932" fill="rgb(0, 0, 0)" stroke="rgb(189, 189, 189)" stroke-width="1px" opacity="0.25"></line><line x1="0" y1="132.41399931907654" x2="278.4679985046387" y2="132.41399931907654" fill="rgb(0, 0, 0)" stroke="rgb(189, 189, 189)" stroke-width="1px" opacity="0.25"></line><line x1="0" y1="110.34499943256382" x2="278.4679985046387" y2="110.34499943256382" fill="rgb(0, 0, 0)" stroke="rgb(189, 189, 189)" stroke-width="1px" opacity="0.25"></line><line x1="0" y1="88.27599954605103" x2="278.4679985046387" y2="88.27599954605103" fill="rgb(0, 0, 0)" stroke="rgb(189, 189, 189)" stroke-width="1px" opacity="0.25"></line><line x1="0" y1="66.20699965953825" x2="278.4679985046387" y2="66.20699965953825" fill="rgb(0, 0, 0)" stroke="rgb(189, 189, 189)" stroke-width="1px" opacity="0.25"></line><line x1="0" y1="44.13799977302551" x2="278.4679985046387" y2="44.13799977302551" fill="rgb(0, 0, 0)" stroke="rgb(189, 189, 189)" stroke-width="1px" opacity="0.25"></line><line x1="0" y1="22.068999886512735" x2="278.4679985046387" y2="22.068999886512735" fill="rgb(0, 0, 0)" stroke="rgb(189, 189, 189)" stroke-width="1px" opacity="0.25"></line><line x1="0" y1="0" x2="278.4679985046387" y2="0" fill="rgb(0, 0, 0)" stroke="rgb(189, 189, 189)" stroke-width="1px" opacity="0.25"></line></g></g></g><g><g><line x1="0" y1="419.3109978437424" x2="278.4679985046387" y2="419.3109978437424" fill="rgb(0, 0, 0)" stroke="rgb(153, 153, 153)" stroke-width="1.5px"></line></g></g><g><g><line x1="30.94088872273763" y1="0" x2="30.94088872273763" y2="176.55199909210205" fill="rgb(0, 0, 0)" stroke="rgb(153, 153, 153)" stroke-width="1.5px"></line></g></g><g><g><g><g><g><path style="fill: none;" stroke="rgb(255, 112, 67)" stroke-width="2px" d="M33.88027315139771,22.50241331068319L36.97436202367147,41.3224817774241L40.06845089594523,18.00607821078188L43.16253976821899,16.86165984667031L46.25662864049276,10.146068205771128L49.35071751276652,15.016825669870245L52.44480638504028,1.819385530573723L55.538895257314046,0.7887086022688271L58.63298412958781,12.32467841439741L61.72707300186158,-0.07624735927693345L64.82116187413534,6.27165975642225L67.9152507464091,7.631741959254188L71.00933961868286,26.70498060040368L74.10342849095663,41.35520807947194L77.19751736323038,46.59178816703743L80.29160623550415,50.14976944610827L83.38569510777792,57.29693698840889L86.47978398005166,78.26835457290773L89.57387285232544,82.07045943084829L92.66796172459921,90.7791367255308L95.76205059687297,85.85289142854404L98.85613946914673,86.74504205847832L101.95022834142048,78.95949177184869L105.04431721369426,96.83892844019742L108.13840608596801,99.57824086558954L111.23249495824177,120.68412502555368L114.32658383051555,136.97527687713378L117.42067270278932,149.44929557996377L120.51476157506306,121.34009802793551L123.60885044733683,138.32958470945314L126.7029393196106,137.17681959219084L129.79702819188435,122.27173319096602L132.89111706415812,134.34960250165713L135.9852059364319,95.84959126065937L139.07929480870567,81.55822441154085L142.1733836809794,122.34122361946157L145.26747255325316,115.7798695780063L148.36156142552693,112.57474356513733L151.4556502978007,112.68867738855077L154.54973917007447,113.59239980751505L157.64382804234822,120.9358334096084L160.737916914622,142.85306502430242L163.83200578689576,147.60059675042712L166.9260946591695,155.36820977161088L170.02018353144328,118.06693707470534L173.11427240371705,148.62724543760717L176.2083612759908,162.8023311497138L179.30245014826454,153.06782906637446L182.39653902053834,169.2179604883744L185.49062789281209,145.72944510565603L188.58471676508583,131.20719491956524L191.67880563735963,104.82704399161885L194.77289450963337,121.27616224190565L197.86698338190715,123.54478706738823L200.96107225418092,142.6015124870007L204.05516112645466,158.3807946055316L207.14924999872844,143.13307543667003L210.2433388710022,139.71430704790444L213.33742774327595,149.41667802140822L216.43151661554973,157.19271243523002L219.5256054878235,157.24965596746318L222.61969436009724,168.34950262482047L225.71378323237101,148.59509020271787L228.80787210464476,128.55201714383904L231.90196097691853,142.17846861250356L234.9960498491923,156.08106665713188L238.09013872146605,156.63311729280252L241.18422759373985,155.58897090267496L244.2783164660136,155.63117686322502L247.37240533828734,157.51075137415728L250.46649421056114,144.72742579016162L253.56058308283488,135.109385161219L256.65467195510865,137.4424110424924L259.7487608273824,123.89376747492464L262.84284969965614,122.81426861645684" fill="none"></path></g></g></g></g><g opacity="0.2"><g><g><g><path style="fill: none;" stroke="rgb(255, 112, 67)" stroke-width="2px" d="M33.88027315139771,22.50241331068319L36.97436202367147,52.61452285746867L40.06845089594523,-4.377669213194718L43.16253976821899,15.515823850475195L46.25662864049276,1.378191759413264L49.35071751276652,21.75483671540642L52.44480638504028,-17.053165027662583L55.538895257314046,-0.7140282536982278L58.63298412958781,29.33799314051081L61.72707300186158,-18.49017687968988L64.82116187413534,15.735945379637664L67.9152507464091,9.664463756215534L71.00933961868286,55.252561128681464L74.10342849095663,63.30184797731886L77.19751736323038,54.44050289506632L80.29160623550415,55.484232000655254L83.38569510777792,68.01466386008525L86.47978398005166,109.72015630900313L89.57387285232544,87.77303750535208L92.66796172459921,103.84135665995484L95.76205059687297,78.46379365006368L98.85613946914673,88.08323864678326L101.95022834142048,67.28132005401332L105.04431721369426,123.65787164374791L108.13840608596801,103.68719003381739L111.23249495824177,152.34286125854496L114.32658383051555,161.4119629699114L117.42067270278932,168.1603044836517L120.51476157506306,79.17632759243685L123.60885044733683,163.8138053418986L126.7029393196106,135.44767229856672L129.79702819188435,99.91410655474209L132.89111706415812,152.46640502583872L135.9852059364319,38.099577156839594L139.07929480870567,60.1211747520598L142.1733836809794,183.51572137970962L145.26747255325316,105.93783861733837L148.36156142552693,107.76705457558703L151.4556502978007,112.85957812303633L154.54973917007447,114.94798343294133L157.64382804234822,131.95098379802386L160.737916914622,175.72891241997553L163.83200578689576,154.72189433618723L166.9260946591695,167.0196293000224L170.02018353144328,62.115028039040226L173.11427240371705,194.4677079771951L176.2083612759908,184.06495971654778L179.30245014826454,138.4660759419118L182.39653902053834,193.44315762083042L185.49062789281209,110.49667203205314L188.58471676508583,109.42381964060513L191.67880563735963,65.25681759989124L194.77289450963337,145.94983961726413L197.86698338190715,126.94772430560602L200.96107225418092,171.18660061638948L204.05516112645466,182.04971778331313L207.14924999872844,120.2614966833863L210.2433388710022,134.5861544647573L213.33742774327595,163.97023448166195L216.43151661554973,168.85676405596172L219.5256054878235,157.335071265813L222.61969436009724,184.99927261085588L225.71378323237101,118.96347156956449L228.80787210464476,98.48740755552126L231.90196097691853,162.61814581550013L234.9960498491923,176.93496372407438L238.09013872146605,157.4611932463084L241.18422759373985,154.02275131748368L244.2783164660136,155.69448580404995L247.37240533828734,160.3301131405557L250.46649421056114,125.55243741416814L253.56058308283488,120.68232421780519L256.65467195510865,140.94194986440255L259.7487608273824,103.570802123573L262.84284969965614,121.19502032875513" fill="none"></path></g></g></g></g></g></g><g transform="translate(51, 176)" clip-path="url(#clip_1)"><clipPath id="clip_1"><rect width="278" height="23"></rect></clipPath><g><g><line x1="0" y1="0" x2="0" y2="5" style="visibility: inherit;" fill="rgb(0, 0, 0)" stroke="rgb(204, 204, 204)" stroke-width="1px"></line><line x1="30.94088872273763" y1="0" x2="30.94088872273763" y2="5" style="visibility: inherit;" fill="rgb(0, 0, 0)" stroke="rgb(204, 204, 204)" stroke-width="1px"></line><line x1="61.88177744547526" y1="0" x2="61.88177744547526" y2="5" style="visibility: inherit;" fill="rgb(0, 0, 0)" stroke="rgb(204, 204, 204)" stroke-width="1px"></line><line x1="92.82266616821289" y1="0" x2="92.82266616821289" y2="5" style="visibility: inherit;" fill="rgb(0, 0, 0)" stroke="rgb(204, 204, 204)" stroke-width="1px"></line><line x1="123.76355489095052" y1="0" x2="123.76355489095052" y2="5" style="visibility: inherit;" fill="rgb(0, 0, 0)" stroke="rgb(204, 204, 204)" stroke-width="1px"></line><line x1="154.70444361368817" y1="0" x2="154.70444361368817" y2="5" style="visibility: inherit;" fill="rgb(0, 0, 0)" stroke="rgb(204, 204, 204)" stroke-width="1px"></line><line x1="185.64533233642578" y1="0" x2="185.64533233642578" y2="5" style="visibility: inherit;" fill="rgb(0, 0, 0)" stroke="rgb(204, 204, 204)" stroke-width="1px"></line><line x1="216.58622105916342" y1="0" x2="216.58622105916342" y2="5" style="visibility: inherit;" fill="rgb(0, 0, 0)" stroke="rgb(204, 204, 204)" stroke-width="1px"></line><line x1="247.52710978190103" y1="0" x2="247.52710978190103" y2="5" style="visibility: inherit;" fill="rgb(0, 0, 0)" stroke="rgb(204, 204, 204)" stroke-width="1px"></line><line x1="278.4679985046387" y1="0" x2="278.4679985046387" y2="5" style="visibility: inherit;" fill="rgb(0, 0, 0)" stroke="rgb(204, 204, 204)" stroke-width="1px"></line></g><g transform="translate(0, 8)"><text style="text-anchor: middle; visibility: hidden; font-family: Roboto, sans-serif; font-size: 12px; font-weight: 200;" x="0" y="0" dx="0em" dy="0.95em" fill="rgb(255, 255, 255)" stroke="none" stroke-width="1px">-200</text><text style="text-anchor: middle; visibility: inherit; font-family: Roboto, sans-serif; font-size: 12px; font-weight: 200;" x="30.94088872273763" y="0" dx="0em" dy="0.95em" fill="rgb(255, 255, 255)" stroke="none" stroke-width="1px">0</text><text style="text-anchor: middle; visibility: inherit; font-family: Roboto, sans-serif; font-size: 12px; font-weight: 200;" x="61.88177744547526" y="0" dx="0em" dy="0.95em" fill="rgb(255, 255, 255)" stroke="none" stroke-width="1px">200</text><text style="text-anchor: middle; visibility: inherit; font-family: Roboto, sans-serif; font-size: 12px; font-weight: 200;" x="92.82266616821289" y="0" dx="0em" dy="0.95em" fill="rgb(255, 255, 255)" stroke="none" stroke-width="1px">400</text><text style="text-anchor: middle; visibility: inherit; font-family: Roboto, sans-serif; font-size: 12px; font-weight: 200;" x="123.76355489095052" y="0" dx="0em" dy="0.95em" fill="rgb(255, 255, 255)" stroke="none" stroke-width="1px">600</text><text style="text-anchor: middle; visibility: inherit; font-family: Roboto, sans-serif; font-size: 12px; font-weight: 200;" x="154.70444361368817" y="0" dx="0em" dy="0.95em" fill="rgb(255, 255, 255)" stroke="none" stroke-width="1px">800</text><text style="text-anchor: middle; visibility: inherit; font-family: Roboto, sans-serif; font-size: 12px; font-weight: 200;" x="185.64533233642578" y="0" dx="0em" dy="0.95em" fill="rgb(255, 255, 255)" stroke="none" stroke-width="1px">1k</text><text style="text-anchor: middle; visibility: inherit; font-family: Roboto, sans-serif; font-size: 12px; font-weight: 200;" x="216.58622105916342" y="0" dx="0em" dy="0.95em" fill="rgb(255, 255, 255)" stroke="none" stroke-width="1px">1.2k</text><text style="text-anchor: middle; visibility: inherit; font-family: Roboto, sans-serif; font-size: 12px; font-weight: 200;" x="247.52710978190103" y="0" dx="0em" dy="0.95em" fill="rgb(255, 255, 255)" stroke="none" stroke-width="1px">1.4k</text><text style="text-anchor: middle; visibility: hidden; font-family: Roboto, sans-serif; font-size: 12px; font-weight: 200;" x="278.4679985046387" y="0" dx="0em" dy="0.95em" fill="rgb(255, 255, 255)" stroke="none" stroke-width="1px">1.6k</text></g><line x1="0" y1="0" x2="278.4679985046387" y2="0" fill="rgb(0, 0, 0)" stroke="rgb(204, 204, 204)" stroke-width="1px"></line></g></g></g></g></svg>