<svg viewBox="0 0 330 200" xmlns="http://www.w3.org/2000/svg"><g><g><g><g><g><line x1="41.149001121520996" y1="176.55199909210205" x2="36.149001121520996" y2="176.55199909210205" style="visibility: inherit;" fill="rgb(0, 0, 0)" stroke="rgb(204, 204, 204)" stroke-width="1px"></line><line x1="41.149001121520996" y1="158.89679918289184" x2="36.149001121520996" y2="158.89679918289184" style="visibility: inherit;" fill="rgb(0, 0, 0)" stroke="rgb(204, 204, 204)" stroke-width="1px"></line><line x1="41.149001121520996" y1="141.24159927368166" x2="36.149001121520996" y2="141.24159927368166" style="visibility: inherit;" fill="rgb(0, 0, 0)" stroke="rgb(204, 204, 204)" stroke-width="1px"></line><line x1="41.149001121520996" y1="123.58639936447143" x2="36.149001121520996" y2="123.58639936447143" style="visibility: inherit;" fill="rgb(0, 0, 0)" stroke="rgb(204, 204, 204)" stroke-width="1px"></line><line x1="41.149001121520996" y1="105.93119945526122" x2="36.149001121520996" y2="105.93119945526122" style="visibility: inherit;" fill="rgb(0, 0, 0)" stroke="rgb(204, 204, 204)" stroke-width="1px"></line><line x1="41.149001121520996" y1="88.27599954605103" x2="36.149001121520996" y2="88.27599954605103" style="visibility: inherit;" fill="rgb(0, 0, 0)" stroke="rgb(204, 204, 204)" stroke-width="1px"></line><line x1="41.149001121520996" y1="70.6207996368408" x2="36.149001121520996" y2="70.6207996368408" style="visibility: inherit;" fill="rgb(0, 0, 0)" stroke="rgb(204, 204, 204)" stroke-width="1px"></line><line x1="41.149001121520996" y1="52.965599727630625" x2="36.149001121520996" y2="52.965599727630625" style="visibility: inherit;" fill="rgb(0, 0, 0)" stroke="rgb(204, 204, 204)" stroke-width="1px"></line><line x1="41.149001121520996" y1="35.3103998184204" x2="36.149001121520996" y2="35.3103998184204" style="visibility: inherit;" fill="rgb(0, 0, 0)" stroke="rgb(204, 204, 204)" stroke-width="1px"></line><line x1="41.149001121520996" y1="17.65519990921022" x2="36.149001121520996" y2="17.65519990921022" style="visibility: inherit;" fill="rgb(0, 0, 0)" stroke="rgb(204, 204, 204)" stroke-width="1px"></line><line x1="41.149001121520996" y1="0" x2="36.149001121520996" y2="0" style="visibility: inherit;" fill="rgb(0, 0, 0)" stroke="rgb(204, 204, 204)" stroke-width="1px"></line></g><g transform="translate(31.149001121520996, 0)"><text style="text-anchor: end; visibility: hidden; font-family: Roboto, sans-serif; font-size: 12px; font-weight: 200;" x="0" y="176.55199909210205" dx="0em" dy="0.3em" fill="rgb(255, 255, 255)" stroke="none" stroke-width="1px">0.5</text><text style="text-anchor: end; visibility: inherit; font-family: Roboto, sans-serif; font-size: 12px; font-weight: 200;" x="0" y="158.89679918289184" dx="0em" dy="0.3em" fill="rgb(255, 255, 255)" stroke="none" stroke-width="1px">0.6</text><text style="text-anchor: end; visibility: hidden; font-family: Roboto, sans-serif; font-size: 12px; font-weight: 200;" x="0" y="141.24159927368166" dx="0em" dy="0.3em" fill="rgb(255, 255, 255)" stroke="none" stroke-width="1px">0.7</text><text style="text-anchor: end; visibility: inherit; font-family: Roboto, sans-serif; font-size: 12px; font-weight: 200;" x="0" y="123.58639936447143" dx="0em" dy="0.3em" fill="rgb(255, 255, 255)" stroke="none" stroke-width="1px">0.8</text><text style="text-anchor: end; visibility: hidden; font-family: Roboto, sans-serif; font-size: 12px; font-weight: 200;" x="0" y="105.93119945526122" dx="0em" dy="0.3em" fill="rgb(255, 255, 255)" stroke="none" stroke-width="1px">0.9</text><text style="text-anchor: end; visibility: inherit; font-family: Roboto, sans-serif; font-size: 12px; font-weight: 200;" x="0" y="88.27599954605103" dx="0em" dy="0.3em" fill="rgb(255, 255, 255)" stroke="none" stroke-width="1px">1</text><text style="text-anchor: end; visibility: hidden; font-family: Roboto, sans-serif; font-size: 12px; font-weight: 200;" x="0" y="70.6207996368408" dx="0em" dy="0.3em" fill="rgb(255, 255, 255)" stroke="none" stroke-width="1px">1.1</text><text style="text-anchor: end; visibility: inherit; font-family: Roboto, sans-serif; font-size: 12px; font-weight: 200;" x="0" y="52.965599727630625" dx="0em" dy="0.3em" fill="rgb(255, 255, 255)" stroke="none" stroke-width="1px">1.2</text><text style="text-anchor: end; visibility: hidden; font-family: Roboto, sans-serif; font-size: 12px; font-weight: 200;" x="0" y="35.3103998184204" dx="0em" dy="0.3em" fill="rgb(255, 255, 255)" stroke="none" stroke-width="1px">1.3</text><text style="text-anchor: end; visibility: inherit; font-family: Roboto, sans-serif; font-size: 12px; font-weight: 200;" x="0" y="17.65519990921022" dx="0em" dy="0.3em" fill="rgb(255, 255, 255)" stroke="none" stroke-width="1px">1.4</text><text style="text-anchor: end; visibility: hidden; font-family: Roboto, sans-serif; font-size: 12px; font-weight: 200;" x="0" y="0" dx="0em" dy="0.3em" fill="rgb(255, 255, 255)" stroke="none" stroke-width="1px">1.5</text></g><line x1="41.149001121520996" y1="0" x2="41.149001121520996" y2="176.55199909210205" fill="rgb(0, 0, 0)" stroke="rgb(204, 204, 204)" stroke-width="1px"></line></g></g><g transform="translate(41, 0)" clip-path="url(#clip_0)"><clipPath id="clip_0"><rect width="288" height="176"></rect></clipPath><g><g><g><line x1="0" y1="0" x2="0" y2="176.55199909210205" fill="rgb(0, 0, 0)" stroke="rgb(189, 189, 189)" stroke-width="1px" opacity="0.25"></line><line x1="32.09455543094211" y1="0" x2="32.09455543094211" y2="176.55199909210205" fill="rgb(0, 0, 0)" stroke="rgb(189, 189, 189)" stroke-width="1px" opacity="0.25"></line><line x1="64.18911086188422" y1="0" x2="64.18911086188422" y2="176.55199909210205" fill="rgb(0, 0, 0)" stroke="rgb(189, 189, 189)" stroke-width="1px" opacity="0.25"></line><line x1="96.28366629282633" y1="0" x2="96.28366629282633" y2="176.55199909210205" fill="rgb(0, 0, 0)" stroke="rgb(189, 189, 189)" stroke-width="1px" opacity="0.25"></line><line x1="128.37822172376843" y1="0" x2="128.37822172376843" y2="176.55199909210205" fill="rgb(0, 0, 0)" stroke="rgb(189, 189, 189)" stroke-width="1px" opacity="0.25"></line><line x1="160.47277715471057" y1="0" x2="160.47277715471057" y2="176.55199909210205" fill="rgb(0, 0, 0)" stroke="rgb(189, 189, 189)" stroke-width="1px" opacity="0.25"></line><line x1="192.56733258565265" y1="0" x2="192.56733258565265" y2="176.55199909210205" fill="rgb(0, 0, 0)" stroke="rgb(189, 189, 189)" stroke-width="1px" opacity="0.25"></line><line x1="224.6618880165948" y1="0" x2="224.6618880165948" y2="176.55199909210205" fill="rgb(0, 0, 0)" stroke="rgb(189, 189, 189)" stroke-width="1px" opacity="0.25"></line><line x1="256.75644344753687" y1="0" x2="256.75644344753687" y2="176.55199909210205" fill="rgb(0, 0, 0)" stroke="rgb(189, 189, 189)" stroke-width="1px" opacity="0.25"></line><line x1="288.850998878479" y1="0" x2="288.850998878479" y2="176.55199909210205" fill="rgb(0, 0, 0)" stroke="rgb(189, 189, 189)" stroke-width="1px" opacity="0.25"></line></g><g><line x1="0" y1="176.55199909210205" x2="288.850998878479" y2="176.55199909210205" fill="rgb(0, 0, 0)" stroke="rgb(189, 189, 189)" stroke-width="1px" opacity="0.25"></line><line x1="0" y1="158.89679918289184" x2="288.850998878479" y2="158.89679918289184" fill="rgb(0, 0, 0)" stroke="rgb(189, 189, 189)" stroke-width="1px" opacity="0.25"></line><line x1="0" y1="141.24159927368166" x2="288.850998878479" y2="141.24159927368166" fill="rgb(0, 0, 0)" stroke="rgb(189, 189, 189)" stroke-width="1px" opacity="0.25"></line><line x1="0" y1="123.58639936447143" x2="288.850998878479" y2="123.58639936447143" fill="rgb(0, 0, 0)" stroke="rgb(189, 189, 189)" stroke-width="1px" opacity="0.25"></line><line x1="0" y1="105.93119945526122" x2="288.850998878479" y2="105.93119945526122" fill="rgb(0, 0, 0)" stroke="rgb(189, 189, 189)" stroke-width="1px" opacity="0.25"></line><line x1="0" y1="88.27599954605103" x2="288.850998878479" y2="88.27599954605103" fill="rgb(0, 0, 0)" stroke="rgb(189, 189, 189)" stroke-width="1px" opacity="0.25"></line><line x1="0" y1="70.6207996368408" x2="288.850998878479" y2="70.6207996368408" fill="rgb(0, 0, 0)" stroke="rgb(189, 189, 189)" stroke-width="1px" opacity="0.25"></line><line x1="0" y1="52.965599727630625" x2="288.850998878479" y2="52.965599727630625" fill="rgb(0, 0, 0)" stroke="rgb(189, 189, 189)" stroke-width="1px" opacity="0.25"></line><line x1="0" y1="35.3103998184204" x2="288.850998878479" y2="35.3103998184204" fill="rgb(0, 0, 0)" stroke="rgb(189, 189, 189)" stroke-width="1px" opacity="0.25"></line><line x1="0" y1="17.65519990921022" x2="288.850998878479" y2="17.65519990921022" fill="rgb(0, 0, 0)" stroke="rgb(189, 189, 189)" stroke-width="1px" opacity="0.25"></line><line x1="0" y1="0" x2="288.850998878479" y2="0" fill="rgb(0, 0, 0)" stroke="rgb(189, 189, 189)" stroke-width="1px" opacity="0.25"></line></g></g></g><g><g><line x1="0" y1="264.8279986381531" x2="288.850998878479" y2="264.8279986381531" fill="rgb(0, 0, 0)" stroke="rgb(153, 153, 153)" stroke-width="1.5px"></line></g></g><g><g><line x1="32.09455543094211" y1="0" x2="32.09455543094211" y2="176.55199909210205" fill="rgb(0, 0, 0)" stroke="rgb(153, 153, 153)" stroke-width="1.5px"></line></g></g><g><g><g><g><g><path style="fill: none;" stroke="rgb(255, 112, 67)" stroke-width="2px" d="M44.771904826164246,-21.702290764972837L47.981360369258454,23.61840215311369L51.19081591235267,52.173810747057985L54.40027145544688,81.28235233188178L57.60972699854109,87.7638168829538L60.8191825416353,98.20681005101524L64.02863808472952,95.68401012463617L67.23809362782373,103.1051084942322L70.44754917091794,110.99480084414068L73.65700471401215,118.4905951194015L76.86646025710637,126.75861671372795L80.07591580020056,133.6199502750405L83.28537134329478,125.6399119604354L86.49482688638899,131.96655654708232L89.7042824294832,136.6206816027734L92.91373797257741,132.71344820231906L96.12319351567163,141.8572178168767L99.33264905876584,142.95651957644358L102.54210460186005,147.08645635709422L105.75156014495425,140.62389888413105L108.96101568804848,145.110513905983L112.17047123114267,130.3263097739806L115.37992677423689,131.69167481239066L118.5893823173311,144.05904310786153L121.79883786042532,132.48392291919382L125.00829340351952,116.65059571389695L128.21774894661374,135.56943060492634L131.42720448970795,146.61833914106208L134.63666003280215,157.56341893868228L137.84611557589636,161.18297280970003L141.05557111899057,159.668461971624L144.2650266620848,133.76951965716714L147.474482205179,151.8802233010444L150.6839377482732,148.0298423197357L153.89339329136743,136.40111354475127L157.10284883446164,152.32204223854635L160.31230437755585,141.7266735301373L163.52175992065006,152.7087295671987L166.73121546374426,158.9416225492059L169.9406710068385,170.95788995144005L173.15012654993268,165.42439492161836L176.3595820930269,148.23886935233463L179.56903763612112,153.2799065183749L182.77849317921533,150.77921377413546L185.9879487223095,155.12174061902223L189.19740426540375,156.06026615159416L192.40685980849796,166.55946998536857L195.61631535159216,175.26840934273093L198.8257708946864,151.72336556037317L202.03522643778058,154.5911293624823L205.24468198087482,154.7566852084263L208.45413752396902,162.27899128105116L211.6635930670632,162.70502093658416L214.87304861015744,158.53596605921294L218.08250415325165,159.00818741361158L221.29195969634586,152.85021338719676L224.5014152394401,161.56163094307382L227.71087078253427,158.52829047407843L230.92032632562848,160.1704455782971L234.12978186872272,151.83475917997873L237.33923741181692,146.36813665555204L240.5486929549111,155.7038254671119L243.75814849800534,147.564452605302L246.96760404109955,147.94552761793318L250.17705958419378,152.10416089837796L253.38651512728796,157.10230812672282L256.5959706703822,160.83963039929395L259.8054262134764,153.66081179136378L263.0148817565706,153.58933760177936L266.2243372996648,163.6352412776301L269.43379284275903,150.00838654546507L272.6432483858532,155.57793846568842" fill="none"></path></g></g></g></g><g opacity="0.2"><g><g><g><path style="fill: none;" stroke="rgb(255, 112, 67)" stroke-width="2px" d="M38.35299373997582,-189.83600583874727L41.56244928307004,9.461263724311038L44.771904826164246,72.61475394768547L47.981360369258454,82.78909882696757L51.19081591235267,91.67622077957668L54.40027145544688,122.90803253484523L57.60972699854109,97.21385442047642L60.8191825416353,113.60819652691293L64.02863808472952,91.93794625115788L67.23809362782373,114.16944723260679L70.44754917091794,122.7864040116441L73.65700471401215,129.7098114634337L76.86646025710637,139.14445119019337L80.07591580020056,143.90388537697265L83.28537134329478,113.67548262981552L86.49482688638899,141.45384620309403L89.7042824294832,143.6006875044626L92.91373797257741,126.85319332931982L96.12319351567163,155.57203646195194L99.33264905876584,144.6054119274728L102.54210460186005,153.2812256307413L105.75156014495425,130.9301902666101L108.96101568804848,151.84038329052873L112.17047123114267,108.15010865577244L115.37992677423689,133.73971654734754L118.5893823173311,162.61006390636197L121.79883786042532,115.12126040672831L125.00829340351952,92.90061949068377L128.21774894661374,163.94767248531798L131.42720448970795,163.19169828132738L134.63666003280215,173.98103645740804L137.84611557589636,166.61230318412458L141.05557111899057,157.3966958229912L144.2650266620848,94.92110729853476L147.474482205179,179.04627829985657L150.6839377482732,142.25427090734433L153.89339329136743,118.95802049022393L157.10284883446164,176.20343519056274L160.31230437755585,125.83362050293215L163.52175992065006,169.18181360077034L166.73121546374426,168.29096201471805L169.9406710068385,188.98229104611744L173.15012654993268,157.1241523792824L176.3595820930269,122.46058100287496L179.56903763612112,160.84146226664927L182.77849317921533,147.02817465801024L185.9879487223095,161.63553088610865L189.19740426540375,157.46805445042042L192.40685980849796,182.30827573581803L195.61631535159216,188.33181837866888L198.8257708946864,116.40579988700779L202.03522643778058,158.8927750656335L205.24468198087482,155.00501897734182L208.45413752396902,173.56245038997668L211.6635930670632,163.3440654198833L214.87304861015744,152.28238374315845L218.08250415325165,159.71651944520943L221.29195969634586,143.61325234757578L224.5014152394401,174.62875727688834L227.71087078253427,153.97827977058557L230.92032632562848,162.63367823462494L234.12978186872272,139.33122958250146L237.33923741181692,138.16820286891203L240.5486929549111,169.7073586844516L243.75814849800534,135.35539331258724L246.96760404109955,148.5171401368799L250.17705958419378,158.34211081904505L253.38651512728796,164.59952896924005L256.5959706703822,166.4456138081507L259.8054262134764,142.89258387946853L263.0148817565706,153.48212631740273L266.2243372996648,178.70409679140616L269.43379284275903,129.56810444721754L272.6432483858532,163.93226634602343" fill="none"></path></g></g></g></g></g></g><g transform="translate(41, 176)" clip-path="url(#clip_1)"><clipPath id="clip_1"><rect width="288" height="23"></rect></clipPath><g><g><line x1="0" y1="0" x2="0" y2="5" style="visibility: inherit;" fill="rgb(0, 0, 0)" stroke="rgb(204, 204, 204)" stroke-width="1px"></line><line x1="32.09455543094211" y1="0" x2="32.09455543094211" y2="5" style="visibility: inherit;" fill="rgb(0, 0, 0)" stroke="rgb(204, 204, 204)" stroke-width="1px"></line><line x1="64.18911086188422" y1="0" x2="64.18911086188422" y2="5" style="visibility: inherit;" fill="rgb(0, 0, 0)" stroke="rgb(204, 204, 204)" stroke-width="1px"></line><line x1="96.28366629282633" y1="0" x2="96.28366629282633" y2="5" style="visibility: inherit;" fill="rgb(0, 0, 0)" stroke="rgb(204, 204, 204)" stroke-width="1px"></line><line x1="128.37822172376843" y1="0" x2="128.37822172376843" y2="5" style="visibility: inherit;" fill="rgb(0, 0, 0)" stroke="rgb(204, 204, 204)" stroke-width="1px"></line><line x1="160.47277715471057" y1="0" x2="160.47277715471057" y2="5" style="visibility: inherit;" fill="rgb(0, 0, 0)" stroke="rgb(204, 204, 204)" stroke-width="1px"></line><line x1="192.56733258565265" y1="0" x2="192.56733258565265" y2="5" style="visibility: inherit;" fill="rgb(0, 0, 0)" stroke="rgb(204, 204, 204)" stroke-width="1px"></line><line x1="224.6618880165948" y1="0" x2="224.6618880165948" y2="5" style="visibility: inherit;" fill="rgb(0, 0, 0)" stroke="rgb(204, 204, 204)" stroke-width="1px"></line><line x1="256.75644344753687" y1="0" x2="256.75644344753687" y2="5" style="visibility: inherit;" fill="rgb(0, 0, 0)" stroke="rgb(204, 204, 204)" stroke-width="1px"></line><line x1="288.850998878479" y1="0" x2="288.850998878479" y2="5" style="visibility: inherit;" fill="rgb(0, 0, 0)" stroke="rgb(204, 204, 204)" stroke-width="1px"></line></g><g transform="translate(0, 8)"><text style="text-anchor: middle; visibility: hidden; font-family: Roboto, sans-serif; font-size: 12px; font-weight: 200;" x="0" y="0" dx="0em" dy="0.95em" fill="rgb(255, 255, 255)" stroke="none" stroke-width="1px">-200</text><text style="text-anchor: middle; visibility: inherit; font-family: Roboto, sans-serif; font-size: 12px; font-weight: 200;" x="32.09455543094211" y="0" dx="0em" dy="0.95em" fill="rgb(255, 255, 255)" stroke="none" stroke-width="1px">0</text><text style="text-anchor: middle; visibility: inherit; font-family: Roboto, sans-serif; font-size: 12px; font-weight: 200;" x="64.18911086188422" y="0" dx="0em" dy="0.95em" fill="rgb(255, 255, 255)" stroke="none" stroke-width="1px">200</text><text style="text-anchor: middle; visibility: inherit; font-family: Roboto, sans-serif; font-size: 12px; font-weight: 200;" x="96.28366629282633" y="0" dx="0em" dy="0.95em" fill="rgb(255, 255, 255)" stroke="none" stroke-width="1px">400</text><text style="text-anchor: middle; visibility: inherit; font-family: Roboto, sans-serif; font-size: 12px; font-weight: 200;" x="128.37822172376843" y="0" dx="0em" dy="0.95em" fill="rgb(255, 255, 255)" stroke="none" stroke-width="1px">600</text><text style="text-anchor: middle; visibility: inherit; font-family: Roboto, sans-serif; font-size: 12px; font-weight: 200;" x="160.47277715471057" y="0" dx="0em" dy="0.95em" fill="rgb(255, 255, 255)" stroke="none" stroke-width="1px">800</text><text style="text-anchor: middle; visibility: inherit; font-family: Roboto, sans-serif; font-size: 12px; font-weight: 200;" x="192.56733258565265" y="0" dx="0em" dy="0.95em" fill="rgb(255, 255, 255)" stroke="none" stroke-width="1px">1k</text><text style="text-anchor: middle; visibility: inherit; font-family: Roboto, sans-serif; font-size: 12px; font-weight: 200;" x="224.6618880165948" y="0" dx="0em" dy="0.95em" fill="rgb(255, 255, 255)" stroke="none" stroke-width="1px">1.2k</text><text style="text-anchor: middle; visibility: inherit; font-family: Roboto, sans-serif; font-size: 12px; font-weight: 200;" x="256.75644344753687" y="0" dx="0em" dy="0.95em" fill="rgb(255, 255, 255)" stroke="none" stroke-width="1px">1.4k</text><text style="text-anchor: middle; visibility: hidden; font-family: Roboto, sans-serif; font-size: 12px; font-weight: 200;" x="288.850998878479" y="0" dx="0em" dy="0.95em" fill="rgb(255, 255, 255)" stroke="none" stroke-width="1px">1.6k</text></g><line x1="0" y1="0" x2="288.850998878479" y2="0" fill="rgb(0, 0, 0)" stroke="rgb(204, 204, 204)" stroke-width="1px"></line></g></g></g></g></svg>