<svg viewBox="0 0 330 200" xmlns="http://www.w3.org/2000/svg"><g><g><g><g><g><line x1="51.53200149536133" y1="176.55199909210205" x2="46.53200149536133" y2="176.55199909210205" style="visibility: inherit;" fill="rgb(0, 0, 0)" stroke="rgb(204, 204, 204)" stroke-width="1px"></line><line x1="51.53200149536133" y1="158.89679918289184" x2="46.53200149536133" y2="158.89679918289184" style="visibility: inherit;" fill="rgb(0, 0, 0)" stroke="rgb(204, 204, 204)" stroke-width="1px"></line><line x1="51.53200149536133" y1="141.24159927368166" x2="46.53200149536133" y2="141.24159927368166" style="visibility: inherit;" fill="rgb(0, 0, 0)" stroke="rgb(204, 204, 204)" stroke-width="1px"></line><line x1="51.53200149536133" y1="123.58639936447143" x2="46.53200149536133" y2="123.58639936447143" style="visibility: inherit;" fill="rgb(0, 0, 0)" stroke="rgb(204, 204, 204)" stroke-width="1px"></line><line x1="51.53200149536133" y1="105.93119945526121" x2="46.53200149536133" y2="105.93119945526121" style="visibility: inherit;" fill="rgb(0, 0, 0)" stroke="rgb(204, 204, 204)" stroke-width="1px"></line><line x1="51.53200149536133" y1="88.27599954605101" x2="46.53200149536133" y2="88.27599954605101" style="visibility: inherit;" fill="rgb(0, 0, 0)" stroke="rgb(204, 204, 204)" stroke-width="1px"></line><line x1="51.53200149536133" y1="70.6207996368408" x2="46.53200149536133" y2="70.6207996368408" style="visibility: inherit;" fill="rgb(0, 0, 0)" stroke="rgb(204, 204, 204)" stroke-width="1px"></line><line x1="51.53200149536133" y1="52.96559972763058" x2="46.53200149536133" y2="52.96559972763058" style="visibility: inherit;" fill="rgb(0, 0, 0)" stroke="rgb(204, 204, 204)" stroke-width="1px"></line><line x1="51.53200149536133" y1="35.3103998184204" x2="46.53200149536133" y2="35.3103998184204" style="visibility: inherit;" fill="rgb(0, 0, 0)" stroke="rgb(204, 204, 204)" stroke-width="1px"></line><line x1="51.53200149536133" y1="17.655199909210182" x2="46.53200149536133" y2="17.655199909210182" style="visibility: inherit;" fill="rgb(0, 0, 0)" stroke="rgb(204, 204, 204)" stroke-width="1px"></line><line x1="51.53200149536133" y1="0" x2="46.53200149536133" y2="0" style="visibility: inherit;" fill="rgb(0, 0, 0)" stroke="rgb(204, 204, 204)" stroke-width="1px"></line></g><g transform="translate(41.53200149536133, 0)"><text style="text-anchor: end; visibility: hidden; font-family: Roboto, sans-serif; font-size: 12px; font-weight: 200;" x="0" y="176.55199909210205" dx="0em" dy="0.3em" fill="rgb(255, 255, 255)" stroke="none" stroke-width="1px">0.2</text><text style="text-anchor: end; visibility: inherit; font-family: Roboto, sans-serif; font-size: 12px; font-weight: 200;" x="0" y="158.89679918289184" dx="0em" dy="0.3em" fill="rgb(255, 255, 255)" stroke="none" stroke-width="1px">0.25</text><text style="text-anchor: end; visibility: hidden; font-family: Roboto, sans-serif; font-size: 12px; font-weight: 200;" x="0" y="141.24159927368166" dx="0em" dy="0.3em" fill="rgb(255, 255, 255)" stroke="none" stroke-width="1px">0.3</text><text style="text-anchor: end; visibility: inherit; font-family: Roboto, sans-serif; font-size: 12px; font-weight: 200;" x="0" y="123.58639936447143" dx="0em" dy="0.3em" fill="rgb(255, 255, 255)" stroke="none" stroke-width="1px">0.35</text><text style="text-anchor: end; visibility: hidden; font-family: Roboto, sans-serif; font-size: 12px; font-weight: 200;" x="0" y="105.93119945526121" dx="0em" dy="0.3em" fill="rgb(255, 255, 255)" stroke="none" stroke-width="1px">0.4</text><text style="text-anchor: end; visibility: inherit; font-family: Roboto, sans-serif; font-size: 12px; font-weight: 200;" x="0" y="88.27599954605101" dx="0em" dy="0.3em" fill="rgb(255, 255, 255)" stroke="none" stroke-width="1px">0.45</text><text style="text-anchor: end; visibility: hidden; font-family: Roboto, sans-serif; font-size: 12px; font-weight: 200;" x="0" y="70.6207996368408" dx="0em" dy="0.3em" fill="rgb(255, 255, 255)" stroke="none" stroke-width="1px">0.5</text><text style="text-anchor: end; visibility: inherit; font-family: Roboto, sans-serif; font-size: 12px; font-weight: 200;" x="0" y="52.96559972763058" dx="0em" dy="0.3em" fill="rgb(255, 255, 255)" stroke="none" stroke-width="1px">0.55</text><text style="text-anchor: end; visibility: hidden; font-family: Roboto, sans-serif; font-size: 12px; font-weight: 200;" x="0" y="35.3103998184204" dx="0em" dy="0.3em" fill="rgb(255, 255, 255)" stroke="none" stroke-width="1px">0.6</text><text style="text-anchor: end; visibility: inherit; font-family: Roboto, sans-serif; font-size: 12px; font-weight: 200;" x="0" y="17.655199909210182" dx="0em" dy="0.3em" fill="rgb(255, 255, 255)" stroke="none" stroke-width="1px">0.65</text><text style="text-anchor: end; visibility: hidden; font-family: Roboto, sans-serif; font-size: 12px; font-weight: 200;" x="0" y="0" dx="0em" dy="0.3em" fill="rgb(255, 255, 255)" stroke="none" stroke-width="1px">0.7</text></g><line x1="51.53200149536133" y1="0" x2="51.53200149536133" y2="176.55199909210205" fill="rgb(0, 0, 0)" stroke="rgb(204, 204, 204)" stroke-width="1px"></line></g></g><g transform="translate(51, 0)" clip-path="url(#clip_0)"><clipPath id="clip_0"><rect width="278" height="176"></rect></clipPath><g><g><g><line x1="0" y1="0" x2="0" y2="176.55199909210205" fill="rgb(0, 0, 0)" stroke="rgb(189, 189, 189)" stroke-width="1px" opacity="0.25"></line><line x1="30.94088872273763" y1="0" x2="30.94088872273763" y2="176.55199909210205" fill="rgb(0, 0, 0)" stroke="rgb(189, 189, 189)" stroke-width="1px" opacity="0.25"></line><line x1="61.88177744547526" y1="0" x2="61.88177744547526" y2="176.55199909210205" fill="rgb(0, 0, 0)" stroke="rgb(189, 189, 189)" stroke-width="1px" opacity="0.25"></line><line x1="92.82266616821289" y1="0" x2="92.82266616821289" y2="176.55199909210205" fill="rgb(0, 0, 0)" stroke="rgb(189, 189, 189)" stroke-width="1px" opacity="0.25"></line><line x1="123.76355489095052" y1="0" x2="123.76355489095052" y2="176.55199909210205" fill="rgb(0, 0, 0)" stroke="rgb(189, 189, 189)" stroke-width="1px" opacity="0.25"></line><line x1="154.70444361368817" y1="0" x2="154.70444361368817" y2="176.55199909210205" fill="rgb(0, 0, 0)" stroke="rgb(189, 189, 189)" stroke-width="1px" opacity="0.25"></line><line x1="185.64533233642578" y1="0" x2="185.64533233642578" y2="176.55199909210205" fill="rgb(0, 0, 0)" stroke="rgb(189, 189, 189)" stroke-width="1px" opacity="0.25"></line><line x1="216.58622105916342" y1="0" x2="216.58622105916342" y2="176.55199909210205" fill="rgb(0, 0, 0)" stroke="rgb(189, 189, 189)" stroke-width="1px" opacity="0.25"></line><line x1="247.52710978190103" y1="0" x2="247.52710978190103" y2="176.55199909210205" fill="rgb(0, 0, 0)" stroke="rgb(189, 189, 189)" stroke-width="1px" opacity="0.25"></line><line x1="278.4679985046387" y1="0" x2="278.4679985046387" y2="176.55199909210205" fill="rgb(0, 0, 0)" stroke="rgb(189, 189, 189)" stroke-width="1px" opacity="0.25"></line></g><g><line x1="0" y1="176.55199909210205" x2="278.4679985046387" y2="176.55199909210205" fill="rgb(0, 0, 0)" stroke="rgb(189, 189, 189)" stroke-width="1px" opacity="0.25"></line><line x1="0" y1="158.89679918289184" x2="278.4679985046387" y2="158.89679918289184" fill="rgb(0, 0, 0)" stroke="rgb(189, 189, 189)" stroke-width="1px" opacity="0.25"></line><line x1="0" y1="141.24159927368166" x2="278.4679985046387" y2="141.24159927368166" fill="rgb(0, 0, 0)" stroke="rgb(189, 189, 189)" stroke-width="1px" opacity="0.25"></line><line x1="0" y1="123.58639936447143" x2="278.4679985046387" y2="123.58639936447143" fill="rgb(0, 0, 0)" stroke="rgb(189, 189, 189)" stroke-width="1px" opacity="0.25"></line><line x1="0" y1="105.93119945526121" x2="278.4679985046387" y2="105.93119945526121" fill="rgb(0, 0, 0)" stroke="rgb(189, 189, 189)" stroke-width="1px" opacity="0.25"></line><line x1="0" y1="88.27599954605101" x2="278.4679985046387" y2="88.27599954605101" fill="rgb(0, 0, 0)" stroke="rgb(189, 189, 189)" stroke-width="1px" opacity="0.25"></line><line x1="0" y1="70.6207996368408" x2="278.4679985046387" y2="70.6207996368408" fill="rgb(0, 0, 0)" stroke="rgb(189, 189, 189)" stroke-width="1px" opacity="0.25"></line><line x1="0" y1="52.96559972763058" x2="278.4679985046387" y2="52.96559972763058" fill="rgb(0, 0, 0)" stroke="rgb(189, 189, 189)" stroke-width="1px" opacity="0.25"></line><line x1="0" y1="35.3103998184204" x2="278.4679985046387" y2="35.3103998184204" fill="rgb(0, 0, 0)" stroke="rgb(189, 189, 189)" stroke-width="1px" opacity="0.25"></line><line x1="0" y1="17.655199909210182" x2="278.4679985046387" y2="17.655199909210182" fill="rgb(0, 0, 0)" stroke="rgb(189, 189, 189)" stroke-width="1px" opacity="0.25"></line><line x1="0" y1="0" x2="278.4679985046387" y2="0" fill="rgb(0, 0, 0)" stroke="rgb(189, 189, 189)" stroke-width="1px" opacity="0.25"></line></g></g></g><g><g><line x1="0" y1="247.1727987289429" x2="278.4679985046387" y2="247.1727987289429" fill="rgb(0, 0, 0)" stroke="rgb(153, 153, 153)" stroke-width="1.5px"></line></g></g><g><g><line x1="30.94088872273763" y1="0" x2="30.94088872273763" y2="176.55199909210205" fill="rgb(0, 0, 0)" stroke="rgb(153, 153, 153)" stroke-width="1.5px"></line></g></g><g><g><g><g><g><path style="fill: none;" stroke="rgb(255, 112, 67)" stroke-width="2px" d="M33.88027315139771,2.4418141475995307L36.97436202367147,2.877321712288808L40.06845089594523,5.057662174825871L43.16253976821899,6.565512956437459L46.25662864049276,9.549090560492925L49.35071751276652,13.937938790250168L52.44480638504028,24.14422305931986L55.538895257314046,27.7069994148376L58.63298412958781,41.64557661841485L61.72707300186158,51.90488391777334L64.82116187413534,61.17891453944713L67.9152507464091,71.22970766727558L71.00933961868286,75.02796834972074L74.10342849095663,96.73911505494328L77.19751736323038,107.24061522736476L80.29160623550415,126.14557251236195L83.38569510777792,123.85515280015268L86.47978398005166,116.40698593021985L89.57387285232544,125.37918714685041L92.66796172459921,130.35304265153326L95.76205059687297,116.30303430231933L98.85613946914673,113.95100745441607L101.95022834142048,124.95096870933403L105.04431721369426,127.61240534436224L108.13840608596801,131.08626273211803L111.23249495824177,130.61133734456217L114.32658383051555,142.13467852883784L117.42067270278932,152.25896771743018L120.51476157506306,136.19697370878487L123.60885044733683,138.49880926088463L126.7029393196106,137.10248605483866L129.79702819188435,144.62792405005416L132.89111706415812,151.0474443021985L135.9852059364319,139.33382395339362L139.07929480870567,124.76138327784048L142.1733836809794,142.42555110005412L145.26747255325316,140.93327770429934L148.36156142552693,127.04567221641081L151.4556502978007,133.58916344079853L154.54973917007447,134.5959841856259L157.64382804234822,140.17960183397088L160.737916914622,151.38373384037428L163.83200578689576,152.1846318881714L166.9260946591695,142.03390331633622L170.02018353144328,120.55798625844068L173.11427240371705,133.7818601070496L176.2083612759908,139.5015055894075L179.30245014826454,138.94188209627984L182.39653902053834,142.23032229227832L185.49062789281209,136.93232848056707L188.58471676508583,142.6490791155637L191.67880563735963,143.3489595658124L194.77289450963337,147.91826626731236L197.86698338190715,146.5578730958188L200.96107225418092,147.16298824133278L204.05516112645466,149.77763512124727L207.14924999872844,135.41377283025378L210.2433388710022,127.80145109562824L213.33742774327595,134.42231631946376L216.43151661554973,136.13467484202755L219.5256054878235,130.5652021562755L222.61969436009724,138.20763283579794L225.71378323237101,143.7056229717594L228.80787210464476,139.6116674609967L231.90196097691853,153.7506021922161L234.9960498491923,153.0620863750414L238.09013872146605,156.10801505388048L241.18422759373985,152.61065699439632L244.2783164660136,157.7259900916188L247.37240533828734,147.86360074433384L250.46649421056114,147.9815474605709L253.56058308283488,144.65044630500225L256.65467195510865,148.94779487799062L259.7487608273824,135.6293581440587L262.84284969965614,150.0714470321362" fill="none"></path></g></g></g></g><g opacity="0.2"><g><g><g><path style="fill: none;" stroke="rgb(255, 112, 67)" stroke-width="2px" d="M33.88027315139771,2.4418141475994912L36.97436202367147,3.1386262511023983L40.06845089594523,7.150789018861436L43.16253976821899,8.338745475612615L46.25662864049276,13.444449480347732L49.35071751276652,20.009295877367283L52.44480638504028,38.73937286463771L55.538895257314046,32.90156154383552L58.63298412958781,62.202270564455226L61.72707300186158,67.1387595966108L64.82116187413534,75.00584569678786L67.9152507464091,86.25120138665967L71.00933961868286,80.7129573932469L74.10342849095663,129.26330071619904L77.19751736323038,122.98052136675547L80.29160623550415,154.4896751992836L83.38569510777792,120.42049246070015L86.47978398005166,105.23662671408199L89.57387285232544,138.83612214724613L92.66796172459921,137.813371278463L95.76205059687297,95.22879231434753L98.85613946914673,110.42304457700648L101.95022834142048,141.45069341666462L105.04431721369426,131.60452876965027L108.13840608596801,136.29702412306025L111.23249495824177,129.8989512885681L114.32658383051555,159.4196608201796L117.42067270278932,167.44538595714997L120.51476157506306,112.10399749118342L123.60885044733683,141.9515613168447L126.7029393196106,135.00800170880572L129.79702819188435,155.9160795455671L132.89111706415812,160.67672391405327L135.9852059364319,121.76339426920886L139.07929480870567,102.90272289078719L142.1733836809794,168.92180237788523L145.26747255325316,138.69486763375514L148.36156142552693,106.21426411349644L151.4556502978007,143.40440024093417L154.54973917007447,136.10621529950228L157.64382804234822,148.55502829529254L160.737916914622,168.18993183649994L163.83200578689576,153.3859789592889L166.9260946591695,126.80781046297984L170.02018353144328,88.34411067717811L173.11427240371705,153.61767087790108L176.2083612759908,148.08097381240927L179.30245014826454,138.1024468566197L182.39653902053834,147.16298258616527L185.49062789281209,128.98533776310725L188.58471676508583,151.22420506798935L191.67880563735963,144.39878024118033L194.77289450963337,154.77222631954234L197.86698338190715,144.51728333858196L200.96107225418092,148.0706609596028L204.05516112645466,153.69960544111652L207.14924999872844,113.86797939377159L210.2433388710022,116.38296849369256L213.33742774327595,144.3536141552157L216.43151661554973,138.70321262587302L219.5256054878235,122.2109931276478L222.61969436009724,149.67127885508123L225.71378323237101,151.95260817570144L228.80787210464476,133.47073419485272L231.90196097691853,174.95900428904505L234.9960498491923,152.02931264927932L238.09013872146605,160.6769080721391L241.18422759373985,147.36461990517003L244.2783164660136,165.39898973745252L247.37240533828734,133.07001672340644L250.46649421056114,148.15846753492642L253.56058308283488,139.65379457164929L256.65467195510865,155.3938177374732L259.7487608273824,115.65170304316071L262.84284969965614,171.73458036425245" fill="none"></path></g></g></g></g></g></g><g transform="translate(51, 176)" clip-path="url(#clip_1)"><clipPath id="clip_1"><rect width="278" height="23"></rect></clipPath><g><g><line x1="0" y1="0" x2="0" y2="5" style="visibility: inherit;" fill="rgb(0, 0, 0)" stroke="rgb(204, 204, 204)" stroke-width="1px"></line><line x1="30.94088872273763" y1="0" x2="30.94088872273763" y2="5" style="visibility: inherit;" fill="rgb(0, 0, 0)" stroke="rgb(204, 204, 204)" stroke-width="1px"></line><line x1="61.88177744547526" y1="0" x2="61.88177744547526" y2="5" style="visibility: inherit;" fill="rgb(0, 0, 0)" stroke="rgb(204, 204, 204)" stroke-width="1px"></line><line x1="92.82266616821289" y1="0" x2="92.82266616821289" y2="5" style="visibility: inherit;" fill="rgb(0, 0, 0)" stroke="rgb(204, 204, 204)" stroke-width="1px"></line><line x1="123.76355489095052" y1="0" x2="123.76355489095052" y2="5" style="visibility: inherit;" fill="rgb(0, 0, 0)" stroke="rgb(204, 204, 204)" stroke-width="1px"></line><line x1="154.70444361368817" y1="0" x2="154.70444361368817" y2="5" style="visibility: inherit;" fill="rgb(0, 0, 0)" stroke="rgb(204, 204, 204)" stroke-width="1px"></line><line x1="185.64533233642578" y1="0" x2="185.64533233642578" y2="5" style="visibility: inherit;" fill="rgb(0, 0, 0)" stroke="rgb(204, 204, 204)" stroke-width="1px"></line><line x1="216.58622105916342" y1="0" x2="216.58622105916342" y2="5" style="visibility: inherit;" fill="rgb(0, 0, 0)" stroke="rgb(204, 204, 204)" stroke-width="1px"></line><line x1="247.52710978190103" y1="0" x2="247.52710978190103" y2="5" style="visibility: inherit;" fill="rgb(0, 0, 0)" stroke="rgb(204, 204, 204)" stroke-width="1px"></line><line x1="278.4679985046387" y1="0" x2="278.4679985046387" y2="5" style="visibility: inherit;" fill="rgb(0, 0, 0)" stroke="rgb(204, 204, 204)" stroke-width="1px"></line></g><g transform="translate(0, 8)"><text style="text-anchor: middle; visibility: hidden; font-family: Roboto, sans-serif; font-size: 12px; font-weight: 200;" x="0" y="0" dx="0em" dy="0.95em" fill="rgb(255, 255, 255)" stroke="none" stroke-width="1px">-200</text><text style="text-anchor: middle; visibility: inherit; font-family: Roboto, sans-serif; font-size: 12px; font-weight: 200;" x="30.94088872273763" y="0" dx="0em" dy="0.95em" fill="rgb(255, 255, 255)" stroke="none" stroke-width="1px">0</text><text style="text-anchor: middle; visibility: inherit; font-family: Roboto, sans-serif; font-size: 12px; font-weight: 200;" x="61.88177744547526" y="0" dx="0em" dy="0.95em" fill="rgb(255, 255, 255)" stroke="none" stroke-width="1px">200</text><text style="text-anchor: middle; visibility: inherit; font-family: Roboto, sans-serif; font-size: 12px; font-weight: 200;" x="92.82266616821289" y="0" dx="0em" dy="0.95em" fill="rgb(255, 255, 255)" stroke="none" stroke-width="1px">400</text><text style="text-anchor: middle; visibility: inherit; font-family: Roboto, sans-serif; font-size: 12px; font-weight: 200;" x="123.76355489095052" y="0" dx="0em" dy="0.95em" fill="rgb(255, 255, 255)" stroke="none" stroke-width="1px">600</text><text style="text-anchor: middle; visibility: inherit; font-family: Roboto, sans-serif; font-size: 12px; font-weight: 200;" x="154.70444361368817" y="0" dx="0em" dy="0.95em" fill="rgb(255, 255, 255)" stroke="none" stroke-width="1px">800</text><text style="text-anchor: middle; visibility: inherit; font-family: Roboto, sans-serif; font-size: 12px; font-weight: 200;" x="185.64533233642578" y="0" dx="0em" dy="0.95em" fill="rgb(255, 255, 255)" stroke="none" stroke-width="1px">1k</text><text style="text-anchor: middle; visibility: inherit; font-family: Roboto, sans-serif; font-size: 12px; font-weight: 200;" x="216.58622105916342" y="0" dx="0em" dy="0.95em" fill="rgb(255, 255, 255)" stroke="none" stroke-width="1px">1.2k</text><text style="text-anchor: middle; visibility: inherit; font-family: Roboto, sans-serif; font-size: 12px; font-weight: 200;" x="247.52710978190103" y="0" dx="0em" dy="0.95em" fill="rgb(255, 255, 255)" stroke="none" stroke-width="1px">1.4k</text><text style="text-anchor: middle; visibility: hidden; font-family: Roboto, sans-serif; font-size: 12px; font-weight: 200;" x="278.4679985046387" y="0" dx="0em" dy="0.95em" fill="rgb(255, 255, 255)" stroke="none" stroke-width="1px">1.6k</text></g><line x1="0" y1="0" x2="278.4679985046387" y2="0" fill="rgb(0, 0, 0)" stroke="rgb(204, 204, 204)" stroke-width="1px"></line></g></g></g></g></svg>