<svg viewBox="0 0 330 200" xmlns="http://www.w3.org/2000/svg"><g><g><g><g><g><line x1="72.29800224304199" y1="176.55199909210205" x2="67.29800224304199" y2="176.55199909210205" style="visibility: inherit;" fill="rgb(0, 0, 0)" stroke="rgb(204, 204, 204)" stroke-width="1px"></line><line x1="72.29800224304199" y1="162.97107608501727" x2="67.29800224304199" y2="162.97107608501727" style="visibility: inherit;" fill="rgb(0, 0, 0)" stroke="rgb(204, 204, 204)" stroke-width="1px"></line><line x1="72.29800224304199" y1="149.3901530779325" x2="67.29800224304199" y2="149.3901530779325" style="visibility: inherit;" fill="rgb(0, 0, 0)" stroke="rgb(204, 204, 204)" stroke-width="1px"></line><line x1="72.29800224304199" y1="135.80923007084775" x2="67.29800224304199" y2="135.80923007084775" style="visibility: inherit;" fill="rgb(0, 0, 0)" stroke="rgb(204, 204, 204)" stroke-width="1px"></line><line x1="72.29800224304199" y1="122.22830706376295" x2="67.29800224304199" y2="122.22830706376295" style="visibility: inherit;" fill="rgb(0, 0, 0)" stroke="rgb(204, 204, 204)" stroke-width="1px"></line><line x1="72.29800224304199" y1="108.64738405667819" x2="67.29800224304199" y2="108.64738405667819" style="visibility: inherit;" fill="rgb(0, 0, 0)" stroke="rgb(204, 204, 204)" stroke-width="1px"></line><line x1="72.29800224304199" y1="95.06646104959343" x2="67.29800224304199" y2="95.06646104959343" style="visibility: inherit;" fill="rgb(0, 0, 0)" stroke="rgb(204, 204, 204)" stroke-width="1px"></line><line x1="72.29800224304199" y1="81.48553804250867" x2="67.29800224304199" y2="81.48553804250867" style="visibility: inherit;" fill="rgb(0, 0, 0)" stroke="rgb(204, 204, 204)" stroke-width="1px"></line><line x1="72.29800224304199" y1="67.90461503542387" x2="67.29800224304199" y2="67.90461503542387" style="visibility: inherit;" fill="rgb(0, 0, 0)" stroke="rgb(204, 204, 204)" stroke-width="1px"></line><line x1="72.29800224304199" y1="54.323692028339096" x2="67.29800224304199" y2="54.323692028339096" style="visibility: inherit;" fill="rgb(0, 0, 0)" stroke="rgb(204, 204, 204)" stroke-width="1px"></line><line x1="72.29800224304199" y1="40.742769021254354" x2="67.29800224304199" y2="40.742769021254354" style="visibility: inherit;" fill="rgb(0, 0, 0)" stroke="rgb(204, 204, 204)" stroke-width="1px"></line><line x1="72.29800224304199" y1="27.161846014169566" x2="67.29800224304199" y2="27.161846014169566" style="visibility: inherit;" fill="rgb(0, 0, 0)" stroke="rgb(204, 204, 204)" stroke-width="1px"></line><line x1="72.29800224304199" y1="13.580923007084783" x2="67.29800224304199" y2="13.580923007084783" style="visibility: inherit;" fill="rgb(0, 0, 0)" stroke="rgb(204, 204, 204)" stroke-width="1px"></line><line x1="72.29800224304199" y1="0" x2="67.29800224304199" y2="0" style="visibility: inherit;" fill="rgb(0, 0, 0)" stroke="rgb(204, 204, 204)" stroke-width="1px"></line></g><g transform="translate(62.29800224304199, 0)"><text style="text-anchor: end; visibility: hidden; font-family: Roboto, sans-serif; font-size: 12px; font-weight: 200;" x="0" y="176.55199909210205" dx="0em" dy="0.3em" fill="rgb(255, 255, 255)" stroke="none" stroke-width="1px">6e-3</text><text style="text-anchor: end; visibility: inherit; font-family: Roboto, sans-serif; font-size: 12px; font-weight: 200;" x="0" y="162.97107608501727" dx="0em" dy="0.3em" fill="rgb(255, 255, 255)" stroke="none" stroke-width="1px">6.5e-3</text><text style="text-anchor: end; visibility: hidden; font-family: Roboto, sans-serif; font-size: 12px; font-weight: 200;" x="0" y="149.3901530779325" dx="0em" dy="0.3em" fill="rgb(255, 255, 255)" stroke="none" stroke-width="1px">7e-3</text><text style="text-anchor: end; visibility: inherit; font-family: Roboto, sans-serif; font-size: 12px; font-weight: 200;" x="0" y="135.80923007084775" dx="0em" dy="0.3em" fill="rgb(255, 255, 255)" stroke="none" stroke-width="1px">7.5e-3</text><text style="text-anchor: end; visibility: hidden; font-family: Roboto, sans-serif; font-size: 12px; font-weight: 200;" x="0" y="122.22830706376295" dx="0em" dy="0.3em" fill="rgb(255, 255, 255)" stroke="none" stroke-width="1px">8e-3</text><text style="text-anchor: end; visibility: inherit; font-family: Roboto, sans-serif; font-size: 12px; font-weight: 200;" x="0" y="108.64738405667819" dx="0em" dy="0.3em" fill="rgb(255, 255, 255)" stroke="none" stroke-width="1px">8.5e-3</text><text style="text-anchor: end; visibility: hidden; font-family: Roboto, sans-serif; font-size: 12px; font-weight: 200;" x="0" y="95.06646104959343" dx="0em" dy="0.3em" fill="rgb(255, 255, 255)" stroke="none" stroke-width="1px">9e-3</text><text style="text-anchor: end; visibility: inherit; font-family: Roboto, sans-serif; font-size: 12px; font-weight: 200;" x="0" y="81.48553804250867" dx="0em" dy="0.3em" fill="rgb(255, 255, 255)" stroke="none" stroke-width="1px">9.5e-3</text><text style="text-anchor: end; visibility: hidden; font-family: Roboto, sans-serif; font-size: 12px; font-weight: 200;" x="0" y="67.90461503542387" dx="0em" dy="0.3em" fill="rgb(255, 255, 255)" stroke="none" stroke-width="1px">0.01</text><text style="text-anchor: end; visibility: inherit; font-family: Roboto, sans-serif; font-size: 12px; font-weight: 200;" x="0" y="54.323692028339096" dx="0em" dy="0.3em" fill="rgb(255, 255, 255)" stroke="none" stroke-width="1px">0.0105</text><text style="text-anchor: end; visibility: hidden; font-family: Roboto, sans-serif; font-size: 12px; font-weight: 200;" x="0" y="40.742769021254354" dx="0em" dy="0.3em" fill="rgb(255, 255, 255)" stroke="none" stroke-width="1px">0.011</text><text style="text-anchor: end; visibility: inherit; font-family: Roboto, sans-serif; font-size: 12px; font-weight: 200;" x="0" y="27.161846014169566" dx="0em" dy="0.3em" fill="rgb(255, 255, 255)" stroke="none" stroke-width="1px">0.0115</text><text style="text-anchor: end; visibility: hidden; font-family: Roboto, sans-serif; font-size: 12px; font-weight: 200;" x="0" y="13.580923007084783" dx="0em" dy="0.3em" fill="rgb(255, 255, 255)" stroke="none" stroke-width="1px">0.012</text><text style="text-anchor: end; visibility: hidden; font-family: Roboto, sans-serif; font-size: 12px; font-weight: 200;" x="0" y="0" dx="0em" dy="0.3em" fill="rgb(255, 255, 255)" stroke="none" stroke-width="1px">0.0125</text></g><line x1="72.29800224304199" y1="0" x2="72.29800224304199" y2="176.55199909210205" fill="rgb(0, 0, 0)" stroke="rgb(204, 204, 204)" stroke-width="1px"></line></g></g><g transform="translate(72, 0)" clip-path="url(#clip_0)"><clipPath id="clip_0"><rect width="257" height="176"></rect></clipPath><g><g><g><line x1="0" y1="0" x2="0" y2="176.55199909210205" fill="rgb(0, 0, 0)" stroke="rgb(189, 189, 189)" stroke-width="1px" opacity="0.25"></line><line x1="28.633555306328667" y1="0" x2="28.633555306328667" y2="176.55199909210205" fill="rgb(0, 0, 0)" stroke="rgb(189, 189, 189)" stroke-width="1px" opacity="0.25"></line><line x1="57.26711061265733" y1="0" x2="57.26711061265733" y2="176.55199909210205" fill="rgb(0, 0, 0)" stroke="rgb(189, 189, 189)" stroke-width="1px" opacity="0.25"></line><line x1="85.900665918986" y1="0" x2="85.900665918986" y2="176.55199909210205" fill="rgb(0, 0, 0)" stroke="rgb(189, 189, 189)" stroke-width="1px" opacity="0.25"></line><line x1="114.53422122531467" y1="0" x2="114.53422122531467" y2="176.55199909210205" fill="rgb(0, 0, 0)" stroke="rgb(189, 189, 189)" stroke-width="1px" opacity="0.25"></line><line x1="143.16777653164334" y1="0" x2="143.16777653164334" y2="176.55199909210205" fill="rgb(0, 0, 0)" stroke="rgb(189, 189, 189)" stroke-width="1px" opacity="0.25"></line><line x1="171.801331837972" y1="0" x2="171.801331837972" y2="176.55199909210205" fill="rgb(0, 0, 0)" stroke="rgb(189, 189, 189)" stroke-width="1px" opacity="0.25"></line><line x1="200.4348871443007" y1="0" x2="200.4348871443007" y2="176.55199909210205" fill="rgb(0, 0, 0)" stroke="rgb(189, 189, 189)" stroke-width="1px" opacity="0.25"></line><line x1="229.06844245062933" y1="0" x2="229.06844245062933" y2="176.55199909210205" fill="rgb(0, 0, 0)" stroke="rgb(189, 189, 189)" stroke-width="1px" opacity="0.25"></line><line x1="257.701997756958" y1="0" x2="257.701997756958" y2="176.55199909210205" fill="rgb(0, 0, 0)" stroke="rgb(189, 189, 189)" stroke-width="1px" opacity="0.25"></line></g><g><line x1="0" y1="176.55199909210205" x2="257.701997756958" y2="176.55199909210205" fill="rgb(0, 0, 0)" stroke="rgb(189, 189, 189)" stroke-width="1px" opacity="0.25"></line><line x1="0" y1="162.97107608501727" x2="257.701997756958" y2="162.97107608501727" fill="rgb(0, 0, 0)" stroke="rgb(189, 189, 189)" stroke-width="1px" opacity="0.25"></line><line x1="0" y1="149.3901530779325" x2="257.701997756958" y2="149.3901530779325" fill="rgb(0, 0, 0)" stroke="rgb(189, 189, 189)" stroke-width="1px" opacity="0.25"></line><line x1="0" y1="135.80923007084775" x2="257.701997756958" y2="135.80923007084775" fill="rgb(0, 0, 0)" stroke="rgb(189, 189, 189)" stroke-width="1px" opacity="0.25"></line><line x1="0" y1="122.22830706376295" x2="257.701997756958" y2="122.22830706376295" fill="rgb(0, 0, 0)" stroke="rgb(189, 189, 189)" stroke-width="1px" opacity="0.25"></line><line x1="0" y1="108.64738405667819" x2="257.701997756958" y2="108.64738405667819" fill="rgb(0, 0, 0)" stroke="rgb(189, 189, 189)" stroke-width="1px" opacity="0.25"></line><line x1="0" y1="95.06646104959343" x2="257.701997756958" y2="95.06646104959343" fill="rgb(0, 0, 0)" stroke="rgb(189, 189, 189)" stroke-width="1px" opacity="0.25"></line><line x1="0" y1="81.48553804250867" x2="257.701997756958" y2="81.48553804250867" fill="rgb(0, 0, 0)" stroke="rgb(189, 189, 189)" stroke-width="1px" opacity="0.25"></line><line x1="0" y1="67.90461503542387" x2="257.701997756958" y2="67.90461503542387" fill="rgb(0, 0, 0)" stroke="rgb(189, 189, 189)" stroke-width="1px" opacity="0.25"></line><line x1="0" y1="54.323692028339096" x2="257.701997756958" y2="54.323692028339096" fill="rgb(0, 0, 0)" stroke="rgb(189, 189, 189)" stroke-width="1px" opacity="0.25"></line><line x1="0" y1="40.742769021254354" x2="257.701997756958" y2="40.742769021254354" fill="rgb(0, 0, 0)" stroke="rgb(189, 189, 189)" stroke-width="1px" opacity="0.25"></line><line x1="0" y1="27.161846014169566" x2="257.701997756958" y2="27.161846014169566" fill="rgb(0, 0, 0)" stroke="rgb(189, 189, 189)" stroke-width="1px" opacity="0.25"></line><line x1="0" y1="13.580923007084783" x2="257.701997756958" y2="13.580923007084783" fill="rgb(0, 0, 0)" stroke="rgb(189, 189, 189)" stroke-width="1px" opacity="0.25"></line><line x1="0" y1="0" x2="257.701997756958" y2="0" fill="rgb(0, 0, 0)" stroke="rgb(189, 189, 189)" stroke-width="1px" opacity="0.25"></line></g></g></g><g><g><line x1="0" y1="339.5230751771193" x2="257.701997756958" y2="339.5230751771193" fill="rgb(0, 0, 0)" stroke="rgb(153, 153, 153)" stroke-width="1.5px"></line></g></g><g><g><line x1="28.633555306328667" y1="0" x2="28.633555306328667" y2="176.55199909210205" fill="rgb(0, 0, 0)" stroke="rgb(153, 153, 153)" stroke-width="1.5px"></line></g></g><g><g><g><g><g><path style="fill: none;" stroke="rgb(255, 112, 67)" stroke-width="2px" d="M31.353743060429892,137.26267954982177L34.21709859106276,2.7915140515639565L37.080454121695624,53.193726081379104L39.94380965232849,13.408158041434865L42.807165182961356,31.701452940765442L45.67052071359423,59.9718364610807L48.53387624422709,49.71046984501839L51.39723177485996,92.19177101576338L54.26058730549283,109.10739749982682L57.12394283612569,75.03513458099263L59.98729836675856,83.51375093115684L62.850653897391425,23.599469187906973L65.7140094280243,9.854800961863768L68.57736495865717,54.920817640827195L71.44072048929002,32.905477677128324L74.30407601992289,90.25648954456827L77.16743155055576,83.66146769197566L80.03078708118862,87.13784612048558L82.8941426118215,83.77522322297328L85.75749814245437,39.43757540839298L88.62085367308723,3.043031159186761L91.48420920372008,48.99219103766118L94.34756473435296,87.38065264470183L97.21092026498583,21.148662955285307L100.07427579561869,50.40116161278655L102.93763132625156,-5.789211980232487L105.80098685688444,64.58967142212762L108.6643423875173,111.33666807854698L111.52769791815015,112.19304128843167L114.39105344878303,114.5539406659032L117.2544089794159,99.69495044260204L120.11776451004876,95.79093458307602L122.98112004068163,102.92862982725582L125.84447557131449,122.83555311808794L128.70783110194736,99.90487992836991L131.57118663258024,122.45769543618613L134.43454216321308,136.1049589694371L137.29789769384595,103.17367987392123L140.16125322447883,116.09080521463213L143.0246087551117,80.70949095012634L145.88796428574457,124.49917681027657L148.75131981637742,162.20300275223855L151.61467534701032,168.76595938289194L154.47803087764316,166.89432488150018L157.341386408276,164.8296791290401L160.2047419389089,158.42295033449443L163.06809746954175,177.43253182658873L165.93145300017463,162.69962573347905L168.7948085308075,139.7943630550401L171.65816406144035,93.18998601957225L174.52151959207322,115.95749394734167L177.3848751227061,59.69706410671135L180.24823065333896,29.00071422141783L183.11158618397184,55.10144185601798L185.9749417146047,49.968669914322696L188.83829724523756,36.09615904627291L191.70165277587043,47.66165496502791L194.5650083065033,95.06777946647483L197.42836383713615,89.09471614688337L200.29171936776905,112.81267864812769L203.1550748984019,105.47021671004546L206.01843042903477,140.1373835426066L208.88178595966764,137.41387110207765L211.74514149030048,158.45071175033476L214.60849702093336,106.34041418760944L217.47185255156623,132.0657902503408L220.3352080821991,128.1215950616153L223.19856361283198,87.17223880910858L226.06191914346482,103.36693308715465L228.9252746740977,89.4662390988193L231.78863020473057,110.21789275748412L234.65198573536344,118.55279489645845L237.51534126599628,91.48653659942913L240.37869679662919,101.31742459898051L243.24205232726203,102.73155623011542" fill="none"></path></g></g></g></g><g opacity="0.2"><g><g><g><path style="fill: none;" stroke="rgb(255, 112, 67)" stroke-width="2px" d="M31.353743060429892,137.26267954982177L34.21709859106276,-77.89118524739067L37.080454121695624,101.5798496300017L39.94380965232849,-33.379669973539634L42.807165182961356,55.58517876133163L45.67052071359423,99.07995420774395L48.53387624422709,35.03655140218343L51.39723177485996,154.1299159432008L54.26058730549283,134.05466087253222L57.12394283612569,24.44179506433349L59.98729836675856,96.15477503013325L62.850653897391425,-65.94590255153562L65.7140094280243,-10.717322650688132L68.57736495865717,122.43155364111774L71.44072048929002,-0.09165406271675926L74.30407601992289,176.2425589687827L77.16743155055576,73.77172570531005L80.03078708118862,92.35153111114407L82.8941426118215,78.73180113845842L85.75749814245437,-27.064843676845786L88.62085367308723,-51.546789251320604L91.48420920372008,117.91441887869442L94.34756473435296,144.9625871420541L97.21092026498583,-78.19853699777953L100.07427579561869,94.27970168479777L102.93763132625156,-90.07453274348518L105.80098685688444,170.15781644539442L108.6643423875173,181.45709129552463L111.52769791815015,113.47760031441798L114.39105344878303,118.09528842727718L117.2544089794159,77.40647003505312L120.11776451004876,89.93491157055547L122.98112004068163,113.63517184142806L125.84447557131449,152.69593662844403L128.70783110194736,65.50887112927899L131.57118663258024,156.28691811636216L134.43454216321308,156.5758540581681L137.29789769384595,53.776761536347976L140.16125322447883,135.46649315375277L143.0246087551117,27.63751967160747L145.88796428574457,190.18370551269808L151.61467534701032,178.6103943241347L154.47803087764316,164.08687313022318L157.341386408276,161.73271050088644L160.2047419389089,148.81285714367482L163.06809746954175,205.94690406295183L165.93145300017463,140.6002665946415L168.7948085308075,105.43646903815305L171.65816406144035,23.283420467312258L174.52151959207322,150.10875583871987L177.3848751227061,-24.69358065382487L180.24823065333896,-17.043810606388476L183.11158618397184,94.25253330784982L185.9749417146047,42.269512001787916L188.83829724523756,15.287392744211393L191.70165277587043,65.0098988431538L194.5650083065033,166.17696621862908L197.42836383713615,80.13512116749742L200.29171936776905,148.38962239999114L203.1550748984019,94.45652380292273L206.01843042903477,192.13813379144673L208.88178595966764,133.32860244128432L211.74514149030048,190.0059727227201L214.60849702093336,28.174967843522076L217.47185255156623,170.6538543444377L220.3352080821991,122.20530227852694L223.19856361283198,25.748204430348633L226.06191914346482,127.65897450422374L228.9252746740977,68.61519811631639L231.78863020473057,141.3453732454814L234.65198573536344,131.05514810492008L237.51534126599628,50.88714915388518L240.37869679662919,116.06375659830752L243.24205232726203,104.85275367681777" fill="none"></path></g></g></g></g></g></g><g transform="translate(72, 176)" clip-path="url(#clip_1)"><clipPath id="clip_1"><rect width="257" height="23"></rect></clipPath><g><g><line x1="0" y1="0" x2="0" y2="5" style="visibility: inherit;" fill="rgb(0, 0, 0)" stroke="rgb(204, 204, 204)" stroke-width="1px"></line><line x1="28.633555306328667" y1="0" x2="28.633555306328667" y2="5" style="visibility: inherit;" fill="rgb(0, 0, 0)" stroke="rgb(204, 204, 204)" stroke-width="1px"></line><line x1="57.26711061265733" y1="0" x2="57.26711061265733" y2="5" style="visibility: inherit;" fill="rgb(0, 0, 0)" stroke="rgb(204, 204, 204)" stroke-width="1px"></line><line x1="85.900665918986" y1="0" x2="85.900665918986" y2="5" style="visibility: inherit;" fill="rgb(0, 0, 0)" stroke="rgb(204, 204, 204)" stroke-width="1px"></line><line x1="114.53422122531467" y1="0" x2="114.53422122531467" y2="5" style="visibility: inherit;" fill="rgb(0, 0, 0)" stroke="rgb(204, 204, 204)" stroke-width="1px"></line><line x1="143.16777653164334" y1="0" x2="143.16777653164334" y2="5" style="visibility: inherit;" fill="rgb(0, 0, 0)" stroke="rgb(204, 204, 204)" stroke-width="1px"></line><line x1="171.801331837972" y1="0" x2="171.801331837972" y2="5" style="visibility: inherit;" fill="rgb(0, 0, 0)" stroke="rgb(204, 204, 204)" stroke-width="1px"></line><line x1="200.4348871443007" y1="0" x2="200.4348871443007" y2="5" style="visibility: inherit;" fill="rgb(0, 0, 0)" stroke="rgb(204, 204, 204)" stroke-width="1px"></line><line x1="229.06844245062933" y1="0" x2="229.06844245062933" y2="5" style="visibility: inherit;" fill="rgb(0, 0, 0)" stroke="rgb(204, 204, 204)" stroke-width="1px"></line><line x1="257.701997756958" y1="0" x2="257.701997756958" y2="5" style="visibility: inherit;" fill="rgb(0, 0, 0)" stroke="rgb(204, 204, 204)" stroke-width="1px"></line></g><g transform="translate(0, 8)"><text style="text-anchor: middle; visibility: hidden; font-family: Roboto, sans-serif; font-size: 12px; font-weight: 200;" x="0" y="0" dx="0em" dy="0.95em" fill="rgb(255, 255, 255)" stroke="none" stroke-width="1px">-200</text><text style="text-anchor: middle; visibility: inherit; font-family: Roboto, sans-serif; font-size: 12px; font-weight: 200;" x="28.633555306328667" y="0" dx="0em" dy="0.95em" fill="rgb(255, 255, 255)" stroke="none" stroke-width="1px">0</text><text style="text-anchor: middle; visibility: inherit; font-family: Roboto, sans-serif; font-size: 12px; font-weight: 200;" x="57.26711061265733" y="0" dx="0em" dy="0.95em" fill="rgb(255, 255, 255)" stroke="none" stroke-width="1px">200</text><text style="text-anchor: middle; visibility: inherit; font-family: Roboto, sans-serif; font-size: 12px; font-weight: 200;" x="85.900665918986" y="0" dx="0em" dy="0.95em" fill="rgb(255, 255, 255)" stroke="none" stroke-width="1px">400</text><text style="text-anchor: middle; visibility: inherit; font-family: Roboto, sans-serif; font-size: 12px; font-weight: 200;" x="114.53422122531467" y="0" dx="0em" dy="0.95em" fill="rgb(255, 255, 255)" stroke="none" stroke-width="1px">600</text><text style="text-anchor: middle; visibility: inherit; font-family: Roboto, sans-serif; font-size: 12px; font-weight: 200;" x="143.16777653164334" y="0" dx="0em" dy="0.95em" fill="rgb(255, 255, 255)" stroke="none" stroke-width="1px">800</text><text style="text-anchor: middle; visibility: inherit; font-family: Roboto, sans-serif; font-size: 12px; font-weight: 200;" x="171.801331837972" y="0" dx="0em" dy="0.95em" fill="rgb(255, 255, 255)" stroke="none" stroke-width="1px">1k</text><text style="text-anchor: middle; visibility: inherit; font-family: Roboto, sans-serif; font-size: 12px; font-weight: 200;" x="200.4348871443007" y="0" dx="0em" dy="0.95em" fill="rgb(255, 255, 255)" stroke="none" stroke-width="1px">1.2k</text><text style="text-anchor: middle; visibility: inherit; font-family: Roboto, sans-serif; font-size: 12px; font-weight: 200;" x="229.06844245062933" y="0" dx="0em" dy="0.95em" fill="rgb(255, 255, 255)" stroke="none" stroke-width="1px">1.4k</text><text style="text-anchor: middle; visibility: hidden; font-family: Roboto, sans-serif; font-size: 12px; font-weight: 200;" x="257.701997756958" y="0" dx="0em" dy="0.95em" fill="rgb(255, 255, 255)" stroke="none" stroke-width="1px">1.6k</text></g><line x1="0" y1="0" x2="257.701997756958" y2="0" fill="rgb(0, 0, 0)" stroke="rgb(204, 204, 204)" stroke-width="1px"></line></g></g></g></g></svg>