<svg viewBox="0 0 330 200" xmlns="http://www.w3.org/2000/svg"><g><g><g><g><g><line x1="72.29800224304199" y1="176.55199909210205" x2="67.29800224304199" y2="176.55199909210205" style="visibility: inherit;" fill="rgb(0, 0, 0)" stroke="rgb(204, 204, 204)" stroke-width="1px"></line><line x1="72.29800224304199" y1="160.5018173564564" x2="67.29800224304199" y2="160.5018173564564" style="visibility: inherit;" fill="rgb(0, 0, 0)" stroke="rgb(204, 204, 204)" stroke-width="1px"></line><line x1="72.29800224304199" y1="144.45163562081075" x2="67.29800224304199" y2="144.45163562081075" style="visibility: inherit;" fill="rgb(0, 0, 0)" stroke="rgb(204, 204, 204)" stroke-width="1px"></line><line x1="72.29800224304199" y1="128.40145388516513" x2="67.29800224304199" y2="128.40145388516513" style="visibility: inherit;" fill="rgb(0, 0, 0)" stroke="rgb(204, 204, 204)" stroke-width="1px"></line><line x1="72.29800224304199" y1="112.35127214951949" x2="67.29800224304199" y2="112.35127214951949" style="visibility: inherit;" fill="rgb(0, 0, 0)" stroke="rgb(204, 204, 204)" stroke-width="1px"></line><line x1="72.29800224304199" y1="96.30109041387384" x2="67.29800224304199" y2="96.30109041387384" style="visibility: inherit;" fill="rgb(0, 0, 0)" stroke="rgb(204, 204, 204)" stroke-width="1px"></line><line x1="72.29800224304199" y1="80.25090867822821" x2="67.29800224304199" y2="80.25090867822821" style="visibility: inherit;" fill="rgb(0, 0, 0)" stroke="rgb(204, 204, 204)" stroke-width="1px"></line><line x1="72.29800224304199" y1="64.20072694258256" x2="67.29800224304199" y2="64.20072694258256" style="visibility: inherit;" fill="rgb(0, 0, 0)" stroke="rgb(204, 204, 204)" stroke-width="1px"></line><line x1="72.29800224304199" y1="48.15054520693692" x2="67.29800224304199" y2="48.15054520693692" style="visibility: inherit;" fill="rgb(0, 0, 0)" stroke="rgb(204, 204, 204)" stroke-width="1px"></line><line x1="72.29800224304199" y1="32.100363471291296" x2="67.29800224304199" y2="32.100363471291296" style="visibility: inherit;" fill="rgb(0, 0, 0)" stroke="rgb(204, 204, 204)" stroke-width="1px"></line><line x1="72.29800224304199" y1="16.050181735645648" x2="67.29800224304199" y2="16.050181735645648" style="visibility: inherit;" fill="rgb(0, 0, 0)" stroke="rgb(204, 204, 204)" stroke-width="1px"></line><line x1="72.29800224304199" y1="0" x2="67.29800224304199" y2="0" style="visibility: inherit;" fill="rgb(0, 0, 0)" stroke="rgb(204, 204, 204)" stroke-width="1px"></line></g><g transform="translate(62.29800224304199, 0)"><text style="text-anchor: end; visibility: hidden; font-family: Roboto, sans-serif; font-size: 12px; font-weight: 200;" x="0" y="176.55199909210205" dx="0em" dy="0.3em" fill="rgb(255, 255, 255)" stroke="none" stroke-width="1px">0</text><text style="text-anchor: end; visibility: inherit; font-family: Roboto, sans-serif; font-size: 12px; font-weight: 200;" x="0" y="160.5018173564564" dx="0em" dy="0.3em" fill="rgb(255, 255, 255)" stroke="none" stroke-width="1px">1e-4</text><text style="text-anchor: end; visibility: hidden; font-family: Roboto, sans-serif; font-size: 12px; font-weight: 200;" x="0" y="144.45163562081075" dx="0em" dy="0.3em" fill="rgb(255, 255, 255)" stroke="none" stroke-width="1px">2e-4</text><text style="text-anchor: end; visibility: inherit; font-family: Roboto, sans-serif; font-size: 12px; font-weight: 200;" x="0" y="128.40145388516513" dx="0em" dy="0.3em" fill="rgb(255, 255, 255)" stroke="none" stroke-width="1px">3e-4</text><text style="text-anchor: end; visibility: hidden; font-family: Roboto, sans-serif; font-size: 12px; font-weight: 200;" x="0" y="112.35127214951949" dx="0em" dy="0.3em" fill="rgb(255, 255, 255)" stroke="none" stroke-width="1px">4e-4</text><text style="text-anchor: end; visibility: inherit; font-family: Roboto, sans-serif; font-size: 12px; font-weight: 200;" x="0" y="96.30109041387384" dx="0em" dy="0.3em" fill="rgb(255, 255, 255)" stroke="none" stroke-width="1px">5e-4</text><text style="text-anchor: end; visibility: hidden; font-family: Roboto, sans-serif; font-size: 12px; font-weight: 200;" x="0" y="80.25090867822821" dx="0em" dy="0.3em" fill="rgb(255, 255, 255)" stroke="none" stroke-width="1px">6e-4</text><text style="text-anchor: end; visibility: inherit; font-family: Roboto, sans-serif; font-size: 12px; font-weight: 200;" x="0" y="64.20072694258256" dx="0em" dy="0.3em" fill="rgb(255, 255, 255)" stroke="none" stroke-width="1px">7e-4</text><text style="text-anchor: end; visibility: hidden; font-family: Roboto, sans-serif; font-size: 12px; font-weight: 200;" x="0" y="48.15054520693692" dx="0em" dy="0.3em" fill="rgb(255, 255, 255)" stroke="none" stroke-width="1px">8e-4</text><text style="text-anchor: end; visibility: inherit; font-family: Roboto, sans-serif; font-size: 12px; font-weight: 200;" x="0" y="32.100363471291296" dx="0em" dy="0.3em" fill="rgb(255, 255, 255)" stroke="none" stroke-width="1px">9e-4</text><text style="text-anchor: end; visibility: hidden; font-family: Roboto, sans-serif; font-size: 12px; font-weight: 200;" x="0" y="16.050181735645648" dx="0em" dy="0.3em" fill="rgb(255, 255, 255)" stroke="none" stroke-width="1px">1e-3</text><text style="text-anchor: end; visibility: hidden; font-family: Roboto, sans-serif; font-size: 12px; font-weight: 200;" x="0" y="0" dx="0em" dy="0.3em" fill="rgb(255, 255, 255)" stroke="none" stroke-width="1px">1.1e-3</text></g><line x1="72.29800224304199" y1="0" x2="72.29800224304199" y2="176.55199909210205" fill="rgb(0, 0, 0)" stroke="rgb(204, 204, 204)" stroke-width="1px"></line></g></g><g transform="translate(72, 0)" clip-path="url(#clip_0)"><clipPath id="clip_0"><rect width="257" height="176"></rect></clipPath><g><g><g><line x1="0" y1="0" x2="0" y2="176.55199909210205" fill="rgb(0, 0, 0)" stroke="rgb(189, 189, 189)" stroke-width="1px" opacity="0.25"></line><line x1="28.633555306328667" y1="0" x2="28.633555306328667" y2="176.55199909210205" fill="rgb(0, 0, 0)" stroke="rgb(189, 189, 189)" stroke-width="1px" opacity="0.25"></line><line x1="57.26711061265733" y1="0" x2="57.26711061265733" y2="176.55199909210205" fill="rgb(0, 0, 0)" stroke="rgb(189, 189, 189)" stroke-width="1px" opacity="0.25"></line><line x1="85.900665918986" y1="0" x2="85.900665918986" y2="176.55199909210205" fill="rgb(0, 0, 0)" stroke="rgb(189, 189, 189)" stroke-width="1px" opacity="0.25"></line><line x1="114.53422122531467" y1="0" x2="114.53422122531467" y2="176.55199909210205" fill="rgb(0, 0, 0)" stroke="rgb(189, 189, 189)" stroke-width="1px" opacity="0.25"></line><line x1="143.16777653164334" y1="0" x2="143.16777653164334" y2="176.55199909210205" fill="rgb(0, 0, 0)" stroke="rgb(189, 189, 189)" stroke-width="1px" opacity="0.25"></line><line x1="171.801331837972" y1="0" x2="171.801331837972" y2="176.55199909210205" fill="rgb(0, 0, 0)" stroke="rgb(189, 189, 189)" stroke-width="1px" opacity="0.25"></line><line x1="200.4348871443007" y1="0" x2="200.4348871443007" y2="176.55199909210205" fill="rgb(0, 0, 0)" stroke="rgb(189, 189, 189)" stroke-width="1px" opacity="0.25"></line><line x1="229.06844245062933" y1="0" x2="229.06844245062933" y2="176.55199909210205" fill="rgb(0, 0, 0)" stroke="rgb(189, 189, 189)" stroke-width="1px" opacity="0.25"></line><line x1="257.701997756958" y1="0" x2="257.701997756958" y2="176.55199909210205" fill="rgb(0, 0, 0)" stroke="rgb(189, 189, 189)" stroke-width="1px" opacity="0.25"></line></g><g><line x1="0" y1="176.55199909210205" x2="257.701997756958" y2="176.55199909210205" fill="rgb(0, 0, 0)" stroke="rgb(189, 189, 189)" stroke-width="1px" opacity="0.25"></line><line x1="0" y1="160.5018173564564" x2="257.701997756958" y2="160.5018173564564" fill="rgb(0, 0, 0)" stroke="rgb(189, 189, 189)" stroke-width="1px" opacity="0.25"></line><line x1="0" y1="144.45163562081075" x2="257.701997756958" y2="144.45163562081075" fill="rgb(0, 0, 0)" stroke="rgb(189, 189, 189)" stroke-width="1px" opacity="0.25"></line><line x1="0" y1="128.40145388516513" x2="257.701997756958" y2="128.40145388516513" fill="rgb(0, 0, 0)" stroke="rgb(189, 189, 189)" stroke-width="1px" opacity="0.25"></line><line x1="0" y1="112.35127214951949" x2="257.701997756958" y2="112.35127214951949" fill="rgb(0, 0, 0)" stroke="rgb(189, 189, 189)" stroke-width="1px" opacity="0.25"></line><line x1="0" y1="96.30109041387384" x2="257.701997756958" y2="96.30109041387384" fill="rgb(0, 0, 0)" stroke="rgb(189, 189, 189)" stroke-width="1px" opacity="0.25"></line><line x1="0" y1="80.25090867822821" x2="257.701997756958" y2="80.25090867822821" fill="rgb(0, 0, 0)" stroke="rgb(189, 189, 189)" stroke-width="1px" opacity="0.25"></line><line x1="0" y1="64.20072694258256" x2="257.701997756958" y2="64.20072694258256" fill="rgb(0, 0, 0)" stroke="rgb(189, 189, 189)" stroke-width="1px" opacity="0.25"></line><line x1="0" y1="48.15054520693692" x2="257.701997756958" y2="48.15054520693692" fill="rgb(0, 0, 0)" stroke="rgb(189, 189, 189)" stroke-width="1px" opacity="0.25"></line><line x1="0" y1="32.100363471291296" x2="257.701997756958" y2="32.100363471291296" fill="rgb(0, 0, 0)" stroke="rgb(189, 189, 189)" stroke-width="1px" opacity="0.25"></line><line x1="0" y1="16.050181735645648" x2="257.701997756958" y2="16.050181735645648" fill="rgb(0, 0, 0)" stroke="rgb(189, 189, 189)" stroke-width="1px" opacity="0.25"></line><line x1="0" y1="0" x2="257.701997756958" y2="0" fill="rgb(0, 0, 0)" stroke="rgb(189, 189, 189)" stroke-width="1px" opacity="0.25"></line></g></g></g><g><g><line x1="0" y1="176.55199909210205" x2="257.701997756958" y2="176.55199909210205" fill="rgb(0, 0, 0)" stroke="rgb(153, 153, 153)" stroke-width="1.5px"></line></g></g><g><g><line x1="28.633555306328667" y1="0" x2="28.633555306328667" y2="176.55199909210205" fill="rgb(0, 0, 0)" stroke="rgb(153, 153, 153)" stroke-width="1.5px"></line></g></g><g><g><g><g><g><path style="fill: none;" stroke="rgb(255, 112, 67)" stroke-width="2px" d="M31.353743060429892,173.3450122553572L34.21709859106276,171.34074584058402L37.080454121695624,169.09105889953705L39.94380965232849,166.6248245158085L42.807165182961356,163.97600529003182L45.67052071359423,161.17948090728643L48.53387624422709,158.2678016798225L51.39723177485996,155.26920726675468L54.26058730549283,152.20682332740049L57.12394283612569,149.0987309031347L59.98729836675856,145.95854600790295L62.850653897391425,142.79621347083514L65.7140094280243,139.61881643423754L68.57736495865717,136.43130078890346L71.44072048929002,133.23705606286873L74.30407601992289,130.03837740783277L77.16743155055576,126.8368012228871L80.03078708118862,123.63334076559423L82.8941426118215,120.42866510005986L85.75749814245437,117.22320646120777L88.62085367308723,114.01724869117488L91.48420920372008,110.81097083359911L94.34756473435296,107.60448967516038L97.21092026498583,104.39788165408548L100.07427579561869,101.19119159594202L102.93763132625156,97.9844498847348L105.80098685688444,94.77767946008345L108.6643423875173,91.57088719520077L111.52769791815015,88.36408130105725L114.39105344878303,85.15726691427876L117.2544089794159,81.95044724287027L120.11776451004876,78.74362802422804L122.98112004068163,75.53680527221255L125.84447557131449,72.3299803593381L128.70783110194736,69.1231541254472L131.57118663258024,65.91633082121999L134.43454216321308,62.70950552899628L137.29789769384595,59.50267903868251L140.16125322447883,56.29585182633935L143.0246087551117,53.08902417887335L145.88796428574457,49.88220000616466L148.75131981637742,46.67537418065033L151.61467534701032,43.46854736304111L154.47803087764316,40.261719949928015L157.341386408276,37.054892179364465L160.2047419389089,33.848067931215866L163.06809746954175,30.641242059488803L165.93145300017463,27.434415213582632L168.7948085308075,24.22759152012394L171.65816406144035,21.020765981148067L174.52151959207322,19.032529233566567L177.3848751227061,17.839587185023852L180.24823065333896,17.12382195590039L183.11158618397184,16.694362818427198L185.9749417146047,16.436687335943517L188.83829724523756,16.28208204645338L191.70165277587043,16.189318872759358L194.5650083065033,16.133660968542948L197.42836383713615,16.100266226013122L200.29171936776905,16.080229380495226L203.1550748984019,16.068207273184505L206.01843042903477,16.060994008798044L208.88178595966764,16.056666050166196L211.74514149030048,16.054069274987093L214.60849702093336,16.05251120987963L217.47185255156623,16.051576370815116L220.3352080821991,16.051015467376438L223.19856361283198,16.0506789253132L226.06191914346482,16.05047700007528L228.9252746740977,16.050355844932515L231.78863020473057,16.050283151846855L234.65198573536344,16.05023953599546L237.51534126599628,16.050213366484613L240.37869679662919,16.050197664778157L243.24205232726203,16.050188243754263" fill="none"></path></g></g></g></g><g opacity="0.2"><g><g><g><path style="fill: none;" stroke="rgb(255, 112, 67)" stroke-width="2px" d="M31.353743060429892,173.3450122553572L34.21709859106276,170.13818599172015L37.080454121695624,166.93135943613194L39.94380965232849,163.72453288054376L42.807165182961356,160.51770690885778L45.67052071359423,157.3108809371718L48.53387624422709,154.10405379768142L51.39723177485996,150.89722782599543L54.26058730549283,147.69040185430944L57.12394283612569,144.48357588262348L59.98729836675856,141.27674991093753L62.850653897391425,138.06992393925154L65.7140094280243,134.86309563195672L68.57736495865717,131.6562719958796L71.44072048929002,128.44944368858475L74.30407601992289,125.24261538128995L77.16743155055576,122.03579174521282L80.03078708118862,118.828963437918L82.8941426118215,115.62213980184087L85.75749814245437,112.41531149454605L88.62085367308723,109.20848785846891L91.48420920372008,106.00165955117409L94.34756473435296,102.79483124387929L97.21092026498583,99.58800760780215L100.07427579561869,96.38117930050734L102.93763132625156,93.17435099321251L105.80098685688444,89.96753202835306L108.6643423875173,86.76070372105825L111.52769791815015,83.55387541376342L114.39105344878303,80.34704710646862L117.2544089794159,77.1402187991738L120.11776451004876,73.93339983431434L122.98112004068163,70.72657152701953L125.84447557131449,67.5197432197247L128.70783110194736,64.3129149124299L131.57118663258024,61.10609594757044L134.43454216321308,57.89926764027563L137.29789769384595,54.692439332980804L140.16125322447883,51.485611025686L143.0246087551117,48.27878271839118L145.88796428574457,45.07196375353172L148.75131981637742,41.86513544623691L151.61467534701032,38.65830713894211L154.47803087764316,35.45147883164728L157.341386408276,32.24465052435247L160.2047419389089,29.037831559493014L163.06809746954175,25.831003252198187L165.93145300017463,22.62417494490338L168.7948085308075,19.417355980043922L171.65816406144035,16.210527672749095L174.52151959207322,16.05017411221839L177.3848751227061,16.05017411221839L180.24823065333896,16.05017411221839L183.11158618397184,16.05017411221839L185.9749417146047,16.05017411221839L188.83829724523756,16.05017411221839L191.70165277587043,16.05017411221839L194.5650083065033,16.05017411221839L197.42836383713615,16.05017411221839L200.29171936776905,16.05017411221839L203.1550748984019,16.05017411221839L206.01843042903477,16.05017411221839L208.88178595966764,16.05017411221839L211.74514149030048,16.05017411221839L214.60849702093336,16.05017411221839L217.47185255156623,16.05017411221839L220.3352080821991,16.05017411221839L223.19856361283198,16.05017411221839L226.06191914346482,16.05017411221839L228.9252746740977,16.05017411221839L231.78863020473057,16.05017411221839L234.65198573536344,16.05017411221839L237.51534126599628,16.05017411221839L240.37869679662919,16.05017411221839L243.24205232726203,16.05017411221839" fill="none"></path></g></g></g></g></g></g><g transform="translate(72, 176)" clip-path="url(#clip_1)"><clipPath id="clip_1"><rect width="257" height="23"></rect></clipPath><g><g><line x1="0" y1="0" x2="0" y2="5" style="visibility: inherit;" fill="rgb(0, 0, 0)" stroke="rgb(204, 204, 204)" stroke-width="1px"></line><line x1="28.633555306328667" y1="0" x2="28.633555306328667" y2="5" style="visibility: inherit;" fill="rgb(0, 0, 0)" stroke="rgb(204, 204, 204)" stroke-width="1px"></line><line x1="57.26711061265733" y1="0" x2="57.26711061265733" y2="5" style="visibility: inherit;" fill="rgb(0, 0, 0)" stroke="rgb(204, 204, 204)" stroke-width="1px"></line><line x1="85.900665918986" y1="0" x2="85.900665918986" y2="5" style="visibility: inherit;" fill="rgb(0, 0, 0)" stroke="rgb(204, 204, 204)" stroke-width="1px"></line><line x1="114.53422122531467" y1="0" x2="114.53422122531467" y2="5" style="visibility: inherit;" fill="rgb(0, 0, 0)" stroke="rgb(204, 204, 204)" stroke-width="1px"></line><line x1="143.16777653164334" y1="0" x2="143.16777653164334" y2="5" style="visibility: inherit;" fill="rgb(0, 0, 0)" stroke="rgb(204, 204, 204)" stroke-width="1px"></line><line x1="171.801331837972" y1="0" x2="171.801331837972" y2="5" style="visibility: inherit;" fill="rgb(0, 0, 0)" stroke="rgb(204, 204, 204)" stroke-width="1px"></line><line x1="200.4348871443007" y1="0" x2="200.4348871443007" y2="5" style="visibility: inherit;" fill="rgb(0, 0, 0)" stroke="rgb(204, 204, 204)" stroke-width="1px"></line><line x1="229.06844245062933" y1="0" x2="229.06844245062933" y2="5" style="visibility: inherit;" fill="rgb(0, 0, 0)" stroke="rgb(204, 204, 204)" stroke-width="1px"></line><line x1="257.701997756958" y1="0" x2="257.701997756958" y2="5" style="visibility: inherit;" fill="rgb(0, 0, 0)" stroke="rgb(204, 204, 204)" stroke-width="1px"></line></g><g transform="translate(0, 8)"><text style="text-anchor: middle; visibility: hidden; font-family: Roboto, sans-serif; font-size: 12px; font-weight: 200;" x="0" y="0" dx="0em" dy="0.95em" fill="rgb(255, 255, 255)" stroke="none" stroke-width="1px">-200</text><text style="text-anchor: middle; visibility: inherit; font-family: Roboto, sans-serif; font-size: 12px; font-weight: 200;" x="28.633555306328667" y="0" dx="0em" dy="0.95em" fill="rgb(255, 255, 255)" stroke="none" stroke-width="1px">0</text><text style="text-anchor: middle; visibility: inherit; font-family: Roboto, sans-serif; font-size: 12px; font-weight: 200;" x="57.26711061265733" y="0" dx="0em" dy="0.95em" fill="rgb(255, 255, 255)" stroke="none" stroke-width="1px">200</text><text style="text-anchor: middle; visibility: inherit; font-family: Roboto, sans-serif; font-size: 12px; font-weight: 200;" x="85.900665918986" y="0" dx="0em" dy="0.95em" fill="rgb(255, 255, 255)" stroke="none" stroke-width="1px">400</text><text style="text-anchor: middle; visibility: inherit; font-family: Roboto, sans-serif; font-size: 12px; font-weight: 200;" x="114.53422122531467" y="0" dx="0em" dy="0.95em" fill="rgb(255, 255, 255)" stroke="none" stroke-width="1px">600</text><text style="text-anchor: middle; visibility: inherit; font-family: Roboto, sans-serif; font-size: 12px; font-weight: 200;" x="143.16777653164334" y="0" dx="0em" dy="0.95em" fill="rgb(255, 255, 255)" stroke="none" stroke-width="1px">800</text><text style="text-anchor: middle; visibility: inherit; font-family: Roboto, sans-serif; font-size: 12px; font-weight: 200;" x="171.801331837972" y="0" dx="0em" dy="0.95em" fill="rgb(255, 255, 255)" stroke="none" stroke-width="1px">1k</text><text style="text-anchor: middle; visibility: inherit; font-family: Roboto, sans-serif; font-size: 12px; font-weight: 200;" x="200.4348871443007" y="0" dx="0em" dy="0.95em" fill="rgb(255, 255, 255)" stroke="none" stroke-width="1px">1.2k</text><text style="text-anchor: middle; visibility: inherit; font-family: Roboto, sans-serif; font-size: 12px; font-weight: 200;" x="229.06844245062933" y="0" dx="0em" dy="0.95em" fill="rgb(255, 255, 255)" stroke="none" stroke-width="1px">1.4k</text><text style="text-anchor: middle; visibility: hidden; font-family: Roboto, sans-serif; font-size: 12px; font-weight: 200;" x="257.701997756958" y="0" dx="0em" dy="0.95em" fill="rgb(255, 255, 255)" stroke="none" stroke-width="1px">1.6k</text></g><line x1="0" y1="0" x2="257.701997756958" y2="0" fill="rgb(0, 0, 0)" stroke="rgb(204, 204, 204)" stroke-width="1px"></line></g></g></g></g></svg>