<svg viewBox="0 0 330 200" xmlns="http://www.w3.org/2000/svg"><g><g><g><g><g><line x1="51.53200149536133" y1="176.55199909210205" x2="46.53200149536133" y2="176.55199909210205" style="visibility: inherit;" fill="rgb(0, 0, 0)" stroke="rgb(204, 204, 204)" stroke-width="1px"></line><line x1="51.53200149536133" y1="158.89679918289184" x2="46.53200149536133" y2="158.89679918289184" style="visibility: inherit;" fill="rgb(0, 0, 0)" stroke="rgb(204, 204, 204)" stroke-width="1px"></line><line x1="51.53200149536133" y1="141.2415992736816" x2="46.53200149536133" y2="141.2415992736816" style="visibility: inherit;" fill="rgb(0, 0, 0)" stroke="rgb(204, 204, 204)" stroke-width="1px"></line><line x1="51.53200149536133" y1="123.5863993644714" x2="46.53200149536133" y2="123.5863993644714" style="visibility: inherit;" fill="rgb(0, 0, 0)" stroke="rgb(204, 204, 204)" stroke-width="1px"></line><line x1="51.53200149536133" y1="105.9311994552612" x2="46.53200149536133" y2="105.9311994552612" style="visibility: inherit;" fill="rgb(0, 0, 0)" stroke="rgb(204, 204, 204)" stroke-width="1px"></line><line x1="51.53200149536133" y1="88.27599954605107" x2="46.53200149536133" y2="88.27599954605107" style="visibility: inherit;" fill="rgb(0, 0, 0)" stroke="rgb(204, 204, 204)" stroke-width="1px"></line><line x1="51.53200149536133" y1="70.62079963684086" x2="46.53200149536133" y2="70.62079963684086" style="visibility: inherit;" fill="rgb(0, 0, 0)" stroke="rgb(204, 204, 204)" stroke-width="1px"></line><line x1="51.53200149536133" y1="52.96559972763064" x2="46.53200149536133" y2="52.96559972763064" style="visibility: inherit;" fill="rgb(0, 0, 0)" stroke="rgb(204, 204, 204)" stroke-width="1px"></line><line x1="51.53200149536133" y1="35.31039981842042" x2="46.53200149536133" y2="35.31039981842042" style="visibility: inherit;" fill="rgb(0, 0, 0)" stroke="rgb(204, 204, 204)" stroke-width="1px"></line><line x1="51.53200149536133" y1="17.65519990921022" x2="46.53200149536133" y2="17.65519990921022" style="visibility: inherit;" fill="rgb(0, 0, 0)" stroke="rgb(204, 204, 204)" stroke-width="1px"></line><line x1="51.53200149536133" y1="0" x2="46.53200149536133" y2="0" style="visibility: inherit;" fill="rgb(0, 0, 0)" stroke="rgb(204, 204, 204)" stroke-width="1px"></line></g><g transform="translate(41.53200149536133, 0)"><text style="text-anchor: end; visibility: hidden; font-family: Roboto, sans-serif; font-size: 12px; font-weight: 200;" x="0" y="176.55199909210205" dx="0em" dy="0.3em" fill="rgb(255, 255, 255)" stroke="none" stroke-width="1px">0.72</text><text style="text-anchor: end; visibility: inherit; font-family: Roboto, sans-serif; font-size: 12px; font-weight: 200;" x="0" y="158.89679918289184" dx="0em" dy="0.3em" fill="rgb(255, 255, 255)" stroke="none" stroke-width="1px">0.74</text><text style="text-anchor: end; visibility: hidden; font-family: Roboto, sans-serif; font-size: 12px; font-weight: 200;" x="0" y="141.2415992736816" dx="0em" dy="0.3em" fill="rgb(255, 255, 255)" stroke="none" stroke-width="1px">0.76</text><text style="text-anchor: end; visibility: inherit; font-family: Roboto, sans-serif; font-size: 12px; font-weight: 200;" x="0" y="123.5863993644714" dx="0em" dy="0.3em" fill="rgb(255, 255, 255)" stroke="none" stroke-width="1px">0.78</text><text style="text-anchor: end; visibility: hidden; font-family: Roboto, sans-serif; font-size: 12px; font-weight: 200;" x="0" y="105.9311994552612" dx="0em" dy="0.3em" fill="rgb(255, 255, 255)" stroke="none" stroke-width="1px">0.8</text><text style="text-anchor: end; visibility: inherit; font-family: Roboto, sans-serif; font-size: 12px; font-weight: 200;" x="0" y="88.27599954605107" dx="0em" dy="0.3em" fill="rgb(255, 255, 255)" stroke="none" stroke-width="1px">0.82</text><text style="text-anchor: end; visibility: hidden; font-family: Roboto, sans-serif; font-size: 12px; font-weight: 200;" x="0" y="70.62079963684086" dx="0em" dy="0.3em" fill="rgb(255, 255, 255)" stroke="none" stroke-width="1px">0.84</text><text style="text-anchor: end; visibility: inherit; font-family: Roboto, sans-serif; font-size: 12px; font-weight: 200;" x="0" y="52.96559972763064" dx="0em" dy="0.3em" fill="rgb(255, 255, 255)" stroke="none" stroke-width="1px">0.86</text><text style="text-anchor: end; visibility: hidden; font-family: Roboto, sans-serif; font-size: 12px; font-weight: 200;" x="0" y="35.31039981842042" dx="0em" dy="0.3em" fill="rgb(255, 255, 255)" stroke="none" stroke-width="1px">0.88</text><text style="text-anchor: end; visibility: inherit; font-family: Roboto, sans-serif; font-size: 12px; font-weight: 200;" x="0" y="17.65519990921022" dx="0em" dy="0.3em" fill="rgb(255, 255, 255)" stroke="none" stroke-width="1px">0.9</text><text style="text-anchor: end; visibility: hidden; font-family: Roboto, sans-serif; font-size: 12px; font-weight: 200;" x="0" y="0" dx="0em" dy="0.3em" fill="rgb(255, 255, 255)" stroke="none" stroke-width="1px">0.92</text></g><line x1="51.53200149536133" y1="0" x2="51.53200149536133" y2="176.55199909210205" fill="rgb(0, 0, 0)" stroke="rgb(204, 204, 204)" stroke-width="1px"></line></g></g><g transform="translate(51, 0)" clip-path="url(#clip_0)"><clipPath id="clip_0"><rect width="278" height="176"></rect></clipPath><g><g><g><line x1="0" y1="0" x2="0" y2="176.55199909210205" fill="rgb(0, 0, 0)" stroke="rgb(189, 189, 189)" stroke-width="1px" opacity="0.25"></line><line x1="30.94088872273763" y1="0" x2="30.94088872273763" y2="176.55199909210205" fill="rgb(0, 0, 0)" stroke="rgb(189, 189, 189)" stroke-width="1px" opacity="0.25"></line><line x1="61.88177744547526" y1="0" x2="61.88177744547526" y2="176.55199909210205" fill="rgb(0, 0, 0)" stroke="rgb(189, 189, 189)" stroke-width="1px" opacity="0.25"></line><line x1="92.82266616821289" y1="0" x2="92.82266616821289" y2="176.55199909210205" fill="rgb(0, 0, 0)" stroke="rgb(189, 189, 189)" stroke-width="1px" opacity="0.25"></line><line x1="123.76355489095052" y1="0" x2="123.76355489095052" y2="176.55199909210205" fill="rgb(0, 0, 0)" stroke="rgb(189, 189, 189)" stroke-width="1px" opacity="0.25"></line><line x1="154.70444361368817" y1="0" x2="154.70444361368817" y2="176.55199909210205" fill="rgb(0, 0, 0)" stroke="rgb(189, 189, 189)" stroke-width="1px" opacity="0.25"></line><line x1="185.64533233642578" y1="0" x2="185.64533233642578" y2="176.55199909210205" fill="rgb(0, 0, 0)" stroke="rgb(189, 189, 189)" stroke-width="1px" opacity="0.25"></line><line x1="216.58622105916342" y1="0" x2="216.58622105916342" y2="176.55199909210205" fill="rgb(0, 0, 0)" stroke="rgb(189, 189, 189)" stroke-width="1px" opacity="0.25"></line><line x1="247.52710978190103" y1="0" x2="247.52710978190103" y2="176.55199909210205" fill="rgb(0, 0, 0)" stroke="rgb(189, 189, 189)" stroke-width="1px" opacity="0.25"></line><line x1="278.4679985046387" y1="0" x2="278.4679985046387" y2="176.55199909210205" fill="rgb(0, 0, 0)" stroke="rgb(189, 189, 189)" stroke-width="1px" opacity="0.25"></line></g><g><line x1="0" y1="176.55199909210205" x2="278.4679985046387" y2="176.55199909210205" fill="rgb(0, 0, 0)" stroke="rgb(189, 189, 189)" stroke-width="1px" opacity="0.25"></line><line x1="0" y1="158.89679918289184" x2="278.4679985046387" y2="158.89679918289184" fill="rgb(0, 0, 0)" stroke="rgb(189, 189, 189)" stroke-width="1px" opacity="0.25"></line><line x1="0" y1="141.2415992736816" x2="278.4679985046387" y2="141.2415992736816" fill="rgb(0, 0, 0)" stroke="rgb(189, 189, 189)" stroke-width="1px" opacity="0.25"></line><line x1="0" y1="123.5863993644714" x2="278.4679985046387" y2="123.5863993644714" fill="rgb(0, 0, 0)" stroke="rgb(189, 189, 189)" stroke-width="1px" opacity="0.25"></line><line x1="0" y1="105.9311994552612" x2="278.4679985046387" y2="105.9311994552612" fill="rgb(0, 0, 0)" stroke="rgb(189, 189, 189)" stroke-width="1px" opacity="0.25"></line><line x1="0" y1="88.27599954605107" x2="278.4679985046387" y2="88.27599954605107" fill="rgb(0, 0, 0)" stroke="rgb(189, 189, 189)" stroke-width="1px" opacity="0.25"></line><line x1="0" y1="70.62079963684086" x2="278.4679985046387" y2="70.62079963684086" fill="rgb(0, 0, 0)" stroke="rgb(189, 189, 189)" stroke-width="1px" opacity="0.25"></line><line x1="0" y1="52.96559972763064" x2="278.4679985046387" y2="52.96559972763064" fill="rgb(0, 0, 0)" stroke="rgb(189, 189, 189)" stroke-width="1px" opacity="0.25"></line><line x1="0" y1="35.31039981842042" x2="278.4679985046387" y2="35.31039981842042" fill="rgb(0, 0, 0)" stroke="rgb(189, 189, 189)" stroke-width="1px" opacity="0.25"></line><line x1="0" y1="17.65519990921022" x2="278.4679985046387" y2="17.65519990921022" fill="rgb(0, 0, 0)" stroke="rgb(189, 189, 189)" stroke-width="1px" opacity="0.25"></line><line x1="0" y1="0" x2="278.4679985046387" y2="0" fill="rgb(0, 0, 0)" stroke="rgb(189, 189, 189)" stroke-width="1px" opacity="0.25"></line></g></g></g><g><g><line x1="0" y1="812.1391958236692" x2="278.4679985046387" y2="812.1391958236692" fill="rgb(0, 0, 0)" stroke="rgb(153, 153, 153)" stroke-width="1.5px"></line></g></g><g><g><line x1="30.94088872273763" y1="0" x2="30.94088872273763" y2="176.55199909210205" fill="rgb(0, 0, 0)" stroke="rgb(153, 153, 153)" stroke-width="1.5px"></line></g></g><g><g><g><g><g><path style="fill: none;" stroke="rgb(255, 112, 67)" stroke-width="2px" d="M43.16253976821899,195.69865150418008L46.25662864049276,167.1784649614928L49.35071751276652,139.41962939129405L52.44480638504028,112.72813020126058L55.538895257314046,126.17327355210011L58.63298412958781,93.48804001354654L61.72707300186158,88.16426446033556L64.82116187413534,79.70761896366601L67.9152507464091,73.6941472738934L71.00933961868286,65.23704799341667L74.10342849095663,48.54450293559342L77.19751736323038,46.11305215256369L80.29160623550415,28.436386763931935L83.38569510777792,31.600874481315135L86.47978398005166,45.829849886792324L89.57387285232544,38.53608467070812L92.66796172459921,47.25938526033221L95.76205059687297,76.3079341939425L98.85613946914673,66.11249506240564L101.95022834142048,52.629546217992655L105.04431721369426,51.01420054148794L108.13840608596801,41.994299219099105L111.23249495824177,46.744256394786696L114.32658383051555,28.820077745627355L117.42067270278932,23.245036903376125L120.51476157506306,40.308231760575886L123.60885044733683,38.58270658492322L126.7029393196106,43.59947967260135L129.79702819188435,32.08454121121132L132.89111706415812,24.781480398400905L135.9852059364319,48.689631250118154L139.07929480870567,61.23297113968315L142.1733836809794,34.002703281774195L145.26747255325316,39.8381024699939L148.36156142552693,61.86154136857561L151.4556502978007,50.47317875891994L154.54973917007447,45.44171136387049L157.64382804234822,35.38550854347671L160.737916914622,23.327860109502215L163.83200578689576,23.580970451722564L166.9260946591695,26.106750140275466L170.02018353144328,56.46579399111973L173.11427240371705,37.41164363327719L176.2083612759908,35.83137949856871L179.30245014826454,42.84945783154829L182.39653902053834,39.0096289043562L185.49062789281209,44.24973070253246L188.58471676508583,38.72381852025116L191.67880563735963,36.56238467313817L194.77289450963337,32.76025881188089L197.86698338190715,30.6854087243673L200.96107225418092,37.76328658625826L204.05516112645466,34.1845153606498L207.14924999872844,49.85571551774553L210.2433388710022,59.06139698348198L213.33742774327595,38.40602889984016L216.43151661554973,39.8622116897569L219.5256054878235,54.557206694930876L222.61969436009724,48.764742806098326L225.71378323237101,42.75583851765638L228.80787210464476,47.45453130418687L231.90196097691853,29.781098211017895L234.9960498491923,30.042639025369112L238.09013872146605,26.99056151346068L241.18422759373985,26.34156782406576L244.2783164660136,19.477846805083782L247.37240533828734,24.47996446951767L250.46649421056114,24.412971938509493L253.56058308283488,32.95828952120129L256.65467195510865,30.485202205389378L259.7487608273824,39.81065072848701L262.84284969965614,27.925234449259104" fill="none"></path></g></g></g></g><g opacity="0.2"><g><g><g><path style="fill: none;" stroke="rgb(255, 112, 67)" stroke-width="2px" d="M36.97436202367147,286.59300719388875L40.06845089594523,171.39223258735882L43.16253976821899,147.60616375520812L46.25662864049276,129.94250941136048L49.35071751276652,101.01916661690386L52.44480638504028,74.55885929552583L55.538895257314046,145.77642163099995L58.63298412958781,45.283669323942526L61.72707300186158,80.25907821791525L64.82116187413534,67.09935187090711L67.9152507464091,64.70666478661546L71.00933961868286,52.57901296919304L74.10342849095663,23.53838778236087L77.19751736323038,42.4687340571413L80.29160623550415,1.9338556349490557L83.38569510777792,36.34626695224231L86.47978398005166,67.16970025969407L89.57387285232544,27.596547978300578L92.66796172459921,60.34353880054173L95.76205059687297,119.87916450289732L98.85613946914673,50.819671850367776L101.95022834142048,32.40538914867816L105.04431721369426,48.591201162040285L108.13840608596801,28.464511345114033L111.23249495824177,53.86917190192012L114.32658383051555,1.9338556349490557L117.42067270278932,14.882484199000375L120.51476157506306,65.90300832876129L123.60885044733683,35.99441977511564L126.7029393196106,51.124637640501795L129.79702819188435,14.812135810213421L132.89111706415812,13.826890051024408L135.9852059364319,84.55185581520202L139.07929480870567,80.04798043495843L142.1733836809794,-6.842697802927867L145.26747255325316,48.591201162040285L148.36156142552693,94.89669951200487L151.4556502978007,33.390634907867174L154.54973917007447,37.89451028811076L157.64382804234822,20.301204333050066L160.737916914622,5.241387473046815L163.83200578689576,23.96063596487045L166.9260946591695,29.895419672010956L170.02018353144328,102.00435975949692L173.11427240371705,8.830418099484293L176.2083612759908,33.46098329665413L179.30245014826454,53.37657533062359L182.39653902053834,33.249885513697315L185.49062789281209,52.10988339969081L188.58471676508583,30.43495024689609L191.67880563735963,33.32023390248427L194.77289450963337,27.057070020011395L197.86698338190715,27.573133593102227L200.96107225418092,48.38010337908347L204.05516112645466,28.816358522240705L207.14924999872844,73.36251575338001L210.2433388710022,72.86991918208348L213.33742774327595,7.422976774381653L216.43151661554973,42.04648587463172L219.5256054878235,76.59969920269081L222.61969436009724,40.076046972849646L225.71378323237101,33.742482084993846L228.80787210464476,54.50257048398246L231.90196097691853,3.2709485712647406L234.9960498491923,30.43495024689609L238.09013872146605,22.41244524559795L241.18422759373985,25.368077289973087L244.2783164660136,9.182265276610964L247.37240533828734,31.983140966168587L250.46649421056114,24.31248314199712L253.56058308283488,45.77626589523906L256.65467195510865,26.775571231671677L259.7487608273824,53.798823513133165L262.84284969965614,10.097110030417072" fill="none"></path></g></g></g></g></g></g><g transform="translate(51, 176)" clip-path="url(#clip_1)"><clipPath id="clip_1"><rect width="278" height="23"></rect></clipPath><g><g><line x1="0" y1="0" x2="0" y2="5" style="visibility: inherit;" fill="rgb(0, 0, 0)" stroke="rgb(204, 204, 204)" stroke-width="1px"></line><line x1="30.94088872273763" y1="0" x2="30.94088872273763" y2="5" style="visibility: inherit;" fill="rgb(0, 0, 0)" stroke="rgb(204, 204, 204)" stroke-width="1px"></line><line x1="61.88177744547526" y1="0" x2="61.88177744547526" y2="5" style="visibility: inherit;" fill="rgb(0, 0, 0)" stroke="rgb(204, 204, 204)" stroke-width="1px"></line><line x1="92.82266616821289" y1="0" x2="92.82266616821289" y2="5" style="visibility: inherit;" fill="rgb(0, 0, 0)" stroke="rgb(204, 204, 204)" stroke-width="1px"></line><line x1="123.76355489095052" y1="0" x2="123.76355489095052" y2="5" style="visibility: inherit;" fill="rgb(0, 0, 0)" stroke="rgb(204, 204, 204)" stroke-width="1px"></line><line x1="154.70444361368817" y1="0" x2="154.70444361368817" y2="5" style="visibility: inherit;" fill="rgb(0, 0, 0)" stroke="rgb(204, 204, 204)" stroke-width="1px"></line><line x1="185.64533233642578" y1="0" x2="185.64533233642578" y2="5" style="visibility: inherit;" fill="rgb(0, 0, 0)" stroke="rgb(204, 204, 204)" stroke-width="1px"></line><line x1="216.58622105916342" y1="0" x2="216.58622105916342" y2="5" style="visibility: inherit;" fill="rgb(0, 0, 0)" stroke="rgb(204, 204, 204)" stroke-width="1px"></line><line x1="247.52710978190103" y1="0" x2="247.52710978190103" y2="5" style="visibility: inherit;" fill="rgb(0, 0, 0)" stroke="rgb(204, 204, 204)" stroke-width="1px"></line><line x1="278.4679985046387" y1="0" x2="278.4679985046387" y2="5" style="visibility: inherit;" fill="rgb(0, 0, 0)" stroke="rgb(204, 204, 204)" stroke-width="1px"></line></g><g transform="translate(0, 8)"><text style="text-anchor: middle; visibility: hidden; font-family: Roboto, sans-serif; font-size: 12px; font-weight: 200;" x="0" y="0" dx="0em" dy="0.95em" fill="rgb(255, 255, 255)" stroke="none" stroke-width="1px">-200</text><text style="text-anchor: middle; visibility: inherit; font-family: Roboto, sans-serif; font-size: 12px; font-weight: 200;" x="30.94088872273763" y="0" dx="0em" dy="0.95em" fill="rgb(255, 255, 255)" stroke="none" stroke-width="1px">0</text><text style="text-anchor: middle; visibility: inherit; font-family: Roboto, sans-serif; font-size: 12px; font-weight: 200;" x="61.88177744547526" y="0" dx="0em" dy="0.95em" fill="rgb(255, 255, 255)" stroke="none" stroke-width="1px">200</text><text style="text-anchor: middle; visibility: inherit; font-family: Roboto, sans-serif; font-size: 12px; font-weight: 200;" x="92.82266616821289" y="0" dx="0em" dy="0.95em" fill="rgb(255, 255, 255)" stroke="none" stroke-width="1px">400</text><text style="text-anchor: middle; visibility: inherit; font-family: Roboto, sans-serif; font-size: 12px; font-weight: 200;" x="123.76355489095052" y="0" dx="0em" dy="0.95em" fill="rgb(255, 255, 255)" stroke="none" stroke-width="1px">600</text><text style="text-anchor: middle; visibility: inherit; font-family: Roboto, sans-serif; font-size: 12px; font-weight: 200;" x="154.70444361368817" y="0" dx="0em" dy="0.95em" fill="rgb(255, 255, 255)" stroke="none" stroke-width="1px">800</text><text style="text-anchor: middle; visibility: inherit; font-family: Roboto, sans-serif; font-size: 12px; font-weight: 200;" x="185.64533233642578" y="0" dx="0em" dy="0.95em" fill="rgb(255, 255, 255)" stroke="none" stroke-width="1px">1k</text><text style="text-anchor: middle; visibility: inherit; font-family: Roboto, sans-serif; font-size: 12px; font-weight: 200;" x="216.58622105916342" y="0" dx="0em" dy="0.95em" fill="rgb(255, 255, 255)" stroke="none" stroke-width="1px">1.2k</text><text style="text-anchor: middle; visibility: inherit; font-family: Roboto, sans-serif; font-size: 12px; font-weight: 200;" x="247.52710978190103" y="0" dx="0em" dy="0.95em" fill="rgb(255, 255, 255)" stroke="none" stroke-width="1px">1.4k</text><text style="text-anchor: middle; visibility: hidden; font-family: Roboto, sans-serif; font-size: 12px; font-weight: 200;" x="278.4679985046387" y="0" dx="0em" dy="0.95em" fill="rgb(255, 255, 255)" stroke="none" stroke-width="1px">1.6k</text></g><line x1="0" y1="0" x2="278.4679985046387" y2="0" fill="rgb(0, 0, 0)" stroke="rgb(204, 204, 204)" stroke-width="1px"></line></g></g></g></g></svg>