<svg viewBox="0 0 330 200" xmlns="http://www.w3.org/2000/svg"><g><g><g><g><g><line x1="41.149001121520996" y1="176.55199909210205" x2="36.149001121520996" y2="176.55199909210205" style="visibility: inherit;" fill="rgb(0, 0, 0)" stroke="rgb(204, 204, 204)" stroke-width="1px"></line><line x1="41.149001121520996" y1="156.9351103040907" x2="36.149001121520996" y2="156.9351103040907" style="visibility: inherit;" fill="rgb(0, 0, 0)" stroke="rgb(204, 204, 204)" stroke-width="1px"></line><line x1="41.149001121520996" y1="137.31822151607935" x2="36.149001121520996" y2="137.31822151607935" style="visibility: inherit;" fill="rgb(0, 0, 0)" stroke="rgb(204, 204, 204)" stroke-width="1px"></line><line x1="41.149001121520996" y1="117.70133272806805" x2="36.149001121520996" y2="117.70133272806805" style="visibility: inherit;" fill="rgb(0, 0, 0)" stroke="rgb(204, 204, 204)" stroke-width="1px"></line><line x1="41.149001121520996" y1="98.08444394005667" x2="36.149001121520996" y2="98.08444394005667" style="visibility: inherit;" fill="rgb(0, 0, 0)" stroke="rgb(204, 204, 204)" stroke-width="1px"></line><line x1="41.149001121520996" y1="78.46755515204538" x2="36.149001121520996" y2="78.46755515204538" style="visibility: inherit;" fill="rgb(0, 0, 0)" stroke="rgb(204, 204, 204)" stroke-width="1px"></line><line x1="41.149001121520996" y1="58.850666364034026" x2="36.149001121520996" y2="58.850666364034026" style="visibility: inherit;" fill="rgb(0, 0, 0)" stroke="rgb(204, 204, 204)" stroke-width="1px"></line><line x1="41.149001121520996" y1="39.23377757602272" x2="36.149001121520996" y2="39.23377757602272" style="visibility: inherit;" fill="rgb(0, 0, 0)" stroke="rgb(204, 204, 204)" stroke-width="1px"></line><line x1="41.149001121520996" y1="19.616888788011348" x2="36.149001121520996" y2="19.616888788011348" style="visibility: inherit;" fill="rgb(0, 0, 0)" stroke="rgb(204, 204, 204)" stroke-width="1px"></line><line x1="41.149001121520996" y1="0" x2="36.149001121520996" y2="0" style="visibility: inherit;" fill="rgb(0, 0, 0)" stroke="rgb(204, 204, 204)" stroke-width="1px"></line></g><g transform="translate(31.149001121520996, 0)"><text style="text-anchor: end; visibility: hidden; font-family: Roboto, sans-serif; font-size: 12px; font-weight: 200;" x="0" y="176.55199909210205" dx="0em" dy="0.3em" fill="rgb(255, 255, 255)" stroke="none" stroke-width="1px">1.4</text><text style="text-anchor: end; visibility: inherit; font-family: Roboto, sans-serif; font-size: 12px; font-weight: 200;" x="0" y="156.9351103040907" dx="0em" dy="0.3em" fill="rgb(255, 255, 255)" stroke="none" stroke-width="1px">1.6</text><text style="text-anchor: end; visibility: hidden; font-family: Roboto, sans-serif; font-size: 12px; font-weight: 200;" x="0" y="137.31822151607935" dx="0em" dy="0.3em" fill="rgb(255, 255, 255)" stroke="none" stroke-width="1px">1.8</text><text style="text-anchor: end; visibility: inherit; font-family: Roboto, sans-serif; font-size: 12px; font-weight: 200;" x="0" y="117.70133272806805" dx="0em" dy="0.3em" fill="rgb(255, 255, 255)" stroke="none" stroke-width="1px">2</text><text style="text-anchor: end; visibility: hidden; font-family: Roboto, sans-serif; font-size: 12px; font-weight: 200;" x="0" y="98.08444394005667" dx="0em" dy="0.3em" fill="rgb(255, 255, 255)" stroke="none" stroke-width="1px">2.2</text><text style="text-anchor: end; visibility: inherit; font-family: Roboto, sans-serif; font-size: 12px; font-weight: 200;" x="0" y="78.46755515204538" dx="0em" dy="0.3em" fill="rgb(255, 255, 255)" stroke="none" stroke-width="1px">2.4</text><text style="text-anchor: end; visibility: hidden; font-family: Roboto, sans-serif; font-size: 12px; font-weight: 200;" x="0" y="58.850666364034026" dx="0em" dy="0.3em" fill="rgb(255, 255, 255)" stroke="none" stroke-width="1px">2.6</text><text style="text-anchor: end; visibility: inherit; font-family: Roboto, sans-serif; font-size: 12px; font-weight: 200;" x="0" y="39.23377757602272" dx="0em" dy="0.3em" fill="rgb(255, 255, 255)" stroke="none" stroke-width="1px">2.8</text><text style="text-anchor: end; visibility: hidden; font-family: Roboto, sans-serif; font-size: 12px; font-weight: 200;" x="0" y="19.616888788011348" dx="0em" dy="0.3em" fill="rgb(255, 255, 255)" stroke="none" stroke-width="1px">3</text><text style="text-anchor: end; visibility: hidden; font-family: Roboto, sans-serif; font-size: 12px; font-weight: 200;" x="0" y="0" dx="0em" dy="0.3em" fill="rgb(255, 255, 255)" stroke="none" stroke-width="1px">3.2</text></g><line x1="41.149001121520996" y1="0" x2="41.149001121520996" y2="176.55199909210205" fill="rgb(0, 0, 0)" stroke="rgb(204, 204, 204)" stroke-width="1px"></line></g></g><g transform="translate(41, 0)" clip-path="url(#clip_0)"><clipPath id="clip_0"><rect width="288" height="176"></rect></clipPath><g><g><g><line x1="0" y1="0" x2="0" y2="176.55199909210205" fill="rgb(0, 0, 0)" stroke="rgb(189, 189, 189)" stroke-width="1px" opacity="0.25"></line><line x1="32.09455543094211" y1="0" x2="32.09455543094211" y2="176.55199909210205" fill="rgb(0, 0, 0)" stroke="rgb(189, 189, 189)" stroke-width="1px" opacity="0.25"></line><line x1="64.18911086188422" y1="0" x2="64.18911086188422" y2="176.55199909210205" fill="rgb(0, 0, 0)" stroke="rgb(189, 189, 189)" stroke-width="1px" opacity="0.25"></line><line x1="96.28366629282633" y1="0" x2="96.28366629282633" y2="176.55199909210205" fill="rgb(0, 0, 0)" stroke="rgb(189, 189, 189)" stroke-width="1px" opacity="0.25"></line><line x1="128.37822172376843" y1="0" x2="128.37822172376843" y2="176.55199909210205" fill="rgb(0, 0, 0)" stroke="rgb(189, 189, 189)" stroke-width="1px" opacity="0.25"></line><line x1="160.47277715471057" y1="0" x2="160.47277715471057" y2="176.55199909210205" fill="rgb(0, 0, 0)" stroke="rgb(189, 189, 189)" stroke-width="1px" opacity="0.25"></line><line x1="192.56733258565265" y1="0" x2="192.56733258565265" y2="176.55199909210205" fill="rgb(0, 0, 0)" stroke="rgb(189, 189, 189)" stroke-width="1px" opacity="0.25"></line><line x1="224.6618880165948" y1="0" x2="224.6618880165948" y2="176.55199909210205" fill="rgb(0, 0, 0)" stroke="rgb(189, 189, 189)" stroke-width="1px" opacity="0.25"></line><line x1="256.75644344753687" y1="0" x2="256.75644344753687" y2="176.55199909210205" fill="rgb(0, 0, 0)" stroke="rgb(189, 189, 189)" stroke-width="1px" opacity="0.25"></line><line x1="288.850998878479" y1="0" x2="288.850998878479" y2="176.55199909210205" fill="rgb(0, 0, 0)" stroke="rgb(189, 189, 189)" stroke-width="1px" opacity="0.25"></line></g><g><line x1="0" y1="176.55199909210205" x2="288.850998878479" y2="176.55199909210205" fill="rgb(0, 0, 0)" stroke="rgb(189, 189, 189)" stroke-width="1px" opacity="0.25"></line><line x1="0" y1="156.9351103040907" x2="288.850998878479" y2="156.9351103040907" fill="rgb(0, 0, 0)" stroke="rgb(189, 189, 189)" stroke-width="1px" opacity="0.25"></line><line x1="0" y1="137.31822151607935" x2="288.850998878479" y2="137.31822151607935" fill="rgb(0, 0, 0)" stroke="rgb(189, 189, 189)" stroke-width="1px" opacity="0.25"></line><line x1="0" y1="117.70133272806805" x2="288.850998878479" y2="117.70133272806805" fill="rgb(0, 0, 0)" stroke="rgb(189, 189, 189)" stroke-width="1px" opacity="0.25"></line><line x1="0" y1="98.08444394005667" x2="288.850998878479" y2="98.08444394005667" fill="rgb(0, 0, 0)" stroke="rgb(189, 189, 189)" stroke-width="1px" opacity="0.25"></line><line x1="0" y1="78.46755515204538" x2="288.850998878479" y2="78.46755515204538" fill="rgb(0, 0, 0)" stroke="rgb(189, 189, 189)" stroke-width="1px" opacity="0.25"></line><line x1="0" y1="58.850666364034026" x2="288.850998878479" y2="58.850666364034026" fill="rgb(0, 0, 0)" stroke="rgb(189, 189, 189)" stroke-width="1px" opacity="0.25"></line><line x1="0" y1="39.23377757602272" x2="288.850998878479" y2="39.23377757602272" fill="rgb(0, 0, 0)" stroke="rgb(189, 189, 189)" stroke-width="1px" opacity="0.25"></line><line x1="0" y1="19.616888788011348" x2="288.850998878479" y2="19.616888788011348" fill="rgb(0, 0, 0)" stroke="rgb(189, 189, 189)" stroke-width="1px" opacity="0.25"></line><line x1="0" y1="0" x2="288.850998878479" y2="0" fill="rgb(0, 0, 0)" stroke="rgb(189, 189, 189)" stroke-width="1px" opacity="0.25"></line></g></g></g><g><g><line x1="0" y1="313.8702206081814" x2="288.850998878479" y2="313.8702206081814" fill="rgb(0, 0, 0)" stroke="rgb(153, 153, 153)" stroke-width="1.5px"></line></g></g><g><g><line x1="32.09455543094211" y1="0" x2="32.09455543094211" y2="176.55199909210205" fill="rgb(0, 0, 0)" stroke="rgb(153, 153, 153)" stroke-width="1.5px"></line></g></g><g><g><g><g><g><path style="fill: none;" stroke="rgb(255, 112, 67)" stroke-width="2px" d="M44.771904826164246,-11.174554402875406L47.981360369258454,15.003957116479626L51.19081591235267,36.54752593299226L54.40027145544688,53.91573039494557L57.60972699854109,56.72713233455098L60.8191825416353,64.82462769374898L64.02863808472952,63.05431045210296L67.23809362782373,71.94157027624333L70.44754917091794,80.40649801023052L73.65700471401215,93.85247122602836L76.86646025710637,107.75538360719686L80.07591580020056,109.28628196017043L83.28537134329478,111.61885945992024L86.49482688638899,119.89074454222337L89.7042824294832,125.98792005408572L92.91373797257741,121.29117018719965L96.12319351567163,128.84291698409422L99.33264905876584,129.83739379209368L102.54210460186005,128.4723484091252L105.75156014495425,132.4849868069429L108.96101568804848,142.78379016551878L112.17047123114267,129.3957946593011L115.37992677423689,135.24875215489448L118.5893823173311,154.05925317280182L121.79883786042532,148.66513021892118L125.00829340351952,135.6326701731131L128.21774894661374,151.30635348579779L131.42720448970795,151.39718868548837L134.63666003280215,159.02179206309032L137.84611557589636,163.83426380057142L141.05557111899057,153.198612333637L144.2650266620848,134.55230227545903L147.474482205179,154.42194192197528L150.6839377482732,144.5951910276576L153.89339329136743,138.43488361453163L157.10284883446164,141.55309558477524L160.31230437755585,141.83092786883057L163.52175992065006,151.44253539437537L166.73121546374426,163.7691664933877L169.9406710068385,169.37972607544674L173.15012654993268,166.4097608717024L176.3595820930269,141.81982035626854L179.56903763612112,157.6159356187147L182.77849317921533,162.31835637836633L185.9879487223095,165.08547109077566L189.19740426540375,163.33496379546202L192.40685980849796,154.52276207815973L195.61631535159216,157.01281000565322L198.8257708946864,137.90152500322813L202.03522643778058,149.34123236873833L205.24468198087482,150.95550602550622L208.45413752396902,154.5661856923377L211.6635930670632,164.73129825350094L214.87304861015744,152.17873663971224L218.08250415325165,153.49789573930286L221.29195969634586,155.7871307876162L224.5014152394401,160.81818469655894L227.71087078253427,157.79935029389816L230.92032632562848,166.0751749236197L234.12978186872272,159.26480893678763L237.33923741181692,145.35281187471864L240.5486929549111,158.02007404644857L243.75814849800534,165.6963068193637L246.96760404109955,163.42382265615313L250.17705958419378,159.49702933064557L253.38651512728796,162.47741268328045L256.5959706703822,169.30743975141164L259.8054262134764,163.9909532214301L263.0148817565706,160.40682035032768L266.2243372996648,169.78722319861225L269.43379284275903,166.85521712640437L272.6432483858532,172.92627030460616" fill="none"></path></g></g></g></g><g opacity="0.2"><g><g><g><path style="fill: none;" stroke="rgb(255, 112, 67)" stroke-width="2px" d="M41.56244928307004,-1.7256653281587018L44.771904826164246,46.289925006820674L47.981360369258454,49.18262175614956L51.19081591235267,66.35003729100319L54.40027145544688,78.75254066681012L57.60972699854109,60.82618335195425L60.8191825416353,76.76686049106749L64.02863808472952,60.42559566811132L67.23809362782373,85.19185321995127L70.44754917091794,93.05782384829416L73.65700471401215,113.97752761424539L76.86646025710637,128.5825149262683L80.07591580020056,111.58082997608454L83.28537134329478,115.11608059517133L86.49482688638899,132.29507178113423L89.7042824294832,135.13213524967722L92.91373797257741,114.24676088944L96.12319351567163,140.1698469198663L99.33264905876584,131.3290544646212L102.54210460186005,126.42482525207225L105.75156014495425,138.50386518112407L108.96101568804848,158.23187320423852L112.17047123114267,109.31389655611662L115.37992677423689,144.02816343809437L118.5893823173311,182.27495656874623L121.79883786042532,140.57395406934955L125.00829340351952,116.08399210913859L128.21774894661374,174.8168697922182L131.42720448970795,151.53344145490232L134.63666003280215,170.45869561245235L137.84611557589636,171.05297083228064L141.05557111899057,137.24513589504525L144.2650266620848,106.58283798955028L147.474482205179,184.22640087938987L150.6839377482732,129.855064838217L153.89339329136743,129.19442255202875L157.10284883446164,146.23041352277275L160.31230437755585,142.24767629398508L163.52175992065006,165.85994666342003L166.73121546374426,182.25911312707643L169.9406710068385,177.79556544448536L173.15012654993268,161.95481306737219L176.3595820930269,104.93490958950781L179.56903763612112,181.31010850992106L182.77849317921533,169.37198751740382L185.9879487223095,169.2361431592343L189.19740426540375,160.7092028525506L192.40685980849796,141.30445950238433L195.61631535159216,160.74788189686325L198.8257708946864,109.23459749972952L202.03522643778058,166.5007934169537L205.24468198087482,153.37691651065379L208.45413752396902,159.98220519257922L211.6635930670632,179.97896709523627L214.87304861015744,133.34989421903623L218.08250415325165,155.47663438868832L221.29195969634586,159.22098336008574L224.5014152394401,168.36476555997245L227.71087078253427,153.27109868990718L230.92032632562848,178.48891186820163L234.12978186872272,149.04925995653971L237.33923741181692,124.4848162816154L240.5486929549111,177.02096730404332L243.75814849800534,177.21065597873638L246.96760404109955,160.01509641133725L250.17705958419378,153.6068393423843L253.38651512728796,166.94798771223267L256.5959706703822,179.55248035360842L259.8054262134764,156.01622342645786L263.0148817565706,155.03062104367405L266.2243372996648,183.85782747103912L269.43379284275903,162.45720801809256L272.6432483858532,182.0328500719088" fill="none"></path></g></g></g></g></g></g><g transform="translate(41, 176)" clip-path="url(#clip_1)"><clipPath id="clip_1"><rect width="288" height="23"></rect></clipPath><g><g><line x1="0" y1="0" x2="0" y2="5" style="visibility: inherit;" fill="rgb(0, 0, 0)" stroke="rgb(204, 204, 204)" stroke-width="1px"></line><line x1="32.09455543094211" y1="0" x2="32.09455543094211" y2="5" style="visibility: inherit;" fill="rgb(0, 0, 0)" stroke="rgb(204, 204, 204)" stroke-width="1px"></line><line x1="64.18911086188422" y1="0" x2="64.18911086188422" y2="5" style="visibility: inherit;" fill="rgb(0, 0, 0)" stroke="rgb(204, 204, 204)" stroke-width="1px"></line><line x1="96.28366629282633" y1="0" x2="96.28366629282633" y2="5" style="visibility: inherit;" fill="rgb(0, 0, 0)" stroke="rgb(204, 204, 204)" stroke-width="1px"></line><line x1="128.37822172376843" y1="0" x2="128.37822172376843" y2="5" style="visibility: inherit;" fill="rgb(0, 0, 0)" stroke="rgb(204, 204, 204)" stroke-width="1px"></line><line x1="160.47277715471057" y1="0" x2="160.47277715471057" y2="5" style="visibility: inherit;" fill="rgb(0, 0, 0)" stroke="rgb(204, 204, 204)" stroke-width="1px"></line><line x1="192.56733258565265" y1="0" x2="192.56733258565265" y2="5" style="visibility: inherit;" fill="rgb(0, 0, 0)" stroke="rgb(204, 204, 204)" stroke-width="1px"></line><line x1="224.6618880165948" y1="0" x2="224.6618880165948" y2="5" style="visibility: inherit;" fill="rgb(0, 0, 0)" stroke="rgb(204, 204, 204)" stroke-width="1px"></line><line x1="256.75644344753687" y1="0" x2="256.75644344753687" y2="5" style="visibility: inherit;" fill="rgb(0, 0, 0)" stroke="rgb(204, 204, 204)" stroke-width="1px"></line><line x1="288.850998878479" y1="0" x2="288.850998878479" y2="5" style="visibility: inherit;" fill="rgb(0, 0, 0)" stroke="rgb(204, 204, 204)" stroke-width="1px"></line></g><g transform="translate(0, 8)"><text style="text-anchor: middle; visibility: hidden; font-family: Roboto, sans-serif; font-size: 12px; font-weight: 200;" x="0" y="0" dx="0em" dy="0.95em" fill="rgb(255, 255, 255)" stroke="none" stroke-width="1px">-200</text><text style="text-anchor: middle; visibility: inherit; font-family: Roboto, sans-serif; font-size: 12px; font-weight: 200;" x="32.09455543094211" y="0" dx="0em" dy="0.95em" fill="rgb(255, 255, 255)" stroke="none" stroke-width="1px">0</text><text style="text-anchor: middle; visibility: inherit; font-family: Roboto, sans-serif; font-size: 12px; font-weight: 200;" x="64.18911086188422" y="0" dx="0em" dy="0.95em" fill="rgb(255, 255, 255)" stroke="none" stroke-width="1px">200</text><text style="text-anchor: middle; visibility: inherit; font-family: Roboto, sans-serif; font-size: 12px; font-weight: 200;" x="96.28366629282633" y="0" dx="0em" dy="0.95em" fill="rgb(255, 255, 255)" stroke="none" stroke-width="1px">400</text><text style="text-anchor: middle; visibility: inherit; font-family: Roboto, sans-serif; font-size: 12px; font-weight: 200;" x="128.37822172376843" y="0" dx="0em" dy="0.95em" fill="rgb(255, 255, 255)" stroke="none" stroke-width="1px">600</text><text style="text-anchor: middle; visibility: inherit; font-family: Roboto, sans-serif; font-size: 12px; font-weight: 200;" x="160.47277715471057" y="0" dx="0em" dy="0.95em" fill="rgb(255, 255, 255)" stroke="none" stroke-width="1px">800</text><text style="text-anchor: middle; visibility: inherit; font-family: Roboto, sans-serif; font-size: 12px; font-weight: 200;" x="192.56733258565265" y="0" dx="0em" dy="0.95em" fill="rgb(255, 255, 255)" stroke="none" stroke-width="1px">1k</text><text style="text-anchor: middle; visibility: inherit; font-family: Roboto, sans-serif; font-size: 12px; font-weight: 200;" x="224.6618880165948" y="0" dx="0em" dy="0.95em" fill="rgb(255, 255, 255)" stroke="none" stroke-width="1px">1.2k</text><text style="text-anchor: middle; visibility: inherit; font-family: Roboto, sans-serif; font-size: 12px; font-weight: 200;" x="256.75644344753687" y="0" dx="0em" dy="0.95em" fill="rgb(255, 255, 255)" stroke="none" stroke-width="1px">1.4k</text><text style="text-anchor: middle; visibility: hidden; font-family: Roboto, sans-serif; font-size: 12px; font-weight: 200;" x="288.850998878479" y="0" dx="0em" dy="0.95em" fill="rgb(255, 255, 255)" stroke="none" stroke-width="1px">1.6k</text></g><line x1="0" y1="0" x2="288.850998878479" y2="0" fill="rgb(0, 0, 0)" stroke="rgb(204, 204, 204)" stroke-width="1px"></line></g></g></g></g></svg>